  0
SECTION
  2
HEADER
  9
$ANGBASE
  50
0.0
  9
$ANGDIR
  70
1
  9
$MEASUREMENT
  70
1
  0
ENDSEC
  0
SECTION
  2
TABLES
  0
TABLE
  2
LTYPE
  70
4
  0
LTYPE
  5
40F
  2
CONTINUOUS
  70
0
  3
Solid line
  72
65
  73
0
  40
0.0
  0
LTYPE
  5
410
  2
DASHDOT
 70
0
  3
Dash Dot ____ _ ____ _
 72
65
 73
4
 40
2.0
 49
1.25
 49
-0.25
 49
0.25
 49
-0.25
  0
LTYPE
  5
411
  2
DASHED
 70
0
  3
Dashed __ __ __ __ __
 72
65
 73
2
 40
0.75
 49
0.5
 49
-0.25
  0
LTYPE
  5
43B
  2
DOTTED
 70
0
  3
Dotted .  .  .  .
 72
65
 73
2
 40
0.2
 49
0.0
 49
-0.2
  0
ENDTAB
  0
TABLE
  2
STYLE
  70
4
  0
STYLE
  2
KICAD
  70
0
  40
0
  41
1
  42
1
  50
0
  71
0
  3
isocp.shx
  0
STYLE
  2
KICADB
  70
0
  40
0
  41
1
  42
1
  50
0
  71
0
  3
isocp.shx
  0
STYLE
  2
KICADI
  70
0
  40
0
  41
1
  42
1
  50
15
  71
0
  3
isocp.shx
  0
STYLE
  2
KICADBI
  70
0
  40
0
  41
1
  42
1
  50
15
  71
0
  3
isocp.shx
  0
ENDTAB
  0
TABLE
  2
LAYER
  70
1
  0
LAYER
  2
BLACK
  70
0
  62
7
  6
CONTINUOUS
  0
ENDTAB
  0
ENDSEC
  0
SECTION
  2
ENTITIES
0
LINE
8
BLACK
6
CONTINUOUS
10
86.39
20
-78.14
11
86.39
21
-38.14
0
LINE
8
BLACK
6
CONTINUOUS
10
137.7
20
-78.14
11
86.39
21
-78.14
0
LINE
8
BLACK
6
CONTINUOUS
10
86.39
20
-38.14
11
137.7
21
-38.14
0
LINE
8
BLACK
6
CONTINUOUS
10
137.7
20
-38.14
11
137.7
21
-78.14
0
LINE
8
BLACK
6
CONTINUOUS
10
88.9478
20
-81.3048
11
88.9478
21
-79.3048
0
LINE
8
BLACK
6
CONTINUOUS
10
88.9478
20
-79.3048
11
89.424
21
-79.3048
0
LINE
8
BLACK
6
CONTINUOUS
10
89.424
20
-79.3048
11
89.7097
21
-79.4001
0
LINE
8
BLACK
6
CONTINUOUS
10
89.7097
20
-79.4001
11
89.9001
21
-79.5906
0
LINE
8
BLACK
6
CONTINUOUS
10
89.9001
20
-79.5906
11
89.9954
21
-79.781
0
LINE
8
BLACK
6
CONTINUOUS
10
89.9954
20
-79.781
11
90.0906
21
-80.162
0
LINE
8
BLACK
6
CONTINUOUS
10
90.0906
20
-80.162
11
90.0906
21
-80.4477
0
LINE
8
BLACK
6
CONTINUOUS
10
90.0906
20
-80.4477
11
89.9954
21
-80.8286
0
LINE
8
BLACK
6
CONTINUOUS
10
89.9954
20
-80.8286
11
89.9001
21
-81.0191
0
LINE
8
BLACK
6
CONTINUOUS
10
89.9001
20
-81.0191
11
89.7097
21
-81.2096
0
LINE
8
BLACK
6
CONTINUOUS
10
89.7097
20
-81.2096
11
89.424
21
-81.3048
0
LINE
8
BLACK
6
CONTINUOUS
10
89.424
20
-81.3048
11
88.9478
21
-81.3048
0
LINE
8
BLACK
6
CONTINUOUS
10
90.9478
20
-81.3048
11
90.9478
21
-79.9715
0
LINE
8
BLACK
6
CONTINUOUS
10
90.9478
20
-80.3525
11
91.043
21
-80.162
0
LINE
8
BLACK
6
CONTINUOUS
10
91.043
20
-80.162
11
91.1382
21
-80.0667
0
LINE
8
BLACK
6
CONTINUOUS
10
91.1382
20
-80.0667
11
91.3287
21
-79.9715
0
LINE
8
BLACK
6
CONTINUOUS
10
91.3287
20
-79.9715
11
91.5192
21
-79.9715
0
LINE
8
BLACK
6
CONTINUOUS
10
92.1859
20
-81.3048
11
92.1859
21
-79.9715
0
LINE
8
BLACK
6
CONTINUOUS
10
92.1859
20
-79.3048
11
92.0906
21
-79.4001
0
LINE
8
BLACK
6
CONTINUOUS
10
92.0906
20
-79.4001
11
92.1859
21
-79.4953
0
LINE
8
BLACK
6
CONTINUOUS
10
92.1859
20
-79.4953
11
92.2811
21
-79.4001
0
LINE
8
BLACK
6
CONTINUOUS
10
92.2811
20
-79.4001
11
92.1859
21
-79.3048
0
LINE
8
BLACK
6
CONTINUOUS
10
92.1859
20
-79.3048
11
92.1859
21
-79.4953
0
LINE
8
BLACK
6
CONTINUOUS
10
93.424
20
-81.3048
11
93.2335
21
-81.2096
0
LINE
8
BLACK
6
CONTINUOUS
10
93.2335
20
-81.2096
11
93.1382
21
-81.0191
0
LINE
8
BLACK
6
CONTINUOUS
10
93.1382
20
-81.0191
11
93.1382
21
-79.3048
0
LINE
8
BLACK
6
CONTINUOUS
10
94.4716
20
-81.3048
11
94.2811
21
-81.2096
0
LINE
8
BLACK
6
CONTINUOUS
10
94.2811
20
-81.2096
11
94.1859
21
-81.0191
0
LINE
8
BLACK
6
CONTINUOUS
10
94.1859
20
-81.0191
11
94.1859
21
-79.3048
0
LINE
8
BLACK
6
CONTINUOUS
10
96.7573
20
-81.3048
11
96.7573
21
-79.3048
0
LINE
8
BLACK
6
CONTINUOUS
10
96.7573
20
-79.3048
11
97.424
21
-80.7334
0
LINE
8
BLACK
6
CONTINUOUS
10
97.424
20
-80.7334
11
98.0906
21
-79.3048
0
LINE
8
BLACK
6
CONTINUOUS
10
98.0906
20
-79.3048
11
98.0906
21
-81.3048
0
LINE
8
BLACK
6
CONTINUOUS
10
99.9001
20
-81.3048
11
99.9001
21
-80.2572
0
LINE
8
BLACK
6
CONTINUOUS
10
99.9001
20
-80.2572
11
99.8049
21
-80.0667
0
LINE
8
BLACK
6
CONTINUOUS
10
99.8049
20
-80.0667
11
99.6144
21
-79.9715
0
LINE
8
BLACK
6
CONTINUOUS
10
99.6144
20
-79.9715
11
99.2335
21
-79.9715
0
LINE
8
BLACK
6
CONTINUOUS
10
99.2335
20
-79.9715
11
99.043
21
-80.0667
0
LINE
8
BLACK
6
CONTINUOUS
10
99.9001
20
-81.2096
11
99.7097
21
-81.3048
0
LINE
8
BLACK
6
CONTINUOUS
10
99.7097
20
-81.3048
11
99.2335
21
-81.3048
0
LINE
8
BLACK
6
CONTINUOUS
10
99.2335
20
-81.3048
11
99.043
21
-81.2096
0
LINE
8
BLACK
6
CONTINUOUS
10
99.043
20
-81.2096
11
98.9478
21
-81.0191
0
LINE
8
BLACK
6
CONTINUOUS
10
98.9478
20
-81.0191
11
98.9478
21
-80.8286
0
LINE
8
BLACK
6
CONTINUOUS
10
98.9478
20
-80.8286
11
99.043
21
-80.6382
0
LINE
8
BLACK
6
CONTINUOUS
10
99.043
20
-80.6382
11
99.2335
21
-80.5429
0
LINE
8
BLACK
6
CONTINUOUS
10
99.2335
20
-80.5429
11
99.7097
21
-80.5429
0
LINE
8
BLACK
6
CONTINUOUS
10
99.7097
20
-80.5429
11
99.9001
21
-80.4477
0
LINE
8
BLACK
6
CONTINUOUS
10
100.853
20
-79.9715
11
100.853
21
-81.9715
0
LINE
8
BLACK
6
CONTINUOUS
10
100.853
20
-80.0667
11
101.043
21
-79.9715
0
LINE
8
BLACK
6
CONTINUOUS
10
101.043
20
-79.9715
11
101.424
21
-79.9715
0
LINE
8
BLACK
6
CONTINUOUS
10
101.424
20
-79.9715
11
101.614
21
-80.0667
0
LINE
8
BLACK
6
CONTINUOUS
10
101.614
20
-80.0667
11
101.71
21
-80.162
0
LINE
8
BLACK
6
CONTINUOUS
10
101.71
20
-80.162
11
101.805
21
-80.3525
0
LINE
8
BLACK
6
CONTINUOUS
10
101.805
20
-80.3525
11
101.805
21
-80.9239
0
LINE
8
BLACK
6
CONTINUOUS
10
101.805
20
-80.9239
11
101.71
21
-81.1144
0
LINE
8
BLACK
6
CONTINUOUS
10
101.71
20
-81.1144
11
101.614
21
-81.2096
0
LINE
8
BLACK
6
CONTINUOUS
10
101.614
20
-81.2096
11
101.424
21
-81.3048
0
LINE
8
BLACK
6
CONTINUOUS
10
101.424
20
-81.3048
11
101.043
21
-81.3048
0
LINE
8
BLACK
6
CONTINUOUS
10
101.043
20
-81.3048
11
100.853
21
-81.2096
0
LINE
8
BLACK
6
CONTINUOUS
10
102.662
20
-81.1144
11
102.757
21
-81.2096
0
LINE
8
BLACK
6
CONTINUOUS
10
102.757
20
-81.2096
11
102.662
21
-81.3048
0
LINE
8
BLACK
6
CONTINUOUS
10
102.662
20
-81.3048
11
102.567
21
-81.2096
0
LINE
8
BLACK
6
CONTINUOUS
10
102.567
20
-81.2096
11
102.662
21
-81.1144
0
LINE
8
BLACK
6
CONTINUOUS
10
102.662
20
-81.1144
11
102.662
21
-81.3048
0
LINE
8
BLACK
6
CONTINUOUS
10
102.662
20
-80.0667
11
102.757
21
-80.162
0
LINE
8
BLACK
6
CONTINUOUS
10
102.757
20
-80.162
11
102.662
21
-80.2572
0
LINE
8
BLACK
6
CONTINUOUS
10
102.662
20
-80.2572
11
102.567
21
-80.162
0
LINE
8
BLACK
6
CONTINUOUS
10
102.567
20
-80.162
11
102.662
21
-80.0667
0
LINE
8
BLACK
6
CONTINUOUS
10
102.662
20
-80.0667
11
102.662
21
-80.2572
  0
ENDSEC
  0
EOF
