G04 #@! TF.GenerationSoftware,KiCad,Pcbnew,7.0.5*
G04 #@! TF.CreationDate,2023-12-31T10:49:34+01:00*
G04 #@! TF.ProjectId,usb-to-ps2-gameport-hat-arduino-pro-mini,7573622d-746f-42d7-9073-322d67616d65,1.3*
G04 #@! TF.SameCoordinates,Original*
G04 #@! TF.FileFunction,Copper,L1,Top*
G04 #@! TF.FilePolarity,Positive*
%FSLAX46Y46*%
G04 Gerber Fmt 4.6, Leading zero omitted, Abs format (unit mm)*
G04 Created by KiCad (PCBNEW 7.0.5) date 2023-12-31 10:49:34*
%MOMM*%
%LPD*%
G01*
G04 APERTURE LIST*
G04 Aperture macros list*
%AMRoundRect*
0 Rectangle with rounded corners*
0 $1 Rounding radius*
0 $2 $3 $4 $5 $6 $7 $8 $9 X,Y pos of 4 corners*
0 Add a 4 corners polygon primitive as box body*
4,1,4,$2,$3,$4,$5,$6,$7,$8,$9,$2,$3,0*
0 Add four circle primitives for the rounded corners*
1,1,$1+$1,$2,$3*
1,1,$1+$1,$4,$5*
1,1,$1+$1,$6,$7*
1,1,$1+$1,$8,$9*
0 Add four rect primitives between the rounded corners*
20,1,$1+$1,$2,$3,$4,$5,0*
20,1,$1+$1,$4,$5,$6,$7,0*
20,1,$1+$1,$6,$7,$8,$9,0*
20,1,$1+$1,$8,$9,$2,$3,0*%
%AMFreePoly0*
4,1,19,0.500000,-0.750000,0.000000,-0.750000,0.000000,-0.744911,-0.071157,-0.744911,-0.207708,-0.704816,-0.327430,-0.627875,-0.420627,-0.520320,-0.479746,-0.390866,-0.500000,-0.250000,-0.500000,0.250000,-0.479746,0.390866,-0.420627,0.520320,-0.327430,0.627875,-0.207708,0.704816,-0.071157,0.744911,0.000000,0.744911,0.000000,0.750000,0.500000,0.750000,0.500000,-0.750000,0.500000,-0.750000,
$1*%
%AMFreePoly1*
4,1,19,0.000000,0.744911,0.071157,0.744911,0.207708,0.704816,0.327430,0.627875,0.420627,0.520320,0.479746,0.390866,0.500000,0.250000,0.500000,-0.250000,0.479746,-0.390866,0.420627,-0.520320,0.327430,-0.627875,0.207708,-0.704816,0.071157,-0.744911,0.000000,-0.744911,0.000000,-0.750000,-0.500000,-0.750000,-0.500000,0.750000,0.000000,0.750000,0.000000,0.744911,0.000000,0.744911,
$1*%
G04 Aperture macros list end*
G04 #@! TA.AperFunction,SMDPad,CuDef*
%ADD10RoundRect,0.225000X0.225000X0.250000X-0.225000X0.250000X-0.225000X-0.250000X0.225000X-0.250000X0*%
G04 #@! TD*
G04 #@! TA.AperFunction,ComponentPad*
%ADD11C,1.700000*%
G04 #@! TD*
G04 #@! TA.AperFunction,ComponentPad*
%ADD12O,1.700000X1.700000*%
G04 #@! TD*
G04 #@! TA.AperFunction,ComponentPad*
%ADD13R,1.700000X1.700000*%
G04 #@! TD*
G04 #@! TA.AperFunction,SMDPad,CuDef*
%ADD14R,0.450000X1.475000*%
G04 #@! TD*
G04 #@! TA.AperFunction,SMDPad,CuDef*
%ADD15RoundRect,0.225000X-0.250000X0.225000X-0.250000X-0.225000X0.250000X-0.225000X0.250000X0.225000X0*%
G04 #@! TD*
G04 #@! TA.AperFunction,SMDPad,CuDef*
%ADD16RoundRect,0.250000X-0.550000X1.050000X-0.550000X-1.050000X0.550000X-1.050000X0.550000X1.050000X0*%
G04 #@! TD*
G04 #@! TA.AperFunction,SMDPad,CuDef*
%ADD17RoundRect,0.200000X0.200000X0.275000X-0.200000X0.275000X-0.200000X-0.275000X0.200000X-0.275000X0*%
G04 #@! TD*
G04 #@! TA.AperFunction,SMDPad,CuDef*
%ADD18RoundRect,0.100000X0.100000X-0.637500X0.100000X0.637500X-0.100000X0.637500X-0.100000X-0.637500X0*%
G04 #@! TD*
G04 #@! TA.AperFunction,ComponentPad*
%ADD19C,4.000000*%
G04 #@! TD*
G04 #@! TA.AperFunction,ComponentPad*
%ADD20R,1.600000X1.600000*%
G04 #@! TD*
G04 #@! TA.AperFunction,ComponentPad*
%ADD21C,1.600000*%
G04 #@! TD*
G04 #@! TA.AperFunction,SMDPad,CuDef*
%ADD22RoundRect,0.225000X-0.225000X-0.250000X0.225000X-0.250000X0.225000X0.250000X-0.225000X0.250000X0*%
G04 #@! TD*
G04 #@! TA.AperFunction,SMDPad,CuDef*
%ADD23R,0.400000X1.350000*%
G04 #@! TD*
G04 #@! TA.AperFunction,ComponentPad*
%ADD24O,1.200000X1.900000*%
G04 #@! TD*
G04 #@! TA.AperFunction,SMDPad,CuDef*
%ADD25R,1.200000X1.900000*%
G04 #@! TD*
G04 #@! TA.AperFunction,ComponentPad*
%ADD26C,1.450000*%
G04 #@! TD*
G04 #@! TA.AperFunction,SMDPad,CuDef*
%ADD27R,1.500000X1.900000*%
G04 #@! TD*
G04 #@! TA.AperFunction,SMDPad,CuDef*
%ADD28RoundRect,0.218750X0.256250X-0.218750X0.256250X0.218750X-0.256250X0.218750X-0.256250X-0.218750X0*%
G04 #@! TD*
G04 #@! TA.AperFunction,SMDPad,CuDef*
%ADD29FreePoly0,0.000000*%
G04 #@! TD*
G04 #@! TA.AperFunction,SMDPad,CuDef*
%ADD30FreePoly1,0.000000*%
G04 #@! TD*
G04 #@! TA.AperFunction,ComponentPad*
%ADD31C,1.650000*%
G04 #@! TD*
G04 #@! TA.AperFunction,ComponentPad*
%ADD32C,3.450000*%
G04 #@! TD*
G04 #@! TA.AperFunction,ComponentPad*
%ADD33C,0.900000*%
G04 #@! TD*
G04 #@! TA.AperFunction,SMDPad,CuDef*
%ADD34RoundRect,0.200000X0.275000X-0.200000X0.275000X0.200000X-0.275000X0.200000X-0.275000X-0.200000X0*%
G04 #@! TD*
G04 #@! TA.AperFunction,ViaPad*
%ADD35C,0.600000*%
G04 #@! TD*
G04 #@! TA.AperFunction,ViaPad*
%ADD36C,0.700000*%
G04 #@! TD*
G04 #@! TA.AperFunction,Conductor*
%ADD37C,0.400000*%
G04 #@! TD*
G04 #@! TA.AperFunction,Conductor*
%ADD38C,0.300000*%
G04 #@! TD*
G04 #@! TA.AperFunction,Conductor*
%ADD39C,0.700000*%
G04 #@! TD*
G04 APERTURE END LIST*
D10*
X121920354Y-42105224D03*
X120370354Y-42105224D03*
D11*
X121926354Y-44577224D03*
D12*
X121926354Y-47117224D03*
X121926354Y-49657224D03*
X121926354Y-52197224D03*
X121926354Y-54737224D03*
X121926354Y-57277224D03*
X121926354Y-59817224D03*
X121926354Y-62357224D03*
X121926354Y-64897224D03*
X121926354Y-67437224D03*
X121926354Y-69977224D03*
X121926354Y-72517224D03*
D10*
X115390354Y-73214724D03*
X113840354Y-73214724D03*
X115880354Y-62357224D03*
X114330354Y-62357224D03*
D13*
X101860354Y-52324224D03*
D12*
X101860354Y-49784224D03*
X101860354Y-47244224D03*
D13*
X106686354Y-44577224D03*
D12*
X106686354Y-47117224D03*
X106686354Y-49657224D03*
X106686354Y-52197224D03*
X106686354Y-54737224D03*
X106686354Y-57277224D03*
X106686354Y-59817224D03*
X106686354Y-62357224D03*
X106686354Y-64897224D03*
X106686354Y-67437224D03*
X106686354Y-69977224D03*
X106686354Y-72517224D03*
D14*
X110925354Y-70755224D03*
X111575354Y-70755224D03*
X112225354Y-70755224D03*
X112875354Y-70755224D03*
X113525354Y-70755224D03*
X114175354Y-70755224D03*
X114825354Y-70755224D03*
X115475354Y-70755224D03*
X116125354Y-70755224D03*
X116775354Y-70755224D03*
X117425354Y-70755224D03*
X118075354Y-70755224D03*
X118075354Y-64879224D03*
X117425354Y-64879224D03*
X116775354Y-64879224D03*
X116125354Y-64879224D03*
X115475354Y-64879224D03*
X114825354Y-64879224D03*
X114175354Y-64879224D03*
X113525354Y-64879224D03*
X112875354Y-64879224D03*
X112225354Y-64879224D03*
X111575354Y-64879224D03*
X110925354Y-64879224D03*
D15*
X112464854Y-44818224D03*
X112464854Y-46368224D03*
D16*
X117227354Y-45444224D03*
X117227354Y-49044224D03*
D17*
X103340354Y-65825224D03*
X101690354Y-65825224D03*
D18*
X112016354Y-57599724D03*
X112666354Y-57599724D03*
X113316354Y-57599724D03*
X113966354Y-57599724D03*
X114616354Y-57599724D03*
X115266354Y-57599724D03*
X115916354Y-57599724D03*
X116566354Y-57599724D03*
X117216354Y-57599724D03*
X117866354Y-57599724D03*
X117866354Y-51874724D03*
X117216354Y-51874724D03*
X116566354Y-51874724D03*
X115916354Y-51874724D03*
X115266354Y-51874724D03*
X114616354Y-51874724D03*
X113966354Y-51874724D03*
X113316354Y-51874724D03*
X112666354Y-51874724D03*
X112016354Y-51874724D03*
D17*
X103340354Y-56305224D03*
X101690354Y-56305224D03*
D19*
X95490000Y-41432224D03*
X95490000Y-74732224D03*
D20*
X96910000Y-48387224D03*
D21*
X96910000Y-51157224D03*
X96910000Y-53927224D03*
X96910000Y-56697224D03*
X96910000Y-59467224D03*
X96910000Y-62237224D03*
X96910000Y-65007224D03*
X96910000Y-67777224D03*
X94070000Y-49772224D03*
X94070000Y-52542224D03*
X94070000Y-55312224D03*
X94070000Y-58082224D03*
X94070000Y-60852224D03*
X94070000Y-63622224D03*
X94070000Y-66392224D03*
D15*
X108985354Y-48710224D03*
X108985354Y-50260224D03*
D10*
X111465354Y-75095224D03*
X109915354Y-75095224D03*
D22*
X102780354Y-75605224D03*
X104330354Y-75605224D03*
D10*
X111465354Y-76619224D03*
X109915354Y-76619224D03*
X104330354Y-74075224D03*
X102780354Y-74075224D03*
D23*
X115595354Y-42801224D03*
X114945354Y-42801224D03*
X114295354Y-42801224D03*
X113645354Y-42801224D03*
X112995354Y-42801224D03*
D24*
X117795354Y-40101224D03*
D25*
X117195354Y-40101224D03*
D26*
X116795354Y-42801224D03*
D27*
X115295354Y-40101224D03*
X113295354Y-40101224D03*
D26*
X111795354Y-42801224D03*
D25*
X111395354Y-40101224D03*
D24*
X110795354Y-40101224D03*
D28*
X113988854Y-46380724D03*
X113988854Y-44805724D03*
D29*
X119835354Y-39835224D03*
D30*
X121135354Y-39835224D03*
D13*
X102045354Y-39545224D03*
D12*
X104585354Y-39545224D03*
X107125354Y-39545224D03*
D31*
X129160000Y-66780000D03*
X129160000Y-69380000D03*
X129160000Y-64680000D03*
X129160000Y-71480000D03*
X126660000Y-64680000D03*
X126660000Y-71480000D03*
D32*
X132160000Y-61330000D03*
X132960000Y-68080000D03*
X132160000Y-74830000D03*
D33*
X117225354Y-45595224D03*
D13*
X101860354Y-61859224D03*
D12*
X101860354Y-59319224D03*
D31*
X129160000Y-46860000D03*
X129160000Y-49460000D03*
X129160000Y-44760000D03*
X129160000Y-51560000D03*
X126660000Y-44760000D03*
X126660000Y-51560000D03*
D32*
X132160000Y-41410000D03*
X132960000Y-48160000D03*
X132160000Y-54910000D03*
D34*
X110585354Y-51690224D03*
X110585354Y-50040224D03*
D13*
X101855354Y-71375224D03*
D12*
X101855354Y-68835224D03*
D33*
X117225354Y-48895224D03*
D35*
X118995354Y-61865224D03*
X111405354Y-54375224D03*
X119005354Y-58065224D03*
X103535354Y-44525224D03*
D36*
X105165354Y-68705224D03*
X115440000Y-44770000D03*
X103345354Y-57835224D03*
X112965354Y-67495224D03*
X111265354Y-45575224D03*
X126710000Y-73480000D03*
X108255354Y-63635224D03*
X124090000Y-43320000D03*
X123265354Y-71265224D03*
X123940000Y-49580000D03*
X119760000Y-69280000D03*
X104995354Y-45995224D03*
X122785354Y-39075224D03*
D35*
X93410000Y-47120000D03*
D36*
X115225354Y-66595224D03*
X126355354Y-39075224D03*
D35*
X128480000Y-43180000D03*
D36*
X125330000Y-58800000D03*
X111240354Y-72138724D03*
X124200000Y-45940000D03*
X126720000Y-46810000D03*
X105175354Y-66175224D03*
X110425354Y-57605224D03*
X119130000Y-46000000D03*
X119805354Y-71635224D03*
D35*
X128880000Y-60330000D03*
D36*
X114935354Y-48145224D03*
X117350000Y-62230000D03*
X126450000Y-54590000D03*
X113840354Y-72138724D03*
D35*
X101775354Y-74075224D03*
D36*
X113391854Y-63246224D03*
X115555354Y-68175224D03*
X119915354Y-63775224D03*
X92000000Y-64405224D03*
X127170000Y-58110000D03*
X105915354Y-75415224D03*
X126720000Y-49490000D03*
D35*
X100830000Y-43890000D03*
D36*
X112725354Y-74275224D03*
X126200000Y-67360000D03*
X92000000Y-66285224D03*
X113225354Y-43975224D03*
X109675354Y-65965224D03*
X127170000Y-61840000D03*
X123265354Y-63645224D03*
X118695354Y-42215224D03*
X105185354Y-71275224D03*
X118010000Y-67550000D03*
X92000000Y-52800000D03*
X118155354Y-73705224D03*
X109625354Y-61005224D03*
D35*
X128880000Y-56400000D03*
X115539854Y-60225224D03*
X111615354Y-59095224D03*
X123450354Y-55825224D03*
X128060000Y-54800000D03*
X123955854Y-53475224D03*
X126275354Y-55794724D03*
X119863354Y-53467224D03*
D36*
X111265354Y-44335224D03*
D37*
X116125354Y-62602224D02*
X115880354Y-62357224D01*
X116125354Y-64879224D02*
X116125354Y-62602224D01*
X115475354Y-66345224D02*
X115225354Y-66595224D01*
X115475354Y-64879224D02*
X115475354Y-66345224D01*
D38*
X107822130Y-58540000D02*
X104545502Y-58540000D01*
X104545502Y-58540000D02*
X104545502Y-59545076D01*
X108377354Y-59095224D02*
X107822130Y-58540000D01*
X111615354Y-59095224D02*
X108377354Y-59095224D01*
X119005354Y-56832724D02*
X119005354Y-58065224D01*
X118995354Y-61865224D02*
X116775354Y-64085224D01*
X116775354Y-64085224D02*
X116775354Y-64879224D01*
X116055354Y-55375224D02*
X117547854Y-55375224D01*
X117547854Y-55375224D02*
X119005354Y-56832724D01*
X111405354Y-54375224D02*
X115055354Y-54375224D01*
X115055354Y-54375224D02*
X116055354Y-55375224D01*
D37*
X112995354Y-43745224D02*
X112995354Y-42801224D01*
X113225354Y-43975224D02*
X112995354Y-43745224D01*
X111240354Y-72138724D02*
X111575354Y-71803724D01*
X111477854Y-75095224D02*
X111477854Y-76619224D01*
X112875354Y-63762724D02*
X112875354Y-64879224D01*
X113525354Y-71823724D02*
X113525354Y-70755224D01*
X114175354Y-70755224D02*
X114175354Y-71803724D01*
X116125354Y-68745224D02*
X116125354Y-70755224D01*
X110761354Y-64879224D02*
X110925354Y-64879224D01*
X114935354Y-48190724D02*
X114935354Y-48145224D01*
X113391854Y-63246224D02*
X112875354Y-63762724D01*
X102780354Y-74075224D02*
X101775354Y-74075224D01*
X113840354Y-73204724D02*
X113840354Y-72138724D01*
X109675354Y-65965224D02*
X110761354Y-64879224D01*
X113391854Y-63246224D02*
X114280854Y-62357224D01*
X114175354Y-71803724D02*
X113840354Y-72138724D01*
X110925354Y-70758724D02*
X110925354Y-71823724D01*
X113391854Y-63246224D02*
X113525354Y-63379724D01*
X113525354Y-63379724D02*
X113525354Y-64879224D01*
X113850354Y-73214724D02*
X113840354Y-73204724D01*
X113840354Y-72138724D02*
X113525354Y-71823724D01*
X111575354Y-71803724D02*
X111575354Y-70758724D01*
X115555354Y-68175224D02*
X116125354Y-68745224D01*
X111265354Y-45575224D02*
X112070854Y-46380724D01*
X112070854Y-46380724D02*
X112464854Y-46380724D01*
X110925354Y-71823724D02*
X111240354Y-72138724D01*
X122673744Y-53473614D02*
X124330000Y-55129870D01*
D39*
X121924854Y-42100724D02*
X121920354Y-42105224D01*
X113988854Y-46380724D02*
X116695354Y-46380724D01*
D37*
X110585354Y-52145224D02*
X111885354Y-53445224D01*
D39*
X115390354Y-73214724D02*
X117340854Y-75165224D01*
D37*
X121922644Y-44573514D02*
X121926354Y-44577224D01*
X116775354Y-71667724D02*
X116775354Y-70755224D01*
X123793614Y-61093614D02*
X124330000Y-61630000D01*
X114175354Y-64879224D02*
X114175354Y-63966724D01*
X112225354Y-70755224D02*
X112225354Y-69617724D01*
X111885354Y-53445224D02*
X115085354Y-53445224D01*
D39*
X131834724Y-44894724D02*
X129040724Y-42100724D01*
X127754776Y-75165224D02*
X131104776Y-71815224D01*
X117340854Y-75165224D02*
X127754776Y-75165224D01*
D37*
X115390354Y-72410224D02*
X115795354Y-72005224D01*
X119719354Y-54785224D02*
X121030964Y-53473614D01*
D39*
X121920354Y-42105224D02*
X121926354Y-42111224D01*
D37*
X114825354Y-71845224D02*
X114825354Y-70755224D01*
X114247854Y-69265224D02*
X114825354Y-69842724D01*
D39*
X129040724Y-42100724D02*
X121924854Y-42100724D01*
D37*
X114825354Y-69842724D02*
X114825354Y-70755224D01*
X110585354Y-51690224D02*
X110585354Y-52145224D01*
X114256964Y-61093614D02*
X117119464Y-61093614D01*
X112225354Y-69617724D02*
X112577854Y-69265224D01*
X121030964Y-53473614D02*
X122673744Y-53473614D01*
D39*
X118098064Y-44573514D02*
X117227354Y-45444224D01*
X135895354Y-46845224D02*
X133944854Y-44894724D01*
X134485354Y-71815224D02*
X135895354Y-70405224D01*
D37*
X115390354Y-72410224D02*
X114825354Y-71845224D01*
X111575354Y-63775224D02*
X114256964Y-61093614D01*
X121926354Y-44577224D02*
X122078754Y-44577224D01*
D39*
X131104776Y-71815224D02*
X134485354Y-71815224D01*
X133944854Y-44894724D02*
X131834724Y-44894724D01*
D37*
X116775354Y-70755224D02*
X116775354Y-66875224D01*
X115880354Y-62332724D02*
X117119464Y-61093614D01*
X116125354Y-66225224D02*
X116125354Y-64879224D01*
D39*
X121922644Y-44573514D02*
X118098064Y-44573514D01*
D37*
X114175354Y-63966724D02*
X115784854Y-62357224D01*
X116775354Y-66875224D02*
X116125354Y-66225224D01*
X117119464Y-61093614D02*
X123793614Y-61093614D01*
X112577854Y-69265224D02*
X114247854Y-69265224D01*
X115795354Y-72005224D02*
X116437854Y-72005224D01*
X115390354Y-73214724D02*
X115390354Y-72410224D01*
X116437854Y-72005224D02*
X116775354Y-71667724D01*
X124330000Y-55129870D02*
X124330000Y-75155224D01*
X116425354Y-54785224D02*
X119719354Y-54785224D01*
D39*
X121926354Y-42111224D02*
X121926354Y-44577224D01*
X135895354Y-70405224D02*
X135895354Y-46845224D01*
D37*
X115085354Y-53445224D02*
X116425354Y-54785224D01*
X111575354Y-64879224D02*
X111575354Y-63775224D01*
D38*
X100045354Y-56705224D02*
X97267354Y-53927224D01*
X108435354Y-69455224D02*
X108435354Y-73365224D01*
X112225354Y-65665224D02*
X108435354Y-69455224D01*
X100045354Y-72195224D02*
X100045354Y-56705224D01*
X103500354Y-73245224D02*
X101095354Y-73245224D01*
X104330354Y-74075224D02*
X103500354Y-73245224D01*
X101095354Y-73245224D02*
X100045354Y-72195224D01*
X97267354Y-53927224D02*
X96910000Y-53927224D01*
X104640354Y-74385224D02*
X104330354Y-74075224D01*
X107415354Y-74385224D02*
X104640354Y-74385224D01*
X108435354Y-73365224D02*
X107415354Y-74385224D01*
X112225354Y-64879224D02*
X112225354Y-65665224D01*
X106625354Y-76485224D02*
X103660354Y-76485224D01*
X114825354Y-65691724D02*
X113968854Y-66548224D01*
X103660354Y-76485224D02*
X102780354Y-75605224D01*
X109155354Y-73955224D02*
X106625354Y-76485224D01*
X109155354Y-69835224D02*
X109155354Y-73955224D01*
X97585232Y-55312224D02*
X94070000Y-55312224D01*
X114825354Y-64879224D02*
X114825354Y-65691724D01*
X99465354Y-72845224D02*
X99465354Y-57192346D01*
X102225354Y-75605224D02*
X99465354Y-72845224D01*
X99465354Y-57192346D02*
X97585232Y-55312224D01*
X113968854Y-66548224D02*
X112442354Y-66548224D01*
X112442354Y-66548224D02*
X109155354Y-69835224D01*
X102780354Y-75605224D02*
X102225354Y-75605224D01*
X98875354Y-73515224D02*
X98875354Y-61785224D01*
X115475354Y-69305224D02*
X114623354Y-68453224D01*
X102441364Y-77081234D02*
X98875354Y-73515224D01*
X98875354Y-61785224D02*
X97942354Y-60852224D01*
X114623354Y-68453224D02*
X111647354Y-68453224D01*
X109902854Y-70197724D02*
X109902854Y-75095224D01*
X97942354Y-60852224D02*
X94070000Y-60852224D01*
X107449344Y-77081234D02*
X102441364Y-77081234D01*
X109435354Y-75095224D02*
X107449344Y-77081234D01*
X115475354Y-70755224D02*
X115475354Y-69305224D01*
X111647354Y-68453224D02*
X109902854Y-70197724D01*
X109915354Y-75095224D02*
X109435354Y-75095224D01*
X110690354Y-75831724D02*
X109902854Y-76619224D01*
X112875354Y-70755224D02*
X112875354Y-71845224D01*
X109551354Y-76619224D02*
X108455354Y-77715224D01*
X101805354Y-77715224D02*
X98265354Y-74175224D01*
X112875354Y-71845224D02*
X110690354Y-74030224D01*
X109915354Y-76619224D02*
X109551354Y-76619224D01*
X98265354Y-74175224D02*
X98265354Y-63592578D01*
X98265354Y-63592578D02*
X96910000Y-62237224D01*
X108455354Y-77715224D02*
X101805354Y-77715224D01*
X110690354Y-74030224D02*
X110690354Y-75831724D01*
X115266354Y-59164224D02*
X106993354Y-67437224D01*
X106993354Y-67437224D02*
X106686354Y-67437224D01*
X115266354Y-57687224D02*
X115266354Y-59164224D01*
X114616354Y-59014224D02*
X108733354Y-64897224D01*
X114616354Y-57687224D02*
X114616354Y-59014224D01*
X108733354Y-64897224D02*
X106686354Y-64897224D01*
X110463354Y-62357224D02*
X106686354Y-62357224D01*
X113966354Y-58854224D02*
X110463354Y-62357224D01*
X113966354Y-57687224D02*
X113966354Y-58854224D01*
X112173478Y-59817224D02*
X106686354Y-59817224D01*
X113316354Y-57687224D02*
X113316354Y-58674348D01*
X113316354Y-58674348D02*
X112173478Y-59817224D01*
X118108854Y-66375224D02*
X120295954Y-66375224D01*
X121773954Y-64897224D02*
X121926354Y-64897224D01*
X117425354Y-64879224D02*
X117425354Y-65691724D01*
X117425354Y-65691724D02*
X118108854Y-66375224D01*
X120295954Y-66375224D02*
X121773954Y-64897224D01*
X121147354Y-70756224D02*
X121926354Y-69977224D01*
X118075354Y-70755224D02*
X118076354Y-70756224D01*
X118076354Y-70756224D02*
X121147354Y-70756224D01*
D39*
X95455000Y-48387224D02*
X96910000Y-48387224D01*
X94070000Y-49772224D02*
X95455000Y-48387224D01*
D37*
X115595354Y-41976224D02*
X115595354Y-42801224D01*
X108047854Y-39545224D02*
X110097854Y-41595224D01*
X115214354Y-41595224D02*
X115595354Y-41976224D01*
X107125354Y-39545224D02*
X108047854Y-39545224D01*
X110097854Y-41595224D02*
X115214354Y-41595224D01*
D38*
X119685354Y-60225224D02*
X115539854Y-60225224D01*
X104545502Y-57155372D02*
X104545502Y-59545076D01*
X103340354Y-56305224D02*
X103695354Y-56305224D01*
X103695354Y-56305224D02*
X104545502Y-57155372D01*
X112666354Y-58514224D02*
X112666354Y-57687224D01*
X123450354Y-55825224D02*
X123450354Y-57658224D01*
X112085354Y-59095224D02*
X112666354Y-58514224D01*
X123450354Y-57658224D02*
X122573354Y-58535224D01*
X111615354Y-59095224D02*
X112085354Y-59095224D01*
X122573354Y-58535224D02*
X121375354Y-58535224D01*
X104545502Y-64620076D02*
X104545502Y-59545076D01*
X103340354Y-65825224D02*
X104545502Y-64620076D01*
X121375354Y-58535224D02*
X119685354Y-60225224D01*
X101926354Y-47244224D02*
X104465354Y-44705224D01*
X104465354Y-44705224D02*
X106558354Y-44705224D01*
X101860354Y-47244224D02*
X101926354Y-47244224D01*
X106558354Y-44705224D02*
X106686354Y-44577224D01*
X101860354Y-49784224D02*
X104527354Y-47117224D01*
X104527354Y-47117224D02*
X106686354Y-47117224D01*
X100625354Y-69505224D02*
X101215354Y-70095224D01*
X101215354Y-70095224D02*
X106568354Y-70095224D01*
X101860354Y-63051305D02*
X100625354Y-64286305D01*
X106568354Y-70095224D02*
X106686354Y-69977224D01*
X100625354Y-64286305D02*
X100625354Y-69505224D01*
X101860354Y-61859224D02*
X101860354Y-63051305D01*
X101855354Y-71375224D02*
X102997354Y-72517224D01*
X102997354Y-72517224D02*
X106686354Y-72517224D01*
X112666354Y-51874724D02*
X112016354Y-51874724D01*
X112016354Y-51874724D02*
X112016354Y-51471224D01*
X112016354Y-51471224D02*
X109255354Y-48710224D01*
X109255354Y-48710224D02*
X108985354Y-48710224D01*
X120211854Y-46963021D02*
X121339651Y-45835224D01*
X121339651Y-45835224D02*
X123025354Y-45835224D01*
X123025354Y-45835224D02*
X125630578Y-43230000D01*
X127290000Y-43230000D02*
X127920000Y-43860000D01*
X120211854Y-48578724D02*
X120211854Y-46963021D01*
X127920000Y-43860000D02*
X127920000Y-45620000D01*
X127920000Y-45620000D02*
X129160000Y-46860000D01*
X117866354Y-51787224D02*
X117866354Y-50924224D01*
X125630578Y-43230000D02*
X127290000Y-43230000D01*
X117866354Y-50924224D02*
X120211854Y-48578724D01*
X119322854Y-51910726D02*
X119322854Y-50392021D01*
X123034776Y-48385224D02*
X126660000Y-44760000D01*
X117216354Y-51787224D02*
X117216354Y-52717226D01*
X121329651Y-48385224D02*
X123034776Y-48385224D01*
X117514352Y-53015224D02*
X118218356Y-53015224D01*
X118218356Y-53015224D02*
X119322854Y-51910726D01*
X119322854Y-50392021D02*
X121329651Y-48385224D01*
X117216354Y-52717226D02*
X117514352Y-53015224D01*
X124177224Y-50927224D02*
X121393354Y-50927224D01*
X128060000Y-54800000D02*
X128050000Y-54810000D01*
X128060000Y-54800000D02*
X128050000Y-54800000D01*
X128050000Y-63480000D02*
X127890000Y-63640000D01*
X128050000Y-54810000D02*
X128050000Y-63480000D01*
X116566354Y-52976224D02*
X116566354Y-51787224D01*
X117225354Y-53635224D02*
X116566354Y-52976224D01*
X121393354Y-50927224D02*
X118685354Y-53635224D01*
X128050000Y-54800000D02*
X124177224Y-50927224D01*
X118685354Y-53635224D02*
X117225354Y-53635224D01*
X127890000Y-63640000D02*
X127890000Y-65510000D01*
X127890000Y-65510000D02*
X129160000Y-66780000D01*
X115916354Y-53256224D02*
X115916354Y-51787224D01*
X126275354Y-55794724D02*
X123955854Y-53475224D01*
X126275354Y-55794724D02*
X126275354Y-64295354D01*
X126275354Y-64295354D02*
X126660000Y-64680000D01*
X119155354Y-54175224D02*
X116835354Y-54175224D01*
X116835354Y-54175224D02*
X115916354Y-53256224D01*
X119863354Y-53467224D02*
X119155354Y-54175224D01*
X92520000Y-50992224D02*
X94070000Y-52542224D01*
X108305354Y-41915224D02*
X101654776Y-41915224D01*
X92520000Y-49240000D02*
X92520000Y-50992224D01*
X109865354Y-43475224D02*
X108305354Y-41915224D01*
X114616354Y-51787224D02*
X114616354Y-50796354D01*
X114616354Y-50796354D02*
X109865354Y-46045354D01*
X97054776Y-46515224D02*
X95244776Y-46515224D01*
X109865354Y-46045354D02*
X109865354Y-43475224D01*
X101654776Y-41915224D02*
X97054776Y-46515224D01*
X95244776Y-46515224D02*
X92520000Y-49240000D01*
X98625354Y-49082224D02*
X97897578Y-49810000D01*
X103405354Y-42515224D02*
X98625354Y-47295224D01*
X95480000Y-50449578D02*
X95480000Y-53300000D01*
X94800224Y-62230224D02*
X96910000Y-64340000D01*
X113966354Y-51066354D02*
X109255354Y-46355354D01*
X96910000Y-64340000D02*
X96910000Y-65007224D01*
X97897578Y-49810000D02*
X96119578Y-49810000D01*
X92460000Y-61450000D02*
X93240224Y-62230224D01*
X93280000Y-53920000D02*
X92460000Y-54740000D01*
X98625354Y-47295224D02*
X98625354Y-49082224D01*
X109255354Y-46355354D02*
X109255354Y-43755224D01*
X96119578Y-49810000D02*
X95480000Y-50449578D01*
X92460000Y-54740000D02*
X92460000Y-61450000D01*
X94860000Y-53920000D02*
X93280000Y-53920000D01*
X113966354Y-51787224D02*
X113966354Y-51066354D01*
X109255354Y-43755224D02*
X108015354Y-42515224D01*
X95480000Y-53300000D02*
X94860000Y-53920000D01*
X93240224Y-62230224D02*
X94800224Y-62230224D01*
X108015354Y-42515224D02*
X103405354Y-42515224D01*
X98038724Y-51157224D02*
X96910000Y-51157224D01*
X108675354Y-44095224D02*
X107705354Y-43125224D01*
X113316354Y-51292249D02*
X108675354Y-46651249D01*
X107705354Y-43125224D02*
X103815354Y-43125224D01*
X113316354Y-51787224D02*
X113316354Y-51292249D01*
X103815354Y-43125224D02*
X99566365Y-47374213D01*
X99566365Y-49629583D02*
X98038724Y-51157224D01*
X108675354Y-46651249D02*
X108675354Y-44095224D01*
X99566365Y-47374213D02*
X99566365Y-49629583D01*
X121926354Y-72517224D02*
X118374854Y-72517224D01*
X117425354Y-71567724D02*
X117425354Y-70755224D01*
X118374854Y-72517224D02*
X117425354Y-71567724D01*
X93409854Y-63622224D02*
X94067354Y-63622224D01*
X108725354Y-41315224D02*
X99994776Y-41315224D01*
X90800000Y-48480000D02*
X90800000Y-61012370D01*
X110505354Y-45765354D02*
X110505354Y-43095224D01*
X110505354Y-43095224D02*
X108725354Y-41315224D01*
X115266354Y-50526354D02*
X110505354Y-45765354D01*
X90800000Y-61012370D02*
X93409854Y-63622224D01*
X94600000Y-44680000D02*
X90800000Y-48480000D01*
X96630000Y-44680000D02*
X94600000Y-44680000D01*
X99994776Y-41315224D02*
X96630000Y-44680000D01*
X115266354Y-51787224D02*
X115266354Y-50526354D01*
X117073232Y-55925224D02*
X117866354Y-56718346D01*
X115685354Y-55925224D02*
X117073232Y-55925224D01*
X115025354Y-55265224D02*
X115685354Y-55925224D01*
X107214354Y-55265224D02*
X115025354Y-55265224D01*
X106686354Y-54737224D02*
X107214354Y-55265224D01*
X117866354Y-56718346D02*
X117866354Y-57687224D01*
X106838754Y-57277224D02*
X108010754Y-56105224D01*
X114985354Y-56105224D02*
X115365354Y-56485224D01*
X115365354Y-56485224D02*
X116926110Y-56485224D01*
X116926110Y-56485224D02*
X117216354Y-56775468D01*
X106686354Y-57277224D02*
X106838754Y-57277224D01*
X108010754Y-56105224D02*
X114985354Y-56105224D01*
X117216354Y-56775468D02*
X117216354Y-57687224D01*
X121926354Y-54737224D02*
X121773954Y-54737224D01*
X120148354Y-56362824D02*
X120148354Y-58082224D01*
X119315354Y-58915224D02*
X116864352Y-58915224D01*
X116864352Y-58915224D02*
X116566354Y-58617226D01*
X116566354Y-58617226D02*
X116566354Y-57687224D01*
X120148354Y-58082224D02*
X119315354Y-58915224D01*
X121773954Y-54737224D02*
X120148354Y-56362824D01*
X115916354Y-58816224D02*
X116665354Y-59565224D01*
X116665354Y-59565224D02*
X119485954Y-59565224D01*
X121773954Y-57277224D02*
X121926354Y-57277224D01*
X119485954Y-59565224D02*
X121773954Y-57277224D01*
X115916354Y-57687224D02*
X115916354Y-58816224D01*
X101860354Y-59319224D02*
X101860354Y-59309224D01*
X101690354Y-59149224D02*
X101860354Y-59319224D01*
X101690354Y-56420224D02*
X101690354Y-59149224D01*
X101690354Y-68670224D02*
X101855354Y-68835224D01*
X101855354Y-68835224D02*
X101859354Y-68835224D01*
X101710354Y-65845224D02*
X101690354Y-65865224D01*
X101859354Y-68835224D02*
X101860354Y-68834224D01*
X101690354Y-65865224D02*
X101690354Y-68670224D01*
D37*
X110795354Y-40101224D02*
X117795354Y-40101224D01*
X117795354Y-40101224D02*
X118061354Y-39835224D01*
X118061354Y-39835224D02*
X119517354Y-39835224D01*
X111735854Y-44805724D02*
X113988854Y-44805724D01*
X111265354Y-44335224D02*
X111735854Y-44805724D01*
X111265354Y-44335224D02*
X111265354Y-44315224D01*
G04 #@! TA.AperFunction,Conductor*
G36*
X100754396Y-38210502D02*
G01*
X100800889Y-38264158D01*
X100810993Y-38334432D01*
X100787143Y-38392007D01*
X100769235Y-38415931D01*
X100744464Y-38449020D01*
X100744464Y-38449021D01*
X100693365Y-38586019D01*
X100693363Y-38586027D01*
X100686854Y-38646574D01*
X100686854Y-40443873D01*
X100694207Y-40512263D01*
X100692155Y-40512483D01*
X100688933Y-40572640D01*
X100647409Y-40630227D01*
X100581342Y-40656222D01*
X100570109Y-40656724D01*
X100081390Y-40656724D01*
X100065155Y-40654931D01*
X100065132Y-40655181D01*
X100057239Y-40654435D01*
X99985399Y-40656693D01*
X99983420Y-40656724D01*
X99953344Y-40656724D01*
X99953339Y-40656724D01*
X99953330Y-40656725D01*
X99945995Y-40657651D01*
X99940081Y-40658117D01*
X99890948Y-40659661D01*
X99890946Y-40659661D01*
X99890945Y-40659662D01*
X99870347Y-40665645D01*
X99850997Y-40669652D01*
X99829716Y-40672340D01*
X99829711Y-40672342D01*
X99783990Y-40690443D01*
X99778375Y-40692365D01*
X99731182Y-40706076D01*
X99731175Y-40706079D01*
X99712713Y-40716997D01*
X99694967Y-40725690D01*
X99675024Y-40733586D01*
X99675021Y-40733588D01*
X99635246Y-40762486D01*
X99630284Y-40765745D01*
X99587970Y-40790770D01*
X99572798Y-40805941D01*
X99557772Y-40818774D01*
X99540420Y-40831381D01*
X99540419Y-40831382D01*
X99509075Y-40869269D01*
X99505079Y-40873660D01*
X98103771Y-42274967D01*
X98041459Y-42308993D01*
X97970644Y-42303928D01*
X97913808Y-42261381D01*
X97888997Y-42194861D01*
X97894843Y-42146935D01*
X97924009Y-42057174D01*
X97924010Y-42057166D01*
X97983143Y-41747185D01*
X97983145Y-41747168D01*
X98002959Y-41432230D01*
X98002959Y-41432217D01*
X97983145Y-41117279D01*
X97983143Y-41117262D01*
X97924010Y-40807281D01*
X97924007Y-40807268D01*
X97826490Y-40507144D01*
X97826486Y-40507135D01*
X97692124Y-40221601D01*
X97692117Y-40221587D01*
X97523033Y-39955152D01*
X97523030Y-39955148D01*
X97433955Y-39847476D01*
X96790004Y-40491427D01*
X96788430Y-40488859D01*
X96624870Y-40297354D01*
X96433365Y-40133794D01*
X96430794Y-40132218D01*
X97077477Y-39485536D01*
X97077477Y-39485534D01*
X96836513Y-39310464D01*
X96559965Y-39158431D01*
X96266539Y-39042255D01*
X96266533Y-39042253D01*
X95960896Y-38963779D01*
X95960869Y-38963774D01*
X95647804Y-38924225D01*
X95647786Y-38924224D01*
X95332214Y-38924224D01*
X95332195Y-38924225D01*
X95019130Y-38963774D01*
X95019103Y-38963779D01*
X94713466Y-39042253D01*
X94713460Y-39042255D01*
X94420034Y-39158431D01*
X94143485Y-39310465D01*
X93902521Y-39485534D01*
X93902521Y-39485536D01*
X94549204Y-40132219D01*
X94546635Y-40133794D01*
X94355130Y-40297354D01*
X94191570Y-40488859D01*
X94189995Y-40491428D01*
X93546043Y-39847476D01*
X93546042Y-39847476D01*
X93456971Y-39955145D01*
X93456969Y-39955148D01*
X93287882Y-40221587D01*
X93287875Y-40221601D01*
X93153513Y-40507135D01*
X93153509Y-40507144D01*
X93055992Y-40807268D01*
X93055989Y-40807281D01*
X92996856Y-41117262D01*
X92996854Y-41117279D01*
X92977041Y-41432217D01*
X92977041Y-41432230D01*
X92996854Y-41747168D01*
X92996856Y-41747185D01*
X93055989Y-42057166D01*
X93055992Y-42057179D01*
X93153509Y-42357303D01*
X93153513Y-42357312D01*
X93287875Y-42642846D01*
X93287882Y-42642860D01*
X93456966Y-42909295D01*
X93456969Y-42909299D01*
X93546043Y-43016970D01*
X94189994Y-42373018D01*
X94191570Y-42375589D01*
X94355130Y-42567094D01*
X94546635Y-42730654D01*
X94549204Y-42732228D01*
X93902521Y-43378911D01*
X93902521Y-43378912D01*
X94143486Y-43553983D01*
X94420034Y-43706016D01*
X94602723Y-43778348D01*
X94658696Y-43822022D01*
X94682173Y-43889025D01*
X94665697Y-43958084D01*
X94614502Y-44007273D01*
X94562439Y-44020007D01*
X94562518Y-44021252D01*
X94558570Y-44021500D01*
X94558568Y-44021500D01*
X94558566Y-44021500D01*
X94558554Y-44021501D01*
X94551227Y-44022426D01*
X94545313Y-44022892D01*
X94496170Y-44024436D01*
X94481357Y-44028740D01*
X94475568Y-44030421D01*
X94456215Y-44034429D01*
X94434944Y-44037116D01*
X94434938Y-44037117D01*
X94434936Y-44037118D01*
X94430013Y-44039067D01*
X94389216Y-44055218D01*
X94383601Y-44057140D01*
X94336405Y-44070853D01*
X94336399Y-44070855D01*
X94317937Y-44081773D01*
X94300191Y-44090466D01*
X94280248Y-44098362D01*
X94280245Y-44098364D01*
X94240470Y-44127262D01*
X94235508Y-44130521D01*
X94193194Y-44155546D01*
X94178022Y-44170717D01*
X94162996Y-44183550D01*
X94145644Y-44196157D01*
X94145643Y-44196158D01*
X94114299Y-44234045D01*
X94110303Y-44238436D01*
X90395611Y-47953127D01*
X90382865Y-47963340D01*
X90383025Y-47963533D01*
X90376920Y-47968583D01*
X90327718Y-48020977D01*
X90326342Y-48022397D01*
X90305071Y-48043668D01*
X90300527Y-48049525D01*
X90296678Y-48054031D01*
X90263029Y-48089865D01*
X90263027Y-48089867D01*
X90252691Y-48108667D01*
X90241843Y-48125180D01*
X90228699Y-48142126D01*
X90228694Y-48142135D01*
X90209172Y-48187247D01*
X90206560Y-48192577D01*
X90182877Y-48235660D01*
X90182873Y-48235670D01*
X90177541Y-48256436D01*
X90171139Y-48275136D01*
X90162620Y-48294820D01*
X90162619Y-48294824D01*
X90154928Y-48343384D01*
X90153724Y-48349197D01*
X90141499Y-48396810D01*
X90141500Y-48418258D01*
X90139949Y-48437967D01*
X90136594Y-48459150D01*
X90136594Y-48459152D01*
X90141220Y-48508094D01*
X90141500Y-48514027D01*
X90141500Y-60925759D01*
X90139708Y-60941990D01*
X90139958Y-60942014D01*
X90139211Y-60949906D01*
X90141469Y-61021728D01*
X90141500Y-61023707D01*
X90141500Y-61053800D01*
X90142427Y-61061146D01*
X90142893Y-61067060D01*
X90144437Y-61116199D01*
X90144438Y-61116202D01*
X90150421Y-61136799D01*
X90154428Y-61156150D01*
X90157117Y-61177430D01*
X90157117Y-61177432D01*
X90175216Y-61223148D01*
X90177139Y-61228764D01*
X90190853Y-61275967D01*
X90190853Y-61275968D01*
X90201771Y-61294428D01*
X90210468Y-61312181D01*
X90218364Y-61332125D01*
X90218367Y-61332130D01*
X90234489Y-61354318D01*
X90247265Y-61371902D01*
X90250521Y-61376860D01*
X90275547Y-61419177D01*
X90290714Y-61434344D01*
X90303552Y-61449375D01*
X90316158Y-61466726D01*
X90354039Y-61498064D01*
X90358420Y-61502050D01*
X91577349Y-62720979D01*
X92778122Y-63921752D01*
X92810733Y-63978235D01*
X92835712Y-64071456D01*
X92835717Y-64071470D01*
X92904382Y-64218722D01*
X92932477Y-64278973D01*
X93063802Y-64466524D01*
X93225700Y-64628422D01*
X93413251Y-64759747D01*
X93620757Y-64856508D01*
X93729021Y-64885517D01*
X93789642Y-64922467D01*
X93820664Y-64986328D01*
X93812236Y-65056822D01*
X93767034Y-65111569D01*
X93729021Y-65128929D01*
X93620767Y-65157936D01*
X93620753Y-65157941D01*
X93413250Y-65254701D01*
X93225703Y-65386023D01*
X93225697Y-65386028D01*
X93063804Y-65547921D01*
X93063799Y-65547927D01*
X92932477Y-65735474D01*
X92835717Y-65942977D01*
X92835715Y-65942983D01*
X92802440Y-66067168D01*
X92776457Y-66164137D01*
X92756502Y-66392224D01*
X92776457Y-66620311D01*
X92797407Y-66698497D01*
X92835715Y-66841464D01*
X92835717Y-66841470D01*
X92932477Y-67048973D01*
X93044951Y-67209603D01*
X93063802Y-67236524D01*
X93225700Y-67398422D01*
X93413251Y-67529747D01*
X93620757Y-67626508D01*
X93841913Y-67685767D01*
X94070000Y-67705722D01*
X94298087Y-67685767D01*
X94519243Y-67626508D01*
X94726749Y-67529747D01*
X94914300Y-67398422D01*
X95076198Y-67236524D01*
X95207523Y-67048973D01*
X95304284Y-66841467D01*
X95363543Y-66620311D01*
X95383498Y-66392224D01*
X95363543Y-66164137D01*
X95304284Y-65942981D01*
X95207523Y-65735475D01*
X95076198Y-65547924D01*
X94914300Y-65386026D01*
X94848335Y-65339837D01*
X94726749Y-65254701D01*
X94519246Y-65157941D01*
X94519240Y-65157939D01*
X94478239Y-65146953D01*
X94410977Y-65128930D01*
X94350356Y-65091979D01*
X94319335Y-65028119D01*
X94327763Y-64957624D01*
X94372966Y-64902877D01*
X94410976Y-64885518D01*
X94519243Y-64856508D01*
X94726749Y-64759747D01*
X94914300Y-64628422D01*
X95076198Y-64466524D01*
X95207523Y-64278973D01*
X95304284Y-64071467D01*
X95333582Y-63962124D01*
X95370532Y-63901504D01*
X95434393Y-63870483D01*
X95504888Y-63878911D01*
X95544383Y-63905643D01*
X95786977Y-64148237D01*
X95821003Y-64210549D01*
X95815938Y-64281364D01*
X95801096Y-64309602D01*
X95772478Y-64350473D01*
X95675717Y-64557977D01*
X95675715Y-64557983D01*
X95645191Y-64671900D01*
X95616457Y-64779137D01*
X95596502Y-65007224D01*
X95604367Y-65097127D01*
X95616457Y-65235310D01*
X95675715Y-65456464D01*
X95675717Y-65456470D01*
X95772477Y-65663973D01*
X95897279Y-65842209D01*
X95903802Y-65851524D01*
X96065700Y-66013422D01*
X96253251Y-66144747D01*
X96460757Y-66241508D01*
X96569020Y-66270517D01*
X96629643Y-66307469D01*
X96660664Y-66371330D01*
X96652236Y-66441824D01*
X96607033Y-66496571D01*
X96569021Y-66513930D01*
X96537206Y-66522455D01*
X96460759Y-66542939D01*
X96460753Y-66542941D01*
X96253250Y-66639701D01*
X96065703Y-66771023D01*
X96065697Y-66771028D01*
X95903804Y-66932921D01*
X95903799Y-66932927D01*
X95772477Y-67120474D01*
X95675717Y-67327977D01*
X95675715Y-67327983D01*
X95616457Y-67549137D01*
X95604504Y-67685766D01*
X95596502Y-67777224D01*
X95616457Y-68005311D01*
X95636470Y-68079999D01*
X95675715Y-68226464D01*
X95675717Y-68226470D01*
X95772477Y-68433973D01*
X95896326Y-68610848D01*
X95903802Y-68621524D01*
X96065700Y-68783422D01*
X96253251Y-68914747D01*
X96460757Y-69011508D01*
X96681913Y-69070767D01*
X96910000Y-69090722D01*
X97138087Y-69070767D01*
X97359243Y-69011508D01*
X97427604Y-68979630D01*
X97497795Y-68968969D01*
X97562608Y-68997948D01*
X97601464Y-69057368D01*
X97606854Y-69093825D01*
X97606854Y-73023548D01*
X97586852Y-73091669D01*
X97533196Y-73138162D01*
X97474920Y-73149408D01*
X97433955Y-73147476D01*
X96790003Y-73791427D01*
X96788430Y-73788859D01*
X96624870Y-73597354D01*
X96433365Y-73433794D01*
X96430794Y-73432218D01*
X97077477Y-72785536D01*
X97077477Y-72785534D01*
X96836513Y-72610464D01*
X96559965Y-72458431D01*
X96266539Y-72342255D01*
X96266533Y-72342253D01*
X95960896Y-72263779D01*
X95960869Y-72263774D01*
X95647804Y-72224225D01*
X95647786Y-72224224D01*
X95332214Y-72224224D01*
X95332195Y-72224225D01*
X95019130Y-72263774D01*
X95019103Y-72263779D01*
X94713466Y-72342253D01*
X94713460Y-72342255D01*
X94420034Y-72458431D01*
X94143485Y-72610465D01*
X93902521Y-72785534D01*
X93902521Y-72785536D01*
X94549204Y-73432219D01*
X94546635Y-73433794D01*
X94355130Y-73597354D01*
X94191570Y-73788859D01*
X94189995Y-73791428D01*
X93546043Y-73147476D01*
X93546042Y-73147476D01*
X93456971Y-73255145D01*
X93456969Y-73255148D01*
X93287882Y-73521587D01*
X93287875Y-73521601D01*
X93153513Y-73807135D01*
X93153509Y-73807144D01*
X93055992Y-74107268D01*
X93055989Y-74107281D01*
X92996856Y-74417262D01*
X92996854Y-74417279D01*
X92977041Y-74732217D01*
X92977041Y-74732230D01*
X92996854Y-75047168D01*
X92996856Y-75047185D01*
X93055989Y-75357166D01*
X93055992Y-75357179D01*
X93153509Y-75657303D01*
X93153513Y-75657312D01*
X93287875Y-75942846D01*
X93287882Y-75942860D01*
X93456966Y-76209295D01*
X93456969Y-76209299D01*
X93546043Y-76316970D01*
X94189994Y-75673018D01*
X94191570Y-75675589D01*
X94355130Y-75867094D01*
X94546635Y-76030654D01*
X94549203Y-76032228D01*
X93902521Y-76678910D01*
X93902521Y-76678912D01*
X94143486Y-76853983D01*
X94420034Y-77006016D01*
X94713460Y-77122192D01*
X94713466Y-77122194D01*
X95019103Y-77200668D01*
X95019130Y-77200673D01*
X95332195Y-77240222D01*
X95332214Y-77240224D01*
X95647786Y-77240224D01*
X95647804Y-77240222D01*
X95960869Y-77200673D01*
X95960896Y-77200668D01*
X96266533Y-77122194D01*
X96266539Y-77122192D01*
X96559965Y-77006016D01*
X96836517Y-76853980D01*
X97077477Y-76678912D01*
X97077477Y-76678910D01*
X96430795Y-76032228D01*
X96433365Y-76030654D01*
X96624870Y-75867094D01*
X96788430Y-75675589D01*
X96790004Y-75673019D01*
X97433955Y-76316970D01*
X97433956Y-76316969D01*
X97523026Y-76209304D01*
X97523029Y-76209300D01*
X97692117Y-75942860D01*
X97692124Y-75942846D01*
X97826486Y-75657312D01*
X97826490Y-75657303D01*
X97924007Y-75357179D01*
X97924010Y-75357166D01*
X97974262Y-75093740D01*
X98006674Y-75030574D01*
X98068091Y-74994959D01*
X98139014Y-74998202D01*
X98187125Y-75028255D01*
X101033275Y-77874405D01*
X101067301Y-77936717D01*
X101062236Y-78007532D01*
X101019689Y-78064368D01*
X100953169Y-78089179D01*
X100944180Y-78089500D01*
X86566500Y-78089500D01*
X86498379Y-78069498D01*
X86451886Y-78015842D01*
X86440500Y-77963500D01*
X86440500Y-38316500D01*
X86460502Y-38248379D01*
X86514158Y-38201886D01*
X86566500Y-38190500D01*
X100686275Y-38190500D01*
X100754396Y-38210502D01*
G37*
G04 #@! TD.AperFunction*
G04 #@! TA.AperFunction,Conductor*
G36*
X137591621Y-38210502D02*
G01*
X137638114Y-38264158D01*
X137649500Y-38316500D01*
X137649500Y-77963500D01*
X137629498Y-78031621D01*
X137575842Y-78078114D01*
X137523500Y-78089500D01*
X109316529Y-78089500D01*
X109248408Y-78069498D01*
X109201915Y-78015842D01*
X109191811Y-77945568D01*
X109221305Y-77880988D01*
X109227433Y-77874405D01*
X109295424Y-77806413D01*
X109469974Y-77631862D01*
X109532284Y-77597839D01*
X109571872Y-77595612D01*
X109609920Y-77599499D01*
X109641476Y-77602724D01*
X109641482Y-77602724D01*
X110189234Y-77602724D01*
X110262290Y-77595259D01*
X110289690Y-77592460D01*
X110452455Y-77538526D01*
X110598394Y-77448509D01*
X110601604Y-77445298D01*
X110663908Y-77411269D01*
X110734724Y-77416325D01*
X110779801Y-77445291D01*
X110782619Y-77448109D01*
X110782625Y-77448114D01*
X110928469Y-77538071D01*
X111091112Y-77591966D01*
X111091124Y-77591968D01*
X111191501Y-77602223D01*
X111191501Y-77602224D01*
X111211354Y-77602224D01*
X111211354Y-76873224D01*
X111719354Y-76873224D01*
X111719354Y-77602224D01*
X111739207Y-77602224D01*
X111739206Y-77602223D01*
X111839583Y-77591968D01*
X111839595Y-77591966D01*
X112002238Y-77538071D01*
X112148082Y-77448114D01*
X112148088Y-77448109D01*
X112269239Y-77326958D01*
X112269244Y-77326952D01*
X112359201Y-77181108D01*
X112413096Y-77018465D01*
X112413098Y-77018453D01*
X112423353Y-76918076D01*
X112423354Y-76918076D01*
X112423354Y-76873224D01*
X111719354Y-76873224D01*
X111211354Y-76873224D01*
X111211353Y-76283263D01*
X111226936Y-76222567D01*
X111234229Y-76209300D01*
X111237657Y-76203063D01*
X111248515Y-76186535D01*
X111261657Y-76169593D01*
X111261656Y-76169593D01*
X111261658Y-76169592D01*
X111281191Y-76124452D01*
X111283787Y-76119153D01*
X111307478Y-76076061D01*
X111312810Y-76055289D01*
X111319213Y-76036590D01*
X111327734Y-76016901D01*
X111335426Y-75968334D01*
X111336624Y-75962541D01*
X111348854Y-75914912D01*
X111348854Y-75893464D01*
X111350405Y-75873754D01*
X111351460Y-75867094D01*
X111353760Y-75852572D01*
X111349134Y-75803627D01*
X111348854Y-75797695D01*
X111348854Y-75349224D01*
X111719354Y-75349224D01*
X111719354Y-76365224D01*
X112423354Y-76365224D01*
X112423354Y-76320371D01*
X112413098Y-76219994D01*
X112413096Y-76219982D01*
X112359200Y-76057338D01*
X112359199Y-76057335D01*
X112276569Y-75923369D01*
X112257832Y-75854890D01*
X112276569Y-75791076D01*
X112359201Y-75657108D01*
X112413096Y-75494465D01*
X112413098Y-75494453D01*
X112423353Y-75394076D01*
X112423354Y-75394076D01*
X112423354Y-75349224D01*
X111719354Y-75349224D01*
X111348854Y-75349224D01*
X111348854Y-74967224D01*
X111368856Y-74899103D01*
X111422512Y-74852610D01*
X111474854Y-74841224D01*
X112423354Y-74841224D01*
X112423354Y-74796371D01*
X112413098Y-74695994D01*
X112413096Y-74695982D01*
X112359201Y-74533339D01*
X112269244Y-74387495D01*
X112269239Y-74387489D01*
X112148088Y-74266338D01*
X112148082Y-74266333D01*
X112002238Y-74176376D01*
X111839595Y-74122481D01*
X111839583Y-74122479D01*
X111821895Y-74120672D01*
X111756160Y-74093849D01*
X111715362Y-74035746D01*
X111712454Y-73964809D01*
X111745605Y-73906231D01*
X112183112Y-73468724D01*
X112882354Y-73468724D01*
X112882354Y-73513576D01*
X112892609Y-73613953D01*
X112892611Y-73613965D01*
X112946506Y-73776608D01*
X113036463Y-73922452D01*
X113036468Y-73922458D01*
X113157619Y-74043609D01*
X113157625Y-74043614D01*
X113303469Y-74133571D01*
X113466112Y-74187466D01*
X113466124Y-74187468D01*
X113566501Y-74197723D01*
X113566501Y-74197724D01*
X113586354Y-74197724D01*
X113586354Y-73468724D01*
X112882354Y-73468724D01*
X112183112Y-73468724D01*
X112697639Y-72954197D01*
X112759950Y-72920174D01*
X112830765Y-72925238D01*
X112875828Y-72954199D01*
X112882353Y-72960724D01*
X113968354Y-72960724D01*
X114036475Y-72980726D01*
X114082968Y-73034382D01*
X114094354Y-73086724D01*
X114094354Y-74197724D01*
X114114207Y-74197724D01*
X114114206Y-74197723D01*
X114214583Y-74187468D01*
X114214595Y-74187466D01*
X114377238Y-74133571D01*
X114523081Y-74043614D01*
X114525900Y-74040796D01*
X114528314Y-74039477D01*
X114528840Y-74039062D01*
X114528910Y-74039151D01*
X114588210Y-74006767D01*
X114659026Y-74011828D01*
X114704099Y-74040794D01*
X114707314Y-74044009D01*
X114853253Y-74134026D01*
X115016018Y-74187960D01*
X115035439Y-74189944D01*
X115119674Y-74198551D01*
X115119507Y-74200181D01*
X115180491Y-74221387D01*
X115196349Y-74234822D01*
X116707323Y-75745795D01*
X116710782Y-75749547D01*
X116746983Y-75792166D01*
X116811380Y-75841120D01*
X116812724Y-75842170D01*
X116864201Y-75883548D01*
X116875768Y-75892846D01*
X116875771Y-75892847D01*
X116877137Y-75893721D01*
X116894272Y-75904349D01*
X116895636Y-75905170D01*
X116895638Y-75905171D01*
X116895641Y-75905173D01*
X116968465Y-75938865D01*
X116969014Y-75939119D01*
X116970552Y-75939856D01*
X117016243Y-75962516D01*
X117043058Y-75975815D01*
X117043059Y-75975815D01*
X117043063Y-75975817D01*
X117044609Y-75976385D01*
X117063538Y-75983049D01*
X117065110Y-75983579D01*
X117065115Y-75983580D01*
X117065117Y-75983581D01*
X117144099Y-76000966D01*
X117145744Y-76001352D01*
X117224273Y-76020881D01*
X117224275Y-76020881D01*
X117225952Y-76021109D01*
X117245779Y-76023538D01*
X117247485Y-76023723D01*
X117247487Y-76023724D01*
X117328375Y-76023724D01*
X117330081Y-76023747D01*
X117377064Y-76025019D01*
X117410940Y-76025937D01*
X117410940Y-76025936D01*
X117410943Y-76025937D01*
X117412560Y-76025805D01*
X117434454Y-76023724D01*
X127717330Y-76023724D01*
X127722438Y-76023931D01*
X127745445Y-76025805D01*
X127778157Y-76028469D01*
X127778158Y-76028468D01*
X127778161Y-76028469D01*
X127858381Y-76017538D01*
X127859980Y-76017343D01*
X127940416Y-76008596D01*
X127940417Y-76008595D01*
X127940422Y-76008595D01*
X127942080Y-76008230D01*
X127961503Y-76003678D01*
X127963181Y-76003261D01*
X127963182Y-76003260D01*
X127963186Y-76003260D01*
X128016750Y-75983581D01*
X128039106Y-75975368D01*
X128040717Y-75974801D01*
X128077177Y-75962516D01*
X128117376Y-75948972D01*
X128117385Y-75948966D01*
X128118892Y-75948269D01*
X128136892Y-75939644D01*
X128138454Y-75938869D01*
X128138466Y-75938865D01*
X128206720Y-75895237D01*
X128207992Y-75894449D01*
X128277381Y-75852700D01*
X128277382Y-75852698D01*
X128278753Y-75851656D01*
X128294502Y-75839344D01*
X128295800Y-75838299D01*
X128295807Y-75838296D01*
X128353075Y-75781026D01*
X128354174Y-75779955D01*
X128412950Y-75724282D01*
X128412954Y-75724275D01*
X128414063Y-75722970D01*
X128428009Y-75706092D01*
X129733353Y-74400749D01*
X129795662Y-74366725D01*
X129866477Y-74371790D01*
X129923313Y-74414337D01*
X129948124Y-74480857D01*
X129946025Y-74514425D01*
X129941355Y-74537904D01*
X129941353Y-74537914D01*
X129922208Y-74829996D01*
X129922208Y-74830003D01*
X129941353Y-75122085D01*
X129941356Y-75122103D01*
X129998459Y-75409178D01*
X129998462Y-75409191D01*
X130092548Y-75686358D01*
X130092554Y-75686372D01*
X130222014Y-75948893D01*
X130384640Y-76192280D01*
X130384643Y-76192284D01*
X130409808Y-76220979D01*
X130409810Y-76220979D01*
X131187275Y-75443513D01*
X131238348Y-75525999D01*
X131381931Y-75683501D01*
X131543611Y-75805597D01*
X130769019Y-76580188D01*
X130769019Y-76580190D01*
X130797715Y-76605356D01*
X130797719Y-76605359D01*
X131041106Y-76767985D01*
X131303627Y-76897445D01*
X131303641Y-76897451D01*
X131580808Y-76991537D01*
X131580821Y-76991540D01*
X131867896Y-77048643D01*
X131867914Y-77048646D01*
X132159997Y-77067791D01*
X132160003Y-77067791D01*
X132452085Y-77048646D01*
X132452103Y-77048643D01*
X132739178Y-76991540D01*
X132739191Y-76991537D01*
X133016358Y-76897451D01*
X133016372Y-76897445D01*
X133278893Y-76767985D01*
X133522279Y-76605359D01*
X133550979Y-76580190D01*
X133550979Y-76580189D01*
X132776388Y-75805597D01*
X132938069Y-75683501D01*
X133081652Y-75525999D01*
X133132723Y-75443514D01*
X133910188Y-76220979D01*
X133910190Y-76220979D01*
X133935359Y-76192279D01*
X134097985Y-75948893D01*
X134227445Y-75686372D01*
X134227451Y-75686358D01*
X134321537Y-75409191D01*
X134321540Y-75409178D01*
X134378643Y-75122103D01*
X134378646Y-75122085D01*
X134397791Y-74830003D01*
X134397791Y-74829996D01*
X134378646Y-74537914D01*
X134378643Y-74537896D01*
X134321540Y-74250821D01*
X134321537Y-74250808D01*
X134227451Y-73973641D01*
X134227445Y-73973627D01*
X134097985Y-73711107D01*
X133935359Y-73467719D01*
X133935356Y-73467715D01*
X133910190Y-73439019D01*
X133910188Y-73439019D01*
X133132722Y-74216484D01*
X133081652Y-74134001D01*
X132938069Y-73976499D01*
X132776387Y-73854401D01*
X133550979Y-73079810D01*
X133550979Y-73079808D01*
X133522284Y-73054643D01*
X133522280Y-73054640D01*
X133297563Y-72904489D01*
X133252035Y-72850012D01*
X133243187Y-72779569D01*
X133273829Y-72715525D01*
X133334230Y-72678214D01*
X133367565Y-72673724D01*
X134447908Y-72673724D01*
X134453016Y-72673931D01*
X134479286Y-72676070D01*
X134508735Y-72678469D01*
X134508736Y-72678468D01*
X134508739Y-72678469D01*
X134588959Y-72667538D01*
X134590558Y-72667343D01*
X134670994Y-72658596D01*
X134670995Y-72658595D01*
X134671000Y-72658595D01*
X134672658Y-72658230D01*
X134692081Y-72653678D01*
X134693759Y-72653261D01*
X134693760Y-72653260D01*
X134693764Y-72653260D01*
X134743012Y-72635166D01*
X134769684Y-72625368D01*
X134771295Y-72624801D01*
X134806580Y-72612911D01*
X134847954Y-72598972D01*
X134847963Y-72598966D01*
X134849470Y-72598269D01*
X134867470Y-72589644D01*
X134869032Y-72588869D01*
X134869044Y-72588865D01*
X134937298Y-72545237D01*
X134938570Y-72544449D01*
X135007959Y-72502700D01*
X135007960Y-72502698D01*
X135009331Y-72501656D01*
X135025080Y-72489344D01*
X135026378Y-72488299D01*
X135026385Y-72488296D01*
X135083652Y-72431027D01*
X135084751Y-72429956D01*
X135143528Y-72374282D01*
X135143532Y-72374275D01*
X135144637Y-72372975D01*
X135158588Y-72356091D01*
X136475937Y-71038741D01*
X136479677Y-71035295D01*
X136522296Y-70999095D01*
X136571278Y-70934659D01*
X136572264Y-70933396D01*
X136622975Y-70870311D01*
X136622977Y-70870305D01*
X136623929Y-70868817D01*
X136634390Y-70851952D01*
X136635296Y-70850445D01*
X136635303Y-70850437D01*
X136669284Y-70776988D01*
X136669999Y-70775495D01*
X136705944Y-70703021D01*
X136705947Y-70703008D01*
X136706561Y-70701337D01*
X136713149Y-70682625D01*
X136713707Y-70680968D01*
X136713711Y-70680961D01*
X136731113Y-70601897D01*
X136731482Y-70600323D01*
X136751010Y-70521805D01*
X136751010Y-70521800D01*
X136751239Y-70520121D01*
X136753674Y-70500239D01*
X136753854Y-70498590D01*
X136753854Y-70417686D01*
X136753877Y-70415980D01*
X136756067Y-70335135D01*
X136755935Y-70333518D01*
X136753854Y-70311625D01*
X136753854Y-46882673D01*
X136754062Y-46877558D01*
X136758599Y-46821843D01*
X136758599Y-46821842D01*
X136747675Y-46741661D01*
X136747468Y-46739967D01*
X136745154Y-46718691D01*
X136738726Y-46659584D01*
X136738724Y-46659579D01*
X136738357Y-46657909D01*
X136733811Y-46638508D01*
X136733390Y-46636812D01*
X136715745Y-46588786D01*
X136705474Y-46560829D01*
X136704929Y-46559280D01*
X136693948Y-46526689D01*
X136679102Y-46482624D01*
X136679101Y-46482622D01*
X136679100Y-46482619D01*
X136678394Y-46481093D01*
X136669748Y-46463050D01*
X136668994Y-46461530D01*
X136625432Y-46393379D01*
X136624533Y-46391929D01*
X136612065Y-46371209D01*
X136582830Y-46322619D01*
X136582827Y-46322616D01*
X136582826Y-46322614D01*
X136581869Y-46321355D01*
X136569409Y-46305416D01*
X136568427Y-46304195D01*
X136541022Y-46276790D01*
X136511192Y-46246960D01*
X136510038Y-46245774D01*
X136454412Y-46187050D01*
X136454408Y-46187047D01*
X136453168Y-46185993D01*
X136436217Y-46171985D01*
X134578394Y-44314162D01*
X134574924Y-44310399D01*
X134538724Y-44267781D01*
X134527534Y-44259275D01*
X134474247Y-44218767D01*
X134473034Y-44217818D01*
X134409941Y-44167103D01*
X134409938Y-44167101D01*
X134408562Y-44166222D01*
X134391415Y-44155585D01*
X134390072Y-44154777D01*
X134316648Y-44120807D01*
X134315132Y-44120081D01*
X134242651Y-44084134D01*
X134242649Y-44084133D01*
X134242648Y-44084133D01*
X134241166Y-44083588D01*
X134222103Y-44076876D01*
X134220591Y-44076366D01*
X134141607Y-44058981D01*
X134139946Y-44058592D01*
X134061432Y-44039067D01*
X134059936Y-44038863D01*
X134039715Y-44036386D01*
X134038223Y-44036224D01*
X134038221Y-44036224D01*
X133957317Y-44036224D01*
X133955611Y-44036201D01*
X133874764Y-44034010D01*
X133873147Y-44034142D01*
X133851254Y-44036224D01*
X132242517Y-44036224D01*
X132174396Y-44016222D01*
X132153422Y-43999319D01*
X132013496Y-43859393D01*
X131979470Y-43797081D01*
X131984535Y-43726266D01*
X132027082Y-43669430D01*
X132093602Y-43644619D01*
X132110833Y-43644568D01*
X132159998Y-43647791D01*
X132160003Y-43647791D01*
X132452085Y-43628646D01*
X132452103Y-43628643D01*
X132739178Y-43571540D01*
X132739191Y-43571537D01*
X133016358Y-43477451D01*
X133016372Y-43477445D01*
X133278893Y-43347985D01*
X133522279Y-43185359D01*
X133550979Y-43160190D01*
X133550979Y-43160189D01*
X132776387Y-42385597D01*
X132938069Y-42263501D01*
X133081652Y-42105999D01*
X133132723Y-42023514D01*
X133910189Y-42800979D01*
X133910190Y-42800979D01*
X133935359Y-42772279D01*
X134097985Y-42528893D01*
X134227445Y-42266372D01*
X134227451Y-42266358D01*
X134321537Y-41989191D01*
X134321540Y-41989178D01*
X134378643Y-41702103D01*
X134378646Y-41702085D01*
X134397791Y-41410003D01*
X134397791Y-41409996D01*
X134378646Y-41117914D01*
X134378643Y-41117896D01*
X134321540Y-40830821D01*
X134321537Y-40830808D01*
X134227451Y-40553641D01*
X134227445Y-40553627D01*
X134097985Y-40291107D01*
X133935359Y-40047719D01*
X133935356Y-40047715D01*
X133910190Y-40019019D01*
X133910188Y-40019019D01*
X133132722Y-40796484D01*
X133081652Y-40714001D01*
X132938069Y-40556499D01*
X132776387Y-40434401D01*
X133550979Y-39659810D01*
X133550979Y-39659808D01*
X133522284Y-39634643D01*
X133522280Y-39634640D01*
X133278893Y-39472014D01*
X133016372Y-39342554D01*
X133016358Y-39342548D01*
X132739191Y-39248462D01*
X132739178Y-39248459D01*
X132452103Y-39191356D01*
X132452085Y-39191353D01*
X132160003Y-39172209D01*
X132159997Y-39172209D01*
X131867914Y-39191353D01*
X131867896Y-39191356D01*
X131580821Y-39248459D01*
X131580808Y-39248462D01*
X131303641Y-39342548D01*
X131303627Y-39342554D01*
X131041107Y-39472014D01*
X130797717Y-39634641D01*
X130769019Y-39659807D01*
X130769019Y-39659810D01*
X131543611Y-40434402D01*
X131381931Y-40556499D01*
X131238348Y-40714001D01*
X131187276Y-40796485D01*
X130409810Y-40019019D01*
X130409807Y-40019019D01*
X130384641Y-40047717D01*
X130222014Y-40291107D01*
X130092554Y-40553627D01*
X130092548Y-40553641D01*
X129998462Y-40830808D01*
X129998459Y-40830821D01*
X129941356Y-41117896D01*
X129941353Y-41117914D01*
X129922208Y-41409996D01*
X129922209Y-41410004D01*
X129925431Y-41459169D01*
X129909927Y-41528452D01*
X129859426Y-41578354D01*
X129789964Y-41593032D01*
X129723592Y-41567826D01*
X129710606Y-41556504D01*
X129674264Y-41520162D01*
X129670794Y-41516399D01*
X129659855Y-41503521D01*
X129634595Y-41473782D01*
X129570117Y-41424767D01*
X129568904Y-41423818D01*
X129505811Y-41373103D01*
X129505808Y-41373101D01*
X129504432Y-41372222D01*
X129487285Y-41361585D01*
X129485942Y-41360777D01*
X129412518Y-41326807D01*
X129411002Y-41326081D01*
X129338521Y-41290134D01*
X129338519Y-41290133D01*
X129338518Y-41290133D01*
X129337036Y-41289588D01*
X129317973Y-41282876D01*
X129316461Y-41282366D01*
X129237477Y-41264981D01*
X129235816Y-41264592D01*
X129157302Y-41245067D01*
X129155806Y-41244863D01*
X129135585Y-41242386D01*
X129134093Y-41242224D01*
X129134091Y-41242224D01*
X129053187Y-41242224D01*
X129051481Y-41242201D01*
X128970634Y-41240010D01*
X128969017Y-41240142D01*
X128947124Y-41242224D01*
X122584468Y-41242224D01*
X122518321Y-41223465D01*
X122457455Y-41185922D01*
X122294690Y-41131988D01*
X122294687Y-41131987D01*
X122194234Y-41121724D01*
X122194226Y-41121724D01*
X121646482Y-41121724D01*
X121646474Y-41121724D01*
X121546020Y-41131987D01*
X121383253Y-41185922D01*
X121237313Y-41275939D01*
X121237306Y-41275945D01*
X121234085Y-41279166D01*
X121171769Y-41313184D01*
X121100953Y-41308110D01*
X121055905Y-41279155D01*
X121053088Y-41276338D01*
X121053082Y-41276333D01*
X120907242Y-41186378D01*
X120760230Y-41137664D01*
X120701859Y-41097250D01*
X120674603Y-41031693D01*
X120687116Y-40961808D01*
X120704636Y-40935550D01*
X120767530Y-40862967D01*
X120828273Y-40729958D01*
X120849083Y-40585224D01*
X120849083Y-40120987D01*
X120849083Y-39568805D01*
X120849082Y-39568796D01*
X120849082Y-39549461D01*
X120849083Y-39549461D01*
X120849083Y-39085224D01*
X120843854Y-39012113D01*
X120802658Y-38871813D01*
X120723604Y-38748803D01*
X120613097Y-38653048D01*
X120480088Y-38592305D01*
X120480081Y-38592303D01*
X120335360Y-38571495D01*
X120335354Y-38571495D01*
X119763465Y-38571495D01*
X119618731Y-38592303D01*
X119618732Y-38592304D01*
X119618723Y-38592306D01*
X119480777Y-38632810D01*
X119347765Y-38693555D01*
X119347760Y-38693558D01*
X119226833Y-38771272D01*
X119226820Y-38771281D01*
X119226814Y-38771286D01*
X119226810Y-38771289D01*
X119203522Y-38791467D01*
X119116303Y-38867044D01*
X119022151Y-38975703D01*
X119022149Y-38975705D01*
X119022149Y-38975706D01*
X118962291Y-39068846D01*
X118908638Y-39115338D01*
X118856295Y-39126724D01*
X118775659Y-39126724D01*
X118707538Y-39106722D01*
X118676616Y-39078612D01*
X118601259Y-38982788D01*
X118441276Y-38844162D01*
X118441265Y-38844154D01*
X118257941Y-38738313D01*
X118257934Y-38738310D01*
X118057884Y-38669072D01*
X118057883Y-38669071D01*
X118057881Y-38669071D01*
X118057879Y-38669070D01*
X118057873Y-38669069D01*
X117848339Y-38638942D01*
X117803238Y-38641091D01*
X117770441Y-38642653D01*
X117767472Y-38642724D01*
X116546704Y-38642724D01*
X116486157Y-38649233D01*
X116486156Y-38649234D01*
X116486153Y-38649234D01*
X116486153Y-38649235D01*
X116367331Y-38693554D01*
X116364387Y-38694652D01*
X116293571Y-38699717D01*
X116276321Y-38694652D01*
X116273380Y-38693555D01*
X116154555Y-38649235D01*
X116154553Y-38649234D01*
X116154551Y-38649234D01*
X116154550Y-38649233D01*
X116094003Y-38642724D01*
X116093992Y-38642724D01*
X114496716Y-38642724D01*
X114496704Y-38642724D01*
X114436157Y-38649233D01*
X114436149Y-38649235D01*
X114339387Y-38685327D01*
X114268571Y-38690393D01*
X114251321Y-38685327D01*
X114154558Y-38649235D01*
X114154550Y-38649233D01*
X114094003Y-38642724D01*
X114093992Y-38642724D01*
X112496716Y-38642724D01*
X112496704Y-38642724D01*
X112436157Y-38649233D01*
X112436156Y-38649234D01*
X112436153Y-38649234D01*
X112436153Y-38649235D01*
X112317331Y-38693554D01*
X112314387Y-38694652D01*
X112243571Y-38699717D01*
X112226321Y-38694652D01*
X112223380Y-38693555D01*
X112104555Y-38649235D01*
X112104553Y-38649234D01*
X112104551Y-38649234D01*
X112104550Y-38649233D01*
X112044003Y-38642724D01*
X112043992Y-38642724D01*
X110883645Y-38642724D01*
X110865713Y-38641441D01*
X110859398Y-38640533D01*
X110848334Y-38638942D01*
X110799090Y-38641288D01*
X110770441Y-38642653D01*
X110767472Y-38642724D01*
X110746716Y-38642724D01*
X110746710Y-38642724D01*
X110746702Y-38642725D01*
X110734635Y-38644022D01*
X110730869Y-38644427D01*
X110727139Y-38644716D01*
X110636890Y-38649014D01*
X110636877Y-38649016D01*
X110431155Y-38698924D01*
X110431149Y-38698926D01*
X110238582Y-38786868D01*
X110238575Y-38786872D01*
X110066145Y-38909659D01*
X110066135Y-38909668D01*
X109920049Y-39062880D01*
X109805598Y-39240969D01*
X109726917Y-39437505D01*
X109686854Y-39645370D01*
X109686853Y-39645379D01*
X109686853Y-39878064D01*
X109666851Y-39946184D01*
X109613195Y-39992677D01*
X109542921Y-40002780D01*
X109478340Y-39973287D01*
X109471758Y-39967158D01*
X109054061Y-39549461D01*
X108565318Y-39060718D01*
X108562734Y-39057974D01*
X108521127Y-39011009D01*
X108521124Y-39011007D01*
X108521125Y-39011007D01*
X108469509Y-38975378D01*
X108466444Y-38973123D01*
X108448000Y-38958673D01*
X108417080Y-38934449D01*
X108417079Y-38934448D01*
X108407778Y-38930262D01*
X108387920Y-38919061D01*
X108379533Y-38913272D01*
X108379529Y-38913270D01*
X108358977Y-38905475D01*
X108302377Y-38862615D01*
X108298177Y-38856580D01*
X108252632Y-38786868D01*
X108201076Y-38707956D01*
X108048594Y-38542318D01*
X108048592Y-38542316D01*
X108048587Y-38542311D01*
X107886215Y-38415931D01*
X107844744Y-38358306D01*
X107841011Y-38287408D01*
X107876201Y-38225746D01*
X107939141Y-38192898D01*
X107963606Y-38190500D01*
X137523500Y-38190500D01*
X137591621Y-38210502D01*
G37*
G04 #@! TD.AperFunction*
G04 #@! TA.AperFunction,Conductor*
G36*
X106899525Y-75063726D02*
G01*
X106946018Y-75117382D01*
X106956122Y-75187656D01*
X106926628Y-75252236D01*
X106920499Y-75258819D01*
X106389499Y-75789819D01*
X106327187Y-75823845D01*
X106300404Y-75826724D01*
X104202354Y-75826724D01*
X104134233Y-75806722D01*
X104087740Y-75753066D01*
X104076354Y-75700724D01*
X104076354Y-75477224D01*
X104096356Y-75409103D01*
X104150012Y-75362610D01*
X104202354Y-75351224D01*
X105288354Y-75351224D01*
X105288354Y-75306371D01*
X105278098Y-75205994D01*
X105276657Y-75199260D01*
X105278851Y-75198790D01*
X105276771Y-75138410D01*
X105313075Y-75077397D01*
X105376602Y-75045698D01*
X105398818Y-75043724D01*
X106831404Y-75043724D01*
X106899525Y-75063726D01*
G37*
G04 #@! TD.AperFunction*
G04 #@! TA.AperFunction,Conductor*
G36*
X123516075Y-61822116D02*
G01*
X123537049Y-61839019D01*
X123584595Y-61886565D01*
X123618621Y-61948877D01*
X123621500Y-61975660D01*
X123621500Y-74180724D01*
X123601498Y-74248845D01*
X123547842Y-74295338D01*
X123495500Y-74306724D01*
X117748646Y-74306724D01*
X117680525Y-74286722D01*
X117659551Y-74269819D01*
X116385452Y-72995720D01*
X116351426Y-72933408D01*
X116349521Y-72919011D01*
X116349181Y-72919046D01*
X116345508Y-72883110D01*
X116342727Y-72855884D01*
X116355700Y-72786084D01*
X116404352Y-72734378D01*
X116473235Y-72717183D01*
X116475614Y-72717303D01*
X116480947Y-72717626D01*
X116542666Y-72706315D01*
X116546379Y-72705750D01*
X116608655Y-72698189D01*
X116618184Y-72694574D01*
X116640158Y-72688450D01*
X116650183Y-72686613D01*
X116707406Y-72660858D01*
X116710863Y-72659426D01*
X116769529Y-72637178D01*
X116777920Y-72631385D01*
X116797776Y-72620185D01*
X116807080Y-72615999D01*
X116856490Y-72577287D01*
X116859475Y-72575091D01*
X116911127Y-72539439D01*
X116952750Y-72492455D01*
X116955303Y-72489743D01*
X117096614Y-72348432D01*
X117158924Y-72314408D01*
X117229739Y-72319473D01*
X117274802Y-72348433D01*
X117847981Y-72921611D01*
X117858192Y-72934355D01*
X117858385Y-72934196D01*
X117863437Y-72940303D01*
X117915832Y-72989505D01*
X117917221Y-72990851D01*
X117938521Y-73012151D01*
X117940953Y-73014037D01*
X117944371Y-73016689D01*
X117948887Y-73020546D01*
X117984721Y-73054196D01*
X118003523Y-73064532D01*
X118020029Y-73075375D01*
X118036986Y-73088528D01*
X118082108Y-73108053D01*
X118087434Y-73110663D01*
X118130513Y-73134347D01*
X118130517Y-73134348D01*
X118151286Y-73139680D01*
X118169988Y-73146083D01*
X118189678Y-73154604D01*
X118238249Y-73162296D01*
X118244043Y-73163495D01*
X118291666Y-73175724D01*
X118313113Y-73175724D01*
X118332821Y-73177274D01*
X118354006Y-73180630D01*
X118391734Y-73177063D01*
X118402948Y-73176004D01*
X118408881Y-73175724D01*
X120665649Y-73175724D01*
X120733770Y-73195726D01*
X120771132Y-73232809D01*
X120850629Y-73354488D01*
X120850633Y-73354494D01*
X121003116Y-73520132D01*
X121057685Y-73562605D01*
X121180778Y-73658413D01*
X121378780Y-73765566D01*
X121378781Y-73765566D01*
X121378782Y-73765567D01*
X121410944Y-73776608D01*
X121591719Y-73838668D01*
X121813785Y-73875724D01*
X121813789Y-73875724D01*
X122038919Y-73875724D01*
X122038923Y-73875724D01*
X122260989Y-73838668D01*
X122473928Y-73765566D01*
X122671930Y-73658413D01*
X122849594Y-73520130D01*
X123002076Y-73354492D01*
X123125214Y-73166015D01*
X123215650Y-72959840D01*
X123270918Y-72741592D01*
X123289510Y-72517224D01*
X123270918Y-72292856D01*
X123241554Y-72176899D01*
X123215651Y-72074611D01*
X123215650Y-72074610D01*
X123215650Y-72074608D01*
X123125214Y-71868433D01*
X123089762Y-71814170D01*
X123002078Y-71679958D01*
X123002074Y-71679953D01*
X122849591Y-71514315D01*
X122747335Y-71434726D01*
X122671930Y-71376035D01*
X122638673Y-71358037D01*
X122588283Y-71308026D01*
X122572930Y-71238709D01*
X122597490Y-71172096D01*
X122638674Y-71136410D01*
X122639753Y-71135826D01*
X122671930Y-71118413D01*
X122849594Y-70980130D01*
X123002076Y-70814492D01*
X123003964Y-70811603D01*
X123016854Y-70791872D01*
X123125214Y-70626015D01*
X123215650Y-70419840D01*
X123270918Y-70201592D01*
X123289510Y-69977224D01*
X123270918Y-69752856D01*
X123270916Y-69752848D01*
X123215651Y-69534611D01*
X123215650Y-69534610D01*
X123215650Y-69534608D01*
X123125214Y-69328433D01*
X123051276Y-69215262D01*
X123002078Y-69139958D01*
X123002074Y-69139953D01*
X122849591Y-68974315D01*
X122752077Y-68898417D01*
X122671930Y-68836035D01*
X122670431Y-68835224D01*
X122638674Y-68818038D01*
X122588283Y-68768026D01*
X122572930Y-68698709D01*
X122597490Y-68632096D01*
X122638674Y-68596410D01*
X122638678Y-68596408D01*
X122671930Y-68578413D01*
X122849594Y-68440130D01*
X123002076Y-68274492D01*
X123125214Y-68086015D01*
X123215650Y-67879840D01*
X123270918Y-67661592D01*
X123289510Y-67437224D01*
X123270918Y-67212856D01*
X123226009Y-67035515D01*
X123215651Y-66994611D01*
X123215650Y-66994610D01*
X123215650Y-66994608D01*
X123125214Y-66788433D01*
X123113841Y-66771026D01*
X123002078Y-66599958D01*
X123002074Y-66599953D01*
X122851635Y-66436535D01*
X122849594Y-66434318D01*
X122849593Y-66434317D01*
X122849591Y-66434315D01*
X122731784Y-66342622D01*
X122671930Y-66296035D01*
X122671891Y-66296014D01*
X122638674Y-66278038D01*
X122588283Y-66228026D01*
X122572930Y-66158709D01*
X122597490Y-66092096D01*
X122638674Y-66056410D01*
X122671930Y-66038413D01*
X122849594Y-65900130D01*
X123002076Y-65734492D01*
X123125214Y-65546015D01*
X123215650Y-65339840D01*
X123270918Y-65121592D01*
X123289510Y-64897224D01*
X123270918Y-64672856D01*
X123249688Y-64589022D01*
X123215651Y-64454611D01*
X123215650Y-64454610D01*
X123215650Y-64454608D01*
X123125214Y-64248433D01*
X123094760Y-64201819D01*
X123002078Y-64059958D01*
X123002074Y-64059953D01*
X122865619Y-63911726D01*
X122849594Y-63894318D01*
X122849593Y-63894317D01*
X122849591Y-63894315D01*
X122735036Y-63805153D01*
X122671930Y-63756035D01*
X122638673Y-63738037D01*
X122588283Y-63688026D01*
X122572930Y-63618709D01*
X122597490Y-63552096D01*
X122638674Y-63516410D01*
X122649918Y-63510325D01*
X122671930Y-63498413D01*
X122849594Y-63360130D01*
X123002076Y-63194492D01*
X123125214Y-63006015D01*
X123215650Y-62799840D01*
X123270918Y-62581592D01*
X123289510Y-62357224D01*
X123270918Y-62132856D01*
X123226903Y-61959045D01*
X123229570Y-61888099D01*
X123270170Y-61829857D01*
X123335813Y-61802811D01*
X123349047Y-61802114D01*
X123447954Y-61802114D01*
X123516075Y-61822116D01*
G37*
G04 #@! TD.AperFunction*
G04 #@! TA.AperFunction,Conductor*
G36*
X125247011Y-55698095D02*
G01*
X125253594Y-55704224D01*
X125445500Y-55896130D01*
X125479526Y-55958442D01*
X125481612Y-55971113D01*
X125482136Y-55975767D01*
X125482137Y-55975773D01*
X125542311Y-56147739D01*
X125542312Y-56147741D01*
X125597540Y-56235636D01*
X125616853Y-56302672D01*
X125616853Y-63805153D01*
X125596851Y-63873274D01*
X125594066Y-63877423D01*
X125500745Y-64010699D01*
X125402134Y-64222171D01*
X125402132Y-64222175D01*
X125367755Y-64350473D01*
X125341742Y-64447556D01*
X125321406Y-64680000D01*
X125341742Y-64912444D01*
X125367138Y-65007224D01*
X125402087Y-65137657D01*
X125402133Y-65137826D01*
X125437926Y-65214584D01*
X125500744Y-65349297D01*
X125554338Y-65425838D01*
X125634578Y-65540432D01*
X125799568Y-65705422D01*
X125990703Y-65839256D01*
X126202174Y-65937867D01*
X126427556Y-65998258D01*
X126660000Y-66018594D01*
X126892444Y-65998258D01*
X127117826Y-65937867D01*
X127117830Y-65937865D01*
X127117831Y-65937865D01*
X127221169Y-65889677D01*
X127291360Y-65879015D01*
X127356173Y-65907994D01*
X127363513Y-65914773D01*
X127365546Y-65916806D01*
X127365547Y-65916807D01*
X127380714Y-65931974D01*
X127393551Y-65947004D01*
X127406159Y-65964357D01*
X127424619Y-65979628D01*
X127444039Y-65995694D01*
X127448420Y-65999680D01*
X127637622Y-66188882D01*
X127822963Y-66374223D01*
X127856989Y-66436535D01*
X127855575Y-66495929D01*
X127841742Y-66547552D01*
X127823718Y-66753571D01*
X127821406Y-66780000D01*
X127841742Y-67012444D01*
X127870689Y-67120474D01*
X127901784Y-67236526D01*
X127902133Y-67237826D01*
X127977021Y-67398424D01*
X128000744Y-67449297D01*
X128081903Y-67565205D01*
X128134578Y-67640432D01*
X128299568Y-67805422D01*
X128490703Y-67939256D01*
X128531541Y-67958299D01*
X128547637Y-67965805D01*
X128600922Y-68012723D01*
X128620383Y-68081000D01*
X128599841Y-68148960D01*
X128547637Y-68194195D01*
X128490702Y-68220744D01*
X128299571Y-68354575D01*
X128299565Y-68354580D01*
X128134580Y-68519565D01*
X128134575Y-68519571D01*
X128000744Y-68710702D01*
X127902134Y-68922171D01*
X127902132Y-68922175D01*
X127860783Y-69076493D01*
X127841742Y-69147556D01*
X127821406Y-69380000D01*
X127841742Y-69612444D01*
X127848894Y-69639135D01*
X127902132Y-69837824D01*
X127902134Y-69837828D01*
X128000744Y-70049297D01*
X128134575Y-70240428D01*
X128134580Y-70240434D01*
X128235051Y-70340905D01*
X128269077Y-70403217D01*
X128264012Y-70474032D01*
X128235051Y-70519095D01*
X128134580Y-70619565D01*
X128134575Y-70619571D01*
X128013213Y-70792895D01*
X127957756Y-70837223D01*
X127887137Y-70844532D01*
X127823776Y-70812501D01*
X127806787Y-70792895D01*
X127685424Y-70619571D01*
X127685419Y-70619565D01*
X127520434Y-70454580D01*
X127520428Y-70454575D01*
X127329297Y-70320744D01*
X127157068Y-70240432D01*
X127117826Y-70222133D01*
X127117824Y-70222132D01*
X127013223Y-70194104D01*
X126892444Y-70161742D01*
X126660000Y-70141406D01*
X126427556Y-70161742D01*
X126367166Y-70177923D01*
X126202175Y-70222132D01*
X126202171Y-70222134D01*
X125990702Y-70320744D01*
X125799571Y-70454575D01*
X125799565Y-70454580D01*
X125634580Y-70619565D01*
X125634575Y-70619571D01*
X125500744Y-70810702D01*
X125402134Y-71022171D01*
X125402132Y-71022175D01*
X125361961Y-71172096D01*
X125341742Y-71247556D01*
X125321406Y-71480000D01*
X125341742Y-71712444D01*
X125371583Y-71823812D01*
X125399610Y-71928412D01*
X125402133Y-71937826D01*
X125458724Y-72059186D01*
X125500744Y-72149297D01*
X125634571Y-72340423D01*
X125634578Y-72340432D01*
X125799568Y-72505422D01*
X125990703Y-72639256D01*
X126202174Y-72737867D01*
X126427556Y-72798258D01*
X126660000Y-72818594D01*
X126892444Y-72798258D01*
X127117826Y-72737867D01*
X127329297Y-72639256D01*
X127520432Y-72505422D01*
X127685422Y-72340432D01*
X127766792Y-72224224D01*
X127806787Y-72167105D01*
X127862244Y-72122776D01*
X127932863Y-72115467D01*
X127996224Y-72147497D01*
X128013213Y-72167105D01*
X128134571Y-72340423D01*
X128134575Y-72340428D01*
X128134578Y-72340432D01*
X128299568Y-72505422D01*
X128490703Y-72639256D01*
X128702174Y-72737867D01*
X128702183Y-72737869D01*
X128707343Y-72739748D01*
X128706848Y-72741106D01*
X128761657Y-72774503D01*
X128792687Y-72838359D01*
X128784269Y-72908855D01*
X128757530Y-72948366D01*
X127436077Y-74269820D01*
X127373767Y-74303844D01*
X127346984Y-74306724D01*
X125164500Y-74306724D01*
X125096379Y-74286722D01*
X125049886Y-74233066D01*
X125038500Y-74180724D01*
X125038500Y-61653302D01*
X125038615Y-61649497D01*
X125042401Y-61586907D01*
X125040562Y-61576875D01*
X125038499Y-61554180D01*
X125038499Y-55793318D01*
X125058501Y-55725198D01*
X125112157Y-55678705D01*
X125182431Y-55668601D01*
X125247011Y-55698095D01*
G37*
G04 #@! TD.AperFunction*
G04 #@! TA.AperFunction,Conductor*
G36*
X111433975Y-70550226D02*
G01*
X111480468Y-70603882D01*
X111491854Y-70656224D01*
X111491854Y-70854224D01*
X111471852Y-70922345D01*
X111418196Y-70968838D01*
X111365854Y-70980224D01*
X111150354Y-70980224D01*
X111150354Y-72000724D01*
X111198941Y-72000724D01*
X111198944Y-72000723D01*
X111236881Y-71996644D01*
X111263827Y-71996644D01*
X111301763Y-72000723D01*
X111301767Y-72000724D01*
X111350354Y-72000724D01*
X111350354Y-71851516D01*
X111370356Y-71783395D01*
X111424012Y-71736902D01*
X111494286Y-71726798D01*
X111558866Y-71756292D01*
X111577222Y-71776007D01*
X111633747Y-71851516D01*
X111637093Y-71855985D01*
X111690101Y-71895666D01*
X111732647Y-71952501D01*
X111737713Y-72023316D01*
X111703688Y-72085629D01*
X111703687Y-72085629D01*
X110776448Y-73012868D01*
X110714136Y-73046894D01*
X110643321Y-73041829D01*
X110586485Y-72999282D01*
X110561674Y-72932762D01*
X110561354Y-72923801D01*
X110561354Y-72126720D01*
X110581355Y-72058603D01*
X110635011Y-72012110D01*
X110687353Y-72000724D01*
X110700354Y-72000724D01*
X110700354Y-70656224D01*
X110720356Y-70588103D01*
X110774012Y-70541610D01*
X110826354Y-70530224D01*
X111365854Y-70530224D01*
X111433975Y-70550226D01*
G37*
G04 #@! TD.AperFunction*
G04 #@! TA.AperFunction,Conductor*
G36*
X105570864Y-70773726D02*
G01*
X105608227Y-70810811D01*
X105610632Y-70814492D01*
X105755798Y-70972183D01*
X105763116Y-70980132D01*
X105795456Y-71005303D01*
X105940778Y-71118413D01*
X105972955Y-71135826D01*
X105974034Y-71136410D01*
X106024425Y-71186424D01*
X106039777Y-71255740D01*
X106015216Y-71322353D01*
X105974034Y-71358037D01*
X105940780Y-71376034D01*
X105940778Y-71376035D01*
X105763116Y-71514315D01*
X105610633Y-71679953D01*
X105610629Y-71679959D01*
X105531132Y-71801639D01*
X105477128Y-71847728D01*
X105425649Y-71858724D01*
X103339854Y-71858724D01*
X103271733Y-71838722D01*
X103225240Y-71785066D01*
X103213854Y-71732724D01*
X103213854Y-70879724D01*
X103233856Y-70811603D01*
X103287512Y-70765110D01*
X103339854Y-70753724D01*
X105502743Y-70753724D01*
X105570864Y-70773726D01*
G37*
G04 #@! TD.AperFunction*
G04 #@! TA.AperFunction,Conductor*
G36*
X120875665Y-71434726D02*
G01*
X120922158Y-71488382D01*
X120932262Y-71558656D01*
X120902768Y-71623236D01*
X120900245Y-71626062D01*
X120850634Y-71679953D01*
X120850629Y-71679959D01*
X120771132Y-71801639D01*
X120717128Y-71847728D01*
X120665649Y-71858724D01*
X118888036Y-71858724D01*
X118819915Y-71838722D01*
X118773422Y-71785066D01*
X118763318Y-71714792D01*
X118769981Y-71688691D01*
X118802342Y-71601928D01*
X118802344Y-71601920D01*
X118808853Y-71541373D01*
X118808854Y-71541356D01*
X118808854Y-71540724D01*
X118808895Y-71540582D01*
X118809034Y-71537996D01*
X118809645Y-71538028D01*
X118828856Y-71472603D01*
X118882512Y-71426110D01*
X118934854Y-71414724D01*
X120807544Y-71414724D01*
X120875665Y-71434726D01*
G37*
G04 #@! TD.AperFunction*
G04 #@! TA.AperFunction,Conductor*
G36*
X130643407Y-44930274D02*
G01*
X130682902Y-44957005D01*
X131201187Y-45475290D01*
X131204658Y-45479054D01*
X131231655Y-45510838D01*
X131240853Y-45521666D01*
X131305291Y-45570650D01*
X131306565Y-45571647D01*
X131369637Y-45622346D01*
X131369639Y-45622347D01*
X131371009Y-45623223D01*
X131388115Y-45633833D01*
X131389509Y-45634672D01*
X131389510Y-45634672D01*
X131389511Y-45634673D01*
X131462999Y-45668671D01*
X131464410Y-45669348D01*
X131536928Y-45705315D01*
X131536931Y-45705315D01*
X131536934Y-45705317D01*
X131538479Y-45705885D01*
X131557408Y-45712549D01*
X131558980Y-45713079D01*
X131558985Y-45713080D01*
X131558987Y-45713081D01*
X131637969Y-45730466D01*
X131639614Y-45730852D01*
X131718143Y-45750381D01*
X131718145Y-45750381D01*
X131719822Y-45750609D01*
X131739649Y-45753038D01*
X131741355Y-45753223D01*
X131741357Y-45753224D01*
X131822245Y-45753224D01*
X131823951Y-45753247D01*
X131870934Y-45754519D01*
X131904810Y-45755437D01*
X131904810Y-45755436D01*
X131904813Y-45755437D01*
X131906430Y-45755305D01*
X131928324Y-45753224D01*
X132340089Y-45753224D01*
X132408210Y-45773226D01*
X132454703Y-45826882D01*
X132464807Y-45897156D01*
X132435313Y-45961736D01*
X132380590Y-45998537D01*
X132103641Y-46092548D01*
X132103627Y-46092554D01*
X131841107Y-46222014D01*
X131597717Y-46384641D01*
X131569019Y-46409807D01*
X131569019Y-46409810D01*
X132343611Y-47184402D01*
X132181931Y-47306499D01*
X132038348Y-47464001D01*
X131987276Y-47546485D01*
X131209810Y-46769019D01*
X131209807Y-46769019D01*
X131184641Y-46797717D01*
X131022014Y-47041107D01*
X130892554Y-47303627D01*
X130892548Y-47303641D01*
X130798462Y-47580808D01*
X130798459Y-47580821D01*
X130741356Y-47867896D01*
X130741353Y-47867914D01*
X130722208Y-48159996D01*
X130722208Y-48160003D01*
X130741353Y-48452085D01*
X130741356Y-48452103D01*
X130798459Y-48739178D01*
X130798462Y-48739191D01*
X130892548Y-49016358D01*
X130892554Y-49016372D01*
X131022014Y-49278893D01*
X131184640Y-49522280D01*
X131184643Y-49522284D01*
X131209808Y-49550979D01*
X131209810Y-49550979D01*
X131987275Y-48773513D01*
X132038348Y-48855999D01*
X132181931Y-49013501D01*
X132343610Y-49135596D01*
X131569019Y-49910188D01*
X131569019Y-49910190D01*
X131597715Y-49935356D01*
X131597719Y-49935359D01*
X131841106Y-50097985D01*
X132103627Y-50227445D01*
X132103641Y-50227451D01*
X132380808Y-50321537D01*
X132380821Y-50321540D01*
X132667896Y-50378643D01*
X132667914Y-50378646D01*
X132959997Y-50397791D01*
X132960003Y-50397791D01*
X133252085Y-50378646D01*
X133252103Y-50378643D01*
X133539178Y-50321540D01*
X133539191Y-50321537D01*
X133816358Y-50227451D01*
X133816372Y-50227445D01*
X134078893Y-50097985D01*
X134322279Y-49935359D01*
X134350979Y-49910190D01*
X133576387Y-49135597D01*
X133738069Y-49013501D01*
X133881652Y-48855999D01*
X133932724Y-48773514D01*
X134710189Y-49550979D01*
X134710190Y-49550979D01*
X134735359Y-49522279D01*
X134806089Y-49416426D01*
X134860566Y-49370898D01*
X134931009Y-49362050D01*
X134995053Y-49392692D01*
X135032364Y-49453093D01*
X135036854Y-49486428D01*
X135036854Y-66753571D01*
X135016852Y-66821692D01*
X134963196Y-66868185D01*
X134892922Y-66878289D01*
X134828342Y-66848795D01*
X134806089Y-66823573D01*
X134735359Y-66717719D01*
X134735356Y-66717715D01*
X134710190Y-66689019D01*
X134710188Y-66689019D01*
X133932722Y-67466484D01*
X133881652Y-67384001D01*
X133738069Y-67226499D01*
X133576387Y-67104401D01*
X134350979Y-66329810D01*
X134350979Y-66329808D01*
X134322284Y-66304643D01*
X134322280Y-66304640D01*
X134078893Y-66142014D01*
X133816372Y-66012554D01*
X133816358Y-66012548D01*
X133539191Y-65918462D01*
X133539178Y-65918459D01*
X133252103Y-65861356D01*
X133252085Y-65861353D01*
X132960003Y-65842209D01*
X132959997Y-65842209D01*
X132667914Y-65861353D01*
X132667896Y-65861356D01*
X132380821Y-65918459D01*
X132380808Y-65918462D01*
X132103641Y-66012548D01*
X132103627Y-66012554D01*
X131841107Y-66142014D01*
X131597717Y-66304641D01*
X131569019Y-66329807D01*
X131569019Y-66329808D01*
X132343612Y-67104402D01*
X132181931Y-67226499D01*
X132038348Y-67384001D01*
X131987275Y-67466485D01*
X131209808Y-66689019D01*
X131209807Y-66689019D01*
X131184641Y-66717717D01*
X131022014Y-66961107D01*
X130892554Y-67223627D01*
X130892548Y-67223641D01*
X130798462Y-67500808D01*
X130798459Y-67500821D01*
X130741356Y-67787896D01*
X130741353Y-67787914D01*
X130722208Y-68079996D01*
X130722208Y-68080003D01*
X130741353Y-68372085D01*
X130741356Y-68372103D01*
X130798459Y-68659178D01*
X130798462Y-68659191D01*
X130892548Y-68936358D01*
X130892554Y-68936372D01*
X131022014Y-69198893D01*
X131184640Y-69442280D01*
X131184643Y-69442284D01*
X131209808Y-69470979D01*
X131209810Y-69470979D01*
X131987275Y-68693513D01*
X132038348Y-68775999D01*
X132181931Y-68933501D01*
X132343611Y-69055597D01*
X131569019Y-69830188D01*
X131569019Y-69830190D01*
X131597715Y-69855356D01*
X131597719Y-69855359D01*
X131841106Y-70017985D01*
X132103627Y-70147445D01*
X132103641Y-70147451D01*
X132380808Y-70241537D01*
X132380821Y-70241540D01*
X132667896Y-70298643D01*
X132667914Y-70298646D01*
X132959997Y-70317791D01*
X132960003Y-70317791D01*
X133252085Y-70298646D01*
X133252103Y-70298643D01*
X133539178Y-70241540D01*
X133539191Y-70241537D01*
X133816358Y-70147451D01*
X133816372Y-70147445D01*
X134078893Y-70017985D01*
X134322279Y-69855359D01*
X134350979Y-69830190D01*
X134350979Y-69830189D01*
X133576388Y-69055597D01*
X133738069Y-68933501D01*
X133881652Y-68775999D01*
X133932723Y-68693514D01*
X134710189Y-69470979D01*
X134710190Y-69470979D01*
X134735359Y-69442279D01*
X134806089Y-69336426D01*
X134860566Y-69290898D01*
X134931009Y-69282050D01*
X134995053Y-69312692D01*
X135032364Y-69373093D01*
X135036854Y-69406428D01*
X135036854Y-69997430D01*
X135016852Y-70065551D01*
X134999950Y-70086525D01*
X134166657Y-70919819D01*
X134104344Y-70953844D01*
X134077561Y-70956724D01*
X131142222Y-70956724D01*
X131137113Y-70956516D01*
X131126562Y-70955657D01*
X131081394Y-70951978D01*
X131081390Y-70951979D01*
X131001219Y-70962901D01*
X130999526Y-70963108D01*
X130919137Y-70971851D01*
X130917630Y-70972183D01*
X130897845Y-70976819D01*
X130896370Y-70977186D01*
X130820440Y-71005081D01*
X130818832Y-71005647D01*
X130742182Y-71031473D01*
X130740826Y-71032101D01*
X130722361Y-71040949D01*
X130721085Y-71041582D01*
X130652946Y-71085135D01*
X130651497Y-71086034D01*
X130608403Y-71111964D01*
X130539721Y-71129945D01*
X130472221Y-71107940D01*
X130427333Y-71052935D01*
X130421735Y-71036610D01*
X130417868Y-71022178D01*
X130417867Y-71022175D01*
X130417867Y-71022174D01*
X130319256Y-70810703D01*
X130185422Y-70619568D01*
X130084947Y-70519094D01*
X130050923Y-70456782D01*
X130055989Y-70385966D01*
X130084945Y-70340908D01*
X130185422Y-70240432D01*
X130319256Y-70049297D01*
X130417867Y-69837826D01*
X130478258Y-69612444D01*
X130498594Y-69380000D01*
X130478258Y-69147556D01*
X130417867Y-68922174D01*
X130319256Y-68710703D01*
X130185422Y-68519568D01*
X130020432Y-68354578D01*
X129829297Y-68220744D01*
X129772361Y-68194194D01*
X129719077Y-68147278D01*
X129699616Y-68079001D01*
X129720158Y-68011041D01*
X129772361Y-67965805D01*
X129829297Y-67939256D01*
X130020432Y-67805422D01*
X130185422Y-67640432D01*
X130319256Y-67449297D01*
X130417867Y-67237826D01*
X130478258Y-67012444D01*
X130498594Y-66780000D01*
X130478258Y-66547556D01*
X130417867Y-66322174D01*
X130319256Y-66110703D01*
X130185422Y-65919568D01*
X130020432Y-65754578D01*
X130020428Y-65754575D01*
X130020423Y-65754571D01*
X129829297Y-65620744D01*
X129829294Y-65620742D01*
X129684984Y-65553449D01*
X129649139Y-65528349D01*
X129327624Y-65206834D01*
X129448458Y-65154349D01*
X129565739Y-65058934D01*
X129652928Y-64935415D01*
X129684838Y-64845628D01*
X130265048Y-65425838D01*
X130265050Y-65425838D01*
X130318822Y-65349045D01*
X130417393Y-65137657D01*
X130417395Y-65137652D01*
X130477762Y-64912355D01*
X130498091Y-64680000D01*
X130477762Y-64447644D01*
X130417395Y-64222347D01*
X130417393Y-64222342D01*
X130318822Y-64010955D01*
X130318821Y-64010953D01*
X130265051Y-63934160D01*
X130265049Y-63934160D01*
X129686902Y-64512305D01*
X129683116Y-64494085D01*
X129613558Y-64359844D01*
X129510362Y-64249348D01*
X129381181Y-64170791D01*
X129325577Y-64155211D01*
X129905838Y-63574948D01*
X129829046Y-63521178D01*
X129617657Y-63422606D01*
X129617652Y-63422604D01*
X129392355Y-63362237D01*
X129160000Y-63341908D01*
X128927644Y-63362237D01*
X128867111Y-63378457D01*
X128796134Y-63376767D01*
X128737338Y-63336972D01*
X128709391Y-63271708D01*
X128708500Y-63256750D01*
X128708500Y-61330003D01*
X129922208Y-61330003D01*
X129941353Y-61622085D01*
X129941356Y-61622103D01*
X129998459Y-61909178D01*
X129998462Y-61909191D01*
X130092548Y-62186358D01*
X130092554Y-62186372D01*
X130222014Y-62448893D01*
X130384640Y-62692280D01*
X130384643Y-62692284D01*
X130409808Y-62720979D01*
X130409810Y-62720979D01*
X131187275Y-61943513D01*
X131238348Y-62025999D01*
X131381931Y-62183501D01*
X131543611Y-62305597D01*
X130769019Y-63080188D01*
X130769019Y-63080190D01*
X130797715Y-63105356D01*
X130797719Y-63105359D01*
X131041106Y-63267985D01*
X131303627Y-63397445D01*
X131303641Y-63397451D01*
X131580808Y-63491537D01*
X131580821Y-63491540D01*
X131867896Y-63548643D01*
X131867914Y-63548646D01*
X132159997Y-63567791D01*
X132160003Y-63567791D01*
X132452085Y-63548646D01*
X132452103Y-63548643D01*
X132739178Y-63491540D01*
X132739191Y-63491537D01*
X133016358Y-63397451D01*
X133016372Y-63397445D01*
X133278893Y-63267985D01*
X133522279Y-63105359D01*
X133550979Y-63080190D01*
X133550979Y-63080189D01*
X132776388Y-62305597D01*
X132938069Y-62183501D01*
X133081652Y-62025999D01*
X133132723Y-61943514D01*
X133910188Y-62720979D01*
X133910190Y-62720979D01*
X133935359Y-62692279D01*
X134097985Y-62448893D01*
X134227445Y-62186372D01*
X134227451Y-62186358D01*
X134321537Y-61909191D01*
X134321540Y-61909178D01*
X134378643Y-61622103D01*
X134378646Y-61622085D01*
X134397791Y-61330003D01*
X134397791Y-61329996D01*
X134378646Y-61037914D01*
X134378643Y-61037896D01*
X134321540Y-60750821D01*
X134321537Y-60750808D01*
X134227451Y-60473641D01*
X134227445Y-60473627D01*
X134097985Y-60211107D01*
X133935359Y-59967719D01*
X133935356Y-59967715D01*
X133910190Y-59939019D01*
X133910188Y-59939019D01*
X133132722Y-60716484D01*
X133081652Y-60634001D01*
X132938069Y-60476499D01*
X132776387Y-60354402D01*
X133550979Y-59579810D01*
X133550979Y-59579808D01*
X133522284Y-59554643D01*
X133522280Y-59554640D01*
X133278893Y-59392014D01*
X133016372Y-59262554D01*
X133016358Y-59262548D01*
X132739191Y-59168462D01*
X132739178Y-59168459D01*
X132452103Y-59111356D01*
X132452085Y-59111353D01*
X132160003Y-59092209D01*
X132159997Y-59092209D01*
X131867914Y-59111353D01*
X131867896Y-59111356D01*
X131580821Y-59168459D01*
X131580808Y-59168462D01*
X131303641Y-59262548D01*
X131303627Y-59262554D01*
X131041107Y-59392014D01*
X130797717Y-59554641D01*
X130769019Y-59579807D01*
X130769019Y-59579810D01*
X131543611Y-60354402D01*
X131381931Y-60476499D01*
X131238348Y-60634001D01*
X131187276Y-60716485D01*
X130409810Y-59939019D01*
X130409807Y-59939019D01*
X130384641Y-59967717D01*
X130222014Y-60211107D01*
X130092554Y-60473627D01*
X130092548Y-60473641D01*
X129998462Y-60750808D01*
X129998459Y-60750821D01*
X129941356Y-61037896D01*
X129941353Y-61037914D01*
X129922208Y-61329996D01*
X129922208Y-61330003D01*
X128708500Y-61330003D01*
X128708500Y-59316506D01*
X128708500Y-55323859D01*
X128727811Y-55256829D01*
X128793043Y-55153015D01*
X128853217Y-54981047D01*
X128861222Y-54910003D01*
X129922208Y-54910003D01*
X129941353Y-55202085D01*
X129941356Y-55202103D01*
X129998459Y-55489178D01*
X129998462Y-55489191D01*
X130092548Y-55766358D01*
X130092554Y-55766372D01*
X130222014Y-56028893D01*
X130384640Y-56272280D01*
X130384643Y-56272284D01*
X130409808Y-56300979D01*
X130409810Y-56300979D01*
X131187275Y-55523513D01*
X131238348Y-55605999D01*
X131381931Y-55763501D01*
X131543611Y-55885597D01*
X130769019Y-56660188D01*
X130769019Y-56660190D01*
X130797715Y-56685356D01*
X130797719Y-56685359D01*
X131041106Y-56847985D01*
X131303627Y-56977445D01*
X131303641Y-56977451D01*
X131580808Y-57071537D01*
X131580821Y-57071540D01*
X131867896Y-57128643D01*
X131867914Y-57128646D01*
X132159997Y-57147791D01*
X132160003Y-57147791D01*
X132452085Y-57128646D01*
X132452103Y-57128643D01*
X132739178Y-57071540D01*
X132739191Y-57071537D01*
X133016358Y-56977451D01*
X133016372Y-56977445D01*
X133278893Y-56847985D01*
X133522279Y-56685359D01*
X133550979Y-56660190D01*
X133550979Y-56660189D01*
X132776388Y-55885597D01*
X132938069Y-55763501D01*
X133081652Y-55605999D01*
X133132723Y-55523514D01*
X133910188Y-56300979D01*
X133910190Y-56300979D01*
X133935359Y-56272279D01*
X134097985Y-56028893D01*
X134227445Y-55766372D01*
X134227451Y-55766358D01*
X134321537Y-55489191D01*
X134321540Y-55489178D01*
X134378643Y-55202103D01*
X134378646Y-55202085D01*
X134397791Y-54910003D01*
X134397791Y-54909996D01*
X134378646Y-54617914D01*
X134378643Y-54617896D01*
X134321540Y-54330821D01*
X134321537Y-54330808D01*
X134227451Y-54053641D01*
X134227445Y-54053627D01*
X134097985Y-53791107D01*
X133935359Y-53547719D01*
X133935356Y-53547715D01*
X133910190Y-53519019D01*
X133910188Y-53519019D01*
X133132722Y-54296484D01*
X133081652Y-54214001D01*
X132938069Y-54056499D01*
X132776387Y-53934402D01*
X133550979Y-53159810D01*
X133550979Y-53159808D01*
X133522284Y-53134643D01*
X133522280Y-53134640D01*
X133278893Y-52972014D01*
X133016372Y-52842554D01*
X133016358Y-52842548D01*
X132739191Y-52748462D01*
X132739178Y-52748459D01*
X132452103Y-52691356D01*
X132452085Y-52691353D01*
X132160003Y-52672209D01*
X132159997Y-52672209D01*
X131867914Y-52691353D01*
X131867896Y-52691356D01*
X131580821Y-52748459D01*
X131580808Y-52748462D01*
X131303641Y-52842548D01*
X131303627Y-52842554D01*
X131041107Y-52972014D01*
X130797717Y-53134641D01*
X130769019Y-53159807D01*
X130769019Y-53159810D01*
X131543611Y-53934402D01*
X131381931Y-54056499D01*
X131238348Y-54214001D01*
X131187276Y-54296485D01*
X130409810Y-53519019D01*
X130409807Y-53519019D01*
X130384641Y-53547717D01*
X130222014Y-53791107D01*
X130092554Y-54053627D01*
X130092548Y-54053641D01*
X129998462Y-54330808D01*
X129998459Y-54330821D01*
X129941356Y-54617896D01*
X129941353Y-54617914D01*
X129922208Y-54909996D01*
X129922208Y-54910003D01*
X128861222Y-54910003D01*
X128873616Y-54800000D01*
X128853217Y-54618953D01*
X128793043Y-54446985D01*
X128793041Y-54446982D01*
X128793041Y-54446981D01*
X128696112Y-54292720D01*
X128696111Y-54292718D01*
X128567281Y-54163888D01*
X128567279Y-54163887D01*
X128413018Y-54066958D01*
X128413015Y-54066957D01*
X128241052Y-54006784D01*
X128241047Y-54006783D01*
X128241046Y-54006783D01*
X128225117Y-54004988D01*
X128159668Y-53977484D01*
X128150135Y-53968876D01*
X127164115Y-52982856D01*
X127130089Y-52920544D01*
X127135154Y-52849729D01*
X127177701Y-52792893D01*
X127199956Y-52779568D01*
X127329297Y-52719256D01*
X127520432Y-52585422D01*
X127685422Y-52420432D01*
X127759736Y-52314300D01*
X127806787Y-52247105D01*
X127862244Y-52202776D01*
X127932863Y-52195467D01*
X127996224Y-52227497D01*
X128013213Y-52247105D01*
X128134571Y-52420423D01*
X128134575Y-52420428D01*
X128134578Y-52420432D01*
X128299568Y-52585422D01*
X128490703Y-52719256D01*
X128702174Y-52817867D01*
X128927556Y-52878258D01*
X129160000Y-52898594D01*
X129392444Y-52878258D01*
X129617826Y-52817867D01*
X129829297Y-52719256D01*
X130020432Y-52585422D01*
X130185422Y-52420432D01*
X130319256Y-52229297D01*
X130417867Y-52017826D01*
X130478258Y-51792444D01*
X130498594Y-51560000D01*
X130478258Y-51327556D01*
X130417867Y-51102174D01*
X130319256Y-50890703D01*
X130185422Y-50699568D01*
X130084948Y-50599094D01*
X130050923Y-50536783D01*
X130055988Y-50465968D01*
X130084949Y-50420905D01*
X130130711Y-50375143D01*
X130185422Y-50320432D01*
X130319256Y-50129297D01*
X130417867Y-49917826D01*
X130478258Y-49692444D01*
X130498594Y-49460000D01*
X130478258Y-49227556D01*
X130417867Y-49002174D01*
X130319256Y-48790703D01*
X130185422Y-48599568D01*
X130020432Y-48434578D01*
X129975919Y-48403410D01*
X129829297Y-48300744D01*
X129829296Y-48300744D01*
X129772361Y-48274194D01*
X129719077Y-48227278D01*
X129699616Y-48159001D01*
X129720158Y-48091041D01*
X129772361Y-48045805D01*
X129829297Y-48019256D01*
X130020432Y-47885422D01*
X130185422Y-47720432D01*
X130319256Y-47529297D01*
X130417867Y-47317826D01*
X130478258Y-47092444D01*
X130498594Y-46860000D01*
X130478258Y-46627556D01*
X130417867Y-46402174D01*
X130319256Y-46190703D01*
X130185422Y-45999568D01*
X130020432Y-45834578D01*
X130020428Y-45834575D01*
X130020423Y-45834571D01*
X129829297Y-45700744D01*
X129829294Y-45700742D01*
X129684984Y-45633449D01*
X129649139Y-45608350D01*
X129327623Y-45286834D01*
X129448458Y-45234349D01*
X129565739Y-45138934D01*
X129652928Y-45015415D01*
X129684838Y-44925627D01*
X130265048Y-45505838D01*
X130265050Y-45505838D01*
X130318822Y-45429045D01*
X130417393Y-45217657D01*
X130417395Y-45217652D01*
X130472100Y-45013490D01*
X130509052Y-44952867D01*
X130572912Y-44921846D01*
X130643407Y-44930274D01*
G37*
G04 #@! TD.AperFunction*
G04 #@! TA.AperFunction,Conductor*
G36*
X114033975Y-70550226D02*
G01*
X114080468Y-70603882D01*
X114091854Y-70656224D01*
X114091854Y-70854224D01*
X114071852Y-70922345D01*
X114018196Y-70968838D01*
X113965854Y-70980224D01*
X113734854Y-70980224D01*
X113666733Y-70960222D01*
X113620240Y-70906566D01*
X113608854Y-70854224D01*
X113608854Y-70656224D01*
X113628856Y-70588103D01*
X113682512Y-70541610D01*
X113734854Y-70530224D01*
X113965854Y-70530224D01*
X114033975Y-70550226D01*
G37*
G04 #@! TD.AperFunction*
G04 #@! TA.AperFunction,Conductor*
G36*
X117692366Y-66887586D02*
G01*
X117696101Y-66890955D01*
X117718721Y-66912196D01*
X117737523Y-66922532D01*
X117754029Y-66933375D01*
X117770986Y-66946528D01*
X117816108Y-66966053D01*
X117821434Y-66968663D01*
X117864513Y-66992347D01*
X117864517Y-66992348D01*
X117885286Y-66997680D01*
X117903988Y-67004083D01*
X117923678Y-67012604D01*
X117972249Y-67020296D01*
X117978043Y-67021495D01*
X118025666Y-67033724D01*
X118047113Y-67033724D01*
X118066821Y-67035274D01*
X118088006Y-67038630D01*
X118125734Y-67035063D01*
X118136948Y-67034004D01*
X118142881Y-67033724D01*
X120209343Y-67033724D01*
X120225574Y-67035515D01*
X120225598Y-67035266D01*
X120233490Y-67036012D01*
X120233490Y-67036011D01*
X120233491Y-67036012D01*
X120257229Y-67035266D01*
X120305312Y-67033755D01*
X120307291Y-67033724D01*
X120337379Y-67033724D01*
X120337386Y-67033724D01*
X120344733Y-67032795D01*
X120350636Y-67032330D01*
X120399785Y-67030786D01*
X120420375Y-67024803D01*
X120439722Y-67020795D01*
X120453444Y-67019062D01*
X120523530Y-67030369D01*
X120576381Y-67077775D01*
X120595212Y-67146229D01*
X120591376Y-67174998D01*
X120581791Y-67212850D01*
X120581790Y-67212853D01*
X120581790Y-67212856D01*
X120563198Y-67437224D01*
X120580036Y-67640428D01*
X120581791Y-67661599D01*
X120637056Y-67879836D01*
X120637057Y-67879837D01*
X120637058Y-67879840D01*
X120724854Y-68079996D01*
X120727495Y-68086017D01*
X120850629Y-68274489D01*
X120850633Y-68274494D01*
X121003116Y-68440132D01*
X121057685Y-68482605D01*
X121180778Y-68578413D01*
X121214034Y-68596410D01*
X121264424Y-68646420D01*
X121279777Y-68715737D01*
X121255218Y-68782350D01*
X121214037Y-68818035D01*
X121180784Y-68836031D01*
X121180778Y-68836035D01*
X121003116Y-68974315D01*
X120850633Y-69139953D01*
X120850629Y-69139958D01*
X120727495Y-69328430D01*
X120637057Y-69534610D01*
X120637056Y-69534611D01*
X120581791Y-69752848D01*
X120581790Y-69752854D01*
X120581790Y-69752856D01*
X120563873Y-69969086D01*
X120562792Y-69982129D01*
X120537232Y-70048366D01*
X120479921Y-70090269D01*
X120437222Y-70097724D01*
X118934854Y-70097724D01*
X118866733Y-70077722D01*
X118820240Y-70024066D01*
X118808854Y-69971724D01*
X118808854Y-69969091D01*
X118808853Y-69969074D01*
X118802344Y-69908527D01*
X118802342Y-69908519D01*
X118751243Y-69771521D01*
X118751241Y-69771516D01*
X118663615Y-69654462D01*
X118546561Y-69566836D01*
X118546556Y-69566834D01*
X118409558Y-69515735D01*
X118409550Y-69515733D01*
X118349003Y-69509224D01*
X118348992Y-69509224D01*
X117801716Y-69509224D01*
X117801711Y-69509224D01*
X117801699Y-69509225D01*
X117763819Y-69513297D01*
X117736886Y-69513297D01*
X117699005Y-69509225D01*
X117698998Y-69509224D01*
X117698992Y-69509224D01*
X117698985Y-69509224D01*
X117609854Y-69509224D01*
X117541733Y-69489222D01*
X117495240Y-69435566D01*
X117483854Y-69383224D01*
X117483854Y-66982810D01*
X117503856Y-66914689D01*
X117557512Y-66868196D01*
X117627786Y-66858092D01*
X117692366Y-66887586D01*
G37*
G04 #@! TD.AperFunction*
G04 #@! TA.AperFunction,Conductor*
G36*
X105299598Y-64957133D02*
G01*
X105332548Y-65020021D01*
X105334554Y-65034274D01*
X105340959Y-65111569D01*
X105341791Y-65121599D01*
X105397056Y-65339836D01*
X105397057Y-65339837D01*
X105397058Y-65339840D01*
X105479745Y-65528349D01*
X105487495Y-65546017D01*
X105610629Y-65734489D01*
X105610633Y-65734494D01*
X105763116Y-65900132D01*
X105804019Y-65931968D01*
X105940778Y-66038413D01*
X105974034Y-66056410D01*
X106024425Y-66106424D01*
X106039777Y-66175740D01*
X106015216Y-66242353D01*
X105974034Y-66278037D01*
X105940780Y-66296034D01*
X105940778Y-66296035D01*
X105763116Y-66434315D01*
X105610633Y-66599953D01*
X105610629Y-66599958D01*
X105487495Y-66788430D01*
X105397057Y-66994610D01*
X105397056Y-66994611D01*
X105341791Y-67212848D01*
X105341790Y-67212854D01*
X105341790Y-67212856D01*
X105323198Y-67437224D01*
X105340036Y-67640428D01*
X105341791Y-67661599D01*
X105397056Y-67879836D01*
X105397057Y-67879837D01*
X105397058Y-67879840D01*
X105484854Y-68079996D01*
X105487495Y-68086017D01*
X105610629Y-68274489D01*
X105610633Y-68274494D01*
X105763116Y-68440132D01*
X105817685Y-68482605D01*
X105940778Y-68578413D01*
X105974030Y-68596408D01*
X105974034Y-68596410D01*
X106024425Y-68646424D01*
X106039777Y-68715740D01*
X106015216Y-68782353D01*
X105974034Y-68818037D01*
X105940780Y-68836034D01*
X105940778Y-68836035D01*
X105763116Y-68974315D01*
X105610633Y-69139953D01*
X105610629Y-69139958D01*
X105487496Y-69328430D01*
X105487489Y-69328442D01*
X105473060Y-69361338D01*
X105427379Y-69415687D01*
X105359566Y-69436710D01*
X105357673Y-69436724D01*
X103266300Y-69436724D01*
X103198179Y-69416722D01*
X103151686Y-69363066D01*
X103141582Y-69292792D01*
X103144156Y-69279793D01*
X103192035Y-69090721D01*
X103199918Y-69059592D01*
X103218510Y-68835224D01*
X103199918Y-68610856D01*
X103191702Y-68578412D01*
X103144651Y-68392611D01*
X103144650Y-68392610D01*
X103144650Y-68392608D01*
X103054214Y-68186433D01*
X102988608Y-68086015D01*
X102931078Y-67997958D01*
X102931074Y-67997953D01*
X102803873Y-67859778D01*
X102778594Y-67832318D01*
X102778593Y-67832317D01*
X102778591Y-67832315D01*
X102600931Y-67694036D01*
X102600930Y-67694035D01*
X102414884Y-67593352D01*
X102364494Y-67543338D01*
X102348854Y-67482538D01*
X102348854Y-66695885D01*
X102368856Y-66627764D01*
X102385752Y-66606796D01*
X102426260Y-66566288D01*
X102488568Y-66532265D01*
X102559384Y-66537329D01*
X102604448Y-66566290D01*
X102700193Y-66662035D01*
X102700198Y-66662039D01*
X102700199Y-66662040D01*
X102847441Y-66751051D01*
X103011705Y-66802237D01*
X103083089Y-66808724D01*
X103597618Y-66808723D01*
X103669003Y-66802237D01*
X103833267Y-66751051D01*
X103980509Y-66662040D01*
X104102170Y-66540379D01*
X104191181Y-66393137D01*
X104242367Y-66228873D01*
X104248854Y-66157489D01*
X104248853Y-65900172D01*
X104268855Y-65832053D01*
X104285753Y-65811083D01*
X104949888Y-65146948D01*
X104962631Y-65136741D01*
X104962471Y-65136547D01*
X104968577Y-65131494D01*
X104968582Y-65131492D01*
X105017816Y-65079061D01*
X105019100Y-65077736D01*
X105040429Y-65056409D01*
X105044972Y-65050551D01*
X105048810Y-65046056D01*
X105082474Y-65010209D01*
X105092812Y-64991403D01*
X105103654Y-64974899D01*
X105109431Y-64967451D01*
X105166988Y-64925889D01*
X105237880Y-64922042D01*
X105299598Y-64957133D01*
G37*
G04 #@! TD.AperFunction*
G04 #@! TA.AperFunction,Conductor*
G36*
X110110386Y-65355616D02*
G01*
X110167222Y-65398163D01*
X110192033Y-65464683D01*
X110192354Y-65473672D01*
X110192354Y-65665321D01*
X110198859Y-65725817D01*
X110249909Y-65862688D01*
X110249909Y-65862689D01*
X110337449Y-65979628D01*
X110454388Y-66067168D01*
X110589530Y-66117573D01*
X110646366Y-66160120D01*
X110671177Y-66226640D01*
X110656086Y-66296014D01*
X110634593Y-66324724D01*
X108030965Y-68928351D01*
X108018219Y-68938564D01*
X108018379Y-68938757D01*
X108012274Y-68943807D01*
X107963072Y-68996201D01*
X107961696Y-68997621D01*
X107940425Y-69018892D01*
X107935881Y-69024749D01*
X107932032Y-69029255D01*
X107898380Y-69065092D01*
X107898284Y-69065225D01*
X107898181Y-69065303D01*
X107892957Y-69070868D01*
X107892058Y-69070024D01*
X107842058Y-69108574D01*
X107771321Y-69114643D01*
X107708532Y-69081506D01*
X107703664Y-69076504D01*
X107609594Y-68974318D01*
X107609593Y-68974317D01*
X107609591Y-68974315D01*
X107512077Y-68898417D01*
X107431930Y-68836035D01*
X107430431Y-68835224D01*
X107398674Y-68818038D01*
X107348283Y-68768026D01*
X107332930Y-68698709D01*
X107357490Y-68632096D01*
X107398674Y-68596410D01*
X107398678Y-68596408D01*
X107431930Y-68578413D01*
X107609594Y-68440130D01*
X107762076Y-68274492D01*
X107885214Y-68086015D01*
X107975650Y-67879840D01*
X108030918Y-67661592D01*
X108049510Y-67437224D01*
X108044775Y-67380085D01*
X108059084Y-67310546D01*
X108081247Y-67280589D01*
X109977261Y-65384575D01*
X110039571Y-65350551D01*
X110110386Y-65355616D01*
G37*
G04 #@! TD.AperFunction*
G04 #@! TA.AperFunction,Conductor*
G36*
X115340246Y-66212256D02*
G01*
X115397082Y-66254803D01*
X115420150Y-66307599D01*
X115424219Y-66329807D01*
X115424256Y-66330004D01*
X115424829Y-66333767D01*
X115432387Y-66396018D01*
X115432388Y-66396022D01*
X115436004Y-66405557D01*
X115442124Y-66427510D01*
X115443778Y-66436535D01*
X115443966Y-66437556D01*
X115469707Y-66494752D01*
X115471163Y-66498267D01*
X115477103Y-66513929D01*
X115493400Y-66556899D01*
X115499194Y-66565293D01*
X115510389Y-66585143D01*
X115514577Y-66594446D01*
X115514579Y-66594450D01*
X115524248Y-66606791D01*
X115553253Y-66643814D01*
X115555508Y-66646879D01*
X115591137Y-66698495D01*
X115591138Y-66698496D01*
X115591139Y-66698497D01*
X115638095Y-66740097D01*
X115640857Y-66742697D01*
X116029948Y-67131789D01*
X116063974Y-67194101D01*
X116066853Y-67220884D01*
X116066853Y-68661273D01*
X116046851Y-68729394D01*
X115993195Y-68775887D01*
X115922921Y-68785991D01*
X115858341Y-68756497D01*
X115851758Y-68750368D01*
X115150229Y-68048839D01*
X115140018Y-68036093D01*
X115139825Y-68036254D01*
X115134771Y-68030145D01*
X115082374Y-67980941D01*
X115080984Y-67979594D01*
X115059687Y-67958297D01*
X115059685Y-67958295D01*
X115059679Y-67958290D01*
X115053836Y-67953758D01*
X115049321Y-67949902D01*
X115037983Y-67939255D01*
X115013487Y-67916252D01*
X115013484Y-67916250D01*
X115013479Y-67916247D01*
X114994692Y-67905918D01*
X114978172Y-67895067D01*
X114961221Y-67881919D01*
X114916093Y-67862390D01*
X114910775Y-67859785D01*
X114883589Y-67844840D01*
X114867692Y-67836100D01*
X114867689Y-67836099D01*
X114846922Y-67830767D01*
X114828219Y-67824364D01*
X114818057Y-67819967D01*
X114808530Y-67815844D01*
X114808528Y-67815843D01*
X114808529Y-67815843D01*
X114759973Y-67808153D01*
X114754158Y-67806949D01*
X114706542Y-67794724D01*
X114685095Y-67794724D01*
X114665386Y-67793173D01*
X114644202Y-67789818D01*
X114644201Y-67789818D01*
X114595260Y-67794444D01*
X114589327Y-67794724D01*
X112431304Y-67794724D01*
X112363183Y-67774722D01*
X112316690Y-67721066D01*
X112306586Y-67650792D01*
X112336080Y-67586212D01*
X112342209Y-67579629D01*
X112678209Y-67243629D01*
X112740521Y-67209603D01*
X112767304Y-67206724D01*
X113882243Y-67206724D01*
X113898474Y-67208515D01*
X113898498Y-67208266D01*
X113906390Y-67209012D01*
X113906390Y-67209011D01*
X113906391Y-67209012D01*
X113930129Y-67208266D01*
X113978212Y-67206755D01*
X113980191Y-67206724D01*
X114010279Y-67206724D01*
X114010286Y-67206724D01*
X114017633Y-67205795D01*
X114023536Y-67205330D01*
X114072685Y-67203786D01*
X114093275Y-67197803D01*
X114112630Y-67193795D01*
X114133918Y-67191106D01*
X114179650Y-67172999D01*
X114185234Y-67171087D01*
X114232454Y-67157369D01*
X114250904Y-67146456D01*
X114268667Y-67137754D01*
X114288610Y-67129859D01*
X114328391Y-67100954D01*
X114333341Y-67097704D01*
X114343029Y-67091974D01*
X114375661Y-67072677D01*
X114390831Y-67057505D01*
X114405859Y-67044671D01*
X114423211Y-67032065D01*
X114454556Y-66994174D01*
X114458524Y-66989812D01*
X115207121Y-66241215D01*
X115269431Y-66207191D01*
X115340246Y-66212256D01*
G37*
G04 #@! TD.AperFunction*
G04 #@! TA.AperFunction,Conductor*
G36*
X120571782Y-61822116D02*
G01*
X120618275Y-61875772D01*
X120628379Y-61946046D01*
X120625805Y-61959041D01*
X120621598Y-61975660D01*
X120581791Y-62132850D01*
X120581790Y-62132853D01*
X120581790Y-62132856D01*
X120563198Y-62357224D01*
X120580924Y-62571147D01*
X120581791Y-62581599D01*
X120637056Y-62799836D01*
X120637057Y-62799837D01*
X120637058Y-62799840D01*
X120723042Y-62995865D01*
X120727495Y-63006017D01*
X120850629Y-63194489D01*
X120850633Y-63194494D01*
X121003116Y-63360132D01*
X121024489Y-63376767D01*
X121180778Y-63498413D01*
X121202790Y-63510325D01*
X121214034Y-63516410D01*
X121264425Y-63566424D01*
X121279777Y-63635740D01*
X121255216Y-63702353D01*
X121214034Y-63738037D01*
X121180780Y-63756034D01*
X121180778Y-63756035D01*
X121003116Y-63894315D01*
X120850633Y-64059953D01*
X120850629Y-64059958D01*
X120727495Y-64248430D01*
X120637057Y-64454610D01*
X120637056Y-64454611D01*
X120581791Y-64672848D01*
X120581790Y-64672854D01*
X120581790Y-64672856D01*
X120563198Y-64897224D01*
X120579407Y-65092838D01*
X120579763Y-65097127D01*
X120565454Y-65166667D01*
X120543289Y-65196627D01*
X120060099Y-65679819D01*
X119997786Y-65713844D01*
X119971003Y-65716724D01*
X118934854Y-65716724D01*
X118866733Y-65696722D01*
X118820240Y-65643066D01*
X118808854Y-65590724D01*
X118808854Y-64093091D01*
X118808853Y-64093074D01*
X118802344Y-64032527D01*
X118802342Y-64032519D01*
X118761027Y-63921752D01*
X118751243Y-63895520D01*
X118751242Y-63895518D01*
X118751241Y-63895516D01*
X118663615Y-63778462D01*
X118546561Y-63690836D01*
X118546556Y-63690834D01*
X118405739Y-63638311D01*
X118348903Y-63595764D01*
X118324093Y-63529244D01*
X118339185Y-63459870D01*
X118360673Y-63431164D01*
X119096760Y-62695076D01*
X119159071Y-62661053D01*
X119171753Y-62658965D01*
X119176396Y-62658442D01*
X119176397Y-62658441D01*
X119176401Y-62658441D01*
X119348369Y-62598267D01*
X119502635Y-62501335D01*
X119631465Y-62372505D01*
X119728397Y-62218239D01*
X119788571Y-62046271D01*
X119803473Y-61914004D01*
X119830977Y-61848554D01*
X119889501Y-61808361D01*
X119928681Y-61802114D01*
X120503661Y-61802114D01*
X120571782Y-61822116D01*
G37*
G04 #@! TD.AperFunction*
G04 #@! TA.AperFunction,Conductor*
G36*
X102559384Y-57017329D02*
G01*
X102604448Y-57046290D01*
X102700193Y-57142035D01*
X102700198Y-57142039D01*
X102700199Y-57142040D01*
X102847441Y-57231051D01*
X102847445Y-57231052D01*
X102847447Y-57231053D01*
X102869507Y-57237927D01*
X103011705Y-57282237D01*
X103083089Y-57288724D01*
X103597618Y-57288723D01*
X103625568Y-57286183D01*
X103675645Y-57281634D01*
X103675911Y-57284570D01*
X103733754Y-57289721D01*
X103776767Y-57317897D01*
X103850097Y-57391227D01*
X103884123Y-57453539D01*
X103887002Y-57480322D01*
X103887002Y-58465843D01*
X103884770Y-58489455D01*
X103883078Y-58498321D01*
X103883078Y-58498324D01*
X103886878Y-58558733D01*
X103887002Y-58562666D01*
X103887002Y-64295124D01*
X103867000Y-64363245D01*
X103850097Y-64384220D01*
X103429496Y-64804820D01*
X103367184Y-64838845D01*
X103340401Y-64841724D01*
X103083092Y-64841724D01*
X103011707Y-64848210D01*
X103011706Y-64848210D01*
X102847447Y-64899394D01*
X102847442Y-64899396D01*
X102700198Y-64988408D01*
X102700193Y-64988412D01*
X102604449Y-65084157D01*
X102542137Y-65118183D01*
X102471322Y-65113118D01*
X102426259Y-65084157D01*
X102330514Y-64988412D01*
X102330509Y-64988408D01*
X102200962Y-64910094D01*
X102183267Y-64899397D01*
X102183266Y-64899396D01*
X102183265Y-64899396D01*
X102183260Y-64899394D01*
X102019000Y-64848210D01*
X101967077Y-64843492D01*
X101947619Y-64841724D01*
X101947616Y-64841724D01*
X101433098Y-64841724D01*
X101426594Y-64842315D01*
X101421249Y-64842800D01*
X101351599Y-64829042D01*
X101300444Y-64779811D01*
X101283854Y-64717317D01*
X101283854Y-64611254D01*
X101303856Y-64543133D01*
X101320749Y-64522169D01*
X102264744Y-63578173D01*
X102277483Y-63567969D01*
X102277323Y-63567776D01*
X102283429Y-63562723D01*
X102283434Y-63562721D01*
X102332668Y-63510290D01*
X102333952Y-63508965D01*
X102355281Y-63487638D01*
X102359824Y-63481780D01*
X102363662Y-63477285D01*
X102397326Y-63441438D01*
X102407664Y-63422632D01*
X102418506Y-63406128D01*
X102431658Y-63389173D01*
X102451186Y-63344042D01*
X102453795Y-63338719D01*
X102466309Y-63315956D01*
X102481299Y-63288693D01*
X102482875Y-63289559D01*
X102520485Y-63241363D01*
X102587489Y-63217890D01*
X102593958Y-63217724D01*
X102758986Y-63217724D01*
X102758992Y-63217724D01*
X102758999Y-63217723D01*
X102759003Y-63217723D01*
X102819550Y-63211214D01*
X102819553Y-63211213D01*
X102819555Y-63211213D01*
X102827438Y-63208273D01*
X102838399Y-63204184D01*
X102956558Y-63160113D01*
X102957169Y-63159656D01*
X103073615Y-63072485D01*
X103161241Y-62955431D01*
X103161241Y-62955430D01*
X103161243Y-62955428D01*
X103212343Y-62818425D01*
X103214342Y-62799837D01*
X103218853Y-62757873D01*
X103218854Y-62757856D01*
X103218854Y-60960591D01*
X103218853Y-60960574D01*
X103212344Y-60900027D01*
X103212342Y-60900019D01*
X103166986Y-60778418D01*
X103161243Y-60763020D01*
X103161242Y-60763018D01*
X103161241Y-60763016D01*
X103073615Y-60645962D01*
X102956561Y-60558336D01*
X102956557Y-60558334D01*
X102841546Y-60515437D01*
X102784710Y-60472891D01*
X102759900Y-60406370D01*
X102774992Y-60336996D01*
X102792879Y-60312044D01*
X102936068Y-60156501D01*
X102936078Y-60156489D01*
X103011139Y-60041599D01*
X103059214Y-59968015D01*
X103149650Y-59761840D01*
X103204918Y-59543592D01*
X103223510Y-59319224D01*
X103204918Y-59094856D01*
X103189155Y-59032609D01*
X103149651Y-58876611D01*
X103149650Y-58876610D01*
X103149650Y-58876608D01*
X103059214Y-58670433D01*
X103016120Y-58604472D01*
X102936078Y-58481958D01*
X102936074Y-58481953D01*
X102783591Y-58316315D01*
X102697236Y-58249102D01*
X102605930Y-58178035D01*
X102414884Y-58074646D01*
X102364494Y-58024634D01*
X102348854Y-57963833D01*
X102348854Y-57175885D01*
X102368856Y-57107764D01*
X102385752Y-57086796D01*
X102426260Y-57046288D01*
X102488568Y-57012265D01*
X102559384Y-57017329D01*
G37*
G04 #@! TD.AperFunction*
G04 #@! TA.AperFunction,Conductor*
G36*
X113383975Y-64674226D02*
G01*
X113430468Y-64727882D01*
X113441854Y-64780224D01*
X113441854Y-64978224D01*
X113421852Y-65046345D01*
X113368196Y-65092838D01*
X113315854Y-65104224D01*
X113084854Y-65104224D01*
X113016733Y-65084222D01*
X112970240Y-65030566D01*
X112958854Y-64978224D01*
X112958854Y-64780224D01*
X112978856Y-64712103D01*
X113032512Y-64665610D01*
X113084854Y-64654224D01*
X113315854Y-64654224D01*
X113383975Y-64674226D01*
G37*
G04 #@! TD.AperFunction*
G04 #@! TA.AperFunction,Conductor*
G36*
X109447525Y-63035726D02*
G01*
X109494018Y-63089382D01*
X109504122Y-63159656D01*
X109474628Y-63224236D01*
X109468499Y-63230819D01*
X108497499Y-64201819D01*
X108435187Y-64235845D01*
X108408404Y-64238724D01*
X107947059Y-64238724D01*
X107878938Y-64218722D01*
X107841576Y-64181639D01*
X107762078Y-64059959D01*
X107762074Y-64059953D01*
X107625619Y-63911726D01*
X107609594Y-63894318D01*
X107609593Y-63894317D01*
X107609591Y-63894315D01*
X107495036Y-63805153D01*
X107431930Y-63756035D01*
X107398673Y-63738037D01*
X107348283Y-63688026D01*
X107332930Y-63618709D01*
X107357490Y-63552096D01*
X107398674Y-63516410D01*
X107409918Y-63510325D01*
X107431930Y-63498413D01*
X107609594Y-63360130D01*
X107762076Y-63194492D01*
X107820310Y-63105359D01*
X107841576Y-63072809D01*
X107895580Y-63026720D01*
X107947059Y-63015724D01*
X109379404Y-63015724D01*
X109447525Y-63035726D01*
G37*
G04 #@! TD.AperFunction*
G04 #@! TA.AperFunction,Conductor*
G36*
X113455783Y-63000929D02*
G01*
X113512619Y-63043476D01*
X113518993Y-63052841D01*
X113526460Y-63064948D01*
X113526468Y-63064958D01*
X113647619Y-63186109D01*
X113647625Y-63186114D01*
X113701485Y-63219335D01*
X113748963Y-63272121D01*
X113760366Y-63342196D01*
X113732074Y-63407311D01*
X113724435Y-63415670D01*
X113690857Y-63449249D01*
X113688086Y-63451858D01*
X113641138Y-63493450D01*
X113605511Y-63545063D01*
X113603258Y-63548125D01*
X113564581Y-63597493D01*
X113564576Y-63597503D01*
X113560389Y-63606804D01*
X113549200Y-63626645D01*
X113543398Y-63635051D01*
X113539855Y-63641803D01*
X113538186Y-63640926D01*
X113501303Y-63689632D01*
X113434646Y-63714074D01*
X113365356Y-63698598D01*
X113337478Y-63670408D01*
X113337259Y-63670628D01*
X113300355Y-63633724D01*
X113251754Y-63633724D01*
X113213823Y-63637803D01*
X113186885Y-63637803D01*
X113148953Y-63633724D01*
X113023013Y-63633724D01*
X112954892Y-63613722D01*
X112908399Y-63560066D01*
X112898295Y-63489792D01*
X112927789Y-63425212D01*
X112933901Y-63418645D01*
X113322660Y-63029887D01*
X113384968Y-62995865D01*
X113455783Y-63000929D01*
G37*
G04 #@! TD.AperFunction*
G04 #@! TA.AperFunction,Conductor*
G36*
X123920395Y-51605726D02*
G01*
X123941369Y-51622629D01*
X127231416Y-54912675D01*
X127265009Y-54974194D01*
X127265209Y-54974149D01*
X127265370Y-54974855D01*
X127265442Y-54974987D01*
X127265550Y-54975644D01*
X127266783Y-54981049D01*
X127326957Y-55153015D01*
X127326959Y-55153019D01*
X127372186Y-55224996D01*
X127391500Y-55292033D01*
X127391500Y-63159011D01*
X127371498Y-63227132D01*
X127357352Y-63245262D01*
X127353028Y-63249865D01*
X127353027Y-63249867D01*
X127342691Y-63268667D01*
X127331843Y-63285180D01*
X127318699Y-63302126D01*
X127318693Y-63302135D01*
X127299171Y-63347248D01*
X127296559Y-63352579D01*
X127286458Y-63370953D01*
X127236114Y-63421013D01*
X127166697Y-63435907D01*
X127122795Y-63424449D01*
X127117838Y-63422138D01*
X127117818Y-63422130D01*
X127027240Y-63397859D01*
X126966618Y-63360907D01*
X126935597Y-63297046D01*
X126933853Y-63276164D01*
X126933853Y-56302673D01*
X126953166Y-56235637D01*
X126953167Y-56235636D01*
X127008397Y-56147739D01*
X127068571Y-55975771D01*
X127088970Y-55794724D01*
X127068571Y-55613677D01*
X127008397Y-55441709D01*
X127008395Y-55441706D01*
X127008395Y-55441705D01*
X126911466Y-55287444D01*
X126911465Y-55287442D01*
X126782635Y-55158612D01*
X126782633Y-55158611D01*
X126628372Y-55061682D01*
X126628369Y-55061681D01*
X126456403Y-55001507D01*
X126456397Y-55001506D01*
X126451743Y-55000982D01*
X126386291Y-54973477D01*
X126376759Y-54964870D01*
X124785708Y-53373818D01*
X124751682Y-53311506D01*
X124749595Y-53298826D01*
X124749071Y-53294180D01*
X124749071Y-53294177D01*
X124688897Y-53122209D01*
X124688895Y-53122206D01*
X124688895Y-53122205D01*
X124591966Y-52967944D01*
X124591965Y-52967942D01*
X124463135Y-52839112D01*
X124463133Y-52839111D01*
X124308872Y-52742182D01*
X124308869Y-52742181D01*
X124136904Y-52682008D01*
X124136903Y-52682007D01*
X124136901Y-52682007D01*
X123955854Y-52661608D01*
X123955853Y-52661608D01*
X123925037Y-52665080D01*
X123774807Y-52682007D01*
X123774804Y-52682007D01*
X123774803Y-52682008D01*
X123602838Y-52742181D01*
X123602835Y-52742182D01*
X123448575Y-52839110D01*
X123351367Y-52936318D01*
X123289055Y-52970343D01*
X123218239Y-52965277D01*
X123161403Y-52922730D01*
X123136593Y-52856210D01*
X123146884Y-52796610D01*
X123215650Y-52639840D01*
X123270918Y-52421592D01*
X123289510Y-52197224D01*
X123270918Y-51972856D01*
X123230383Y-51812786D01*
X123215652Y-51754615D01*
X123214972Y-51752634D01*
X123214933Y-51751776D01*
X123214371Y-51749556D01*
X123214827Y-51749440D01*
X123211773Y-51681710D01*
X123247426Y-51620315D01*
X123310612Y-51587941D01*
X123334146Y-51585724D01*
X123852274Y-51585724D01*
X123920395Y-51605726D01*
G37*
G04 #@! TD.AperFunction*
G04 #@! TA.AperFunction,Conductor*
G36*
X117891135Y-61822116D02*
G01*
X117937628Y-61875772D01*
X117947732Y-61946046D01*
X117918238Y-62010626D01*
X117912124Y-62017193D01*
X117237038Y-62692279D01*
X117048948Y-62880369D01*
X116986636Y-62914394D01*
X116915820Y-62909329D01*
X116858985Y-62866782D01*
X116834174Y-62800262D01*
X116833853Y-62791294D01*
X116833853Y-62708222D01*
X116834178Y-62701856D01*
X116838561Y-62658965D01*
X116838854Y-62656099D01*
X116838854Y-62428384D01*
X116858856Y-62360263D01*
X116875759Y-62339289D01*
X117376029Y-61839019D01*
X117438341Y-61804993D01*
X117465124Y-61802114D01*
X117823014Y-61802114D01*
X117891135Y-61822116D01*
G37*
G04 #@! TD.AperFunction*
G04 #@! TA.AperFunction,Conductor*
G36*
X111177525Y-60495726D02*
G01*
X111224018Y-60549382D01*
X111234122Y-60619656D01*
X111204628Y-60684236D01*
X111198499Y-60690819D01*
X110227499Y-61661819D01*
X110165187Y-61695845D01*
X110138404Y-61698724D01*
X107947059Y-61698724D01*
X107878938Y-61678722D01*
X107841576Y-61641639D01*
X107762078Y-61519959D01*
X107762074Y-61519953D01*
X107645924Y-61393783D01*
X107609594Y-61354318D01*
X107609593Y-61354317D01*
X107609591Y-61354315D01*
X107527736Y-61290605D01*
X107431930Y-61216035D01*
X107431923Y-61216031D01*
X107398672Y-61198036D01*
X107348282Y-61148022D01*
X107332930Y-61078705D01*
X107357491Y-61012093D01*
X107398669Y-60976412D01*
X107431930Y-60958413D01*
X107609594Y-60820130D01*
X107762076Y-60654492D01*
X107824899Y-60558334D01*
X107841576Y-60532809D01*
X107895580Y-60486720D01*
X107947059Y-60475724D01*
X111109404Y-60475724D01*
X111177525Y-60495726D01*
G37*
G04 #@! TD.AperFunction*
G04 #@! TA.AperFunction,Conductor*
G36*
X100428948Y-41993726D02*
G01*
X100475441Y-42047382D01*
X100485545Y-42117656D01*
X100456051Y-42182236D01*
X100449922Y-42188818D01*
X98634014Y-44004726D01*
X96818921Y-45819819D01*
X96756609Y-45853845D01*
X96729826Y-45856724D01*
X95331387Y-45856724D01*
X95315155Y-45854932D01*
X95315132Y-45855182D01*
X95307239Y-45854435D01*
X95235418Y-45856693D01*
X95233439Y-45856724D01*
X95203344Y-45856724D01*
X95195998Y-45857651D01*
X95190085Y-45858117D01*
X95140948Y-45859661D01*
X95140946Y-45859661D01*
X95140945Y-45859662D01*
X95120347Y-45865645D01*
X95100997Y-45869652D01*
X95079716Y-45872340D01*
X95079711Y-45872342D01*
X95033990Y-45890443D01*
X95028375Y-45892365D01*
X94981182Y-45906076D01*
X94981174Y-45906079D01*
X94962717Y-45916995D01*
X94944969Y-45925690D01*
X94928394Y-45932253D01*
X94925020Y-45933589D01*
X94925015Y-45933592D01*
X94885237Y-45962492D01*
X94880286Y-45965744D01*
X94847913Y-45984891D01*
X94837967Y-45990773D01*
X94822805Y-46005935D01*
X94807778Y-46018769D01*
X94790422Y-46031380D01*
X94790419Y-46031382D01*
X94759070Y-46069275D01*
X94755074Y-46073666D01*
X92115611Y-48713127D01*
X92102865Y-48723340D01*
X92103025Y-48723533D01*
X92096920Y-48728583D01*
X92047718Y-48780977D01*
X92046342Y-48782397D01*
X92025071Y-48803668D01*
X92020527Y-48809525D01*
X92016678Y-48814031D01*
X91983029Y-48849865D01*
X91983027Y-48849867D01*
X91972691Y-48868667D01*
X91961843Y-48885180D01*
X91948699Y-48902126D01*
X91948694Y-48902135D01*
X91929172Y-48947247D01*
X91926560Y-48952577D01*
X91902877Y-48995660D01*
X91902873Y-48995670D01*
X91897541Y-49016436D01*
X91891139Y-49035136D01*
X91882620Y-49054820D01*
X91882619Y-49054824D01*
X91874928Y-49103384D01*
X91873724Y-49109197D01*
X91861499Y-49156810D01*
X91861500Y-49178258D01*
X91859949Y-49197967D01*
X91856594Y-49219150D01*
X91856594Y-49219152D01*
X91861220Y-49268094D01*
X91861500Y-49274027D01*
X91861500Y-50905613D01*
X91859708Y-50921844D01*
X91859958Y-50921868D01*
X91859211Y-50929760D01*
X91861469Y-51001582D01*
X91861500Y-51003561D01*
X91861500Y-51033654D01*
X91862427Y-51041000D01*
X91862893Y-51046914D01*
X91864437Y-51096053D01*
X91864438Y-51096056D01*
X91870421Y-51116653D01*
X91874428Y-51136004D01*
X91877117Y-51157284D01*
X91877117Y-51157286D01*
X91895216Y-51203002D01*
X91897139Y-51208618D01*
X91910853Y-51255821D01*
X91910853Y-51255822D01*
X91921771Y-51274282D01*
X91930468Y-51292035D01*
X91938364Y-51311979D01*
X91938367Y-51311984D01*
X91956352Y-51336737D01*
X91967265Y-51351756D01*
X91970521Y-51356714D01*
X91995547Y-51399031D01*
X92010714Y-51414198D01*
X92023552Y-51429229D01*
X92036158Y-51446580D01*
X92074039Y-51477918D01*
X92078420Y-51481904D01*
X92419685Y-51823169D01*
X92753376Y-52156860D01*
X92787402Y-52219172D01*
X92785988Y-52278563D01*
X92776458Y-52314131D01*
X92776457Y-52314135D01*
X92767158Y-52420423D01*
X92756502Y-52542224D01*
X92776457Y-52770311D01*
X92786798Y-52808904D01*
X92835715Y-52991464D01*
X92835717Y-52991470D01*
X92932478Y-53198976D01*
X92934410Y-53201735D01*
X92934885Y-53203145D01*
X92935227Y-53203737D01*
X92935108Y-53203805D01*
X92957094Y-53269010D01*
X92939805Y-53337870D01*
X92895335Y-53382452D01*
X92873193Y-53395547D01*
X92858022Y-53410717D01*
X92842996Y-53423550D01*
X92825644Y-53436157D01*
X92825643Y-53436158D01*
X92794299Y-53474045D01*
X92790303Y-53478436D01*
X92055611Y-54213127D01*
X92042865Y-54223340D01*
X92043025Y-54223533D01*
X92036920Y-54228583D01*
X91987718Y-54280977D01*
X91986342Y-54282397D01*
X91965071Y-54303668D01*
X91960527Y-54309525D01*
X91956678Y-54314031D01*
X91923029Y-54349865D01*
X91923027Y-54349867D01*
X91912691Y-54368667D01*
X91901843Y-54385180D01*
X91888699Y-54402126D01*
X91888694Y-54402135D01*
X91869172Y-54447247D01*
X91866560Y-54452577D01*
X91842877Y-54495660D01*
X91842873Y-54495670D01*
X91837541Y-54516436D01*
X91831139Y-54535136D01*
X91822620Y-54554820D01*
X91822619Y-54554824D01*
X91814928Y-54603384D01*
X91813724Y-54609197D01*
X91801499Y-54656810D01*
X91801500Y-54678258D01*
X91799949Y-54697967D01*
X91796594Y-54719150D01*
X91796594Y-54719152D01*
X91801220Y-54768094D01*
X91801500Y-54774027D01*
X91801500Y-60778418D01*
X91781498Y-60846539D01*
X91727842Y-60893032D01*
X91657568Y-60903136D01*
X91592988Y-60873642D01*
X91586405Y-60867513D01*
X91495405Y-60776513D01*
X91461379Y-60714201D01*
X91458500Y-60687418D01*
X91458500Y-48804950D01*
X91478502Y-48736829D01*
X91495405Y-48715855D01*
X94835855Y-45375405D01*
X94898167Y-45341379D01*
X94924950Y-45338500D01*
X96543389Y-45338500D01*
X96559620Y-45340291D01*
X96559644Y-45340042D01*
X96567536Y-45340788D01*
X96567536Y-45340787D01*
X96567537Y-45340788D01*
X96591275Y-45340042D01*
X96639358Y-45338531D01*
X96641337Y-45338500D01*
X96671425Y-45338500D01*
X96671432Y-45338500D01*
X96678779Y-45337571D01*
X96684682Y-45337106D01*
X96733831Y-45335562D01*
X96754421Y-45329579D01*
X96773776Y-45325571D01*
X96795064Y-45322882D01*
X96840796Y-45304775D01*
X96846380Y-45302863D01*
X96893600Y-45289145D01*
X96912050Y-45278232D01*
X96929813Y-45269530D01*
X96949756Y-45261635D01*
X96989537Y-45232730D01*
X96994487Y-45229480D01*
X97004175Y-45223750D01*
X97036807Y-45204453D01*
X97051977Y-45189281D01*
X97067005Y-45176447D01*
X97084357Y-45163841D01*
X97115702Y-45125950D01*
X97119670Y-45121588D01*
X100230630Y-42010629D01*
X100292943Y-41976603D01*
X100319726Y-41973724D01*
X100360827Y-41973724D01*
X100428948Y-41993726D01*
G37*
G04 #@! TD.AperFunction*
G04 #@! TA.AperFunction,Conductor*
G36*
X97997097Y-57425112D02*
G01*
X97997099Y-57425112D01*
X98047088Y-57353721D01*
X98143811Y-57146297D01*
X98143813Y-57146293D01*
X98160073Y-57085611D01*
X98197025Y-57024988D01*
X98260885Y-56993967D01*
X98331380Y-57002395D01*
X98370875Y-57029127D01*
X98769949Y-57428201D01*
X98803975Y-57490513D01*
X98806854Y-57517296D01*
X98806854Y-60481274D01*
X98786852Y-60549395D01*
X98733196Y-60595888D01*
X98662922Y-60605992D01*
X98598342Y-60576498D01*
X98591759Y-60570369D01*
X98469229Y-60447839D01*
X98459018Y-60435093D01*
X98458825Y-60435254D01*
X98453771Y-60429145D01*
X98401374Y-60379941D01*
X98399984Y-60378594D01*
X98378687Y-60357297D01*
X98378685Y-60357295D01*
X98378679Y-60357290D01*
X98372836Y-60352758D01*
X98368321Y-60348902D01*
X98355642Y-60336996D01*
X98332487Y-60315252D01*
X98332484Y-60315250D01*
X98332479Y-60315247D01*
X98313692Y-60304918D01*
X98297172Y-60294067D01*
X98280221Y-60280919D01*
X98235093Y-60261390D01*
X98229775Y-60258785D01*
X98202589Y-60243840D01*
X98186692Y-60235100D01*
X98186689Y-60235099D01*
X98165922Y-60229767D01*
X98147224Y-60223366D01*
X98144157Y-60222039D01*
X98089580Y-60176631D01*
X98068216Y-60108925D01*
X98079997Y-60053148D01*
X98143809Y-59916302D01*
X98143813Y-59916292D01*
X98203048Y-59695226D01*
X98222995Y-59467223D01*
X98203048Y-59239221D01*
X98143813Y-59018155D01*
X98143811Y-59018150D01*
X98047086Y-58810722D01*
X97997100Y-58739334D01*
X97997097Y-58739334D01*
X97394360Y-59342071D01*
X97369493Y-59257380D01*
X97291761Y-59136426D01*
X97183100Y-59042272D01*
X97052315Y-58982544D01*
X97037584Y-58980426D01*
X97637888Y-58380123D01*
X97637888Y-58380122D01*
X97566501Y-58330137D01*
X97359073Y-58233412D01*
X97359068Y-58233410D01*
X97249050Y-58203931D01*
X97188427Y-58166979D01*
X97157406Y-58103119D01*
X97165834Y-58032624D01*
X97211037Y-57977877D01*
X97249050Y-57960517D01*
X97359068Y-57931037D01*
X97359073Y-57931035D01*
X97566497Y-57834312D01*
X97637888Y-57784323D01*
X97637888Y-57784321D01*
X97037588Y-57184021D01*
X97052315Y-57181904D01*
X97183100Y-57122176D01*
X97291761Y-57028022D01*
X97369493Y-56907068D01*
X97394360Y-56822375D01*
X97997097Y-57425112D01*
G37*
G04 #@! TD.AperFunction*
G04 #@! TA.AperFunction,Conductor*
G36*
X95675895Y-55990726D02*
G01*
X95722388Y-56044382D01*
X95732492Y-56114656D01*
X95721969Y-56149974D01*
X95676188Y-56248150D01*
X95676186Y-56248155D01*
X95616951Y-56469221D01*
X95597004Y-56697224D01*
X95616951Y-56925226D01*
X95676186Y-57146292D01*
X95676188Y-57146297D01*
X95772913Y-57353725D01*
X95822898Y-57425112D01*
X95822900Y-57425112D01*
X96425638Y-56822373D01*
X96450507Y-56907068D01*
X96528239Y-57028022D01*
X96636900Y-57122176D01*
X96767685Y-57181904D01*
X96782412Y-57184021D01*
X96182110Y-57784322D01*
X96182110Y-57784324D01*
X96253498Y-57834310D01*
X96460926Y-57931035D01*
X96460928Y-57931036D01*
X96570950Y-57960517D01*
X96631572Y-57997469D01*
X96662594Y-58061330D01*
X96654165Y-58131824D01*
X96608962Y-58186571D01*
X96570950Y-58203931D01*
X96460928Y-58233411D01*
X96460926Y-58233412D01*
X96253500Y-58330137D01*
X96182109Y-58380123D01*
X96782413Y-58980426D01*
X96767685Y-58982544D01*
X96636900Y-59042272D01*
X96528239Y-59136426D01*
X96450507Y-59257380D01*
X96425639Y-59342072D01*
X95822900Y-58739333D01*
X95772913Y-58810724D01*
X95676188Y-59018150D01*
X95676186Y-59018155D01*
X95616951Y-59239221D01*
X95597004Y-59467223D01*
X95616951Y-59695226D01*
X95676186Y-59916292D01*
X95676188Y-59916297D01*
X95721969Y-60014474D01*
X95732630Y-60084665D01*
X95703650Y-60149478D01*
X95644231Y-60188335D01*
X95607774Y-60193724D01*
X95271888Y-60193724D01*
X95203767Y-60173722D01*
X95168675Y-60139995D01*
X95099777Y-60041599D01*
X95076198Y-60007924D01*
X94914300Y-59846026D01*
X94855630Y-59804945D01*
X94726749Y-59714701D01*
X94519246Y-59617941D01*
X94519240Y-59617939D01*
X94486930Y-59609281D01*
X94410977Y-59588930D01*
X94350356Y-59551979D01*
X94319335Y-59488119D01*
X94327763Y-59417624D01*
X94372966Y-59362877D01*
X94410976Y-59345518D01*
X94519243Y-59316508D01*
X94726749Y-59219747D01*
X94914300Y-59088422D01*
X95076198Y-58926524D01*
X95207523Y-58738973D01*
X95304284Y-58531467D01*
X95363543Y-58310311D01*
X95383498Y-58082224D01*
X95363543Y-57854137D01*
X95304284Y-57632981D01*
X95207523Y-57425475D01*
X95076198Y-57237924D01*
X94914300Y-57076026D01*
X94907893Y-57071540D01*
X94726749Y-56944701D01*
X94519246Y-56847941D01*
X94519240Y-56847939D01*
X94479840Y-56837382D01*
X94410977Y-56818930D01*
X94350356Y-56781979D01*
X94319335Y-56718119D01*
X94327763Y-56647624D01*
X94372966Y-56592877D01*
X94410976Y-56575518D01*
X94519243Y-56546508D01*
X94726749Y-56449747D01*
X94914300Y-56318422D01*
X95076198Y-56156524D01*
X95168675Y-56024452D01*
X95224132Y-55980125D01*
X95271888Y-55970724D01*
X95607774Y-55970724D01*
X95675895Y-55990726D01*
G37*
G04 #@! TD.AperFunction*
G04 #@! TA.AperFunction,Conductor*
G36*
X111253687Y-56783726D02*
G01*
X111300180Y-56837382D01*
X111310488Y-56906170D01*
X111308354Y-56922374D01*
X111308354Y-57399724D01*
X111831854Y-57399724D01*
X111899975Y-57419726D01*
X111946468Y-57473382D01*
X111957854Y-57525723D01*
X111957855Y-57673723D01*
X111937853Y-57741844D01*
X111884198Y-57788337D01*
X111831855Y-57799724D01*
X111308355Y-57799724D01*
X111308355Y-58263629D01*
X111288353Y-58331750D01*
X111249391Y-58370316D01*
X111174440Y-58417411D01*
X111107405Y-58436724D01*
X108702304Y-58436724D01*
X108634183Y-58416722D01*
X108613208Y-58399819D01*
X108493800Y-58280411D01*
X108349002Y-58135612D01*
X108338794Y-58122869D01*
X108338601Y-58123030D01*
X108333547Y-58116921D01*
X108281150Y-58067717D01*
X108279760Y-58066370D01*
X108258463Y-58045073D01*
X108258461Y-58045071D01*
X108258455Y-58045066D01*
X108252612Y-58040534D01*
X108248097Y-58036678D01*
X108235271Y-58024634D01*
X108212263Y-58003028D01*
X108212260Y-58003026D01*
X108212255Y-58003023D01*
X108193468Y-57992694D01*
X108176948Y-57981843D01*
X108159997Y-57968695D01*
X108114869Y-57949166D01*
X108109551Y-57946561D01*
X108081308Y-57931035D01*
X108066468Y-57922876D01*
X108066463Y-57922874D01*
X108048409Y-57918239D01*
X107987402Y-57881924D01*
X107955714Y-57818392D01*
X107963404Y-57747813D01*
X107964317Y-57745674D01*
X107975650Y-57719840D01*
X108030918Y-57501592D01*
X108049510Y-57277224D01*
X108032944Y-57077314D01*
X108047252Y-57007778D01*
X108069413Y-56977823D01*
X108246610Y-56800626D01*
X108308920Y-56766603D01*
X108335703Y-56763724D01*
X111185566Y-56763724D01*
X111253687Y-56783726D01*
G37*
G04 #@! TD.AperFunction*
G04 #@! TA.AperFunction,Conductor*
G36*
X100469373Y-47506631D02*
G01*
X100526209Y-47549178D01*
X100547485Y-47593755D01*
X100571057Y-47686838D01*
X100602298Y-47758061D01*
X100658163Y-47885422D01*
X100661495Y-47893017D01*
X100784629Y-48081489D01*
X100784633Y-48081494D01*
X100937116Y-48247132D01*
X100991685Y-48289605D01*
X101114778Y-48385413D01*
X101148034Y-48403410D01*
X101198425Y-48453424D01*
X101213777Y-48522740D01*
X101189216Y-48589353D01*
X101148034Y-48625038D01*
X101114780Y-48643034D01*
X101114778Y-48643035D01*
X100937116Y-48781315D01*
X100784633Y-48946953D01*
X100784629Y-48946958D01*
X100661495Y-49135430D01*
X100571057Y-49341610D01*
X100571056Y-49341611D01*
X100515791Y-49559848D01*
X100515791Y-49559851D01*
X100515790Y-49559856D01*
X100497198Y-49784224D01*
X100514082Y-49987984D01*
X100515791Y-50008599D01*
X100571056Y-50226836D01*
X100571057Y-50226837D01*
X100571058Y-50226840D01*
X100656181Y-50420903D01*
X100661495Y-50433017D01*
X100784629Y-50621489D01*
X100784633Y-50621494D01*
X100928195Y-50777441D01*
X100959616Y-50841106D01*
X100951630Y-50911652D01*
X100906771Y-50966681D01*
X100879527Y-50980834D01*
X100764393Y-51023777D01*
X100764388Y-51023779D01*
X100647449Y-51111319D01*
X100559909Y-51228258D01*
X100559909Y-51228259D01*
X100508859Y-51365130D01*
X100502354Y-51425626D01*
X100502354Y-52070224D01*
X101429238Y-52070224D01*
X101400861Y-52114380D01*
X101360354Y-52252335D01*
X101360354Y-52396113D01*
X101400861Y-52534068D01*
X101429238Y-52578224D01*
X100502354Y-52578224D01*
X100502354Y-53222821D01*
X100508859Y-53283317D01*
X100559909Y-53420188D01*
X100559909Y-53420189D01*
X100647449Y-53537128D01*
X100764388Y-53624668D01*
X100901260Y-53675718D01*
X100961756Y-53682223D01*
X100961769Y-53682224D01*
X101606354Y-53682224D01*
X101606354Y-52757898D01*
X101718039Y-52808904D01*
X101824591Y-52824224D01*
X101896117Y-52824224D01*
X102002669Y-52808904D01*
X102114354Y-52757898D01*
X102114354Y-53682224D01*
X102758939Y-53682224D01*
X102758951Y-53682223D01*
X102819447Y-53675718D01*
X102956318Y-53624668D01*
X102956319Y-53624668D01*
X103073258Y-53537128D01*
X103160798Y-53420189D01*
X103160798Y-53420188D01*
X103211848Y-53283317D01*
X103218353Y-53222821D01*
X103218354Y-53222809D01*
X103218354Y-52578224D01*
X102291470Y-52578224D01*
X102319847Y-52534068D01*
X102360354Y-52396113D01*
X102360354Y-52252335D01*
X102319847Y-52114380D01*
X102291470Y-52070224D01*
X103218354Y-52070224D01*
X103218354Y-51425638D01*
X103218353Y-51425626D01*
X103211848Y-51365130D01*
X103160798Y-51228259D01*
X103160798Y-51228258D01*
X103073258Y-51111319D01*
X102956320Y-51023780D01*
X102841180Y-50980835D01*
X102784345Y-50938288D01*
X102759534Y-50871767D01*
X102774626Y-50802393D01*
X102792508Y-50777446D01*
X102936076Y-50621492D01*
X103059214Y-50433015D01*
X103149650Y-50226840D01*
X103204918Y-50008592D01*
X103223510Y-49784224D01*
X103204918Y-49559856D01*
X103184315Y-49478498D01*
X103186981Y-49407553D01*
X103217360Y-49358476D01*
X104763211Y-47812626D01*
X104825521Y-47778603D01*
X104852304Y-47775724D01*
X105425649Y-47775724D01*
X105493770Y-47795726D01*
X105531132Y-47832809D01*
X105610629Y-47954488D01*
X105610633Y-47954494D01*
X105677544Y-48027177D01*
X105752561Y-48108667D01*
X105763116Y-48120132D01*
X105813055Y-48159001D01*
X105940778Y-48258413D01*
X105974034Y-48276410D01*
X106024425Y-48326424D01*
X106039777Y-48395740D01*
X106015216Y-48462353D01*
X105974034Y-48498037D01*
X105940780Y-48516034D01*
X105940778Y-48516035D01*
X105763116Y-48654315D01*
X105610633Y-48819953D01*
X105610629Y-48819958D01*
X105487495Y-49008430D01*
X105397057Y-49214610D01*
X105397056Y-49214611D01*
X105341791Y-49432848D01*
X105341790Y-49432854D01*
X105341790Y-49432856D01*
X105323198Y-49657224D01*
X105341154Y-49873922D01*
X105341791Y-49881599D01*
X105397056Y-50099836D01*
X105397057Y-50099837D01*
X105397058Y-50099840D01*
X105471014Y-50268444D01*
X105487495Y-50306017D01*
X105610629Y-50494489D01*
X105610633Y-50494494D01*
X105697465Y-50588817D01*
X105748620Y-50644386D01*
X105763116Y-50660132D01*
X105813783Y-50699568D01*
X105940778Y-50798413D01*
X105974559Y-50816694D01*
X106024950Y-50866706D01*
X106040303Y-50936023D01*
X106015743Y-51002636D01*
X105974563Y-51038320D01*
X105941058Y-51056452D01*
X105941052Y-51056456D01*
X105763451Y-51194689D01*
X105611028Y-51360265D01*
X105487934Y-51548675D01*
X105397533Y-51754767D01*
X105397530Y-51754774D01*
X105349809Y-51943223D01*
X105349810Y-51943224D01*
X106255238Y-51943224D01*
X106226861Y-51987380D01*
X106186354Y-52125335D01*
X106186354Y-52269113D01*
X106226861Y-52407068D01*
X106255238Y-52451224D01*
X105349809Y-52451224D01*
X105397530Y-52639673D01*
X105397533Y-52639680D01*
X105487934Y-52845772D01*
X105611028Y-53034182D01*
X105763451Y-53199758D01*
X105941052Y-53337991D01*
X105941058Y-53337995D01*
X105974561Y-53356126D01*
X106024951Y-53406139D01*
X106040303Y-53475456D01*
X106015742Y-53542069D01*
X105974561Y-53577752D01*
X105940784Y-53596031D01*
X105940778Y-53596035D01*
X105763116Y-53734315D01*
X105610633Y-53899953D01*
X105610629Y-53899958D01*
X105487495Y-54088430D01*
X105397057Y-54294610D01*
X105397056Y-54294611D01*
X105341791Y-54512848D01*
X105341790Y-54512854D01*
X105341790Y-54512856D01*
X105331775Y-54633722D01*
X105324696Y-54719152D01*
X105323198Y-54737224D01*
X105338971Y-54927576D01*
X105341791Y-54961599D01*
X105397056Y-55179836D01*
X105397057Y-55179837D01*
X105397058Y-55179840D01*
X105436259Y-55269210D01*
X105487495Y-55386017D01*
X105610629Y-55574489D01*
X105610633Y-55574494D01*
X105650476Y-55617774D01*
X105760524Y-55737317D01*
X105763116Y-55740132D01*
X105796811Y-55766358D01*
X105940778Y-55878413D01*
X105974034Y-55896410D01*
X106024425Y-55946424D01*
X106039777Y-56015740D01*
X106015216Y-56082353D01*
X105974034Y-56118038D01*
X105940780Y-56136034D01*
X105940778Y-56136035D01*
X105763116Y-56274315D01*
X105610633Y-56439953D01*
X105610629Y-56439958D01*
X105487495Y-56628430D01*
X105397058Y-56834608D01*
X105389268Y-56865369D01*
X105353155Y-56926494D01*
X105289727Y-56958392D01*
X105219123Y-56950935D01*
X105163759Y-56906490D01*
X105158673Y-56898579D01*
X105143732Y-56873317D01*
X105135033Y-56855561D01*
X105127137Y-56835616D01*
X105098238Y-56795842D01*
X105094984Y-56790889D01*
X105069955Y-56748565D01*
X105069954Y-56748563D01*
X105054790Y-56733399D01*
X105041949Y-56718365D01*
X105029343Y-56701015D01*
X105029338Y-56701010D01*
X104999504Y-56676330D01*
X104991452Y-56669669D01*
X104987079Y-56665689D01*
X104273108Y-55951718D01*
X104241910Y-55900110D01*
X104192060Y-55740132D01*
X104191183Y-55737317D01*
X104191181Y-55737312D01*
X104191181Y-55737311D01*
X104102170Y-55590069D01*
X104102169Y-55590068D01*
X104102165Y-55590063D01*
X103980514Y-55468412D01*
X103980509Y-55468408D01*
X103977540Y-55466613D01*
X103833267Y-55379397D01*
X103833266Y-55379396D01*
X103833265Y-55379396D01*
X103833260Y-55379394D01*
X103669000Y-55328210D01*
X103617077Y-55323492D01*
X103597619Y-55321724D01*
X103597616Y-55321724D01*
X103083092Y-55321724D01*
X103011707Y-55328210D01*
X103011706Y-55328210D01*
X102847447Y-55379394D01*
X102847442Y-55379396D01*
X102700198Y-55468408D01*
X102700193Y-55468412D01*
X102604449Y-55564157D01*
X102542137Y-55598183D01*
X102471322Y-55593118D01*
X102426259Y-55564157D01*
X102330514Y-55468412D01*
X102330509Y-55468408D01*
X102327540Y-55466613D01*
X102183267Y-55379397D01*
X102183266Y-55379396D01*
X102183265Y-55379396D01*
X102183260Y-55379394D01*
X102019000Y-55328210D01*
X101967077Y-55323492D01*
X101947619Y-55321724D01*
X101947616Y-55321724D01*
X101433092Y-55321724D01*
X101361707Y-55328210D01*
X101361706Y-55328210D01*
X101197447Y-55379394D01*
X101197442Y-55379396D01*
X101050198Y-55468408D01*
X101050193Y-55468412D01*
X100928542Y-55590063D01*
X100928538Y-55590068D01*
X100839526Y-55737312D01*
X100839524Y-55737317D01*
X100788340Y-55901577D01*
X100785135Y-55936855D01*
X100781879Y-55972691D01*
X100781854Y-55972961D01*
X100781854Y-56206274D01*
X100761852Y-56274395D01*
X100708196Y-56320888D01*
X100637922Y-56330992D01*
X100573342Y-56301498D01*
X100566759Y-56295369D01*
X100554645Y-56283255D01*
X100541804Y-56268222D01*
X100540461Y-56266373D01*
X100529195Y-56250867D01*
X100491307Y-56219523D01*
X100486925Y-56215536D01*
X98258312Y-53986922D01*
X98224286Y-53924610D01*
X98221887Y-53908820D01*
X98203543Y-53699137D01*
X98144284Y-53477981D01*
X98047523Y-53270475D01*
X97916198Y-53082924D01*
X97754300Y-52921026D01*
X97722262Y-52898593D01*
X97566749Y-52789701D01*
X97359246Y-52692941D01*
X97359240Y-52692939D01*
X97326930Y-52684281D01*
X97250977Y-52663930D01*
X97190356Y-52626979D01*
X97159335Y-52563119D01*
X97167763Y-52492624D01*
X97212966Y-52437877D01*
X97250976Y-52420518D01*
X97359243Y-52391508D01*
X97566749Y-52294747D01*
X97754300Y-52163422D01*
X97916198Y-52001524D01*
X98010044Y-51867496D01*
X98065497Y-51823169D01*
X98109296Y-51813830D01*
X98142555Y-51812786D01*
X98163145Y-51806803D01*
X98182500Y-51802795D01*
X98203788Y-51800106D01*
X98249520Y-51781999D01*
X98255104Y-51780087D01*
X98302324Y-51766369D01*
X98320774Y-51755456D01*
X98338537Y-51746754D01*
X98358480Y-51738859D01*
X98398261Y-51709954D01*
X98403211Y-51706704D01*
X98419241Y-51697224D01*
X98445531Y-51681677D01*
X98460701Y-51666505D01*
X98475729Y-51653671D01*
X98493081Y-51641065D01*
X98524426Y-51603174D01*
X98528394Y-51598812D01*
X99970751Y-50156455D01*
X99983494Y-50146248D01*
X99983334Y-50146054D01*
X99989440Y-50141001D01*
X99989445Y-50140999D01*
X100038679Y-50088568D01*
X100039963Y-50087243D01*
X100061292Y-50065916D01*
X100065835Y-50060058D01*
X100069673Y-50055563D01*
X100103337Y-50019716D01*
X100113675Y-50000910D01*
X100124517Y-49984406D01*
X100137669Y-49967451D01*
X100157197Y-49922320D01*
X100159806Y-49916997D01*
X100183489Y-49873920D01*
X100188822Y-49853145D01*
X100195221Y-49834452D01*
X100203745Y-49814759D01*
X100211439Y-49766174D01*
X100212636Y-49760393D01*
X100224865Y-49712771D01*
X100224865Y-49691324D01*
X100226416Y-49671613D01*
X100229771Y-49650431D01*
X100225145Y-49601486D01*
X100224865Y-49595554D01*
X100224865Y-47699163D01*
X100244867Y-47631042D01*
X100261770Y-47610068D01*
X100336246Y-47535592D01*
X100398558Y-47501566D01*
X100469373Y-47506631D01*
G37*
G04 #@! TD.AperFunction*
G04 #@! TA.AperFunction,Conductor*
G36*
X109181475Y-50026226D02*
G01*
X109227968Y-50079882D01*
X109239354Y-50132224D01*
X109239354Y-51218224D01*
X109284207Y-51218224D01*
X109284206Y-51218223D01*
X109384583Y-51207968D01*
X109384591Y-51207966D01*
X109454551Y-51184784D01*
X109525506Y-51182343D01*
X109586516Y-51218650D01*
X109618212Y-51282179D01*
X109614481Y-51341870D01*
X109608340Y-51361578D01*
X109601854Y-51432961D01*
X109601854Y-51947485D01*
X109608340Y-52018870D01*
X109608340Y-52018871D01*
X109659524Y-52183130D01*
X109659526Y-52183135D01*
X109659527Y-52183137D01*
X109681311Y-52219172D01*
X109748538Y-52330379D01*
X109748542Y-52330384D01*
X109870192Y-52452034D01*
X109870197Y-52452038D01*
X109870199Y-52452040D01*
X109870201Y-52452041D01*
X109870202Y-52452042D01*
X109955844Y-52503814D01*
X109989844Y-52533935D01*
X110013253Y-52563813D01*
X110015509Y-52566879D01*
X110051139Y-52618497D01*
X110098104Y-52660104D01*
X110100848Y-52662688D01*
X110560365Y-53122205D01*
X110957813Y-53519653D01*
X110991839Y-53581965D01*
X110986774Y-53652780D01*
X110944227Y-53709616D01*
X110935755Y-53715435D01*
X110898071Y-53739113D01*
X110769242Y-53867942D01*
X110769241Y-53867944D01*
X110672312Y-54022205D01*
X110672311Y-54022208D01*
X110622736Y-54163888D01*
X110612137Y-54194177D01*
X110592782Y-54365958D01*
X110591738Y-54375224D01*
X110602035Y-54466617D01*
X110589785Y-54536549D01*
X110541672Y-54588757D01*
X110476827Y-54606724D01*
X108152759Y-54606724D01*
X108084638Y-54586722D01*
X108038145Y-54533066D01*
X108030615Y-54511656D01*
X107981672Y-54318389D01*
X107975650Y-54294608D01*
X107885214Y-54088433D01*
X107831870Y-54006784D01*
X107762078Y-53899958D01*
X107762074Y-53899953D01*
X107609591Y-53734315D01*
X107504835Y-53652780D01*
X107431930Y-53596035D01*
X107398146Y-53577752D01*
X107347756Y-53527740D01*
X107332404Y-53458423D01*
X107356964Y-53391810D01*
X107398147Y-53356125D01*
X107431654Y-53337991D01*
X107431655Y-53337991D01*
X107609256Y-53199758D01*
X107761679Y-53034182D01*
X107884773Y-52845772D01*
X107975174Y-52639680D01*
X107975177Y-52639673D01*
X108022898Y-52451224D01*
X107117470Y-52451224D01*
X107145847Y-52407068D01*
X107186354Y-52269113D01*
X107186354Y-52125335D01*
X107145847Y-51987380D01*
X107117470Y-51943224D01*
X108022898Y-51943224D01*
X108022898Y-51943223D01*
X107975177Y-51754774D01*
X107975174Y-51754767D01*
X107884773Y-51548675D01*
X107761679Y-51360265D01*
X107609256Y-51194689D01*
X107431655Y-51056456D01*
X107431654Y-51056455D01*
X107398145Y-51038321D01*
X107347755Y-50988307D01*
X107332404Y-50918990D01*
X107356966Y-50852377D01*
X107398144Y-50816696D01*
X107431930Y-50798413D01*
X107609594Y-50660130D01*
X107762076Y-50494492D01*
X107771705Y-50479752D01*
X107825707Y-50433664D01*
X107896055Y-50424087D01*
X107960413Y-50454064D01*
X107998348Y-50514076D01*
X108002536Y-50535860D01*
X108012609Y-50634453D01*
X108012611Y-50634465D01*
X108066506Y-50797108D01*
X108156463Y-50942952D01*
X108156468Y-50942958D01*
X108277619Y-51064109D01*
X108277625Y-51064114D01*
X108423469Y-51154071D01*
X108586112Y-51207966D01*
X108586124Y-51207968D01*
X108686501Y-51218223D01*
X108686501Y-51218224D01*
X108731354Y-51218224D01*
X108731354Y-50132224D01*
X108751356Y-50064103D01*
X108805012Y-50017610D01*
X108857354Y-50006224D01*
X109113354Y-50006224D01*
X109181475Y-50026226D01*
G37*
G04 #@! TD.AperFunction*
G04 #@! TA.AperFunction,Conductor*
G36*
X127362828Y-45984891D02*
G01*
X127389527Y-46016627D01*
X127395547Y-46026807D01*
X127410714Y-46041974D01*
X127423552Y-46057005D01*
X127436158Y-46074356D01*
X127474039Y-46105694D01*
X127478420Y-46109680D01*
X127672934Y-46304194D01*
X127822963Y-46454223D01*
X127856989Y-46516535D01*
X127855575Y-46575929D01*
X127841742Y-46627552D01*
X127823488Y-46836201D01*
X127821406Y-46860000D01*
X127841742Y-47092444D01*
X127870591Y-47200108D01*
X127901790Y-47316548D01*
X127902133Y-47317826D01*
X127917956Y-47351759D01*
X128000744Y-47529297D01*
X128111056Y-47686840D01*
X128134578Y-47720432D01*
X128299568Y-47885422D01*
X128490703Y-48019256D01*
X128507705Y-48027184D01*
X128547637Y-48045805D01*
X128600922Y-48092723D01*
X128620383Y-48161000D01*
X128599841Y-48228960D01*
X128547637Y-48274195D01*
X128490702Y-48300744D01*
X128299571Y-48434575D01*
X128299565Y-48434580D01*
X128134580Y-48599565D01*
X128134575Y-48599571D01*
X128000744Y-48790702D01*
X127902134Y-49002171D01*
X127902132Y-49002175D01*
X127875014Y-49103384D01*
X127841742Y-49227556D01*
X127821406Y-49460000D01*
X127841742Y-49692444D01*
X127902133Y-49917826D01*
X127981439Y-50087897D01*
X128000744Y-50129297D01*
X128124484Y-50306017D01*
X128134578Y-50320432D01*
X128235053Y-50420907D01*
X128269076Y-50483215D01*
X128264012Y-50554031D01*
X128235052Y-50599094D01*
X128134575Y-50699571D01*
X128013213Y-50872895D01*
X127957756Y-50917223D01*
X127887137Y-50924532D01*
X127823776Y-50892501D01*
X127806787Y-50872895D01*
X127685424Y-50699571D01*
X127685419Y-50699565D01*
X127520434Y-50534580D01*
X127520428Y-50534575D01*
X127329297Y-50400744D01*
X127157068Y-50320432D01*
X127117826Y-50302133D01*
X127117824Y-50302132D01*
X126992097Y-50268444D01*
X126892444Y-50241742D01*
X126660000Y-50221406D01*
X126427556Y-50241742D01*
X126367166Y-50257923D01*
X126202175Y-50302132D01*
X126202171Y-50302134D01*
X125990702Y-50400744D01*
X125799571Y-50534575D01*
X125799565Y-50534580D01*
X125634580Y-50699565D01*
X125634575Y-50699571D01*
X125500742Y-50890704D01*
X125440432Y-51020039D01*
X125393515Y-51073323D01*
X125325238Y-51092784D01*
X125257278Y-51072242D01*
X125237142Y-51055883D01*
X125033636Y-50852377D01*
X124704096Y-50522836D01*
X124693888Y-50510093D01*
X124693695Y-50510254D01*
X124688641Y-50504145D01*
X124636244Y-50454941D01*
X124634854Y-50453594D01*
X124613557Y-50432297D01*
X124613555Y-50432295D01*
X124613549Y-50432290D01*
X124607706Y-50427758D01*
X124603191Y-50423902D01*
X124585391Y-50407187D01*
X124567357Y-50390252D01*
X124567354Y-50390250D01*
X124567349Y-50390247D01*
X124548562Y-50379918D01*
X124532042Y-50369067D01*
X124515091Y-50355919D01*
X124469963Y-50336390D01*
X124464645Y-50333785D01*
X124437459Y-50318840D01*
X124421562Y-50310100D01*
X124421559Y-50310099D01*
X124400792Y-50304767D01*
X124382089Y-50298364D01*
X124371927Y-50293967D01*
X124362400Y-50289844D01*
X124362398Y-50289843D01*
X124362399Y-50289843D01*
X124313843Y-50282153D01*
X124308028Y-50280949D01*
X124260412Y-50268724D01*
X124238965Y-50268724D01*
X124219256Y-50267173D01*
X124198072Y-50263818D01*
X124198071Y-50263818D01*
X124149130Y-50268444D01*
X124143197Y-50268724D01*
X123334146Y-50268724D01*
X123266025Y-50248722D01*
X123219532Y-50195066D01*
X123209428Y-50124792D01*
X123214972Y-50101814D01*
X123215646Y-50099847D01*
X123215650Y-50099840D01*
X123270918Y-49881592D01*
X123289510Y-49657224D01*
X123270918Y-49432856D01*
X123255228Y-49370898D01*
X123215651Y-49214611D01*
X123215650Y-49214609D01*
X123215650Y-49214608D01*
X123197011Y-49172116D01*
X123187965Y-49101701D01*
X123218425Y-49037570D01*
X123277246Y-49000507D01*
X123298376Y-48994369D01*
X123316826Y-48983456D01*
X123334589Y-48974754D01*
X123354532Y-48966859D01*
X123394313Y-48937954D01*
X123399263Y-48934704D01*
X123412934Y-48926619D01*
X123441583Y-48909677D01*
X123456753Y-48894505D01*
X123471781Y-48881671D01*
X123489133Y-48869065D01*
X123520478Y-48831174D01*
X123524446Y-48826812D01*
X126254225Y-46097033D01*
X126316535Y-46063009D01*
X126375927Y-46064423D01*
X126427556Y-46078258D01*
X126660000Y-46098594D01*
X126892444Y-46078258D01*
X127117826Y-46017867D01*
X127227824Y-45966573D01*
X127298015Y-45955912D01*
X127362828Y-45984891D01*
G37*
G04 #@! TD.AperFunction*
G04 #@! TA.AperFunction,Conductor*
G36*
X120575532Y-45452016D02*
G01*
X120622025Y-45505672D01*
X120632129Y-45575946D01*
X120602635Y-45640526D01*
X120596522Y-45647092D01*
X119997840Y-46245774D01*
X119807465Y-46436149D01*
X119794720Y-46446361D01*
X119794879Y-46446554D01*
X119788774Y-46451604D01*
X119739572Y-46503998D01*
X119738196Y-46505418D01*
X119716925Y-46526689D01*
X119712381Y-46532546D01*
X119708532Y-46537052D01*
X119674883Y-46572886D01*
X119674881Y-46572888D01*
X119664545Y-46591688D01*
X119653697Y-46608201D01*
X119640553Y-46625147D01*
X119640548Y-46625156D01*
X119621026Y-46670268D01*
X119618414Y-46675598D01*
X119594731Y-46718681D01*
X119594727Y-46718691D01*
X119589395Y-46739457D01*
X119582993Y-46758157D01*
X119574474Y-46777841D01*
X119574473Y-46777845D01*
X119566782Y-46826405D01*
X119565578Y-46832218D01*
X119553354Y-46879831D01*
X119553354Y-46901279D01*
X119551803Y-46920988D01*
X119548448Y-46942171D01*
X119548448Y-46942173D01*
X119553074Y-46991116D01*
X119553354Y-46997048D01*
X119553353Y-48253773D01*
X119533351Y-48321894D01*
X119516448Y-48342867D01*
X118597996Y-49261320D01*
X118535686Y-49295344D01*
X118508903Y-49298224D01*
X115919354Y-49298224D01*
X115919354Y-49943903D01*
X115899352Y-50012024D01*
X115845696Y-50058517D01*
X115775422Y-50068621D01*
X115710842Y-50039127D01*
X115704259Y-50032998D01*
X113081646Y-47410385D01*
X113047620Y-47348073D01*
X113052685Y-47277258D01*
X113095232Y-47220422D01*
X113104594Y-47214049D01*
X113157992Y-47181113D01*
X113226472Y-47162376D01*
X113290282Y-47181112D01*
X113423162Y-47263073D01*
X113584540Y-47316548D01*
X113684143Y-47326724D01*
X114293564Y-47326723D01*
X114393168Y-47316548D01*
X114554546Y-47263073D01*
X114562796Y-47257983D01*
X114628944Y-47239224D01*
X116056189Y-47239224D01*
X116124310Y-47259226D01*
X116170803Y-47312882D01*
X116180907Y-47383156D01*
X116151413Y-47447736D01*
X116145284Y-47454319D01*
X116078724Y-47520878D01*
X116078719Y-47520884D01*
X115985696Y-47671698D01*
X115929960Y-47839902D01*
X115929959Y-47839905D01*
X115919354Y-47943707D01*
X115919354Y-48790224D01*
X116861922Y-48790224D01*
X116856803Y-48801894D01*
X116846468Y-48926619D01*
X116877191Y-49047943D01*
X116945643Y-49152716D01*
X117044406Y-49229587D01*
X117162778Y-49270224D01*
X117256427Y-49270224D01*
X117348800Y-49254810D01*
X117458868Y-49195243D01*
X117543632Y-49103165D01*
X117593905Y-48988554D01*
X117604240Y-48863829D01*
X117585601Y-48790224D01*
X118535354Y-48790224D01*
X118535354Y-47943707D01*
X118524748Y-47839905D01*
X118524747Y-47839902D01*
X118469011Y-47671698D01*
X118375988Y-47520884D01*
X118375983Y-47520878D01*
X118250699Y-47395594D01*
X118250690Y-47395587D01*
X118179633Y-47351759D01*
X118132154Y-47298974D01*
X118120751Y-47228899D01*
X118149043Y-47163783D01*
X118179631Y-47137278D01*
X118251006Y-47093254D01*
X118376384Y-46967876D01*
X118469469Y-46816962D01*
X118525241Y-46648650D01*
X118535854Y-46544769D01*
X118535853Y-45558013D01*
X118555855Y-45489893D01*
X118609511Y-45443400D01*
X118661853Y-45432014D01*
X120507411Y-45432014D01*
X120575532Y-45452016D01*
G37*
G04 #@! TD.AperFunction*
G04 #@! TA.AperFunction,Conductor*
G36*
X105270739Y-45383726D02*
G01*
X105317232Y-45437382D01*
X105327896Y-45476256D01*
X105334363Y-45536420D01*
X105334365Y-45536428D01*
X105385464Y-45673426D01*
X105385466Y-45673431D01*
X105473092Y-45790485D01*
X105590145Y-45878110D01*
X105590146Y-45878110D01*
X105590150Y-45878113D01*
X105705164Y-45921011D01*
X105761996Y-45963556D01*
X105786807Y-46030076D01*
X105771716Y-46099450D01*
X105753829Y-46124403D01*
X105610634Y-46279953D01*
X105610629Y-46279959D01*
X105531132Y-46401639D01*
X105477128Y-46447728D01*
X105425649Y-46458724D01*
X104613968Y-46458724D01*
X104597733Y-46456931D01*
X104597710Y-46457181D01*
X104589817Y-46456434D01*
X104517964Y-46458693D01*
X104515985Y-46458724D01*
X104485922Y-46458724D01*
X104485917Y-46458724D01*
X104485908Y-46458725D01*
X104478581Y-46459650D01*
X104472667Y-46460116D01*
X104423524Y-46461660D01*
X104408711Y-46465964D01*
X104402922Y-46467645D01*
X104383569Y-46471653D01*
X104362298Y-46474340D01*
X104362292Y-46474341D01*
X104362290Y-46474342D01*
X104353538Y-46477806D01*
X104316570Y-46492442D01*
X104310955Y-46494364D01*
X104263759Y-46508077D01*
X104263753Y-46508079D01*
X104245291Y-46518997D01*
X104227545Y-46527690D01*
X104207602Y-46535586D01*
X104207599Y-46535588D01*
X104167824Y-46564486D01*
X104162862Y-46567745D01*
X104120548Y-46592770D01*
X104105376Y-46607941D01*
X104090350Y-46620774D01*
X104072998Y-46633381D01*
X104072997Y-46633382D01*
X104041653Y-46671269D01*
X104037657Y-46675660D01*
X103434518Y-47278798D01*
X103372206Y-47312824D01*
X103301391Y-47307759D01*
X103244555Y-47265212D01*
X103219854Y-47200112D01*
X103204918Y-47019856D01*
X103197652Y-46991164D01*
X103200316Y-46920219D01*
X103230696Y-46871139D01*
X104701210Y-45400626D01*
X104763520Y-45366603D01*
X104790303Y-45363724D01*
X105202618Y-45363724D01*
X105270739Y-45383726D01*
G37*
G04 #@! TD.AperFunction*
G04 #@! TA.AperFunction,Conductor*
G36*
X102179525Y-42593726D02*
G01*
X102226018Y-42647382D01*
X102236122Y-42717656D01*
X102206628Y-42782236D01*
X102200499Y-42788819D01*
X98220965Y-46768351D01*
X98208219Y-46778564D01*
X98208379Y-46778757D01*
X98202274Y-46783807D01*
X98153072Y-46836201D01*
X98151696Y-46837621D01*
X98130425Y-46858892D01*
X98125881Y-46864749D01*
X98122032Y-46869255D01*
X98088383Y-46905089D01*
X98088381Y-46905091D01*
X98078045Y-46923891D01*
X98067197Y-46940404D01*
X98054053Y-46957350D01*
X98054047Y-46957359D01*
X98034525Y-47002472D01*
X98031914Y-47007803D01*
X98012842Y-47042496D01*
X97962497Y-47092556D01*
X97893081Y-47107450D01*
X97858394Y-47099853D01*
X97819200Y-47085234D01*
X97819196Y-47085233D01*
X97758649Y-47078724D01*
X97758638Y-47078724D01*
X97726725Y-47078724D01*
X97658604Y-47058722D01*
X97612111Y-47005066D01*
X97602007Y-46934792D01*
X97631501Y-46870212D01*
X97637630Y-46863629D01*
X101890630Y-42610629D01*
X101952942Y-42576603D01*
X101979725Y-42573724D01*
X102111404Y-42573724D01*
X102179525Y-42593726D01*
G37*
G04 #@! TD.AperFunction*
G04 #@! TA.AperFunction,Conductor*
G36*
X125240171Y-44655831D02*
G01*
X125297007Y-44698378D01*
X125321660Y-44762905D01*
X125341742Y-44992444D01*
X125355575Y-45044070D01*
X125353885Y-45115047D01*
X125322963Y-45165775D01*
X123487537Y-47001201D01*
X123425225Y-47035227D01*
X123354410Y-47030162D01*
X123297574Y-46987615D01*
X123272872Y-46922508D01*
X123270421Y-46892932D01*
X123215177Y-46674774D01*
X123215176Y-46674773D01*
X123191572Y-46620962D01*
X123182525Y-46550545D01*
X123212984Y-46486414D01*
X123271806Y-46449350D01*
X123288954Y-46444369D01*
X123293069Y-46441935D01*
X123307406Y-46433456D01*
X123325167Y-46424754D01*
X123345110Y-46416859D01*
X123384891Y-46387954D01*
X123389841Y-46384704D01*
X123399529Y-46378974D01*
X123432161Y-46359677D01*
X123447331Y-46344505D01*
X123462359Y-46331671D01*
X123479711Y-46319065D01*
X123511056Y-46281174D01*
X123515024Y-46276812D01*
X125107046Y-44684790D01*
X125169356Y-44650766D01*
X125240171Y-44655831D01*
G37*
G04 #@! TD.AperFunction*
G04 #@! TA.AperFunction,Conductor*
G36*
X105269975Y-43803726D02*
G01*
X105316468Y-43857382D01*
X105327854Y-43909724D01*
X105327854Y-43920724D01*
X105307852Y-43988845D01*
X105254196Y-44035338D01*
X105201854Y-44046724D01*
X104551965Y-44046724D01*
X104535733Y-44044932D01*
X104535710Y-44045182D01*
X104527817Y-44044435D01*
X104455996Y-44046693D01*
X104454017Y-44046724D01*
X104423922Y-44046724D01*
X104416576Y-44047651D01*
X104410663Y-44048117D01*
X104361526Y-44049661D01*
X104361524Y-44049661D01*
X104361523Y-44049662D01*
X104340925Y-44055645D01*
X104321575Y-44059652D01*
X104300294Y-44062340D01*
X104300289Y-44062342D01*
X104254568Y-44080443D01*
X104248953Y-44082365D01*
X104201760Y-44096076D01*
X104201752Y-44096079D01*
X104183295Y-44106995D01*
X104165547Y-44115690D01*
X104145598Y-44123588D01*
X104145598Y-44123589D01*
X104145593Y-44123592D01*
X104105815Y-44152492D01*
X104100864Y-44155744D01*
X104066643Y-44175983D01*
X104058545Y-44180773D01*
X104043383Y-44195935D01*
X104028356Y-44208769D01*
X104011000Y-44221380D01*
X104010997Y-44221382D01*
X103979648Y-44259275D01*
X103975652Y-44263666D01*
X102341089Y-45898227D01*
X102278777Y-45932253D01*
X102211080Y-45928304D01*
X102202813Y-45925466D01*
X102144881Y-45884428D01*
X102118332Y-45818582D01*
X102131595Y-45748835D01*
X102154630Y-45717206D01*
X104051211Y-43820626D01*
X104113521Y-43786603D01*
X104140304Y-43783724D01*
X105201854Y-43783724D01*
X105269975Y-43803726D01*
G37*
G04 #@! TD.AperFunction*
G04 #@! TA.AperFunction,Conductor*
G36*
X115346704Y-43984723D02*
G01*
X115346709Y-43984723D01*
X115346716Y-43984724D01*
X115346722Y-43984724D01*
X115839500Y-43984724D01*
X115907621Y-44004726D01*
X115954114Y-44058382D01*
X115964218Y-44128656D01*
X115959106Y-44150351D01*
X115953847Y-44166222D01*
X115929467Y-44239796D01*
X115929466Y-44239803D01*
X115918854Y-44343670D01*
X115918854Y-44343678D01*
X115918854Y-44343679D01*
X115918854Y-44930274D01*
X115918855Y-45396224D01*
X115898853Y-45464345D01*
X115845197Y-45510838D01*
X115792855Y-45522224D01*
X115018311Y-45522224D01*
X114950190Y-45502222D01*
X114903697Y-45448566D01*
X114893593Y-45378292D01*
X114907029Y-45341231D01*
X114905602Y-45340566D01*
X114908700Y-45333921D01*
X114908700Y-45333920D01*
X114908703Y-45333916D01*
X114962178Y-45172538D01*
X114972354Y-45072935D01*
X114972353Y-44538514D01*
X114962178Y-44438910D01*
X114908703Y-44277532D01*
X114846613Y-44176869D01*
X114827877Y-44108392D01*
X114849136Y-44040653D01*
X114903643Y-43995161D01*
X114953855Y-43984724D01*
X115193986Y-43984724D01*
X115193992Y-43984724D01*
X115193999Y-43984723D01*
X115194003Y-43984723D01*
X115256886Y-43977963D01*
X115283822Y-43977963D01*
X115346704Y-43984723D01*
G37*
G04 #@! TD.AperFunction*
G04 #@! TA.AperFunction,Conductor*
G36*
X124734025Y-42979226D02*
G01*
X124780518Y-43032882D01*
X124790622Y-43103156D01*
X124761128Y-43167736D01*
X124755014Y-43174303D01*
X123802055Y-44127262D01*
X123486515Y-44442802D01*
X123424203Y-44476827D01*
X123353387Y-44471762D01*
X123296552Y-44429215D01*
X123271850Y-44364113D01*
X123270918Y-44352856D01*
X123248332Y-44263666D01*
X123215651Y-44134611D01*
X123215650Y-44134610D01*
X123215650Y-44134608D01*
X123125214Y-43928433D01*
X123078794Y-43857382D01*
X123002078Y-43739958D01*
X123002074Y-43739953D01*
X122911921Y-43642023D01*
X122849594Y-43574318D01*
X122833461Y-43561761D01*
X122791991Y-43504136D01*
X122784854Y-43462331D01*
X122784854Y-43085224D01*
X122804856Y-43017103D01*
X122858512Y-42970610D01*
X122910854Y-42959224D01*
X124665904Y-42959224D01*
X124734025Y-42979226D01*
G37*
G04 #@! TD.AperFunction*
G04 #@! TA.AperFunction,Conductor*
G36*
X119036201Y-40721542D02*
G01*
X119068427Y-40748151D01*
X119114847Y-40801723D01*
X119115559Y-40802606D01*
X119116306Y-40803407D01*
X119226814Y-40899162D01*
X119322341Y-40960553D01*
X119347766Y-40976893D01*
X119480777Y-41037637D01*
X119621432Y-41078937D01*
X119681158Y-41117321D01*
X119710652Y-41181901D01*
X119700548Y-41252175D01*
X119675030Y-41288928D01*
X119566463Y-41397495D01*
X119476506Y-41543339D01*
X119422611Y-41705982D01*
X119422609Y-41705994D01*
X119412354Y-41806371D01*
X119412354Y-41851224D01*
X120498354Y-41851224D01*
X120566475Y-41871226D01*
X120612968Y-41924882D01*
X120624354Y-41977224D01*
X120624354Y-43088224D01*
X120644207Y-43088224D01*
X120644206Y-43088223D01*
X120744583Y-43077968D01*
X120744595Y-43077966D01*
X120902220Y-43025734D01*
X120973174Y-43023293D01*
X121034185Y-43059601D01*
X121065880Y-43123130D01*
X121067853Y-43145338D01*
X121067853Y-43462331D01*
X121047851Y-43530452D01*
X121019248Y-43561760D01*
X121003113Y-43574318D01*
X120960982Y-43620085D01*
X120911024Y-43674352D01*
X120850173Y-43710923D01*
X120818325Y-43715014D01*
X118155702Y-43715014D01*
X118107115Y-43704243D01*
X118107058Y-43704417D01*
X118105363Y-43703855D01*
X118102456Y-43703211D01*
X118100092Y-43702108D01*
X117931781Y-43646337D01*
X117925055Y-43644898D01*
X117925670Y-43642023D01*
X117871987Y-43620085D01*
X117831220Y-43561959D01*
X117828349Y-43491021D01*
X117847365Y-43449337D01*
X117867677Y-43420330D01*
X117958893Y-43224717D01*
X118014755Y-43016237D01*
X118033566Y-42801224D01*
X118014755Y-42586211D01*
X117958893Y-42377731D01*
X117950263Y-42359224D01*
X119412354Y-42359224D01*
X119412354Y-42404076D01*
X119422609Y-42504453D01*
X119422611Y-42504465D01*
X119476506Y-42667108D01*
X119566463Y-42812952D01*
X119566468Y-42812958D01*
X119687619Y-42934109D01*
X119687625Y-42934114D01*
X119833469Y-43024071D01*
X119996112Y-43077966D01*
X119996124Y-43077968D01*
X120096501Y-43088223D01*
X120096501Y-43088224D01*
X120116354Y-43088224D01*
X120116354Y-42359224D01*
X119412354Y-42359224D01*
X117950263Y-42359224D01*
X117867677Y-42182118D01*
X117743879Y-42005317D01*
X117743878Y-42005316D01*
X117743875Y-42005312D01*
X117591265Y-41852702D01*
X117591256Y-41852695D01*
X117500200Y-41788937D01*
X117455871Y-41733480D01*
X117448562Y-41662861D01*
X117480592Y-41599500D01*
X117541794Y-41563515D01*
X117572470Y-41559724D01*
X117707063Y-41559724D01*
X117724994Y-41561006D01*
X117742370Y-41563505D01*
X117820266Y-41559794D01*
X117823236Y-41559724D01*
X117843983Y-41559724D01*
X117843992Y-41559724D01*
X117859864Y-41558016D01*
X117863540Y-41557732D01*
X117953828Y-41553432D01*
X118159558Y-41503522D01*
X118352125Y-41415580D01*
X118524569Y-41292783D01*
X118670657Y-41139570D01*
X118785110Y-40961478D01*
X118856229Y-40783829D01*
X118900114Y-40728026D01*
X118967206Y-40704805D01*
X119036201Y-40721542D01*
G37*
G04 #@! TD.AperFunction*
G04 #@! TA.AperFunction,Conductor*
G36*
X128701052Y-42979226D02*
G01*
X128722026Y-42996129D01*
X128962995Y-43237098D01*
X128997021Y-43299410D01*
X128991956Y-43370225D01*
X128949409Y-43427061D01*
X128906511Y-43447900D01*
X128702347Y-43502604D01*
X128702337Y-43502608D01*
X128626648Y-43537902D01*
X128556456Y-43548563D01*
X128491644Y-43519582D01*
X128464947Y-43487847D01*
X128444453Y-43453193D01*
X128444451Y-43453191D01*
X128444450Y-43453189D01*
X128429288Y-43438027D01*
X128416447Y-43422993D01*
X128403841Y-43405643D01*
X128403836Y-43405638D01*
X128382718Y-43388169D01*
X128365950Y-43374297D01*
X128361577Y-43370317D01*
X128165579Y-43174319D01*
X128131553Y-43112007D01*
X128136618Y-43041192D01*
X128179165Y-42984356D01*
X128245685Y-42959545D01*
X128254674Y-42959224D01*
X128632931Y-42959224D01*
X128701052Y-42979226D01*
G37*
G04 #@! TD.AperFunction*
M02*
