M48
; DRILL file {KiCad 7.0.5} date Sun Dec 31 10:49:38 2023
; FORMAT={-:-/ absolute / metric / decimal}
; #@! TF.CreationDate,2023-12-31T10:49:38+01:00
; #@! TF.GenerationSoftware,Kicad,Pcbnew,7.0.5
; #@! TF.FileFunction,Plated,1,2,PTH
FMAT,2
METRIC
; #@! TA.AperFunction,Plated,PTH,ViaDrill
T1C0.250
; #@! TA.AperFunction,Plated,PTH,ViaDrill
T2C0.350
; #@! TA.AperFunction,Plated,PTH,ComponentDrill
T3C0.600
; #@! TA.AperFunction,Plated,PTH,ComponentDrill
T4C0.750
; #@! TA.AperFunction,Plated,PTH,ComponentDrill
T5C0.850
; #@! TA.AperFunction,Plated,PTH,ComponentDrill
T6C1.000
; #@! TA.AperFunction,Plated,PTH,ComponentDrill
T7C1.100
; #@! TA.AperFunction,Plated,PTH,ComponentDrill
T8C2.300
; #@! TA.AperFunction,Plated,PTH,ComponentDrill
T9C3.200
%
G90
G05
T1
X93.41Y-47.12
X100.83Y-43.89
X101.775Y-74.075
X103.535Y-44.525
X111.405Y-54.375
X111.615Y-59.095
X115.54Y-60.225
X118.995Y-61.865
X119.005Y-58.065
X119.863Y-53.467
X123.45Y-55.825
X123.956Y-53.475
X126.275Y-55.795
X128.06Y-54.8
X128.48Y-43.18
X128.88Y-56.4
X128.88Y-60.33
T2
X92.0Y-52.8
X92.0Y-64.405
X92.0Y-66.285
X103.345Y-57.835
X104.995Y-45.995
X105.165Y-68.705
X105.175Y-66.175
X105.185Y-71.275
X105.915Y-75.415
X108.255Y-63.635
X109.625Y-61.005
X109.675Y-65.965
X110.425Y-57.605
X111.24Y-72.139
X111.265Y-44.335
X111.265Y-45.575
X112.725Y-74.275
X112.965Y-67.495
X113.225Y-43.975
X113.392Y-63.246
X113.84Y-72.139
X114.935Y-48.145
X115.225Y-66.595
X115.44Y-44.77
X115.555Y-68.175
X117.35Y-62.23
X118.01Y-67.55
X118.155Y-73.705
X118.695Y-42.215
X119.13Y-46.0
X119.76Y-69.28
X119.805Y-71.635
X119.915Y-63.775
X122.785Y-39.075
X123.265Y-63.645
X123.265Y-71.265
X123.94Y-49.58
X124.09Y-43.32
X124.2Y-45.94
X125.33Y-58.8
X126.2Y-67.36
X126.355Y-39.075
X126.45Y-54.59
X126.71Y-73.48
X126.72Y-46.81
X126.72Y-49.49
X127.17Y-58.11
X127.17Y-61.84
T4
X117.225Y-45.595
X117.225Y-48.895
T5
X111.795Y-42.801
X116.795Y-42.801
T6
X94.07Y-49.772
X94.07Y-52.542
X94.07Y-55.312
X94.07Y-58.082
X94.07Y-60.852
X94.07Y-63.622
X94.07Y-66.392
X96.91Y-48.387
X96.91Y-51.157
X96.91Y-53.927
X96.91Y-56.697
X96.91Y-59.467
X96.91Y-62.237
X96.91Y-65.007
X96.91Y-67.777
X101.855Y-68.835
X101.855Y-71.375
X101.86Y-47.244
X101.86Y-49.784
X101.86Y-52.324
X101.86Y-59.319
X101.86Y-61.859
X102.045Y-39.545
X104.585Y-39.545
X106.686Y-44.577
X106.686Y-47.117
X106.686Y-49.657
X106.686Y-52.197
X106.686Y-54.737
X106.686Y-57.277
X106.686Y-59.817
X106.686Y-62.357
X106.686Y-64.897
X106.686Y-67.437
X106.686Y-69.977
X106.686Y-72.517
X107.125Y-39.545
X121.926Y-44.577
X121.926Y-47.117
X121.926Y-49.657
X121.926Y-52.197
X121.926Y-54.737
X121.926Y-57.277
X121.926Y-59.817
X121.926Y-62.357
X121.926Y-64.897
X121.926Y-67.437
X121.926Y-69.977
X121.926Y-72.517
T7
X126.66Y-44.76
X126.66Y-51.56
X126.66Y-64.68
X126.66Y-71.48
X129.16Y-44.76
X129.16Y-46.86
X129.16Y-49.46
X129.16Y-51.56
X129.16Y-64.68
X129.16Y-66.78
X129.16Y-69.38
X129.16Y-71.48
T8
X132.16Y-41.41
X132.16Y-54.91
X132.16Y-61.33
X132.16Y-74.83
X132.96Y-48.16
X132.96Y-68.08
T9
X95.49Y-41.432
X95.49Y-74.732
T3
X110.795Y-40.451G85X110.795Y-39.751
G05
X117.795Y-39.751G85X117.795Y-40.451
G05
T0
M30
