G04 #@! TF.GenerationSoftware,KiCad,Pcbnew,7.0.5*
G04 #@! TF.CreationDate,2023-12-31T10:49:34+01:00*
G04 #@! TF.ProjectId,usb-to-ps2-gameport-hat-arduino-pro-mini,7573622d-746f-42d7-9073-322d67616d65,1.3*
G04 #@! TF.SameCoordinates,Original*
G04 #@! TF.FileFunction,Soldermask,Top*
G04 #@! TF.FilePolarity,Negative*
%FSLAX46Y46*%
G04 Gerber Fmt 4.6, Leading zero omitted, Abs format (unit mm)*
G04 Created by KiCad (PCBNEW 7.0.5) date 2023-12-31 10:49:34*
%MOMM*%
%LPD*%
G01*
G04 APERTURE LIST*
G04 Aperture macros list*
%AMRoundRect*
0 Rectangle with rounded corners*
0 $1 Rounding radius*
0 $2 $3 $4 $5 $6 $7 $8 $9 X,Y pos of 4 corners*
0 Add a 4 corners polygon primitive as box body*
4,1,4,$2,$3,$4,$5,$6,$7,$8,$9,$2,$3,0*
0 Add four circle primitives for the rounded corners*
1,1,$1+$1,$2,$3*
1,1,$1+$1,$4,$5*
1,1,$1+$1,$6,$7*
1,1,$1+$1,$8,$9*
0 Add four rect primitives between the rounded corners*
20,1,$1+$1,$2,$3,$4,$5,0*
20,1,$1+$1,$4,$5,$6,$7,0*
20,1,$1+$1,$6,$7,$8,$9,0*
20,1,$1+$1,$8,$9,$2,$3,0*%
%AMFreePoly0*
4,1,19,0.500000,-0.750000,0.000000,-0.750000,0.000000,-0.744911,-0.071157,-0.744911,-0.207708,-0.704816,-0.327430,-0.627875,-0.420627,-0.520320,-0.479746,-0.390866,-0.500000,-0.250000,-0.500000,0.250000,-0.479746,0.390866,-0.420627,0.520320,-0.327430,0.627875,-0.207708,0.704816,-0.071157,0.744911,0.000000,0.744911,0.000000,0.750000,0.500000,0.750000,0.500000,-0.750000,0.500000,-0.750000,
$1*%
%AMFreePoly1*
4,1,19,0.000000,0.744911,0.071157,0.744911,0.207708,0.704816,0.327430,0.627875,0.420627,0.520320,0.479746,0.390866,0.500000,0.250000,0.500000,-0.250000,0.479746,-0.390866,0.420627,-0.520320,0.327430,-0.627875,0.207708,-0.704816,0.071157,-0.744911,0.000000,-0.744911,0.000000,-0.750000,-0.500000,-0.750000,-0.500000,0.750000,0.000000,0.750000,0.000000,0.744911,0.000000,0.744911,
$1*%
G04 Aperture macros list end*
%ADD10RoundRect,0.225000X0.225000X0.250000X-0.225000X0.250000X-0.225000X-0.250000X0.225000X-0.250000X0*%
%ADD11C,1.700000*%
%ADD12O,1.700000X1.700000*%
%ADD13R,1.700000X1.700000*%
%ADD14R,0.450000X1.475000*%
%ADD15RoundRect,0.225000X-0.250000X0.225000X-0.250000X-0.225000X0.250000X-0.225000X0.250000X0.225000X0*%
%ADD16RoundRect,0.250000X-0.550000X1.050000X-0.550000X-1.050000X0.550000X-1.050000X0.550000X1.050000X0*%
%ADD17RoundRect,0.200000X0.200000X0.275000X-0.200000X0.275000X-0.200000X-0.275000X0.200000X-0.275000X0*%
%ADD18RoundRect,0.100000X0.100000X-0.637500X0.100000X0.637500X-0.100000X0.637500X-0.100000X-0.637500X0*%
%ADD19C,4.000000*%
%ADD20R,1.600000X1.600000*%
%ADD21C,1.600000*%
%ADD22RoundRect,0.225000X-0.225000X-0.250000X0.225000X-0.250000X0.225000X0.250000X-0.225000X0.250000X0*%
%ADD23R,0.400000X1.350000*%
%ADD24O,1.200000X1.900000*%
%ADD25R,1.200000X1.900000*%
%ADD26C,1.450000*%
%ADD27R,1.500000X1.900000*%
%ADD28RoundRect,0.218750X0.256250X-0.218750X0.256250X0.218750X-0.256250X0.218750X-0.256250X-0.218750X0*%
%ADD29FreePoly0,0.000000*%
%ADD30FreePoly1,0.000000*%
%ADD31C,1.650000*%
%ADD32C,3.450000*%
%ADD33C,0.900000*%
%ADD34RoundRect,0.200000X0.275000X-0.200000X0.275000X0.200000X-0.275000X0.200000X-0.275000X-0.200000X0*%
G04 APERTURE END LIST*
D10*
X121920354Y-42105224D03*
X120370354Y-42105224D03*
D11*
X121926354Y-44577224D03*
D12*
X121926354Y-47117224D03*
X121926354Y-49657224D03*
X121926354Y-52197224D03*
X121926354Y-54737224D03*
X121926354Y-57277224D03*
X121926354Y-59817224D03*
X121926354Y-62357224D03*
X121926354Y-64897224D03*
X121926354Y-67437224D03*
X121926354Y-69977224D03*
X121926354Y-72517224D03*
D10*
X115390354Y-73214724D03*
X113840354Y-73214724D03*
X115880354Y-62357224D03*
X114330354Y-62357224D03*
D13*
X101860354Y-52324224D03*
D12*
X101860354Y-49784224D03*
X101860354Y-47244224D03*
D13*
X106686354Y-44577224D03*
D12*
X106686354Y-47117224D03*
X106686354Y-49657224D03*
X106686354Y-52197224D03*
X106686354Y-54737224D03*
X106686354Y-57277224D03*
X106686354Y-59817224D03*
X106686354Y-62357224D03*
X106686354Y-64897224D03*
X106686354Y-67437224D03*
X106686354Y-69977224D03*
X106686354Y-72517224D03*
D14*
X110925354Y-70755224D03*
X111575354Y-70755224D03*
X112225354Y-70755224D03*
X112875354Y-70755224D03*
X113525354Y-70755224D03*
X114175354Y-70755224D03*
X114825354Y-70755224D03*
X115475354Y-70755224D03*
X116125354Y-70755224D03*
X116775354Y-70755224D03*
X117425354Y-70755224D03*
X118075354Y-70755224D03*
X118075354Y-64879224D03*
X117425354Y-64879224D03*
X116775354Y-64879224D03*
X116125354Y-64879224D03*
X115475354Y-64879224D03*
X114825354Y-64879224D03*
X114175354Y-64879224D03*
X113525354Y-64879224D03*
X112875354Y-64879224D03*
X112225354Y-64879224D03*
X111575354Y-64879224D03*
X110925354Y-64879224D03*
D15*
X112464854Y-44818224D03*
X112464854Y-46368224D03*
D16*
X117227354Y-45444224D03*
X117227354Y-49044224D03*
D17*
X103340354Y-65825224D03*
X101690354Y-65825224D03*
D18*
X112016354Y-57599724D03*
X112666354Y-57599724D03*
X113316354Y-57599724D03*
X113966354Y-57599724D03*
X114616354Y-57599724D03*
X115266354Y-57599724D03*
X115916354Y-57599724D03*
X116566354Y-57599724D03*
X117216354Y-57599724D03*
X117866354Y-57599724D03*
X117866354Y-51874724D03*
X117216354Y-51874724D03*
X116566354Y-51874724D03*
X115916354Y-51874724D03*
X115266354Y-51874724D03*
X114616354Y-51874724D03*
X113966354Y-51874724D03*
X113316354Y-51874724D03*
X112666354Y-51874724D03*
X112016354Y-51874724D03*
D17*
X103340354Y-56305224D03*
X101690354Y-56305224D03*
D19*
X95490000Y-41432224D03*
X95490000Y-74732224D03*
D20*
X96910000Y-48387224D03*
D21*
X96910000Y-51157224D03*
X96910000Y-53927224D03*
X96910000Y-56697224D03*
X96910000Y-59467224D03*
X96910000Y-62237224D03*
X96910000Y-65007224D03*
X96910000Y-67777224D03*
X94070000Y-49772224D03*
X94070000Y-52542224D03*
X94070000Y-55312224D03*
X94070000Y-58082224D03*
X94070000Y-60852224D03*
X94070000Y-63622224D03*
X94070000Y-66392224D03*
D15*
X108985354Y-48710224D03*
X108985354Y-50260224D03*
D10*
X111465354Y-75095224D03*
X109915354Y-75095224D03*
D22*
X102780354Y-75605224D03*
X104330354Y-75605224D03*
D10*
X111465354Y-76619224D03*
X109915354Y-76619224D03*
X104330354Y-74075224D03*
X102780354Y-74075224D03*
D23*
X115595354Y-42801224D03*
X114945354Y-42801224D03*
X114295354Y-42801224D03*
X113645354Y-42801224D03*
X112995354Y-42801224D03*
D24*
X117795354Y-40101224D03*
D25*
X117195354Y-40101224D03*
D26*
X116795354Y-42801224D03*
D27*
X115295354Y-40101224D03*
X113295354Y-40101224D03*
D26*
X111795354Y-42801224D03*
D25*
X111395354Y-40101224D03*
D24*
X110795354Y-40101224D03*
D28*
X113988854Y-46380724D03*
X113988854Y-44805724D03*
D29*
X119835354Y-39835224D03*
D30*
X121135354Y-39835224D03*
D13*
X102045354Y-39545224D03*
D12*
X104585354Y-39545224D03*
X107125354Y-39545224D03*
D31*
X129160000Y-66780000D03*
X129160000Y-69380000D03*
X129160000Y-64680000D03*
X129160000Y-71480000D03*
X126660000Y-64680000D03*
X126660000Y-71480000D03*
D32*
X132160000Y-61330000D03*
X132960000Y-68080000D03*
X132160000Y-74830000D03*
D33*
X117225354Y-45595224D03*
D13*
X101860354Y-61859224D03*
D12*
X101860354Y-59319224D03*
D31*
X129160000Y-46860000D03*
X129160000Y-49460000D03*
X129160000Y-44760000D03*
X129160000Y-51560000D03*
X126660000Y-44760000D03*
X126660000Y-51560000D03*
D32*
X132160000Y-41410000D03*
X132960000Y-48160000D03*
X132160000Y-54910000D03*
D34*
X110585354Y-51690224D03*
X110585354Y-50040224D03*
D13*
X101855354Y-71375224D03*
D12*
X101855354Y-68835224D03*
D33*
X117225354Y-48895224D03*
M02*
