M48
; DRILL file {KiCad 5.1.4} date Mi 04 Sep 2019 16:00:13 CEST
; FORMAT={-:-/ absolute / inch / decimal}
; #@! TF.CreationDate,2019-09-04T16:00:13+02:00
; #@! TF.GenerationSoftware,Kicad,Pcbnew,5.1.4
; #@! TF.FileFunction,Plated,1,2,PTH
FMAT,2
INCH
T1C0.0098
T2C0.0138
T3C0.0236
T4C0.0335
T5C0.0394
T6C0.0400
T7C0.0433
T8C0.0906
T9C0.1260
%
G90
G05
T1
X6.3624Y-3.744
X6.5Y-3.7825
X6.6325Y-3.86
X6.6337Y-3.7125
X6.69Y-3.53
X6.825Y-3.605
X6.8341Y-3.5335
T2
X6.11Y-4.35
X6.3125Y-3.365
X6.325Y-4.03
X6.3375Y-4.26
X6.355Y-3.695
X6.39Y-4.365
X6.4125Y-3.15
X6.4175Y-3.225
X6.42Y-3.915
X6.44Y-4.265
X6.5019Y-4.0302
X6.5225Y-3.355
X6.525Y-4.15
X6.7725Y-3.0025
T4
X6.3666Y-3.1101
X6.5634Y-3.1101
T5
X5.975Y-4.135
X5.975Y-4.235
X5.975Y-3.285
X5.975Y-3.385
X5.975Y-3.485
X5.6682Y-3.3845
X5.6682Y-3.4936
X5.6682Y-3.6026
X5.6682Y-3.7117
X5.6682Y-3.8207
X5.6682Y-3.9298
X5.6682Y-4.0389
X5.78Y-3.33
X5.78Y-3.4391
X5.78Y-3.5481
X5.78Y-3.6572
X5.78Y-3.7662
X5.78Y-3.8753
X5.78Y-3.9843
X5.78Y-4.0934
X5.9825Y-2.995
X6.0825Y-2.995
X6.1825Y-2.995
X5.975Y-3.76
X5.975Y-3.86
T6
X6.165Y-3.18
X6.165Y-3.28
X6.165Y-3.38
X6.165Y-3.48
X6.165Y-3.58
X6.165Y-3.68
X6.165Y-3.78
X6.165Y-3.88
X6.165Y-3.98
X6.165Y-4.08
X6.165Y-4.18
X6.165Y-4.28
X6.765Y-3.18
X6.765Y-3.28
X6.765Y-3.38
X6.765Y-3.48
X6.765Y-3.58
X6.765Y-3.68
X6.765Y-3.78
X6.765Y-3.88
X6.765Y-3.98
X6.765Y-4.08
X6.765Y-4.18
X6.765Y-4.28
T7
X6.9516Y-3.1948
X6.9516Y-3.4625
X7.05Y-3.1948
X7.05Y-3.2775
X7.05Y-3.3799
X7.05Y-3.4625
X6.9491Y-3.9573
X6.9491Y-4.225
X7.0475Y-3.9573
X7.0475Y-4.04
X7.0475Y-4.1424
X7.0475Y-4.225
T8
X7.1681Y-3.0629
X7.1681Y-3.5944
X7.1996Y-3.3287
X7.1656Y-3.8254
X7.1656Y-4.3569
X7.1971Y-4.0912
T9
X5.7241Y-3.0562
X5.7241Y-4.3672
T3
G00X6.3272Y-3.0176
M15
G01X6.3272Y-2.99
M16
G05
G00X6.6028Y-2.99
M15
G01X6.6028Y-3.0176
M16
G05
T0
M30
