G04 #@! TF.GenerationSoftware,KiCad,Pcbnew,7.0.5*
G04 #@! TF.CreationDate,2023-12-31T10:49:34+01:00*
G04 #@! TF.ProjectId,usb-to-ps2-gameport-hat-arduino-pro-mini,7573622d-746f-42d7-9073-322d67616d65,1.3*
G04 #@! TF.SameCoordinates,Original*
G04 #@! TF.FileFunction,Legend,Top*
G04 #@! TF.FilePolarity,Positive*
%FSLAX46Y46*%
G04 Gerber Fmt 4.6, Leading zero omitted, Abs format (unit mm)*
G04 Created by KiCad (PCBNEW 7.0.5) date 2023-12-31 10:49:34*
%MOMM*%
%LPD*%
G01*
G04 APERTURE LIST*
%ADD10C,0.150000*%
%ADD11C,0.250000*%
%ADD12C,0.160000*%
%ADD13C,0.220000*%
%ADD14C,0.254000*%
%ADD15C,0.120000*%
%ADD16C,0.200000*%
%ADD17C,0.100000*%
G04 APERTURE END LIST*
D10*
X99258004Y-52931224D02*
X99228004Y-52991224D01*
X99228004Y-52991224D02*
X99228004Y-53081224D01*
X99228004Y-53081224D02*
X99258004Y-53171224D01*
X99258004Y-53171224D02*
X99318004Y-53231224D01*
X99318004Y-53231224D02*
X99378004Y-53261224D01*
X99378004Y-53261224D02*
X99498004Y-53291224D01*
X99498004Y-53291224D02*
X99588004Y-53291224D01*
X99588004Y-53291224D02*
X99708004Y-53261224D01*
X99708004Y-53261224D02*
X99768004Y-53231224D01*
X99768004Y-53231224D02*
X99828004Y-53171224D01*
X99828004Y-53171224D02*
X99858004Y-53081224D01*
X99858004Y-53081224D02*
X99858004Y-53021224D01*
X99858004Y-53021224D02*
X99828004Y-52931224D01*
X99828004Y-52931224D02*
X99798004Y-52901224D01*
X99798004Y-52901224D02*
X99588004Y-52901224D01*
X99588004Y-52901224D02*
X99588004Y-53021224D01*
X99858004Y-52631224D02*
X99228004Y-52631224D01*
X99228004Y-52631224D02*
X99858004Y-52271224D01*
X99858004Y-52271224D02*
X99228004Y-52271224D01*
X99858004Y-51971224D02*
X99228004Y-51971224D01*
X99228004Y-51971224D02*
X99228004Y-51821224D01*
X99228004Y-51821224D02*
X99258004Y-51731224D01*
X99258004Y-51731224D02*
X99318004Y-51671224D01*
X99318004Y-51671224D02*
X99378004Y-51641224D01*
X99378004Y-51641224D02*
X99498004Y-51611224D01*
X99498004Y-51611224D02*
X99588004Y-51611224D01*
X99588004Y-51611224D02*
X99708004Y-51641224D01*
X99708004Y-51641224D02*
X99768004Y-51671224D01*
X99768004Y-51671224D02*
X99828004Y-51731224D01*
X99828004Y-51731224D02*
X99858004Y-51821224D01*
X99858004Y-51821224D02*
X99858004Y-51971224D01*
X99858004Y-50016224D02*
X99558004Y-50226224D01*
X99858004Y-50376224D02*
X99228004Y-50376224D01*
X99228004Y-50376224D02*
X99228004Y-50136224D01*
X99228004Y-50136224D02*
X99258004Y-50076224D01*
X99258004Y-50076224D02*
X99288004Y-50046224D01*
X99288004Y-50046224D02*
X99348004Y-50016224D01*
X99348004Y-50016224D02*
X99438004Y-50016224D01*
X99438004Y-50016224D02*
X99498004Y-50046224D01*
X99498004Y-50046224D02*
X99528004Y-50076224D01*
X99528004Y-50076224D02*
X99558004Y-50136224D01*
X99558004Y-50136224D02*
X99558004Y-50376224D01*
X99228004Y-49806224D02*
X99858004Y-49386224D01*
X99228004Y-49386224D02*
X99858004Y-49806224D01*
X99228004Y-47851224D02*
X99228004Y-47491224D01*
X99858004Y-47671224D02*
X99228004Y-47671224D01*
X99228004Y-47341224D02*
X99858004Y-46921224D01*
X99228004Y-46921224D02*
X99858004Y-47341224D01*
X99618004Y-59549224D02*
X99618004Y-59069224D01*
X99858004Y-59309224D02*
X99378004Y-59309224D01*
X99618004Y-68947224D02*
X99618004Y-68467224D01*
X99858004Y-68707224D02*
X99378004Y-68707224D01*
X100040354Y-41078874D02*
X99980354Y-41048874D01*
X99980354Y-41048874D02*
X99890354Y-41048874D01*
X99890354Y-41048874D02*
X99800354Y-41078874D01*
X99800354Y-41078874D02*
X99740354Y-41138874D01*
X99740354Y-41138874D02*
X99710354Y-41198874D01*
X99710354Y-41198874D02*
X99680354Y-41318874D01*
X99680354Y-41318874D02*
X99680354Y-41408874D01*
X99680354Y-41408874D02*
X99710354Y-41528874D01*
X99710354Y-41528874D02*
X99740354Y-41588874D01*
X99740354Y-41588874D02*
X99800354Y-41648874D01*
X99800354Y-41648874D02*
X99890354Y-41678874D01*
X99890354Y-41678874D02*
X99950354Y-41678874D01*
X99950354Y-41678874D02*
X100040354Y-41648874D01*
X100040354Y-41648874D02*
X100070354Y-41618874D01*
X100070354Y-41618874D02*
X100070354Y-41408874D01*
X100070354Y-41408874D02*
X99950354Y-41408874D01*
X100610354Y-41678874D02*
X100610354Y-41348874D01*
X100610354Y-41348874D02*
X100580354Y-41288874D01*
X100580354Y-41288874D02*
X100520354Y-41258874D01*
X100520354Y-41258874D02*
X100400354Y-41258874D01*
X100400354Y-41258874D02*
X100340354Y-41288874D01*
X100610354Y-41648874D02*
X100550354Y-41678874D01*
X100550354Y-41678874D02*
X100400354Y-41678874D01*
X100400354Y-41678874D02*
X100340354Y-41648874D01*
X100340354Y-41648874D02*
X100310354Y-41588874D01*
X100310354Y-41588874D02*
X100310354Y-41528874D01*
X100310354Y-41528874D02*
X100340354Y-41468874D01*
X100340354Y-41468874D02*
X100400354Y-41438874D01*
X100400354Y-41438874D02*
X100550354Y-41438874D01*
X100550354Y-41438874D02*
X100610354Y-41408874D01*
X100910354Y-41678874D02*
X100910354Y-41258874D01*
X100910354Y-41318874D02*
X100940354Y-41288874D01*
X100940354Y-41288874D02*
X101000354Y-41258874D01*
X101000354Y-41258874D02*
X101090354Y-41258874D01*
X101090354Y-41258874D02*
X101150354Y-41288874D01*
X101150354Y-41288874D02*
X101180354Y-41348874D01*
X101180354Y-41348874D02*
X101180354Y-41678874D01*
X101180354Y-41348874D02*
X101210354Y-41288874D01*
X101210354Y-41288874D02*
X101270354Y-41258874D01*
X101270354Y-41258874D02*
X101360354Y-41258874D01*
X101360354Y-41258874D02*
X101420354Y-41288874D01*
X101420354Y-41288874D02*
X101450354Y-41348874D01*
X101450354Y-41348874D02*
X101450354Y-41678874D01*
X101990354Y-41648874D02*
X101930354Y-41678874D01*
X101930354Y-41678874D02*
X101810354Y-41678874D01*
X101810354Y-41678874D02*
X101750354Y-41648874D01*
X101750354Y-41648874D02*
X101720354Y-41588874D01*
X101720354Y-41588874D02*
X101720354Y-41348874D01*
X101720354Y-41348874D02*
X101750354Y-41288874D01*
X101750354Y-41288874D02*
X101810354Y-41258874D01*
X101810354Y-41258874D02*
X101930354Y-41258874D01*
X101930354Y-41258874D02*
X101990354Y-41288874D01*
X101990354Y-41288874D02*
X102020354Y-41348874D01*
X102020354Y-41348874D02*
X102020354Y-41408874D01*
X102020354Y-41408874D02*
X101720354Y-41468874D01*
X102290354Y-41258874D02*
X102290354Y-41888874D01*
X102290354Y-41288874D02*
X102350354Y-41258874D01*
X102350354Y-41258874D02*
X102470354Y-41258874D01*
X102470354Y-41258874D02*
X102530354Y-41288874D01*
X102530354Y-41288874D02*
X102560354Y-41318874D01*
X102560354Y-41318874D02*
X102590354Y-41378874D01*
X102590354Y-41378874D02*
X102590354Y-41558874D01*
X102590354Y-41558874D02*
X102560354Y-41618874D01*
X102560354Y-41618874D02*
X102530354Y-41648874D01*
X102530354Y-41648874D02*
X102470354Y-41678874D01*
X102470354Y-41678874D02*
X102350354Y-41678874D01*
X102350354Y-41678874D02*
X102290354Y-41648874D01*
X102950354Y-41678874D02*
X102890354Y-41648874D01*
X102890354Y-41648874D02*
X102860354Y-41618874D01*
X102860354Y-41618874D02*
X102830354Y-41558874D01*
X102830354Y-41558874D02*
X102830354Y-41378874D01*
X102830354Y-41378874D02*
X102860354Y-41318874D01*
X102860354Y-41318874D02*
X102890354Y-41288874D01*
X102890354Y-41288874D02*
X102950354Y-41258874D01*
X102950354Y-41258874D02*
X103040354Y-41258874D01*
X103040354Y-41258874D02*
X103100354Y-41288874D01*
X103100354Y-41288874D02*
X103130354Y-41318874D01*
X103130354Y-41318874D02*
X103160354Y-41378874D01*
X103160354Y-41378874D02*
X103160354Y-41558874D01*
X103160354Y-41558874D02*
X103130354Y-41618874D01*
X103130354Y-41618874D02*
X103100354Y-41648874D01*
X103100354Y-41648874D02*
X103040354Y-41678874D01*
X103040354Y-41678874D02*
X102950354Y-41678874D01*
X103430354Y-41678874D02*
X103430354Y-41258874D01*
X103430354Y-41378874D02*
X103460354Y-41318874D01*
X103460354Y-41318874D02*
X103490354Y-41288874D01*
X103490354Y-41288874D02*
X103550354Y-41258874D01*
X103550354Y-41258874D02*
X103610354Y-41258874D01*
X103730354Y-41258874D02*
X103970354Y-41258874D01*
X103820354Y-41048874D02*
X103820354Y-41588874D01*
X103820354Y-41588874D02*
X103850354Y-41648874D01*
X103850354Y-41648874D02*
X103910354Y-41678874D01*
X103910354Y-41678874D02*
X103970354Y-41678874D01*
X106320354Y-41048874D02*
X106320354Y-41558874D01*
X106320354Y-41558874D02*
X106350354Y-41618874D01*
X106350354Y-41618874D02*
X106380354Y-41648874D01*
X106380354Y-41648874D02*
X106440354Y-41678874D01*
X106440354Y-41678874D02*
X106560354Y-41678874D01*
X106560354Y-41678874D02*
X106620354Y-41648874D01*
X106620354Y-41648874D02*
X106650354Y-41618874D01*
X106650354Y-41618874D02*
X106680354Y-41558874D01*
X106680354Y-41558874D02*
X106680354Y-41048874D01*
X106950354Y-41648874D02*
X107040354Y-41678874D01*
X107040354Y-41678874D02*
X107190354Y-41678874D01*
X107190354Y-41678874D02*
X107250354Y-41648874D01*
X107250354Y-41648874D02*
X107280354Y-41618874D01*
X107280354Y-41618874D02*
X107310354Y-41558874D01*
X107310354Y-41558874D02*
X107310354Y-41498874D01*
X107310354Y-41498874D02*
X107280354Y-41438874D01*
X107280354Y-41438874D02*
X107250354Y-41408874D01*
X107250354Y-41408874D02*
X107190354Y-41378874D01*
X107190354Y-41378874D02*
X107070354Y-41348874D01*
X107070354Y-41348874D02*
X107010354Y-41318874D01*
X107010354Y-41318874D02*
X106980354Y-41288874D01*
X106980354Y-41288874D02*
X106950354Y-41228874D01*
X106950354Y-41228874D02*
X106950354Y-41168874D01*
X106950354Y-41168874D02*
X106980354Y-41108874D01*
X106980354Y-41108874D02*
X107010354Y-41078874D01*
X107010354Y-41078874D02*
X107070354Y-41048874D01*
X107070354Y-41048874D02*
X107220354Y-41048874D01*
X107220354Y-41048874D02*
X107310354Y-41078874D01*
X107790354Y-41348874D02*
X107880354Y-41378874D01*
X107880354Y-41378874D02*
X107910354Y-41408874D01*
X107910354Y-41408874D02*
X107940354Y-41468874D01*
X107940354Y-41468874D02*
X107940354Y-41558874D01*
X107940354Y-41558874D02*
X107910354Y-41618874D01*
X107910354Y-41618874D02*
X107880354Y-41648874D01*
X107880354Y-41648874D02*
X107820354Y-41678874D01*
X107820354Y-41678874D02*
X107580354Y-41678874D01*
X107580354Y-41678874D02*
X107580354Y-41048874D01*
X107580354Y-41048874D02*
X107790354Y-41048874D01*
X107790354Y-41048874D02*
X107850354Y-41078874D01*
X107850354Y-41078874D02*
X107880354Y-41108874D01*
X107880354Y-41108874D02*
X107910354Y-41168874D01*
X107910354Y-41168874D02*
X107910354Y-41228874D01*
X107910354Y-41228874D02*
X107880354Y-41288874D01*
X107880354Y-41288874D02*
X107850354Y-41318874D01*
X107850354Y-41318874D02*
X107790354Y-41348874D01*
X107790354Y-41348874D02*
X107580354Y-41348874D01*
X109002295Y-56838570D02*
X108202295Y-56838570D01*
X108926104Y-56000475D02*
X108964200Y-56038571D01*
X108964200Y-56038571D02*
X109002295Y-56152856D01*
X109002295Y-56152856D02*
X109002295Y-56229047D01*
X109002295Y-56229047D02*
X108964200Y-56343333D01*
X108964200Y-56343333D02*
X108888009Y-56419523D01*
X108888009Y-56419523D02*
X108811819Y-56457618D01*
X108811819Y-56457618D02*
X108659438Y-56495714D01*
X108659438Y-56495714D02*
X108545152Y-56495714D01*
X108545152Y-56495714D02*
X108392771Y-56457618D01*
X108392771Y-56457618D02*
X108316580Y-56419523D01*
X108316580Y-56419523D02*
X108240390Y-56343333D01*
X108240390Y-56343333D02*
X108202295Y-56229047D01*
X108202295Y-56229047D02*
X108202295Y-56152856D01*
X108202295Y-56152856D02*
X108240390Y-56038571D01*
X108240390Y-56038571D02*
X108278485Y-56000475D01*
X109002295Y-54667142D02*
X109002295Y-55048094D01*
X109002295Y-55048094D02*
X108202295Y-55048094D01*
X108926104Y-53943332D02*
X108964200Y-53981428D01*
X108964200Y-53981428D02*
X109002295Y-54095713D01*
X109002295Y-54095713D02*
X109002295Y-54171904D01*
X109002295Y-54171904D02*
X108964200Y-54286190D01*
X108964200Y-54286190D02*
X108888009Y-54362380D01*
X108888009Y-54362380D02*
X108811819Y-54400475D01*
X108811819Y-54400475D02*
X108659438Y-54438571D01*
X108659438Y-54438571D02*
X108545152Y-54438571D01*
X108545152Y-54438571D02*
X108392771Y-54400475D01*
X108392771Y-54400475D02*
X108316580Y-54362380D01*
X108316580Y-54362380D02*
X108240390Y-54286190D01*
X108240390Y-54286190D02*
X108202295Y-54171904D01*
X108202295Y-54171904D02*
X108202295Y-54095713D01*
X108202295Y-54095713D02*
X108240390Y-53981428D01*
X108240390Y-53981428D02*
X108278485Y-53943332D01*
X128342857Y-39090295D02*
X128342857Y-38290295D01*
X128342857Y-38290295D02*
X128609523Y-38861723D01*
X128609523Y-38861723D02*
X128876190Y-38290295D01*
X128876190Y-38290295D02*
X128876190Y-39090295D01*
X129371428Y-39090295D02*
X129295238Y-39052200D01*
X129295238Y-39052200D02*
X129257143Y-39014104D01*
X129257143Y-39014104D02*
X129219047Y-38937914D01*
X129219047Y-38937914D02*
X129219047Y-38709342D01*
X129219047Y-38709342D02*
X129257143Y-38633152D01*
X129257143Y-38633152D02*
X129295238Y-38595057D01*
X129295238Y-38595057D02*
X129371428Y-38556961D01*
X129371428Y-38556961D02*
X129485714Y-38556961D01*
X129485714Y-38556961D02*
X129561905Y-38595057D01*
X129561905Y-38595057D02*
X129600000Y-38633152D01*
X129600000Y-38633152D02*
X129638095Y-38709342D01*
X129638095Y-38709342D02*
X129638095Y-38937914D01*
X129638095Y-38937914D02*
X129600000Y-39014104D01*
X129600000Y-39014104D02*
X129561905Y-39052200D01*
X129561905Y-39052200D02*
X129485714Y-39090295D01*
X129485714Y-39090295D02*
X129371428Y-39090295D01*
X130323810Y-38556961D02*
X130323810Y-39090295D01*
X129980953Y-38556961D02*
X129980953Y-38976009D01*
X129980953Y-38976009D02*
X130019048Y-39052200D01*
X130019048Y-39052200D02*
X130095238Y-39090295D01*
X130095238Y-39090295D02*
X130209524Y-39090295D01*
X130209524Y-39090295D02*
X130285715Y-39052200D01*
X130285715Y-39052200D02*
X130323810Y-39014104D01*
X130666667Y-39052200D02*
X130742858Y-39090295D01*
X130742858Y-39090295D02*
X130895239Y-39090295D01*
X130895239Y-39090295D02*
X130971429Y-39052200D01*
X130971429Y-39052200D02*
X131009525Y-38976009D01*
X131009525Y-38976009D02*
X131009525Y-38937914D01*
X131009525Y-38937914D02*
X130971429Y-38861723D01*
X130971429Y-38861723D02*
X130895239Y-38823628D01*
X130895239Y-38823628D02*
X130780953Y-38823628D01*
X130780953Y-38823628D02*
X130704763Y-38785533D01*
X130704763Y-38785533D02*
X130666667Y-38709342D01*
X130666667Y-38709342D02*
X130666667Y-38671247D01*
X130666667Y-38671247D02*
X130704763Y-38595057D01*
X130704763Y-38595057D02*
X130780953Y-38556961D01*
X130780953Y-38556961D02*
X130895239Y-38556961D01*
X130895239Y-38556961D02*
X130971429Y-38595057D01*
X131657144Y-39052200D02*
X131580953Y-39090295D01*
X131580953Y-39090295D02*
X131428572Y-39090295D01*
X131428572Y-39090295D02*
X131352382Y-39052200D01*
X131352382Y-39052200D02*
X131314286Y-38976009D01*
X131314286Y-38976009D02*
X131314286Y-38671247D01*
X131314286Y-38671247D02*
X131352382Y-38595057D01*
X131352382Y-38595057D02*
X131428572Y-38556961D01*
X131428572Y-38556961D02*
X131580953Y-38556961D01*
X131580953Y-38556961D02*
X131657144Y-38595057D01*
X131657144Y-38595057D02*
X131695239Y-38671247D01*
X131695239Y-38671247D02*
X131695239Y-38747438D01*
X131695239Y-38747438D02*
X131314286Y-38823628D01*
X109002295Y-69818570D02*
X108202295Y-69818570D01*
X108926104Y-68980475D02*
X108964200Y-69018571D01*
X108964200Y-69018571D02*
X109002295Y-69132856D01*
X109002295Y-69132856D02*
X109002295Y-69209047D01*
X109002295Y-69209047D02*
X108964200Y-69323333D01*
X108964200Y-69323333D02*
X108888009Y-69399523D01*
X108888009Y-69399523D02*
X108811819Y-69437618D01*
X108811819Y-69437618D02*
X108659438Y-69475714D01*
X108659438Y-69475714D02*
X108545152Y-69475714D01*
X108545152Y-69475714D02*
X108392771Y-69437618D01*
X108392771Y-69437618D02*
X108316580Y-69399523D01*
X108316580Y-69399523D02*
X108240390Y-69323333D01*
X108240390Y-69323333D02*
X108202295Y-69209047D01*
X108202295Y-69209047D02*
X108202295Y-69132856D01*
X108202295Y-69132856D02*
X108240390Y-69018571D01*
X108240390Y-69018571D02*
X108278485Y-68980475D01*
X109002295Y-68028094D02*
X108202295Y-68028094D01*
X108202295Y-68028094D02*
X108202295Y-67723332D01*
X108202295Y-67723332D02*
X108240390Y-67647142D01*
X108240390Y-67647142D02*
X108278485Y-67609047D01*
X108278485Y-67609047D02*
X108354676Y-67570951D01*
X108354676Y-67570951D02*
X108468961Y-67570951D01*
X108468961Y-67570951D02*
X108545152Y-67609047D01*
X108545152Y-67609047D02*
X108583247Y-67647142D01*
X108583247Y-67647142D02*
X108621342Y-67723332D01*
X108621342Y-67723332D02*
X108621342Y-68028094D01*
X108202295Y-67075713D02*
X108202295Y-66923332D01*
X108202295Y-66923332D02*
X108240390Y-66847142D01*
X108240390Y-66847142D02*
X108316580Y-66770951D01*
X108316580Y-66770951D02*
X108468961Y-66732856D01*
X108468961Y-66732856D02*
X108735628Y-66732856D01*
X108735628Y-66732856D02*
X108888009Y-66770951D01*
X108888009Y-66770951D02*
X108964200Y-66847142D01*
X108964200Y-66847142D02*
X109002295Y-66923332D01*
X109002295Y-66923332D02*
X109002295Y-67075713D01*
X109002295Y-67075713D02*
X108964200Y-67151904D01*
X108964200Y-67151904D02*
X108888009Y-67228094D01*
X108888009Y-67228094D02*
X108735628Y-67266190D01*
X108735628Y-67266190D02*
X108468961Y-67266190D01*
X108468961Y-67266190D02*
X108316580Y-67228094D01*
X108316580Y-67228094D02*
X108240390Y-67151904D01*
X108240390Y-67151904D02*
X108202295Y-67075713D01*
X108202295Y-66504285D02*
X108202295Y-66047142D01*
X109002295Y-66275714D02*
X108202295Y-66275714D01*
X99258004Y-71875224D02*
X99228004Y-71935224D01*
X99228004Y-71935224D02*
X99228004Y-72025224D01*
X99228004Y-72025224D02*
X99258004Y-72115224D01*
X99258004Y-72115224D02*
X99318004Y-72175224D01*
X99318004Y-72175224D02*
X99378004Y-72205224D01*
X99378004Y-72205224D02*
X99498004Y-72235224D01*
X99498004Y-72235224D02*
X99588004Y-72235224D01*
X99588004Y-72235224D02*
X99708004Y-72205224D01*
X99708004Y-72205224D02*
X99768004Y-72175224D01*
X99768004Y-72175224D02*
X99828004Y-72115224D01*
X99828004Y-72115224D02*
X99858004Y-72025224D01*
X99858004Y-72025224D02*
X99858004Y-71965224D01*
X99858004Y-71965224D02*
X99828004Y-71875224D01*
X99828004Y-71875224D02*
X99798004Y-71845224D01*
X99798004Y-71845224D02*
X99588004Y-71845224D01*
X99588004Y-71845224D02*
X99588004Y-71965224D01*
X99858004Y-71575224D02*
X99228004Y-71575224D01*
X99228004Y-71575224D02*
X99858004Y-71215224D01*
X99858004Y-71215224D02*
X99228004Y-71215224D01*
X99858004Y-70915224D02*
X99228004Y-70915224D01*
X99228004Y-70915224D02*
X99228004Y-70765224D01*
X99228004Y-70765224D02*
X99258004Y-70675224D01*
X99258004Y-70675224D02*
X99318004Y-70615224D01*
X99318004Y-70615224D02*
X99378004Y-70585224D01*
X99378004Y-70585224D02*
X99498004Y-70555224D01*
X99498004Y-70555224D02*
X99588004Y-70555224D01*
X99588004Y-70555224D02*
X99708004Y-70585224D01*
X99708004Y-70585224D02*
X99768004Y-70615224D01*
X99768004Y-70615224D02*
X99828004Y-70675224D01*
X99828004Y-70675224D02*
X99858004Y-70765224D01*
X99858004Y-70765224D02*
X99858004Y-70915224D01*
X124571427Y-77734295D02*
X124571427Y-76934295D01*
X125028570Y-77734295D02*
X124685712Y-77277152D01*
X125028570Y-76934295D02*
X124571427Y-77391438D01*
X125676189Y-77696200D02*
X125599998Y-77734295D01*
X125599998Y-77734295D02*
X125447617Y-77734295D01*
X125447617Y-77734295D02*
X125371427Y-77696200D01*
X125371427Y-77696200D02*
X125333331Y-77620009D01*
X125333331Y-77620009D02*
X125333331Y-77315247D01*
X125333331Y-77315247D02*
X125371427Y-77239057D01*
X125371427Y-77239057D02*
X125447617Y-77200961D01*
X125447617Y-77200961D02*
X125599998Y-77200961D01*
X125599998Y-77200961D02*
X125676189Y-77239057D01*
X125676189Y-77239057D02*
X125714284Y-77315247D01*
X125714284Y-77315247D02*
X125714284Y-77391438D01*
X125714284Y-77391438D02*
X125333331Y-77467628D01*
X125980950Y-77200961D02*
X126171426Y-77734295D01*
X126361903Y-77200961D02*
X126171426Y-77734295D01*
X126171426Y-77734295D02*
X126095236Y-77924771D01*
X126095236Y-77924771D02*
X126057141Y-77962866D01*
X126057141Y-77962866D02*
X125980950Y-78000961D01*
X126666665Y-77734295D02*
X126666665Y-76934295D01*
X126666665Y-77239057D02*
X126742855Y-77200961D01*
X126742855Y-77200961D02*
X126895236Y-77200961D01*
X126895236Y-77200961D02*
X126971427Y-77239057D01*
X126971427Y-77239057D02*
X127009522Y-77277152D01*
X127009522Y-77277152D02*
X127047617Y-77353342D01*
X127047617Y-77353342D02*
X127047617Y-77581914D01*
X127047617Y-77581914D02*
X127009522Y-77658104D01*
X127009522Y-77658104D02*
X126971427Y-77696200D01*
X126971427Y-77696200D02*
X126895236Y-77734295D01*
X126895236Y-77734295D02*
X126742855Y-77734295D01*
X126742855Y-77734295D02*
X126666665Y-77696200D01*
X127504760Y-77734295D02*
X127428570Y-77696200D01*
X127428570Y-77696200D02*
X127390475Y-77658104D01*
X127390475Y-77658104D02*
X127352379Y-77581914D01*
X127352379Y-77581914D02*
X127352379Y-77353342D01*
X127352379Y-77353342D02*
X127390475Y-77277152D01*
X127390475Y-77277152D02*
X127428570Y-77239057D01*
X127428570Y-77239057D02*
X127504760Y-77200961D01*
X127504760Y-77200961D02*
X127619046Y-77200961D01*
X127619046Y-77200961D02*
X127695237Y-77239057D01*
X127695237Y-77239057D02*
X127733332Y-77277152D01*
X127733332Y-77277152D02*
X127771427Y-77353342D01*
X127771427Y-77353342D02*
X127771427Y-77581914D01*
X127771427Y-77581914D02*
X127733332Y-77658104D01*
X127733332Y-77658104D02*
X127695237Y-77696200D01*
X127695237Y-77696200D02*
X127619046Y-77734295D01*
X127619046Y-77734295D02*
X127504760Y-77734295D01*
X128457142Y-77734295D02*
X128457142Y-77315247D01*
X128457142Y-77315247D02*
X128419047Y-77239057D01*
X128419047Y-77239057D02*
X128342856Y-77200961D01*
X128342856Y-77200961D02*
X128190475Y-77200961D01*
X128190475Y-77200961D02*
X128114285Y-77239057D01*
X128457142Y-77696200D02*
X128380951Y-77734295D01*
X128380951Y-77734295D02*
X128190475Y-77734295D01*
X128190475Y-77734295D02*
X128114285Y-77696200D01*
X128114285Y-77696200D02*
X128076189Y-77620009D01*
X128076189Y-77620009D02*
X128076189Y-77543819D01*
X128076189Y-77543819D02*
X128114285Y-77467628D01*
X128114285Y-77467628D02*
X128190475Y-77429533D01*
X128190475Y-77429533D02*
X128380951Y-77429533D01*
X128380951Y-77429533D02*
X128457142Y-77391438D01*
X128838095Y-77734295D02*
X128838095Y-77200961D01*
X128838095Y-77353342D02*
X128876190Y-77277152D01*
X128876190Y-77277152D02*
X128914285Y-77239057D01*
X128914285Y-77239057D02*
X128990476Y-77200961D01*
X128990476Y-77200961D02*
X129066666Y-77200961D01*
X129676190Y-77734295D02*
X129676190Y-76934295D01*
X129676190Y-77696200D02*
X129599999Y-77734295D01*
X129599999Y-77734295D02*
X129447618Y-77734295D01*
X129447618Y-77734295D02*
X129371428Y-77696200D01*
X129371428Y-77696200D02*
X129333333Y-77658104D01*
X129333333Y-77658104D02*
X129295237Y-77581914D01*
X129295237Y-77581914D02*
X129295237Y-77353342D01*
X129295237Y-77353342D02*
X129333333Y-77277152D01*
X129333333Y-77277152D02*
X129371428Y-77239057D01*
X129371428Y-77239057D02*
X129447618Y-77200961D01*
X129447618Y-77200961D02*
X129599999Y-77200961D01*
X129599999Y-77200961D02*
X129676190Y-77239057D01*
X131238095Y-76896200D02*
X130552381Y-77924771D01*
X132114286Y-77734295D02*
X132114286Y-76934295D01*
X132114286Y-76934295D02*
X132380952Y-77505723D01*
X132380952Y-77505723D02*
X132647619Y-76934295D01*
X132647619Y-76934295D02*
X132647619Y-77734295D01*
X133142857Y-77734295D02*
X133066667Y-77696200D01*
X133066667Y-77696200D02*
X133028572Y-77658104D01*
X133028572Y-77658104D02*
X132990476Y-77581914D01*
X132990476Y-77581914D02*
X132990476Y-77353342D01*
X132990476Y-77353342D02*
X133028572Y-77277152D01*
X133028572Y-77277152D02*
X133066667Y-77239057D01*
X133066667Y-77239057D02*
X133142857Y-77200961D01*
X133142857Y-77200961D02*
X133257143Y-77200961D01*
X133257143Y-77200961D02*
X133333334Y-77239057D01*
X133333334Y-77239057D02*
X133371429Y-77277152D01*
X133371429Y-77277152D02*
X133409524Y-77353342D01*
X133409524Y-77353342D02*
X133409524Y-77581914D01*
X133409524Y-77581914D02*
X133371429Y-77658104D01*
X133371429Y-77658104D02*
X133333334Y-77696200D01*
X133333334Y-77696200D02*
X133257143Y-77734295D01*
X133257143Y-77734295D02*
X133142857Y-77734295D01*
X134095239Y-77200961D02*
X134095239Y-77734295D01*
X133752382Y-77200961D02*
X133752382Y-77620009D01*
X133752382Y-77620009D02*
X133790477Y-77696200D01*
X133790477Y-77696200D02*
X133866667Y-77734295D01*
X133866667Y-77734295D02*
X133980953Y-77734295D01*
X133980953Y-77734295D02*
X134057144Y-77696200D01*
X134057144Y-77696200D02*
X134095239Y-77658104D01*
X134438096Y-77696200D02*
X134514287Y-77734295D01*
X134514287Y-77734295D02*
X134666668Y-77734295D01*
X134666668Y-77734295D02*
X134742858Y-77696200D01*
X134742858Y-77696200D02*
X134780954Y-77620009D01*
X134780954Y-77620009D02*
X134780954Y-77581914D01*
X134780954Y-77581914D02*
X134742858Y-77505723D01*
X134742858Y-77505723D02*
X134666668Y-77467628D01*
X134666668Y-77467628D02*
X134552382Y-77467628D01*
X134552382Y-77467628D02*
X134476192Y-77429533D01*
X134476192Y-77429533D02*
X134438096Y-77353342D01*
X134438096Y-77353342D02*
X134438096Y-77315247D01*
X134438096Y-77315247D02*
X134476192Y-77239057D01*
X134476192Y-77239057D02*
X134552382Y-77200961D01*
X134552382Y-77200961D02*
X134666668Y-77200961D01*
X134666668Y-77200961D02*
X134742858Y-77239057D01*
X135428573Y-77696200D02*
X135352382Y-77734295D01*
X135352382Y-77734295D02*
X135200001Y-77734295D01*
X135200001Y-77734295D02*
X135123811Y-77696200D01*
X135123811Y-77696200D02*
X135085715Y-77620009D01*
X135085715Y-77620009D02*
X135085715Y-77315247D01*
X135085715Y-77315247D02*
X135123811Y-77239057D01*
X135123811Y-77239057D02*
X135200001Y-77200961D01*
X135200001Y-77200961D02*
X135352382Y-77200961D01*
X135352382Y-77200961D02*
X135428573Y-77239057D01*
X135428573Y-77239057D02*
X135466668Y-77315247D01*
X135466668Y-77315247D02*
X135466668Y-77391438D01*
X135466668Y-77391438D02*
X135085715Y-77467628D01*
X122655953Y-40173854D02*
X122594048Y-40142902D01*
X122594048Y-40142902D02*
X122501191Y-40142902D01*
X122501191Y-40142902D02*
X122408334Y-40173854D01*
X122408334Y-40173854D02*
X122346429Y-40235759D01*
X122346429Y-40235759D02*
X122315476Y-40297664D01*
X122315476Y-40297664D02*
X122284524Y-40421473D01*
X122284524Y-40421473D02*
X122284524Y-40514330D01*
X122284524Y-40514330D02*
X122315476Y-40638140D01*
X122315476Y-40638140D02*
X122346429Y-40700045D01*
X122346429Y-40700045D02*
X122408334Y-40761950D01*
X122408334Y-40761950D02*
X122501191Y-40792902D01*
X122501191Y-40792902D02*
X122563095Y-40792902D01*
X122563095Y-40792902D02*
X122655953Y-40761950D01*
X122655953Y-40761950D02*
X122686905Y-40730997D01*
X122686905Y-40730997D02*
X122686905Y-40514330D01*
X122686905Y-40514330D02*
X122563095Y-40514330D01*
X122965476Y-40792902D02*
X122965476Y-40142902D01*
X122965476Y-40142902D02*
X123336905Y-40792902D01*
X123336905Y-40792902D02*
X123336905Y-40142902D01*
X123646428Y-40792902D02*
X123646428Y-40142902D01*
X123646428Y-40142902D02*
X123801190Y-40142902D01*
X123801190Y-40142902D02*
X123894047Y-40173854D01*
X123894047Y-40173854D02*
X123955952Y-40235759D01*
X123955952Y-40235759D02*
X123986905Y-40297664D01*
X123986905Y-40297664D02*
X124017857Y-40421473D01*
X124017857Y-40421473D02*
X124017857Y-40514330D01*
X124017857Y-40514330D02*
X123986905Y-40638140D01*
X123986905Y-40638140D02*
X123955952Y-40700045D01*
X123955952Y-40700045D02*
X123894047Y-40761950D01*
X123894047Y-40761950D02*
X123801190Y-40792902D01*
X123801190Y-40792902D02*
X123646428Y-40792902D01*
X124760714Y-40761950D02*
X124853571Y-40792902D01*
X124853571Y-40792902D02*
X125008333Y-40792902D01*
X125008333Y-40792902D02*
X125070238Y-40761950D01*
X125070238Y-40761950D02*
X125101190Y-40730997D01*
X125101190Y-40730997D02*
X125132143Y-40669092D01*
X125132143Y-40669092D02*
X125132143Y-40607188D01*
X125132143Y-40607188D02*
X125101190Y-40545283D01*
X125101190Y-40545283D02*
X125070238Y-40514330D01*
X125070238Y-40514330D02*
X125008333Y-40483378D01*
X125008333Y-40483378D02*
X124884524Y-40452426D01*
X124884524Y-40452426D02*
X124822619Y-40421473D01*
X124822619Y-40421473D02*
X124791666Y-40390521D01*
X124791666Y-40390521D02*
X124760714Y-40328616D01*
X124760714Y-40328616D02*
X124760714Y-40266711D01*
X124760714Y-40266711D02*
X124791666Y-40204807D01*
X124791666Y-40204807D02*
X124822619Y-40173854D01*
X124822619Y-40173854D02*
X124884524Y-40142902D01*
X124884524Y-40142902D02*
X125039285Y-40142902D01*
X125039285Y-40142902D02*
X125132143Y-40173854D01*
X125410714Y-40792902D02*
X125410714Y-40142902D01*
X125689286Y-40792902D02*
X125689286Y-40452426D01*
X125689286Y-40452426D02*
X125658333Y-40390521D01*
X125658333Y-40390521D02*
X125596429Y-40359569D01*
X125596429Y-40359569D02*
X125503572Y-40359569D01*
X125503572Y-40359569D02*
X125441667Y-40390521D01*
X125441667Y-40390521D02*
X125410714Y-40421473D01*
X125998809Y-40792902D02*
X125998809Y-40359569D01*
X125998809Y-40142902D02*
X125967857Y-40173854D01*
X125967857Y-40173854D02*
X125998809Y-40204807D01*
X125998809Y-40204807D02*
X126029762Y-40173854D01*
X126029762Y-40173854D02*
X125998809Y-40142902D01*
X125998809Y-40142902D02*
X125998809Y-40204807D01*
X126555952Y-40761950D02*
X126494048Y-40792902D01*
X126494048Y-40792902D02*
X126370238Y-40792902D01*
X126370238Y-40792902D02*
X126308333Y-40761950D01*
X126308333Y-40761950D02*
X126277381Y-40700045D01*
X126277381Y-40700045D02*
X126277381Y-40452426D01*
X126277381Y-40452426D02*
X126308333Y-40390521D01*
X126308333Y-40390521D02*
X126370238Y-40359569D01*
X126370238Y-40359569D02*
X126494048Y-40359569D01*
X126494048Y-40359569D02*
X126555952Y-40390521D01*
X126555952Y-40390521D02*
X126586905Y-40452426D01*
X126586905Y-40452426D02*
X126586905Y-40514330D01*
X126586905Y-40514330D02*
X126277381Y-40576235D01*
X126958334Y-40792902D02*
X126896429Y-40761950D01*
X126896429Y-40761950D02*
X126865476Y-40700045D01*
X126865476Y-40700045D02*
X126865476Y-40142902D01*
X127484524Y-40792902D02*
X127484524Y-40142902D01*
X127484524Y-40761950D02*
X127422619Y-40792902D01*
X127422619Y-40792902D02*
X127298810Y-40792902D01*
X127298810Y-40792902D02*
X127236905Y-40761950D01*
X127236905Y-40761950D02*
X127205952Y-40730997D01*
X127205952Y-40730997D02*
X127175000Y-40669092D01*
X127175000Y-40669092D02*
X127175000Y-40483378D01*
X127175000Y-40483378D02*
X127205952Y-40421473D01*
X127205952Y-40421473D02*
X127236905Y-40390521D01*
X127236905Y-40390521D02*
X127298810Y-40359569D01*
X127298810Y-40359569D02*
X127422619Y-40359569D01*
X127422619Y-40359569D02*
X127484524Y-40390521D01*
X99259004Y-62325224D02*
X99229004Y-62385224D01*
X99229004Y-62385224D02*
X99229004Y-62475224D01*
X99229004Y-62475224D02*
X99259004Y-62565224D01*
X99259004Y-62565224D02*
X99319004Y-62625224D01*
X99319004Y-62625224D02*
X99379004Y-62655224D01*
X99379004Y-62655224D02*
X99499004Y-62685224D01*
X99499004Y-62685224D02*
X99589004Y-62685224D01*
X99589004Y-62685224D02*
X99709004Y-62655224D01*
X99709004Y-62655224D02*
X99769004Y-62625224D01*
X99769004Y-62625224D02*
X99829004Y-62565224D01*
X99829004Y-62565224D02*
X99859004Y-62475224D01*
X99859004Y-62475224D02*
X99859004Y-62415224D01*
X99859004Y-62415224D02*
X99829004Y-62325224D01*
X99829004Y-62325224D02*
X99799004Y-62295224D01*
X99799004Y-62295224D02*
X99589004Y-62295224D01*
X99589004Y-62295224D02*
X99589004Y-62415224D01*
X99859004Y-62025224D02*
X99229004Y-62025224D01*
X99229004Y-62025224D02*
X99859004Y-61665224D01*
X99859004Y-61665224D02*
X99229004Y-61665224D01*
X99859004Y-61365224D02*
X99229004Y-61365224D01*
X99229004Y-61365224D02*
X99229004Y-61215224D01*
X99229004Y-61215224D02*
X99259004Y-61125224D01*
X99259004Y-61125224D02*
X99319004Y-61065224D01*
X99319004Y-61065224D02*
X99379004Y-61035224D01*
X99379004Y-61035224D02*
X99499004Y-61005224D01*
X99499004Y-61005224D02*
X99589004Y-61005224D01*
X99589004Y-61005224D02*
X99709004Y-61035224D01*
X99709004Y-61035224D02*
X99769004Y-61065224D01*
X99769004Y-61065224D02*
X99829004Y-61125224D01*
X99829004Y-61125224D02*
X99859004Y-61215224D01*
X99859004Y-61215224D02*
X99859004Y-61365224D01*
X101077255Y-42680414D02*
X101077255Y-41930414D01*
X101077255Y-41930414D02*
X101362969Y-41930414D01*
X101362969Y-41930414D02*
X101434398Y-41966128D01*
X101434398Y-41966128D02*
X101470112Y-42001842D01*
X101470112Y-42001842D02*
X101505826Y-42073271D01*
X101505826Y-42073271D02*
X101505826Y-42180414D01*
X101505826Y-42180414D02*
X101470112Y-42251842D01*
X101470112Y-42251842D02*
X101434398Y-42287557D01*
X101434398Y-42287557D02*
X101362969Y-42323271D01*
X101362969Y-42323271D02*
X101077255Y-42323271D01*
X101934398Y-42680414D02*
X101862969Y-42644700D01*
X101862969Y-42644700D02*
X101827255Y-42608985D01*
X101827255Y-42608985D02*
X101791541Y-42537557D01*
X101791541Y-42537557D02*
X101791541Y-42323271D01*
X101791541Y-42323271D02*
X101827255Y-42251842D01*
X101827255Y-42251842D02*
X101862969Y-42216128D01*
X101862969Y-42216128D02*
X101934398Y-42180414D01*
X101934398Y-42180414D02*
X102041541Y-42180414D01*
X102041541Y-42180414D02*
X102112969Y-42216128D01*
X102112969Y-42216128D02*
X102148684Y-42251842D01*
X102148684Y-42251842D02*
X102184398Y-42323271D01*
X102184398Y-42323271D02*
X102184398Y-42537557D01*
X102184398Y-42537557D02*
X102148684Y-42608985D01*
X102148684Y-42608985D02*
X102112969Y-42644700D01*
X102112969Y-42644700D02*
X102041541Y-42680414D01*
X102041541Y-42680414D02*
X101934398Y-42680414D01*
X102434397Y-42180414D02*
X102577255Y-42680414D01*
X102577255Y-42680414D02*
X102720112Y-42323271D01*
X102720112Y-42323271D02*
X102862969Y-42680414D01*
X102862969Y-42680414D02*
X103005826Y-42180414D01*
X103577254Y-42644700D02*
X103505826Y-42680414D01*
X103505826Y-42680414D02*
X103362969Y-42680414D01*
X103362969Y-42680414D02*
X103291540Y-42644700D01*
X103291540Y-42644700D02*
X103255826Y-42573271D01*
X103255826Y-42573271D02*
X103255826Y-42287557D01*
X103255826Y-42287557D02*
X103291540Y-42216128D01*
X103291540Y-42216128D02*
X103362969Y-42180414D01*
X103362969Y-42180414D02*
X103505826Y-42180414D01*
X103505826Y-42180414D02*
X103577254Y-42216128D01*
X103577254Y-42216128D02*
X103612969Y-42287557D01*
X103612969Y-42287557D02*
X103612969Y-42358985D01*
X103612969Y-42358985D02*
X103255826Y-42430414D01*
X103934397Y-42680414D02*
X103934397Y-42180414D01*
X103934397Y-42323271D02*
X103970111Y-42251842D01*
X103970111Y-42251842D02*
X104005826Y-42216128D01*
X104005826Y-42216128D02*
X104077254Y-42180414D01*
X104077254Y-42180414D02*
X104148683Y-42180414D01*
X104934398Y-42644700D02*
X105041541Y-42680414D01*
X105041541Y-42680414D02*
X105220112Y-42680414D01*
X105220112Y-42680414D02*
X105291541Y-42644700D01*
X105291541Y-42644700D02*
X105327255Y-42608985D01*
X105327255Y-42608985D02*
X105362969Y-42537557D01*
X105362969Y-42537557D02*
X105362969Y-42466128D01*
X105362969Y-42466128D02*
X105327255Y-42394700D01*
X105327255Y-42394700D02*
X105291541Y-42358985D01*
X105291541Y-42358985D02*
X105220112Y-42323271D01*
X105220112Y-42323271D02*
X105077255Y-42287557D01*
X105077255Y-42287557D02*
X105005826Y-42251842D01*
X105005826Y-42251842D02*
X104970112Y-42216128D01*
X104970112Y-42216128D02*
X104934398Y-42144700D01*
X104934398Y-42144700D02*
X104934398Y-42073271D01*
X104934398Y-42073271D02*
X104970112Y-42001842D01*
X104970112Y-42001842D02*
X105005826Y-41966128D01*
X105005826Y-41966128D02*
X105077255Y-41930414D01*
X105077255Y-41930414D02*
X105255826Y-41930414D01*
X105255826Y-41930414D02*
X105362969Y-41966128D01*
X105970112Y-42644700D02*
X105898684Y-42680414D01*
X105898684Y-42680414D02*
X105755827Y-42680414D01*
X105755827Y-42680414D02*
X105684398Y-42644700D01*
X105684398Y-42644700D02*
X105648684Y-42573271D01*
X105648684Y-42573271D02*
X105648684Y-42287557D01*
X105648684Y-42287557D02*
X105684398Y-42216128D01*
X105684398Y-42216128D02*
X105755827Y-42180414D01*
X105755827Y-42180414D02*
X105898684Y-42180414D01*
X105898684Y-42180414D02*
X105970112Y-42216128D01*
X105970112Y-42216128D02*
X106005827Y-42287557D01*
X106005827Y-42287557D02*
X106005827Y-42358985D01*
X106005827Y-42358985D02*
X105648684Y-42430414D01*
X106434398Y-42680414D02*
X106362969Y-42644700D01*
X106362969Y-42644700D02*
X106327255Y-42573271D01*
X106327255Y-42573271D02*
X106327255Y-41930414D01*
X107005826Y-42644700D02*
X106934398Y-42680414D01*
X106934398Y-42680414D02*
X106791541Y-42680414D01*
X106791541Y-42680414D02*
X106720112Y-42644700D01*
X106720112Y-42644700D02*
X106684398Y-42573271D01*
X106684398Y-42573271D02*
X106684398Y-42287557D01*
X106684398Y-42287557D02*
X106720112Y-42216128D01*
X106720112Y-42216128D02*
X106791541Y-42180414D01*
X106791541Y-42180414D02*
X106934398Y-42180414D01*
X106934398Y-42180414D02*
X107005826Y-42216128D01*
X107005826Y-42216128D02*
X107041541Y-42287557D01*
X107041541Y-42287557D02*
X107041541Y-42358985D01*
X107041541Y-42358985D02*
X106684398Y-42430414D01*
X107684398Y-42644700D02*
X107612969Y-42680414D01*
X107612969Y-42680414D02*
X107470112Y-42680414D01*
X107470112Y-42680414D02*
X107398683Y-42644700D01*
X107398683Y-42644700D02*
X107362969Y-42608985D01*
X107362969Y-42608985D02*
X107327255Y-42537557D01*
X107327255Y-42537557D02*
X107327255Y-42323271D01*
X107327255Y-42323271D02*
X107362969Y-42251842D01*
X107362969Y-42251842D02*
X107398683Y-42216128D01*
X107398683Y-42216128D02*
X107470112Y-42180414D01*
X107470112Y-42180414D02*
X107612969Y-42180414D01*
X107612969Y-42180414D02*
X107684398Y-42216128D01*
X107898683Y-42180414D02*
X108184397Y-42180414D01*
X108005826Y-41930414D02*
X108005826Y-42573271D01*
X108005826Y-42573271D02*
X108041540Y-42644700D01*
X108041540Y-42644700D02*
X108112969Y-42680414D01*
X108112969Y-42680414D02*
X108184397Y-42680414D01*
D11*
X87174797Y-61482143D02*
X87115273Y-61601190D01*
X87115273Y-61601190D02*
X87115273Y-61779762D01*
X87115273Y-61779762D02*
X87174797Y-61958333D01*
X87174797Y-61958333D02*
X87293845Y-62077381D01*
X87293845Y-62077381D02*
X87412892Y-62136904D01*
X87412892Y-62136904D02*
X87650988Y-62196428D01*
X87650988Y-62196428D02*
X87829559Y-62196428D01*
X87829559Y-62196428D02*
X88067654Y-62136904D01*
X88067654Y-62136904D02*
X88186702Y-62077381D01*
X88186702Y-62077381D02*
X88305750Y-61958333D01*
X88305750Y-61958333D02*
X88365273Y-61779762D01*
X88365273Y-61779762D02*
X88365273Y-61660714D01*
X88365273Y-61660714D02*
X88305750Y-61482143D01*
X88305750Y-61482143D02*
X88246226Y-61422619D01*
X88246226Y-61422619D02*
X87829559Y-61422619D01*
X87829559Y-61422619D02*
X87829559Y-61660714D01*
X88365273Y-60351190D02*
X87710511Y-60351190D01*
X87710511Y-60351190D02*
X87591464Y-60410714D01*
X87591464Y-60410714D02*
X87531940Y-60529762D01*
X87531940Y-60529762D02*
X87531940Y-60767857D01*
X87531940Y-60767857D02*
X87591464Y-60886904D01*
X88305750Y-60351190D02*
X88365273Y-60470238D01*
X88365273Y-60470238D02*
X88365273Y-60767857D01*
X88365273Y-60767857D02*
X88305750Y-60886904D01*
X88305750Y-60886904D02*
X88186702Y-60946428D01*
X88186702Y-60946428D02*
X88067654Y-60946428D01*
X88067654Y-60946428D02*
X87948607Y-60886904D01*
X87948607Y-60886904D02*
X87889083Y-60767857D01*
X87889083Y-60767857D02*
X87889083Y-60470238D01*
X87889083Y-60470238D02*
X87829559Y-60351190D01*
X88365273Y-59755952D02*
X87531940Y-59755952D01*
X87650988Y-59755952D02*
X87591464Y-59696429D01*
X87591464Y-59696429D02*
X87531940Y-59577381D01*
X87531940Y-59577381D02*
X87531940Y-59398810D01*
X87531940Y-59398810D02*
X87591464Y-59279762D01*
X87591464Y-59279762D02*
X87710511Y-59220238D01*
X87710511Y-59220238D02*
X88365273Y-59220238D01*
X87710511Y-59220238D02*
X87591464Y-59160714D01*
X87591464Y-59160714D02*
X87531940Y-59041667D01*
X87531940Y-59041667D02*
X87531940Y-58863095D01*
X87531940Y-58863095D02*
X87591464Y-58744048D01*
X87591464Y-58744048D02*
X87710511Y-58684524D01*
X87710511Y-58684524D02*
X88365273Y-58684524D01*
X88305750Y-57613095D02*
X88365273Y-57732143D01*
X88365273Y-57732143D02*
X88365273Y-57970238D01*
X88365273Y-57970238D02*
X88305750Y-58089285D01*
X88305750Y-58089285D02*
X88186702Y-58148809D01*
X88186702Y-58148809D02*
X87710511Y-58148809D01*
X87710511Y-58148809D02*
X87591464Y-58089285D01*
X87591464Y-58089285D02*
X87531940Y-57970238D01*
X87531940Y-57970238D02*
X87531940Y-57732143D01*
X87531940Y-57732143D02*
X87591464Y-57613095D01*
X87591464Y-57613095D02*
X87710511Y-57553571D01*
X87710511Y-57553571D02*
X87829559Y-57553571D01*
X87829559Y-57553571D02*
X87948607Y-58148809D01*
X87531940Y-57017856D02*
X88781940Y-57017856D01*
X87591464Y-57017856D02*
X87531940Y-56898809D01*
X87531940Y-56898809D02*
X87531940Y-56660714D01*
X87531940Y-56660714D02*
X87591464Y-56541666D01*
X87591464Y-56541666D02*
X87650988Y-56482142D01*
X87650988Y-56482142D02*
X87770035Y-56422618D01*
X87770035Y-56422618D02*
X88127178Y-56422618D01*
X88127178Y-56422618D02*
X88246226Y-56482142D01*
X88246226Y-56482142D02*
X88305750Y-56541666D01*
X88305750Y-56541666D02*
X88365273Y-56660714D01*
X88365273Y-56660714D02*
X88365273Y-56898809D01*
X88365273Y-56898809D02*
X88305750Y-57017856D01*
X88365273Y-55708333D02*
X88305750Y-55827381D01*
X88305750Y-55827381D02*
X88246226Y-55886904D01*
X88246226Y-55886904D02*
X88127178Y-55946428D01*
X88127178Y-55946428D02*
X87770035Y-55946428D01*
X87770035Y-55946428D02*
X87650988Y-55886904D01*
X87650988Y-55886904D02*
X87591464Y-55827381D01*
X87591464Y-55827381D02*
X87531940Y-55708333D01*
X87531940Y-55708333D02*
X87531940Y-55529762D01*
X87531940Y-55529762D02*
X87591464Y-55410714D01*
X87591464Y-55410714D02*
X87650988Y-55351190D01*
X87650988Y-55351190D02*
X87770035Y-55291666D01*
X87770035Y-55291666D02*
X88127178Y-55291666D01*
X88127178Y-55291666D02*
X88246226Y-55351190D01*
X88246226Y-55351190D02*
X88305750Y-55410714D01*
X88305750Y-55410714D02*
X88365273Y-55529762D01*
X88365273Y-55529762D02*
X88365273Y-55708333D01*
X88365273Y-54755952D02*
X87531940Y-54755952D01*
X87770035Y-54755952D02*
X87650988Y-54696429D01*
X87650988Y-54696429D02*
X87591464Y-54636905D01*
X87591464Y-54636905D02*
X87531940Y-54517857D01*
X87531940Y-54517857D02*
X87531940Y-54398810D01*
X87531940Y-54160714D02*
X87531940Y-53684523D01*
X87115273Y-53982142D02*
X88186702Y-53982142D01*
X88186702Y-53982142D02*
X88305750Y-53922619D01*
X88305750Y-53922619D02*
X88365273Y-53803571D01*
X88365273Y-53803571D02*
X88365273Y-53684523D01*
D12*
X104361775Y-53379048D02*
X103561775Y-53379048D01*
X103561775Y-53379048D02*
X103561775Y-53188572D01*
X103561775Y-53188572D02*
X103599870Y-53074286D01*
X103599870Y-53074286D02*
X103676060Y-52998096D01*
X103676060Y-52998096D02*
X103752251Y-52960001D01*
X103752251Y-52960001D02*
X103904632Y-52921905D01*
X103904632Y-52921905D02*
X104018918Y-52921905D01*
X104018918Y-52921905D02*
X104171299Y-52960001D01*
X104171299Y-52960001D02*
X104247489Y-52998096D01*
X104247489Y-52998096D02*
X104323680Y-53074286D01*
X104323680Y-53074286D02*
X104361775Y-53188572D01*
X104361775Y-53188572D02*
X104361775Y-53379048D01*
X104323680Y-52274286D02*
X104361775Y-52350477D01*
X104361775Y-52350477D02*
X104361775Y-52502858D01*
X104361775Y-52502858D02*
X104323680Y-52579048D01*
X104323680Y-52579048D02*
X104247489Y-52617144D01*
X104247489Y-52617144D02*
X103942727Y-52617144D01*
X103942727Y-52617144D02*
X103866537Y-52579048D01*
X103866537Y-52579048D02*
X103828441Y-52502858D01*
X103828441Y-52502858D02*
X103828441Y-52350477D01*
X103828441Y-52350477D02*
X103866537Y-52274286D01*
X103866537Y-52274286D02*
X103942727Y-52236191D01*
X103942727Y-52236191D02*
X104018918Y-52236191D01*
X104018918Y-52236191D02*
X104095108Y-52617144D01*
X104361775Y-51893334D02*
X103561775Y-51893334D01*
X103866537Y-51893334D02*
X103828441Y-51817144D01*
X103828441Y-51817144D02*
X103828441Y-51664763D01*
X103828441Y-51664763D02*
X103866537Y-51588572D01*
X103866537Y-51588572D02*
X103904632Y-51550477D01*
X103904632Y-51550477D02*
X103980822Y-51512382D01*
X103980822Y-51512382D02*
X104209394Y-51512382D01*
X104209394Y-51512382D02*
X104285584Y-51550477D01*
X104285584Y-51550477D02*
X104323680Y-51588572D01*
X104323680Y-51588572D02*
X104361775Y-51664763D01*
X104361775Y-51664763D02*
X104361775Y-51817144D01*
X104361775Y-51817144D02*
X104323680Y-51893334D01*
X103828441Y-50826667D02*
X104361775Y-50826667D01*
X103828441Y-51169524D02*
X104247489Y-51169524D01*
X104247489Y-51169524D02*
X104323680Y-51131429D01*
X104323680Y-51131429D02*
X104361775Y-51055239D01*
X104361775Y-51055239D02*
X104361775Y-50940953D01*
X104361775Y-50940953D02*
X104323680Y-50864762D01*
X104323680Y-50864762D02*
X104285584Y-50826667D01*
X103828441Y-50102857D02*
X104476060Y-50102857D01*
X104476060Y-50102857D02*
X104552251Y-50140952D01*
X104552251Y-50140952D02*
X104590346Y-50179048D01*
X104590346Y-50179048D02*
X104628441Y-50255238D01*
X104628441Y-50255238D02*
X104628441Y-50369524D01*
X104628441Y-50369524D02*
X104590346Y-50445714D01*
X104323680Y-50102857D02*
X104361775Y-50179048D01*
X104361775Y-50179048D02*
X104361775Y-50331429D01*
X104361775Y-50331429D02*
X104323680Y-50407619D01*
X104323680Y-50407619D02*
X104285584Y-50445714D01*
X104285584Y-50445714D02*
X104209394Y-50483810D01*
X104209394Y-50483810D02*
X103980822Y-50483810D01*
X103980822Y-50483810D02*
X103904632Y-50445714D01*
X103904632Y-50445714D02*
X103866537Y-50407619D01*
X103866537Y-50407619D02*
X103828441Y-50331429D01*
X103828441Y-50331429D02*
X103828441Y-50179048D01*
X103828441Y-50179048D02*
X103866537Y-50102857D01*
X104285584Y-48655237D02*
X104323680Y-48693333D01*
X104323680Y-48693333D02*
X104361775Y-48807618D01*
X104361775Y-48807618D02*
X104361775Y-48883809D01*
X104361775Y-48883809D02*
X104323680Y-48998095D01*
X104323680Y-48998095D02*
X104247489Y-49074285D01*
X104247489Y-49074285D02*
X104171299Y-49112380D01*
X104171299Y-49112380D02*
X104018918Y-49150476D01*
X104018918Y-49150476D02*
X103904632Y-49150476D01*
X103904632Y-49150476D02*
X103752251Y-49112380D01*
X103752251Y-49112380D02*
X103676060Y-49074285D01*
X103676060Y-49074285D02*
X103599870Y-48998095D01*
X103599870Y-48998095D02*
X103561775Y-48883809D01*
X103561775Y-48883809D02*
X103561775Y-48807618D01*
X103561775Y-48807618D02*
X103599870Y-48693333D01*
X103599870Y-48693333D02*
X103637965Y-48655237D01*
X104361775Y-48198095D02*
X104323680Y-48274285D01*
X104323680Y-48274285D02*
X104285584Y-48312380D01*
X104285584Y-48312380D02*
X104209394Y-48350476D01*
X104209394Y-48350476D02*
X103980822Y-48350476D01*
X103980822Y-48350476D02*
X103904632Y-48312380D01*
X103904632Y-48312380D02*
X103866537Y-48274285D01*
X103866537Y-48274285D02*
X103828441Y-48198095D01*
X103828441Y-48198095D02*
X103828441Y-48083809D01*
X103828441Y-48083809D02*
X103866537Y-48007618D01*
X103866537Y-48007618D02*
X103904632Y-47969523D01*
X103904632Y-47969523D02*
X103980822Y-47931428D01*
X103980822Y-47931428D02*
X104209394Y-47931428D01*
X104209394Y-47931428D02*
X104285584Y-47969523D01*
X104285584Y-47969523D02*
X104323680Y-48007618D01*
X104323680Y-48007618D02*
X104361775Y-48083809D01*
X104361775Y-48083809D02*
X104361775Y-48198095D01*
X103828441Y-47588570D02*
X104361775Y-47588570D01*
X103904632Y-47588570D02*
X103866537Y-47550475D01*
X103866537Y-47550475D02*
X103828441Y-47474285D01*
X103828441Y-47474285D02*
X103828441Y-47359999D01*
X103828441Y-47359999D02*
X103866537Y-47283808D01*
X103866537Y-47283808D02*
X103942727Y-47245713D01*
X103942727Y-47245713D02*
X104361775Y-47245713D01*
X103828441Y-46864760D02*
X104361775Y-46864760D01*
X103904632Y-46864760D02*
X103866537Y-46826665D01*
X103866537Y-46826665D02*
X103828441Y-46750475D01*
X103828441Y-46750475D02*
X103828441Y-46636189D01*
X103828441Y-46636189D02*
X103866537Y-46559998D01*
X103866537Y-46559998D02*
X103942727Y-46521903D01*
X103942727Y-46521903D02*
X104361775Y-46521903D01*
X104285584Y-46140950D02*
X104323680Y-46102855D01*
X104323680Y-46102855D02*
X104361775Y-46140950D01*
X104361775Y-46140950D02*
X104323680Y-46179046D01*
X104323680Y-46179046D02*
X104285584Y-46140950D01*
X104285584Y-46140950D02*
X104361775Y-46140950D01*
D13*
X120140414Y-68346652D02*
X120192794Y-68189509D01*
X120192794Y-68189509D02*
X120192794Y-67927604D01*
X120192794Y-67927604D02*
X120140414Y-67822842D01*
X120140414Y-67822842D02*
X120088033Y-67770461D01*
X120088033Y-67770461D02*
X119983271Y-67718080D01*
X119983271Y-67718080D02*
X119878509Y-67718080D01*
X119878509Y-67718080D02*
X119773747Y-67770461D01*
X119773747Y-67770461D02*
X119721366Y-67822842D01*
X119721366Y-67822842D02*
X119668985Y-67927604D01*
X119668985Y-67927604D02*
X119616604Y-68137128D01*
X119616604Y-68137128D02*
X119564223Y-68241890D01*
X119564223Y-68241890D02*
X119511842Y-68294271D01*
X119511842Y-68294271D02*
X119407080Y-68346652D01*
X119407080Y-68346652D02*
X119302318Y-68346652D01*
X119302318Y-68346652D02*
X119197556Y-68294271D01*
X119197556Y-68294271D02*
X119145175Y-68241890D01*
X119145175Y-68241890D02*
X119092794Y-68137128D01*
X119092794Y-68137128D02*
X119092794Y-67875223D01*
X119092794Y-67875223D02*
X119145175Y-67718080D01*
X119459461Y-67246652D02*
X120559461Y-67246652D01*
X119511842Y-67246652D02*
X119459461Y-67141890D01*
X119459461Y-67141890D02*
X119459461Y-66932366D01*
X119459461Y-66932366D02*
X119511842Y-66827604D01*
X119511842Y-66827604D02*
X119564223Y-66775223D01*
X119564223Y-66775223D02*
X119668985Y-66722842D01*
X119668985Y-66722842D02*
X119983271Y-66722842D01*
X119983271Y-66722842D02*
X120088033Y-66775223D01*
X120088033Y-66775223D02*
X120140414Y-66827604D01*
X120140414Y-66827604D02*
X120192794Y-66932366D01*
X120192794Y-66932366D02*
X120192794Y-67141890D01*
X120192794Y-67141890D02*
X120140414Y-67246652D01*
X120192794Y-65779985D02*
X119616604Y-65779985D01*
X119616604Y-65779985D02*
X119511842Y-65832366D01*
X119511842Y-65832366D02*
X119459461Y-65937128D01*
X119459461Y-65937128D02*
X119459461Y-66146652D01*
X119459461Y-66146652D02*
X119511842Y-66251414D01*
X120140414Y-65779985D02*
X120192794Y-65884747D01*
X120192794Y-65884747D02*
X120192794Y-66146652D01*
X120192794Y-66146652D02*
X120140414Y-66251414D01*
X120140414Y-66251414D02*
X120035652Y-66303795D01*
X120035652Y-66303795D02*
X119930890Y-66303795D01*
X119930890Y-66303795D02*
X119826128Y-66251414D01*
X119826128Y-66251414D02*
X119773747Y-66146652D01*
X119773747Y-66146652D02*
X119773747Y-65884747D01*
X119773747Y-65884747D02*
X119721366Y-65779985D01*
X120192794Y-65256176D02*
X119459461Y-65256176D01*
X119668985Y-65256176D02*
X119564223Y-65203795D01*
X119564223Y-65203795D02*
X119511842Y-65151414D01*
X119511842Y-65151414D02*
X119459461Y-65046652D01*
X119459461Y-65046652D02*
X119459461Y-64941890D01*
X120192794Y-64575224D02*
X119092794Y-64575224D01*
X119773747Y-64470462D02*
X120192794Y-64156176D01*
X119459461Y-64156176D02*
X119878509Y-64575224D01*
X119616604Y-63318081D02*
X119616604Y-63684748D01*
X120192794Y-63684748D02*
X119092794Y-63684748D01*
X119092794Y-63684748D02*
X119092794Y-63160938D01*
X119459461Y-62270462D02*
X120192794Y-62270462D01*
X119459461Y-62741891D02*
X120035652Y-62741891D01*
X120035652Y-62741891D02*
X120140414Y-62689510D01*
X120140414Y-62689510D02*
X120192794Y-62584748D01*
X120192794Y-62584748D02*
X120192794Y-62427605D01*
X120192794Y-62427605D02*
X120140414Y-62322843D01*
X120140414Y-62322843D02*
X120088033Y-62270462D01*
X119459461Y-61746653D02*
X120192794Y-61746653D01*
X119564223Y-61746653D02*
X119511842Y-61694272D01*
X119511842Y-61694272D02*
X119459461Y-61589510D01*
X119459461Y-61589510D02*
X119459461Y-61432367D01*
X119459461Y-61432367D02*
X119511842Y-61327605D01*
X119511842Y-61327605D02*
X119616604Y-61275224D01*
X119616604Y-61275224D02*
X120192794Y-61275224D01*
X120140414Y-59965701D02*
X120192794Y-59808558D01*
X120192794Y-59808558D02*
X120192794Y-59546653D01*
X120192794Y-59546653D02*
X120140414Y-59441891D01*
X120140414Y-59441891D02*
X120088033Y-59389510D01*
X120088033Y-59389510D02*
X119983271Y-59337129D01*
X119983271Y-59337129D02*
X119878509Y-59337129D01*
X119878509Y-59337129D02*
X119773747Y-59389510D01*
X119773747Y-59389510D02*
X119721366Y-59441891D01*
X119721366Y-59441891D02*
X119668985Y-59546653D01*
X119668985Y-59546653D02*
X119616604Y-59756177D01*
X119616604Y-59756177D02*
X119564223Y-59860939D01*
X119564223Y-59860939D02*
X119511842Y-59913320D01*
X119511842Y-59913320D02*
X119407080Y-59965701D01*
X119407080Y-59965701D02*
X119302318Y-59965701D01*
X119302318Y-59965701D02*
X119197556Y-59913320D01*
X119197556Y-59913320D02*
X119145175Y-59860939D01*
X119145175Y-59860939D02*
X119092794Y-59756177D01*
X119092794Y-59756177D02*
X119092794Y-59494272D01*
X119092794Y-59494272D02*
X119145175Y-59337129D01*
X119878509Y-58918082D02*
X119878509Y-58394272D01*
X120192794Y-59022844D02*
X119092794Y-58656177D01*
X119092794Y-58656177D02*
X120192794Y-58289510D01*
X120192794Y-57922844D02*
X119092794Y-57922844D01*
X119092794Y-57922844D02*
X119878509Y-57556177D01*
X119878509Y-57556177D02*
X119092794Y-57189510D01*
X119092794Y-57189510D02*
X120192794Y-57189510D01*
X120192794Y-56665701D02*
X119092794Y-56665701D01*
X119092794Y-56665701D02*
X119092794Y-56403796D01*
X119092794Y-56403796D02*
X119145175Y-56246653D01*
X119145175Y-56246653D02*
X119249937Y-56141891D01*
X119249937Y-56141891D02*
X119354699Y-56089510D01*
X119354699Y-56089510D02*
X119564223Y-56037129D01*
X119564223Y-56037129D02*
X119721366Y-56037129D01*
X119721366Y-56037129D02*
X119930890Y-56089510D01*
X119930890Y-56089510D02*
X120035652Y-56141891D01*
X120035652Y-56141891D02*
X120140414Y-56246653D01*
X120140414Y-56246653D02*
X120192794Y-56403796D01*
X120192794Y-56403796D02*
X120192794Y-56665701D01*
X119197556Y-55618082D02*
X119145175Y-55565701D01*
X119145175Y-55565701D02*
X119092794Y-55460939D01*
X119092794Y-55460939D02*
X119092794Y-55199034D01*
X119092794Y-55199034D02*
X119145175Y-55094272D01*
X119145175Y-55094272D02*
X119197556Y-55041891D01*
X119197556Y-55041891D02*
X119302318Y-54989510D01*
X119302318Y-54989510D02*
X119407080Y-54989510D01*
X119407080Y-54989510D02*
X119564223Y-55041891D01*
X119564223Y-55041891D02*
X120192794Y-55670463D01*
X120192794Y-55670463D02*
X120192794Y-54989510D01*
X120192794Y-53941891D02*
X120192794Y-54570463D01*
X120192794Y-54256177D02*
X119092794Y-54256177D01*
X119092794Y-54256177D02*
X119249937Y-54360939D01*
X119249937Y-54360939D02*
X119354699Y-54465701D01*
X119354699Y-54465701D02*
X119407080Y-54570463D01*
X120192794Y-52632368D02*
X119092794Y-52632368D01*
X119092794Y-52632368D02*
X119878509Y-52265701D01*
X119878509Y-52265701D02*
X119092794Y-51899034D01*
X119092794Y-51899034D02*
X120192794Y-51899034D01*
X120192794Y-51375225D02*
X119459461Y-51375225D01*
X119092794Y-51375225D02*
X119145175Y-51427606D01*
X119145175Y-51427606D02*
X119197556Y-51375225D01*
X119197556Y-51375225D02*
X119145175Y-51322844D01*
X119145175Y-51322844D02*
X119092794Y-51375225D01*
X119092794Y-51375225D02*
X119197556Y-51375225D01*
X119459461Y-50851415D02*
X120192794Y-50851415D01*
X119564223Y-50851415D02*
X119511842Y-50799034D01*
X119511842Y-50799034D02*
X119459461Y-50694272D01*
X119459461Y-50694272D02*
X119459461Y-50537129D01*
X119459461Y-50537129D02*
X119511842Y-50432367D01*
X119511842Y-50432367D02*
X119616604Y-50379986D01*
X119616604Y-50379986D02*
X120192794Y-50379986D01*
X120192794Y-49856177D02*
X119459461Y-49856177D01*
X119092794Y-49856177D02*
X119145175Y-49908558D01*
X119145175Y-49908558D02*
X119197556Y-49856177D01*
X119197556Y-49856177D02*
X119145175Y-49803796D01*
X119145175Y-49803796D02*
X119092794Y-49856177D01*
X119092794Y-49856177D02*
X119197556Y-49856177D01*
D10*
X123452021Y-42401328D02*
X123413925Y-42439424D01*
X123413925Y-42439424D02*
X123299640Y-42477519D01*
X123299640Y-42477519D02*
X123223449Y-42477519D01*
X123223449Y-42477519D02*
X123109163Y-42439424D01*
X123109163Y-42439424D02*
X123032973Y-42363233D01*
X123032973Y-42363233D02*
X122994878Y-42287043D01*
X122994878Y-42287043D02*
X122956782Y-42134662D01*
X122956782Y-42134662D02*
X122956782Y-42020376D01*
X122956782Y-42020376D02*
X122994878Y-41867995D01*
X122994878Y-41867995D02*
X123032973Y-41791804D01*
X123032973Y-41791804D02*
X123109163Y-41715614D01*
X123109163Y-41715614D02*
X123223449Y-41677519D01*
X123223449Y-41677519D02*
X123299640Y-41677519D01*
X123299640Y-41677519D02*
X123413925Y-41715614D01*
X123413925Y-41715614D02*
X123452021Y-41753709D01*
X123756782Y-41753709D02*
X123794878Y-41715614D01*
X123794878Y-41715614D02*
X123871068Y-41677519D01*
X123871068Y-41677519D02*
X124061544Y-41677519D01*
X124061544Y-41677519D02*
X124137735Y-41715614D01*
X124137735Y-41715614D02*
X124175830Y-41753709D01*
X124175830Y-41753709D02*
X124213925Y-41829900D01*
X124213925Y-41829900D02*
X124213925Y-41906090D01*
X124213925Y-41906090D02*
X124175830Y-42020376D01*
X124175830Y-42020376D02*
X123718687Y-42477519D01*
X123718687Y-42477519D02*
X124213925Y-42477519D01*
X112043521Y-73564328D02*
X112005425Y-73602424D01*
X112005425Y-73602424D02*
X111891140Y-73640519D01*
X111891140Y-73640519D02*
X111814949Y-73640519D01*
X111814949Y-73640519D02*
X111700663Y-73602424D01*
X111700663Y-73602424D02*
X111624473Y-73526233D01*
X111624473Y-73526233D02*
X111586378Y-73450043D01*
X111586378Y-73450043D02*
X111548282Y-73297662D01*
X111548282Y-73297662D02*
X111548282Y-73183376D01*
X111548282Y-73183376D02*
X111586378Y-73030995D01*
X111586378Y-73030995D02*
X111624473Y-72954804D01*
X111624473Y-72954804D02*
X111700663Y-72878614D01*
X111700663Y-72878614D02*
X111814949Y-72840519D01*
X111814949Y-72840519D02*
X111891140Y-72840519D01*
X111891140Y-72840519D02*
X112005425Y-72878614D01*
X112005425Y-72878614D02*
X112043521Y-72916709D01*
X112729235Y-73107185D02*
X112729235Y-73640519D01*
X112538759Y-72802424D02*
X112348282Y-73373852D01*
X112348282Y-73373852D02*
X112843521Y-73373852D01*
X114972021Y-61119328D02*
X114933925Y-61157424D01*
X114933925Y-61157424D02*
X114819640Y-61195519D01*
X114819640Y-61195519D02*
X114743449Y-61195519D01*
X114743449Y-61195519D02*
X114629163Y-61157424D01*
X114629163Y-61157424D02*
X114552973Y-61081233D01*
X114552973Y-61081233D02*
X114514878Y-61005043D01*
X114514878Y-61005043D02*
X114476782Y-60852662D01*
X114476782Y-60852662D02*
X114476782Y-60738376D01*
X114476782Y-60738376D02*
X114514878Y-60585995D01*
X114514878Y-60585995D02*
X114552973Y-60509804D01*
X114552973Y-60509804D02*
X114629163Y-60433614D01*
X114629163Y-60433614D02*
X114743449Y-60395519D01*
X114743449Y-60395519D02*
X114819640Y-60395519D01*
X114819640Y-60395519D02*
X114933925Y-60433614D01*
X114933925Y-60433614D02*
X114972021Y-60471709D01*
X115695830Y-60395519D02*
X115314878Y-60395519D01*
X115314878Y-60395519D02*
X115276782Y-60776471D01*
X115276782Y-60776471D02*
X115314878Y-60738376D01*
X115314878Y-60738376D02*
X115391068Y-60700281D01*
X115391068Y-60700281D02*
X115581544Y-60700281D01*
X115581544Y-60700281D02*
X115657735Y-60738376D01*
X115657735Y-60738376D02*
X115695830Y-60776471D01*
X115695830Y-60776471D02*
X115733925Y-60852662D01*
X115733925Y-60852662D02*
X115733925Y-61043138D01*
X115733925Y-61043138D02*
X115695830Y-61119328D01*
X115695830Y-61119328D02*
X115657735Y-61157424D01*
X115657735Y-61157424D02*
X115581544Y-61195519D01*
X115581544Y-61195519D02*
X115391068Y-61195519D01*
X115391068Y-61195519D02*
X115314878Y-61157424D01*
X115314878Y-61157424D02*
X115276782Y-61119328D01*
X109763650Y-71880000D02*
X109763650Y-71580000D01*
X109943650Y-71940000D02*
X109313650Y-71730000D01*
X109313650Y-71730000D02*
X109943650Y-71520000D01*
X109943650Y-71310000D02*
X109313650Y-71310000D01*
X109313650Y-71310000D02*
X109313650Y-71160000D01*
X109313650Y-71160000D02*
X109343650Y-71070000D01*
X109343650Y-71070000D02*
X109403650Y-71010000D01*
X109403650Y-71010000D02*
X109463650Y-70980000D01*
X109463650Y-70980000D02*
X109583650Y-70950000D01*
X109583650Y-70950000D02*
X109673650Y-70950000D01*
X109673650Y-70950000D02*
X109793650Y-70980000D01*
X109793650Y-70980000D02*
X109853650Y-71010000D01*
X109853650Y-71010000D02*
X109913650Y-71070000D01*
X109913650Y-71070000D02*
X109943650Y-71160000D01*
X109943650Y-71160000D02*
X109943650Y-71310000D01*
X109583650Y-70590000D02*
X109553650Y-70650000D01*
X109553650Y-70650000D02*
X109523650Y-70680000D01*
X109523650Y-70680000D02*
X109463650Y-70710000D01*
X109463650Y-70710000D02*
X109433650Y-70710000D01*
X109433650Y-70710000D02*
X109373650Y-70680000D01*
X109373650Y-70680000D02*
X109343650Y-70650000D01*
X109343650Y-70650000D02*
X109313650Y-70590000D01*
X109313650Y-70590000D02*
X109313650Y-70470000D01*
X109313650Y-70470000D02*
X109343650Y-70410000D01*
X109343650Y-70410000D02*
X109373650Y-70380000D01*
X109373650Y-70380000D02*
X109433650Y-70350000D01*
X109433650Y-70350000D02*
X109463650Y-70350000D01*
X109463650Y-70350000D02*
X109523650Y-70380000D01*
X109523650Y-70380000D02*
X109553650Y-70410000D01*
X109553650Y-70410000D02*
X109583650Y-70470000D01*
X109583650Y-70470000D02*
X109583650Y-70590000D01*
X109583650Y-70590000D02*
X109613650Y-70650000D01*
X109613650Y-70650000D02*
X109643650Y-70680000D01*
X109643650Y-70680000D02*
X109703650Y-70710000D01*
X109703650Y-70710000D02*
X109823650Y-70710000D01*
X109823650Y-70710000D02*
X109883650Y-70680000D01*
X109883650Y-70680000D02*
X109913650Y-70650000D01*
X109913650Y-70650000D02*
X109943650Y-70590000D01*
X109943650Y-70590000D02*
X109943650Y-70470000D01*
X109943650Y-70470000D02*
X109913650Y-70410000D01*
X109913650Y-70410000D02*
X109883650Y-70380000D01*
X109883650Y-70380000D02*
X109823650Y-70350000D01*
X109823650Y-70350000D02*
X109703650Y-70350000D01*
X109703650Y-70350000D02*
X109643650Y-70380000D01*
X109643650Y-70380000D02*
X109613650Y-70410000D01*
X109613650Y-70410000D02*
X109583650Y-70470000D01*
X109523650Y-69810000D02*
X109943650Y-69810000D01*
X109283650Y-69960000D02*
X109733650Y-70110000D01*
X109733650Y-70110000D02*
X109733650Y-69720000D01*
X109313650Y-69360000D02*
X109313650Y-69300000D01*
X109313650Y-69300000D02*
X109343650Y-69240000D01*
X109343650Y-69240000D02*
X109373650Y-69210000D01*
X109373650Y-69210000D02*
X109433650Y-69180000D01*
X109433650Y-69180000D02*
X109553650Y-69150000D01*
X109553650Y-69150000D02*
X109703650Y-69150000D01*
X109703650Y-69150000D02*
X109823650Y-69180000D01*
X109823650Y-69180000D02*
X109883650Y-69210000D01*
X109883650Y-69210000D02*
X109913650Y-69240000D01*
X109913650Y-69240000D02*
X109943650Y-69300000D01*
X109943650Y-69300000D02*
X109943650Y-69360000D01*
X109943650Y-69360000D02*
X109913650Y-69420000D01*
X109913650Y-69420000D02*
X109883650Y-69450000D01*
X109883650Y-69450000D02*
X109823650Y-69480000D01*
X109823650Y-69480000D02*
X109703650Y-69510000D01*
X109703650Y-69510000D02*
X109553650Y-69510000D01*
X109553650Y-69510000D02*
X109433650Y-69480000D01*
X109433650Y-69480000D02*
X109373650Y-69450000D01*
X109373650Y-69450000D02*
X109343650Y-69420000D01*
X109343650Y-69420000D02*
X109313650Y-69360000D01*
X109313650Y-68940000D02*
X109313650Y-68550000D01*
X109313650Y-68550000D02*
X109553650Y-68760000D01*
X109553650Y-68760000D02*
X109553650Y-68670000D01*
X109553650Y-68670000D02*
X109583650Y-68610000D01*
X109583650Y-68610000D02*
X109613650Y-68580000D01*
X109613650Y-68580000D02*
X109673650Y-68550000D01*
X109673650Y-68550000D02*
X109823650Y-68550000D01*
X109823650Y-68550000D02*
X109883650Y-68580000D01*
X109883650Y-68580000D02*
X109913650Y-68610000D01*
X109913650Y-68610000D02*
X109943650Y-68670000D01*
X109943650Y-68670000D02*
X109943650Y-68850000D01*
X109943650Y-68850000D02*
X109913650Y-68910000D01*
X109913650Y-68910000D02*
X109883650Y-68940000D01*
X109763650Y-68310000D02*
X109763650Y-68010000D01*
X109943650Y-68370000D02*
X109313650Y-68160000D01*
X109313650Y-68160000D02*
X109943650Y-67950000D01*
X109943650Y-67380000D02*
X109643650Y-67590000D01*
X109943650Y-67740000D02*
X109313650Y-67740000D01*
X109313650Y-67740000D02*
X109313650Y-67500000D01*
X109313650Y-67500000D02*
X109343650Y-67440000D01*
X109343650Y-67440000D02*
X109373650Y-67410000D01*
X109373650Y-67410000D02*
X109433650Y-67380000D01*
X109433650Y-67380000D02*
X109523650Y-67380000D01*
X109523650Y-67380000D02*
X109583650Y-67410000D01*
X109583650Y-67410000D02*
X109613650Y-67440000D01*
X109613650Y-67440000D02*
X109643650Y-67500000D01*
X109643650Y-67500000D02*
X109643650Y-67740000D01*
X109313650Y-67110000D02*
X109823650Y-67110000D01*
X109823650Y-67110000D02*
X109883650Y-67080000D01*
X109883650Y-67080000D02*
X109913650Y-67050000D01*
X109913650Y-67050000D02*
X109943650Y-66990000D01*
X109943650Y-66990000D02*
X109943650Y-66870000D01*
X109943650Y-66870000D02*
X109913650Y-66810000D01*
X109913650Y-66810000D02*
X109883650Y-66780000D01*
X109883650Y-66780000D02*
X109823650Y-66750000D01*
X109823650Y-66750000D02*
X109313650Y-66750000D01*
X109313650Y-66510000D02*
X109313650Y-66090000D01*
X109313650Y-66090000D02*
X109943650Y-66510000D01*
X109943650Y-66510000D02*
X109943650Y-66090000D01*
X109943650Y-65520000D02*
X109943650Y-65880000D01*
X109943650Y-65700000D02*
X109313650Y-65700000D01*
X109313650Y-65700000D02*
X109403650Y-65760000D01*
X109403650Y-65760000D02*
X109463650Y-65820000D01*
X109463650Y-65820000D02*
X109493650Y-65880000D01*
X109313650Y-65130000D02*
X109313650Y-65070000D01*
X109313650Y-65070000D02*
X109343650Y-65010000D01*
X109343650Y-65010000D02*
X109373650Y-64980000D01*
X109373650Y-64980000D02*
X109433650Y-64950000D01*
X109433650Y-64950000D02*
X109553650Y-64920000D01*
X109553650Y-64920000D02*
X109703650Y-64920000D01*
X109703650Y-64920000D02*
X109823650Y-64950000D01*
X109823650Y-64950000D02*
X109883650Y-64980000D01*
X109883650Y-64980000D02*
X109913650Y-65010000D01*
X109913650Y-65010000D02*
X109943650Y-65070000D01*
X109943650Y-65070000D02*
X109943650Y-65130000D01*
X109943650Y-65130000D02*
X109913650Y-65190000D01*
X109913650Y-65190000D02*
X109883650Y-65220000D01*
X109883650Y-65220000D02*
X109823650Y-65250000D01*
X109823650Y-65250000D02*
X109703650Y-65280000D01*
X109703650Y-65280000D02*
X109553650Y-65280000D01*
X109553650Y-65280000D02*
X109433650Y-65250000D01*
X109433650Y-65250000D02*
X109373650Y-65220000D01*
X109373650Y-65220000D02*
X109343650Y-65190000D01*
X109343650Y-65190000D02*
X109313650Y-65130000D01*
X109313650Y-64530000D02*
X109313650Y-64470000D01*
X109313650Y-64470000D02*
X109343650Y-64410000D01*
X109343650Y-64410000D02*
X109373650Y-64380000D01*
X109373650Y-64380000D02*
X109433650Y-64350000D01*
X109433650Y-64350000D02*
X109553650Y-64320000D01*
X109553650Y-64320000D02*
X109703650Y-64320000D01*
X109703650Y-64320000D02*
X109823650Y-64350000D01*
X109823650Y-64350000D02*
X109883650Y-64380000D01*
X109883650Y-64380000D02*
X109913650Y-64410000D01*
X109913650Y-64410000D02*
X109943650Y-64470000D01*
X109943650Y-64470000D02*
X109943650Y-64530000D01*
X109943650Y-64530000D02*
X109913650Y-64590000D01*
X109913650Y-64590000D02*
X109883650Y-64620000D01*
X109883650Y-64620000D02*
X109823650Y-64650000D01*
X109823650Y-64650000D02*
X109703650Y-64680000D01*
X109703650Y-64680000D02*
X109553650Y-64680000D01*
X109553650Y-64680000D02*
X109433650Y-64650000D01*
X109433650Y-64650000D02*
X109373650Y-64620000D01*
X109373650Y-64620000D02*
X109343650Y-64590000D01*
X109343650Y-64590000D02*
X109313650Y-64530000D01*
X112687458Y-48076056D02*
X112725554Y-48114152D01*
X112725554Y-48114152D02*
X112763649Y-48228437D01*
X112763649Y-48228437D02*
X112763649Y-48304628D01*
X112763649Y-48304628D02*
X112725554Y-48418914D01*
X112725554Y-48418914D02*
X112649363Y-48495104D01*
X112649363Y-48495104D02*
X112573173Y-48533199D01*
X112573173Y-48533199D02*
X112420792Y-48571295D01*
X112420792Y-48571295D02*
X112306506Y-48571295D01*
X112306506Y-48571295D02*
X112154125Y-48533199D01*
X112154125Y-48533199D02*
X112077934Y-48495104D01*
X112077934Y-48495104D02*
X112001744Y-48418914D01*
X112001744Y-48418914D02*
X111963649Y-48304628D01*
X111963649Y-48304628D02*
X111963649Y-48228437D01*
X111963649Y-48228437D02*
X112001744Y-48114152D01*
X112001744Y-48114152D02*
X112039839Y-48076056D01*
X112763649Y-47314152D02*
X112763649Y-47771295D01*
X112763649Y-47542723D02*
X111963649Y-47542723D01*
X111963649Y-47542723D02*
X112077934Y-47618914D01*
X112077934Y-47618914D02*
X112154125Y-47695104D01*
X112154125Y-47695104D02*
X112192220Y-47771295D01*
X115032021Y-50561328D02*
X114993925Y-50599424D01*
X114993925Y-50599424D02*
X114879640Y-50637519D01*
X114879640Y-50637519D02*
X114803449Y-50637519D01*
X114803449Y-50637519D02*
X114689163Y-50599424D01*
X114689163Y-50599424D02*
X114612973Y-50523233D01*
X114612973Y-50523233D02*
X114574878Y-50447043D01*
X114574878Y-50447043D02*
X114536782Y-50294662D01*
X114536782Y-50294662D02*
X114536782Y-50180376D01*
X114536782Y-50180376D02*
X114574878Y-50027995D01*
X114574878Y-50027995D02*
X114612973Y-49951804D01*
X114612973Y-49951804D02*
X114689163Y-49875614D01*
X114689163Y-49875614D02*
X114803449Y-49837519D01*
X114803449Y-49837519D02*
X114879640Y-49837519D01*
X114879640Y-49837519D02*
X114993925Y-49875614D01*
X114993925Y-49875614D02*
X115032021Y-49913709D01*
X115298687Y-49837519D02*
X115793925Y-49837519D01*
X115793925Y-49837519D02*
X115527259Y-50142281D01*
X115527259Y-50142281D02*
X115641544Y-50142281D01*
X115641544Y-50142281D02*
X115717735Y-50180376D01*
X115717735Y-50180376D02*
X115755830Y-50218471D01*
X115755830Y-50218471D02*
X115793925Y-50294662D01*
X115793925Y-50294662D02*
X115793925Y-50485138D01*
X115793925Y-50485138D02*
X115755830Y-50561328D01*
X115755830Y-50561328D02*
X115717735Y-50599424D01*
X115717735Y-50599424D02*
X115641544Y-50637519D01*
X115641544Y-50637519D02*
X115412973Y-50637519D01*
X115412973Y-50637519D02*
X115336782Y-50599424D01*
X115336782Y-50599424D02*
X115298687Y-50561328D01*
X102382021Y-64790519D02*
X102115354Y-64409566D01*
X101924878Y-64790519D02*
X101924878Y-63990519D01*
X101924878Y-63990519D02*
X102229640Y-63990519D01*
X102229640Y-63990519D02*
X102305830Y-64028614D01*
X102305830Y-64028614D02*
X102343925Y-64066709D01*
X102343925Y-64066709D02*
X102382021Y-64142900D01*
X102382021Y-64142900D02*
X102382021Y-64257185D01*
X102382021Y-64257185D02*
X102343925Y-64333376D01*
X102343925Y-64333376D02*
X102305830Y-64371471D01*
X102305830Y-64371471D02*
X102229640Y-64409566D01*
X102229640Y-64409566D02*
X101924878Y-64409566D01*
X102686782Y-64066709D02*
X102724878Y-64028614D01*
X102724878Y-64028614D02*
X102801068Y-63990519D01*
X102801068Y-63990519D02*
X102991544Y-63990519D01*
X102991544Y-63990519D02*
X103067735Y-64028614D01*
X103067735Y-64028614D02*
X103105830Y-64066709D01*
X103105830Y-64066709D02*
X103143925Y-64142900D01*
X103143925Y-64142900D02*
X103143925Y-64219090D01*
X103143925Y-64219090D02*
X103105830Y-64333376D01*
X103105830Y-64333376D02*
X102648687Y-64790519D01*
X102648687Y-64790519D02*
X103143925Y-64790519D01*
X109943650Y-58550000D02*
X109313650Y-58550000D01*
X109313650Y-58550000D02*
X109313650Y-58310000D01*
X109313650Y-58310000D02*
X109343650Y-58250000D01*
X109343650Y-58250000D02*
X109373650Y-58220000D01*
X109373650Y-58220000D02*
X109433650Y-58190000D01*
X109433650Y-58190000D02*
X109523650Y-58190000D01*
X109523650Y-58190000D02*
X109583650Y-58220000D01*
X109583650Y-58220000D02*
X109613650Y-58250000D01*
X109613650Y-58250000D02*
X109643650Y-58310000D01*
X109643650Y-58310000D02*
X109643650Y-58550000D01*
X109943650Y-57920000D02*
X109313650Y-57920000D01*
X109523650Y-57350000D02*
X109943650Y-57350000D01*
X109283650Y-57500000D02*
X109733650Y-57650000D01*
X109733650Y-57650000D02*
X109733650Y-57260000D01*
X109313650Y-57020000D02*
X109823650Y-57020000D01*
X109823650Y-57020000D02*
X109883650Y-56990000D01*
X109883650Y-56990000D02*
X109913650Y-56960000D01*
X109913650Y-56960000D02*
X109943650Y-56900000D01*
X109943650Y-56900000D02*
X109943650Y-56780000D01*
X109943650Y-56780000D02*
X109913650Y-56720000D01*
X109913650Y-56720000D02*
X109883650Y-56690000D01*
X109883650Y-56690000D02*
X109823650Y-56660000D01*
X109823650Y-56660000D02*
X109313650Y-56660000D01*
X109943650Y-56060000D02*
X109943650Y-56360000D01*
X109943650Y-56360000D02*
X109313650Y-56360000D01*
X109913650Y-55880000D02*
X109943650Y-55790000D01*
X109943650Y-55790000D02*
X109943650Y-55640000D01*
X109943650Y-55640000D02*
X109913650Y-55580000D01*
X109913650Y-55580000D02*
X109883650Y-55550000D01*
X109883650Y-55550000D02*
X109823650Y-55520000D01*
X109823650Y-55520000D02*
X109763650Y-55520000D01*
X109763650Y-55520000D02*
X109703650Y-55550000D01*
X109703650Y-55550000D02*
X109673650Y-55580000D01*
X109673650Y-55580000D02*
X109643650Y-55640000D01*
X109643650Y-55640000D02*
X109613650Y-55760000D01*
X109613650Y-55760000D02*
X109583650Y-55820000D01*
X109583650Y-55820000D02*
X109553650Y-55850000D01*
X109553650Y-55850000D02*
X109493650Y-55880000D01*
X109493650Y-55880000D02*
X109433650Y-55880000D01*
X109433650Y-55880000D02*
X109373650Y-55850000D01*
X109373650Y-55850000D02*
X109343650Y-55820000D01*
X109343650Y-55820000D02*
X109313650Y-55760000D01*
X109313650Y-55760000D02*
X109313650Y-55610000D01*
X109313650Y-55610000D02*
X109343650Y-55520000D01*
X109313650Y-54950000D02*
X109313650Y-55250000D01*
X109313650Y-55250000D02*
X109613650Y-55280000D01*
X109613650Y-55280000D02*
X109583650Y-55250000D01*
X109583650Y-55250000D02*
X109553650Y-55190000D01*
X109553650Y-55190000D02*
X109553650Y-55040000D01*
X109553650Y-55040000D02*
X109583650Y-54980000D01*
X109583650Y-54980000D02*
X109613650Y-54950000D01*
X109613650Y-54950000D02*
X109673650Y-54920000D01*
X109673650Y-54920000D02*
X109823650Y-54920000D01*
X109823650Y-54920000D02*
X109883650Y-54950000D01*
X109883650Y-54950000D02*
X109913650Y-54980000D01*
X109913650Y-54980000D02*
X109943650Y-55040000D01*
X109943650Y-55040000D02*
X109943650Y-55190000D01*
X109943650Y-55190000D02*
X109913650Y-55250000D01*
X109913650Y-55250000D02*
X109883650Y-55280000D01*
X109313650Y-54740000D02*
X109943650Y-54530000D01*
X109943650Y-54530000D02*
X109313650Y-54320000D01*
X109943650Y-53780000D02*
X109943650Y-54140000D01*
X109943650Y-53960000D02*
X109313650Y-53960000D01*
X109313650Y-53960000D02*
X109403650Y-54020000D01*
X109403650Y-54020000D02*
X109463650Y-54080000D01*
X109463650Y-54080000D02*
X109493650Y-54140000D01*
X109313650Y-53390000D02*
X109313650Y-53330000D01*
X109313650Y-53330000D02*
X109343650Y-53270000D01*
X109343650Y-53270000D02*
X109373650Y-53240000D01*
X109373650Y-53240000D02*
X109433650Y-53210000D01*
X109433650Y-53210000D02*
X109553650Y-53180000D01*
X109553650Y-53180000D02*
X109703650Y-53180000D01*
X109703650Y-53180000D02*
X109823650Y-53210000D01*
X109823650Y-53210000D02*
X109883650Y-53240000D01*
X109883650Y-53240000D02*
X109913650Y-53270000D01*
X109913650Y-53270000D02*
X109943650Y-53330000D01*
X109943650Y-53330000D02*
X109943650Y-53390000D01*
X109943650Y-53390000D02*
X109913650Y-53450000D01*
X109913650Y-53450000D02*
X109883650Y-53480000D01*
X109883650Y-53480000D02*
X109823650Y-53510000D01*
X109823650Y-53510000D02*
X109703650Y-53540000D01*
X109703650Y-53540000D02*
X109553650Y-53540000D01*
X109553650Y-53540000D02*
X109433650Y-53510000D01*
X109433650Y-53510000D02*
X109373650Y-53480000D01*
X109373650Y-53480000D02*
X109343650Y-53450000D01*
X109343650Y-53450000D02*
X109313650Y-53390000D01*
X109583650Y-52820000D02*
X109553650Y-52880000D01*
X109553650Y-52880000D02*
X109523650Y-52910000D01*
X109523650Y-52910000D02*
X109463650Y-52940000D01*
X109463650Y-52940000D02*
X109433650Y-52940000D01*
X109433650Y-52940000D02*
X109373650Y-52910000D01*
X109373650Y-52910000D02*
X109343650Y-52880000D01*
X109343650Y-52880000D02*
X109313650Y-52820000D01*
X109313650Y-52820000D02*
X109313650Y-52700000D01*
X109313650Y-52700000D02*
X109343650Y-52640000D01*
X109343650Y-52640000D02*
X109373650Y-52610000D01*
X109373650Y-52610000D02*
X109433650Y-52580000D01*
X109433650Y-52580000D02*
X109463650Y-52580000D01*
X109463650Y-52580000D02*
X109523650Y-52610000D01*
X109523650Y-52610000D02*
X109553650Y-52640000D01*
X109553650Y-52640000D02*
X109583650Y-52700000D01*
X109583650Y-52700000D02*
X109583650Y-52820000D01*
X109583650Y-52820000D02*
X109613650Y-52880000D01*
X109613650Y-52880000D02*
X109643650Y-52910000D01*
X109643650Y-52910000D02*
X109703650Y-52940000D01*
X109703650Y-52940000D02*
X109823650Y-52940000D01*
X109823650Y-52940000D02*
X109883650Y-52910000D01*
X109883650Y-52910000D02*
X109913650Y-52880000D01*
X109913650Y-52880000D02*
X109943650Y-52820000D01*
X109943650Y-52820000D02*
X109943650Y-52700000D01*
X109943650Y-52700000D02*
X109913650Y-52640000D01*
X109913650Y-52640000D02*
X109883650Y-52610000D01*
X109883650Y-52610000D02*
X109823650Y-52580000D01*
X109823650Y-52580000D02*
X109703650Y-52580000D01*
X109703650Y-52580000D02*
X109643650Y-52610000D01*
X109643650Y-52610000D02*
X109613650Y-52640000D01*
X109613650Y-52640000D02*
X109583650Y-52700000D01*
X102382021Y-55270519D02*
X102115354Y-54889566D01*
X101924878Y-55270519D02*
X101924878Y-54470519D01*
X101924878Y-54470519D02*
X102229640Y-54470519D01*
X102229640Y-54470519D02*
X102305830Y-54508614D01*
X102305830Y-54508614D02*
X102343925Y-54546709D01*
X102343925Y-54546709D02*
X102382021Y-54622900D01*
X102382021Y-54622900D02*
X102382021Y-54737185D01*
X102382021Y-54737185D02*
X102343925Y-54813376D01*
X102343925Y-54813376D02*
X102305830Y-54851471D01*
X102305830Y-54851471D02*
X102229640Y-54889566D01*
X102229640Y-54889566D02*
X101924878Y-54889566D01*
X103143925Y-55270519D02*
X102686782Y-55270519D01*
X102915354Y-55270519D02*
X102915354Y-54470519D01*
X102915354Y-54470519D02*
X102839163Y-54584804D01*
X102839163Y-54584804D02*
X102762973Y-54660995D01*
X102762973Y-54660995D02*
X102686782Y-54699090D01*
X109251458Y-46938556D02*
X109289554Y-46976652D01*
X109289554Y-46976652D02*
X109327649Y-47090937D01*
X109327649Y-47090937D02*
X109327649Y-47167128D01*
X109327649Y-47167128D02*
X109289554Y-47281414D01*
X109289554Y-47281414D02*
X109213363Y-47357604D01*
X109213363Y-47357604D02*
X109137173Y-47395699D01*
X109137173Y-47395699D02*
X108984792Y-47433795D01*
X108984792Y-47433795D02*
X108870506Y-47433795D01*
X108870506Y-47433795D02*
X108718125Y-47395699D01*
X108718125Y-47395699D02*
X108641934Y-47357604D01*
X108641934Y-47357604D02*
X108565744Y-47281414D01*
X108565744Y-47281414D02*
X108527649Y-47167128D01*
X108527649Y-47167128D02*
X108527649Y-47090937D01*
X108527649Y-47090937D02*
X108565744Y-46976652D01*
X108565744Y-46976652D02*
X108603839Y-46938556D01*
X108527649Y-46252842D02*
X108527649Y-46405223D01*
X108527649Y-46405223D02*
X108565744Y-46481414D01*
X108565744Y-46481414D02*
X108603839Y-46519509D01*
X108603839Y-46519509D02*
X108718125Y-46595699D01*
X108718125Y-46595699D02*
X108870506Y-46633795D01*
X108870506Y-46633795D02*
X109175268Y-46633795D01*
X109175268Y-46633795D02*
X109251458Y-46595699D01*
X109251458Y-46595699D02*
X109289554Y-46557604D01*
X109289554Y-46557604D02*
X109327649Y-46481414D01*
X109327649Y-46481414D02*
X109327649Y-46329033D01*
X109327649Y-46329033D02*
X109289554Y-46252842D01*
X109289554Y-46252842D02*
X109251458Y-46214747D01*
X109251458Y-46214747D02*
X109175268Y-46176652D01*
X109175268Y-46176652D02*
X108984792Y-46176652D01*
X108984792Y-46176652D02*
X108908601Y-46214747D01*
X108908601Y-46214747D02*
X108870506Y-46252842D01*
X108870506Y-46252842D02*
X108832411Y-46329033D01*
X108832411Y-46329033D02*
X108832411Y-46481414D01*
X108832411Y-46481414D02*
X108870506Y-46557604D01*
X108870506Y-46557604D02*
X108908601Y-46595699D01*
X108908601Y-46595699D02*
X108984792Y-46633795D01*
X108017021Y-75508328D02*
X107978925Y-75546424D01*
X107978925Y-75546424D02*
X107864640Y-75584519D01*
X107864640Y-75584519D02*
X107788449Y-75584519D01*
X107788449Y-75584519D02*
X107674163Y-75546424D01*
X107674163Y-75546424D02*
X107597973Y-75470233D01*
X107597973Y-75470233D02*
X107559878Y-75394043D01*
X107559878Y-75394043D02*
X107521782Y-75241662D01*
X107521782Y-75241662D02*
X107521782Y-75127376D01*
X107521782Y-75127376D02*
X107559878Y-74974995D01*
X107559878Y-74974995D02*
X107597973Y-74898804D01*
X107597973Y-74898804D02*
X107674163Y-74822614D01*
X107674163Y-74822614D02*
X107788449Y-74784519D01*
X107788449Y-74784519D02*
X107864640Y-74784519D01*
X107864640Y-74784519D02*
X107978925Y-74822614D01*
X107978925Y-74822614D02*
X108017021Y-74860709D01*
X108474163Y-75127376D02*
X108397973Y-75089281D01*
X108397973Y-75089281D02*
X108359878Y-75051185D01*
X108359878Y-75051185D02*
X108321782Y-74974995D01*
X108321782Y-74974995D02*
X108321782Y-74936900D01*
X108321782Y-74936900D02*
X108359878Y-74860709D01*
X108359878Y-74860709D02*
X108397973Y-74822614D01*
X108397973Y-74822614D02*
X108474163Y-74784519D01*
X108474163Y-74784519D02*
X108626544Y-74784519D01*
X108626544Y-74784519D02*
X108702735Y-74822614D01*
X108702735Y-74822614D02*
X108740830Y-74860709D01*
X108740830Y-74860709D02*
X108778925Y-74936900D01*
X108778925Y-74936900D02*
X108778925Y-74974995D01*
X108778925Y-74974995D02*
X108740830Y-75051185D01*
X108740830Y-75051185D02*
X108702735Y-75089281D01*
X108702735Y-75089281D02*
X108626544Y-75127376D01*
X108626544Y-75127376D02*
X108474163Y-75127376D01*
X108474163Y-75127376D02*
X108397973Y-75165471D01*
X108397973Y-75165471D02*
X108359878Y-75203566D01*
X108359878Y-75203566D02*
X108321782Y-75279757D01*
X108321782Y-75279757D02*
X108321782Y-75432138D01*
X108321782Y-75432138D02*
X108359878Y-75508328D01*
X108359878Y-75508328D02*
X108397973Y-75546424D01*
X108397973Y-75546424D02*
X108474163Y-75584519D01*
X108474163Y-75584519D02*
X108626544Y-75584519D01*
X108626544Y-75584519D02*
X108702735Y-75546424D01*
X108702735Y-75546424D02*
X108740830Y-75508328D01*
X108740830Y-75508328D02*
X108778925Y-75432138D01*
X108778925Y-75432138D02*
X108778925Y-75279757D01*
X108778925Y-75279757D02*
X108740830Y-75203566D01*
X108740830Y-75203566D02*
X108702735Y-75165471D01*
X108702735Y-75165471D02*
X108626544Y-75127376D01*
X99581068Y-75901328D02*
X99542972Y-75939424D01*
X99542972Y-75939424D02*
X99428687Y-75977519D01*
X99428687Y-75977519D02*
X99352496Y-75977519D01*
X99352496Y-75977519D02*
X99238210Y-75939424D01*
X99238210Y-75939424D02*
X99162020Y-75863233D01*
X99162020Y-75863233D02*
X99123925Y-75787043D01*
X99123925Y-75787043D02*
X99085829Y-75634662D01*
X99085829Y-75634662D02*
X99085829Y-75520376D01*
X99085829Y-75520376D02*
X99123925Y-75367995D01*
X99123925Y-75367995D02*
X99162020Y-75291804D01*
X99162020Y-75291804D02*
X99238210Y-75215614D01*
X99238210Y-75215614D02*
X99352496Y-75177519D01*
X99352496Y-75177519D02*
X99428687Y-75177519D01*
X99428687Y-75177519D02*
X99542972Y-75215614D01*
X99542972Y-75215614D02*
X99581068Y-75253709D01*
X100342972Y-75977519D02*
X99885829Y-75977519D01*
X100114401Y-75977519D02*
X100114401Y-75177519D01*
X100114401Y-75177519D02*
X100038210Y-75291804D01*
X100038210Y-75291804D02*
X99962020Y-75367995D01*
X99962020Y-75367995D02*
X99885829Y-75406090D01*
X100838211Y-75177519D02*
X100914401Y-75177519D01*
X100914401Y-75177519D02*
X100990592Y-75215614D01*
X100990592Y-75215614D02*
X101028687Y-75253709D01*
X101028687Y-75253709D02*
X101066782Y-75329900D01*
X101066782Y-75329900D02*
X101104877Y-75482281D01*
X101104877Y-75482281D02*
X101104877Y-75672757D01*
X101104877Y-75672757D02*
X101066782Y-75825138D01*
X101066782Y-75825138D02*
X101028687Y-75901328D01*
X101028687Y-75901328D02*
X100990592Y-75939424D01*
X100990592Y-75939424D02*
X100914401Y-75977519D01*
X100914401Y-75977519D02*
X100838211Y-75977519D01*
X100838211Y-75977519D02*
X100762020Y-75939424D01*
X100762020Y-75939424D02*
X100723925Y-75901328D01*
X100723925Y-75901328D02*
X100685830Y-75825138D01*
X100685830Y-75825138D02*
X100647734Y-75672757D01*
X100647734Y-75672757D02*
X100647734Y-75482281D01*
X100647734Y-75482281D02*
X100685830Y-75329900D01*
X100685830Y-75329900D02*
X100723925Y-75253709D01*
X100723925Y-75253709D02*
X100762020Y-75215614D01*
X100762020Y-75215614D02*
X100838211Y-75177519D01*
X108017021Y-77032328D02*
X107978925Y-77070424D01*
X107978925Y-77070424D02*
X107864640Y-77108519D01*
X107864640Y-77108519D02*
X107788449Y-77108519D01*
X107788449Y-77108519D02*
X107674163Y-77070424D01*
X107674163Y-77070424D02*
X107597973Y-76994233D01*
X107597973Y-76994233D02*
X107559878Y-76918043D01*
X107559878Y-76918043D02*
X107521782Y-76765662D01*
X107521782Y-76765662D02*
X107521782Y-76651376D01*
X107521782Y-76651376D02*
X107559878Y-76498995D01*
X107559878Y-76498995D02*
X107597973Y-76422804D01*
X107597973Y-76422804D02*
X107674163Y-76346614D01*
X107674163Y-76346614D02*
X107788449Y-76308519D01*
X107788449Y-76308519D02*
X107864640Y-76308519D01*
X107864640Y-76308519D02*
X107978925Y-76346614D01*
X107978925Y-76346614D02*
X108017021Y-76384709D01*
X108283687Y-76308519D02*
X108817021Y-76308519D01*
X108817021Y-76308519D02*
X108474163Y-77108519D01*
X99962021Y-74351328D02*
X99923925Y-74389424D01*
X99923925Y-74389424D02*
X99809640Y-74427519D01*
X99809640Y-74427519D02*
X99733449Y-74427519D01*
X99733449Y-74427519D02*
X99619163Y-74389424D01*
X99619163Y-74389424D02*
X99542973Y-74313233D01*
X99542973Y-74313233D02*
X99504878Y-74237043D01*
X99504878Y-74237043D02*
X99466782Y-74084662D01*
X99466782Y-74084662D02*
X99466782Y-73970376D01*
X99466782Y-73970376D02*
X99504878Y-73817995D01*
X99504878Y-73817995D02*
X99542973Y-73741804D01*
X99542973Y-73741804D02*
X99619163Y-73665614D01*
X99619163Y-73665614D02*
X99733449Y-73627519D01*
X99733449Y-73627519D02*
X99809640Y-73627519D01*
X99809640Y-73627519D02*
X99923925Y-73665614D01*
X99923925Y-73665614D02*
X99962021Y-73703709D01*
X100342973Y-74427519D02*
X100495354Y-74427519D01*
X100495354Y-74427519D02*
X100571544Y-74389424D01*
X100571544Y-74389424D02*
X100609640Y-74351328D01*
X100609640Y-74351328D02*
X100685830Y-74237043D01*
X100685830Y-74237043D02*
X100723925Y-74084662D01*
X100723925Y-74084662D02*
X100723925Y-73779900D01*
X100723925Y-73779900D02*
X100685830Y-73703709D01*
X100685830Y-73703709D02*
X100647735Y-73665614D01*
X100647735Y-73665614D02*
X100571544Y-73627519D01*
X100571544Y-73627519D02*
X100419163Y-73627519D01*
X100419163Y-73627519D02*
X100342973Y-73665614D01*
X100342973Y-73665614D02*
X100304878Y-73703709D01*
X100304878Y-73703709D02*
X100266782Y-73779900D01*
X100266782Y-73779900D02*
X100266782Y-73970376D01*
X100266782Y-73970376D02*
X100304878Y-74046566D01*
X100304878Y-74046566D02*
X100342973Y-74084662D01*
X100342973Y-74084662D02*
X100419163Y-74122757D01*
X100419163Y-74122757D02*
X100571544Y-74122757D01*
X100571544Y-74122757D02*
X100647735Y-74084662D01*
X100647735Y-74084662D02*
X100685830Y-74046566D01*
X100685830Y-74046566D02*
X100723925Y-73970376D01*
X113868601Y-48990390D02*
X113868601Y-49257056D01*
X114287649Y-49257056D02*
X113487649Y-49257056D01*
X113487649Y-49257056D02*
X113487649Y-48876104D01*
X113868601Y-48304676D02*
X113906696Y-48190390D01*
X113906696Y-48190390D02*
X113944792Y-48152295D01*
X113944792Y-48152295D02*
X114020982Y-48114199D01*
X114020982Y-48114199D02*
X114135268Y-48114199D01*
X114135268Y-48114199D02*
X114211458Y-48152295D01*
X114211458Y-48152295D02*
X114249554Y-48190390D01*
X114249554Y-48190390D02*
X114287649Y-48266580D01*
X114287649Y-48266580D02*
X114287649Y-48571342D01*
X114287649Y-48571342D02*
X113487649Y-48571342D01*
X113487649Y-48571342D02*
X113487649Y-48304676D01*
X113487649Y-48304676D02*
X113525744Y-48228485D01*
X113525744Y-48228485D02*
X113563839Y-48190390D01*
X113563839Y-48190390D02*
X113640030Y-48152295D01*
X113640030Y-48152295D02*
X113716220Y-48152295D01*
X113716220Y-48152295D02*
X113792411Y-48190390D01*
X113792411Y-48190390D02*
X113830506Y-48228485D01*
X113830506Y-48228485D02*
X113868601Y-48304676D01*
X113868601Y-48304676D02*
X113868601Y-48571342D01*
X114287649Y-47352295D02*
X114287649Y-47809438D01*
X114287649Y-47580866D02*
X113487649Y-47580866D01*
X113487649Y-47580866D02*
X113601934Y-47657057D01*
X113601934Y-47657057D02*
X113678125Y-47733247D01*
X113678125Y-47733247D02*
X113716220Y-47809438D01*
X136454819Y-74865714D02*
X135454819Y-74865714D01*
X136454819Y-74294286D02*
X135883390Y-74722857D01*
X135454819Y-74294286D02*
X136026247Y-74865714D01*
X136407200Y-73484762D02*
X136454819Y-73580000D01*
X136454819Y-73580000D02*
X136454819Y-73770476D01*
X136454819Y-73770476D02*
X136407200Y-73865714D01*
X136407200Y-73865714D02*
X136311961Y-73913333D01*
X136311961Y-73913333D02*
X135931009Y-73913333D01*
X135931009Y-73913333D02*
X135835771Y-73865714D01*
X135835771Y-73865714D02*
X135788152Y-73770476D01*
X135788152Y-73770476D02*
X135788152Y-73580000D01*
X135788152Y-73580000D02*
X135835771Y-73484762D01*
X135835771Y-73484762D02*
X135931009Y-73437143D01*
X135931009Y-73437143D02*
X136026247Y-73437143D01*
X136026247Y-73437143D02*
X136121485Y-73913333D01*
X135788152Y-73103809D02*
X136454819Y-72865714D01*
X135788152Y-72627619D02*
X136454819Y-72865714D01*
X136454819Y-72865714D02*
X136692914Y-72960952D01*
X136692914Y-72960952D02*
X136740533Y-73008571D01*
X136740533Y-73008571D02*
X136788152Y-73103809D01*
X136454819Y-72246666D02*
X135454819Y-72246666D01*
X135835771Y-72246666D02*
X135788152Y-72151428D01*
X135788152Y-72151428D02*
X135788152Y-71960952D01*
X135788152Y-71960952D02*
X135835771Y-71865714D01*
X135835771Y-71865714D02*
X135883390Y-71818095D01*
X135883390Y-71818095D02*
X135978628Y-71770476D01*
X135978628Y-71770476D02*
X136264342Y-71770476D01*
X136264342Y-71770476D02*
X136359580Y-71818095D01*
X136359580Y-71818095D02*
X136407200Y-71865714D01*
X136407200Y-71865714D02*
X136454819Y-71960952D01*
X136454819Y-71960952D02*
X136454819Y-72151428D01*
X136454819Y-72151428D02*
X136407200Y-72246666D01*
X136454819Y-71199047D02*
X136407200Y-71294285D01*
X136407200Y-71294285D02*
X136359580Y-71341904D01*
X136359580Y-71341904D02*
X136264342Y-71389523D01*
X136264342Y-71389523D02*
X135978628Y-71389523D01*
X135978628Y-71389523D02*
X135883390Y-71341904D01*
X135883390Y-71341904D02*
X135835771Y-71294285D01*
X135835771Y-71294285D02*
X135788152Y-71199047D01*
X135788152Y-71199047D02*
X135788152Y-71056190D01*
X135788152Y-71056190D02*
X135835771Y-70960952D01*
X135835771Y-70960952D02*
X135883390Y-70913333D01*
X135883390Y-70913333D02*
X135978628Y-70865714D01*
X135978628Y-70865714D02*
X136264342Y-70865714D01*
X136264342Y-70865714D02*
X136359580Y-70913333D01*
X136359580Y-70913333D02*
X136407200Y-70960952D01*
X136407200Y-70960952D02*
X136454819Y-71056190D01*
X136454819Y-71056190D02*
X136454819Y-71199047D01*
X136454819Y-70008571D02*
X135931009Y-70008571D01*
X135931009Y-70008571D02*
X135835771Y-70056190D01*
X135835771Y-70056190D02*
X135788152Y-70151428D01*
X135788152Y-70151428D02*
X135788152Y-70341904D01*
X135788152Y-70341904D02*
X135835771Y-70437142D01*
X136407200Y-70008571D02*
X136454819Y-70103809D01*
X136454819Y-70103809D02*
X136454819Y-70341904D01*
X136454819Y-70341904D02*
X136407200Y-70437142D01*
X136407200Y-70437142D02*
X136311961Y-70484761D01*
X136311961Y-70484761D02*
X136216723Y-70484761D01*
X136216723Y-70484761D02*
X136121485Y-70437142D01*
X136121485Y-70437142D02*
X136073866Y-70341904D01*
X136073866Y-70341904D02*
X136073866Y-70103809D01*
X136073866Y-70103809D02*
X136026247Y-70008571D01*
X136454819Y-69532380D02*
X135788152Y-69532380D01*
X135978628Y-69532380D02*
X135883390Y-69484761D01*
X135883390Y-69484761D02*
X135835771Y-69437142D01*
X135835771Y-69437142D02*
X135788152Y-69341904D01*
X135788152Y-69341904D02*
X135788152Y-69246666D01*
X136454819Y-68484761D02*
X135454819Y-68484761D01*
X136407200Y-68484761D02*
X136454819Y-68579999D01*
X136454819Y-68579999D02*
X136454819Y-68770475D01*
X136454819Y-68770475D02*
X136407200Y-68865713D01*
X136407200Y-68865713D02*
X136359580Y-68913332D01*
X136359580Y-68913332D02*
X136264342Y-68960951D01*
X136264342Y-68960951D02*
X135978628Y-68960951D01*
X135978628Y-68960951D02*
X135883390Y-68913332D01*
X135883390Y-68913332D02*
X135835771Y-68865713D01*
X135835771Y-68865713D02*
X135788152Y-68770475D01*
X135788152Y-68770475D02*
X135788152Y-68579999D01*
X135788152Y-68579999D02*
X135835771Y-68484761D01*
X135407200Y-66532380D02*
X136692914Y-67389522D01*
X136454819Y-65437141D02*
X135454819Y-65437141D01*
X135454819Y-65437141D02*
X136169104Y-65103808D01*
X136169104Y-65103808D02*
X135454819Y-64770475D01*
X135454819Y-64770475D02*
X136454819Y-64770475D01*
X136454819Y-64151427D02*
X136407200Y-64246665D01*
X136407200Y-64246665D02*
X136359580Y-64294284D01*
X136359580Y-64294284D02*
X136264342Y-64341903D01*
X136264342Y-64341903D02*
X135978628Y-64341903D01*
X135978628Y-64341903D02*
X135883390Y-64294284D01*
X135883390Y-64294284D02*
X135835771Y-64246665D01*
X135835771Y-64246665D02*
X135788152Y-64151427D01*
X135788152Y-64151427D02*
X135788152Y-64008570D01*
X135788152Y-64008570D02*
X135835771Y-63913332D01*
X135835771Y-63913332D02*
X135883390Y-63865713D01*
X135883390Y-63865713D02*
X135978628Y-63818094D01*
X135978628Y-63818094D02*
X136264342Y-63818094D01*
X136264342Y-63818094D02*
X136359580Y-63865713D01*
X136359580Y-63865713D02*
X136407200Y-63913332D01*
X136407200Y-63913332D02*
X136454819Y-64008570D01*
X136454819Y-64008570D02*
X136454819Y-64151427D01*
X135788152Y-62960951D02*
X136454819Y-62960951D01*
X135788152Y-63389522D02*
X136311961Y-63389522D01*
X136311961Y-63389522D02*
X136407200Y-63341903D01*
X136407200Y-63341903D02*
X136454819Y-63246665D01*
X136454819Y-63246665D02*
X136454819Y-63103808D01*
X136454819Y-63103808D02*
X136407200Y-63008570D01*
X136407200Y-63008570D02*
X136359580Y-62960951D01*
X136407200Y-62532379D02*
X136454819Y-62437141D01*
X136454819Y-62437141D02*
X136454819Y-62246665D01*
X136454819Y-62246665D02*
X136407200Y-62151427D01*
X136407200Y-62151427D02*
X136311961Y-62103808D01*
X136311961Y-62103808D02*
X136264342Y-62103808D01*
X136264342Y-62103808D02*
X136169104Y-62151427D01*
X136169104Y-62151427D02*
X136121485Y-62246665D01*
X136121485Y-62246665D02*
X136121485Y-62389522D01*
X136121485Y-62389522D02*
X136073866Y-62484760D01*
X136073866Y-62484760D02*
X135978628Y-62532379D01*
X135978628Y-62532379D02*
X135931009Y-62532379D01*
X135931009Y-62532379D02*
X135835771Y-62484760D01*
X135835771Y-62484760D02*
X135788152Y-62389522D01*
X135788152Y-62389522D02*
X135788152Y-62246665D01*
X135788152Y-62246665D02*
X135835771Y-62151427D01*
X136407200Y-61294284D02*
X136454819Y-61389522D01*
X136454819Y-61389522D02*
X136454819Y-61579998D01*
X136454819Y-61579998D02*
X136407200Y-61675236D01*
X136407200Y-61675236D02*
X136311961Y-61722855D01*
X136311961Y-61722855D02*
X135931009Y-61722855D01*
X135931009Y-61722855D02*
X135835771Y-61675236D01*
X135835771Y-61675236D02*
X135788152Y-61579998D01*
X135788152Y-61579998D02*
X135788152Y-61389522D01*
X135788152Y-61389522D02*
X135835771Y-61294284D01*
X135835771Y-61294284D02*
X135931009Y-61246665D01*
X135931009Y-61246665D02*
X136026247Y-61246665D01*
X136026247Y-61246665D02*
X136121485Y-61722855D01*
X104720173Y-61724271D02*
X104720173Y-62200461D01*
X104720173Y-62200461D02*
X103720173Y-62200461D01*
X104196363Y-61390937D02*
X104196363Y-61057604D01*
X104720173Y-60914747D02*
X104720173Y-61390937D01*
X104720173Y-61390937D02*
X103720173Y-61390937D01*
X103720173Y-61390937D02*
X103720173Y-60914747D01*
X104720173Y-60486175D02*
X103720173Y-60486175D01*
X103720173Y-60486175D02*
X103720173Y-60248080D01*
X103720173Y-60248080D02*
X103767792Y-60105223D01*
X103767792Y-60105223D02*
X103863030Y-60009985D01*
X103863030Y-60009985D02*
X103958268Y-59962366D01*
X103958268Y-59962366D02*
X104148744Y-59914747D01*
X104148744Y-59914747D02*
X104291601Y-59914747D01*
X104291601Y-59914747D02*
X104482077Y-59962366D01*
X104482077Y-59962366D02*
X104577315Y-60009985D01*
X104577315Y-60009985D02*
X104672554Y-60105223D01*
X104672554Y-60105223D02*
X104720173Y-60248080D01*
X104720173Y-60248080D02*
X104720173Y-60486175D01*
X104720173Y-58962366D02*
X104720173Y-59533794D01*
X104720173Y-59248080D02*
X103720173Y-59248080D01*
X103720173Y-59248080D02*
X103863030Y-59343318D01*
X103863030Y-59343318D02*
X103958268Y-59438556D01*
X103958268Y-59438556D02*
X104005887Y-59533794D01*
D14*
X136574318Y-50790714D02*
X135304318Y-50790714D01*
X135304318Y-50790714D02*
X136211461Y-50367380D01*
X136211461Y-50367380D02*
X135304318Y-49944047D01*
X135304318Y-49944047D02*
X136574318Y-49944047D01*
X136574318Y-49157856D02*
X136513842Y-49278808D01*
X136513842Y-49278808D02*
X136453365Y-49339285D01*
X136453365Y-49339285D02*
X136332413Y-49399761D01*
X136332413Y-49399761D02*
X135969556Y-49399761D01*
X135969556Y-49399761D02*
X135848603Y-49339285D01*
X135848603Y-49339285D02*
X135788127Y-49278808D01*
X135788127Y-49278808D02*
X135727651Y-49157856D01*
X135727651Y-49157856D02*
X135727651Y-48976427D01*
X135727651Y-48976427D02*
X135788127Y-48855475D01*
X135788127Y-48855475D02*
X135848603Y-48794999D01*
X135848603Y-48794999D02*
X135969556Y-48734523D01*
X135969556Y-48734523D02*
X136332413Y-48734523D01*
X136332413Y-48734523D02*
X136453365Y-48794999D01*
X136453365Y-48794999D02*
X136513842Y-48855475D01*
X136513842Y-48855475D02*
X136574318Y-48976427D01*
X136574318Y-48976427D02*
X136574318Y-49157856D01*
X135727651Y-47645951D02*
X136574318Y-47645951D01*
X135727651Y-48190237D02*
X136392889Y-48190237D01*
X136392889Y-48190237D02*
X136513842Y-48129760D01*
X136513842Y-48129760D02*
X136574318Y-48008808D01*
X136574318Y-48008808D02*
X136574318Y-47827379D01*
X136574318Y-47827379D02*
X136513842Y-47706427D01*
X136513842Y-47706427D02*
X136453365Y-47645951D01*
X136513842Y-47101665D02*
X136574318Y-46980712D01*
X136574318Y-46980712D02*
X136574318Y-46738808D01*
X136574318Y-46738808D02*
X136513842Y-46617855D01*
X136513842Y-46617855D02*
X136392889Y-46557379D01*
X136392889Y-46557379D02*
X136332413Y-46557379D01*
X136332413Y-46557379D02*
X136211461Y-46617855D01*
X136211461Y-46617855D02*
X136150984Y-46738808D01*
X136150984Y-46738808D02*
X136150984Y-46920236D01*
X136150984Y-46920236D02*
X136090508Y-47041189D01*
X136090508Y-47041189D02*
X135969556Y-47101665D01*
X135969556Y-47101665D02*
X135909080Y-47101665D01*
X135909080Y-47101665D02*
X135788127Y-47041189D01*
X135788127Y-47041189D02*
X135727651Y-46920236D01*
X135727651Y-46920236D02*
X135727651Y-46738808D01*
X135727651Y-46738808D02*
X135788127Y-46617855D01*
X136513842Y-45529284D02*
X136574318Y-45650236D01*
X136574318Y-45650236D02*
X136574318Y-45892141D01*
X136574318Y-45892141D02*
X136513842Y-46013094D01*
X136513842Y-46013094D02*
X136392889Y-46073570D01*
X136392889Y-46073570D02*
X135909080Y-46073570D01*
X135909080Y-46073570D02*
X135788127Y-46013094D01*
X135788127Y-46013094D02*
X135727651Y-45892141D01*
X135727651Y-45892141D02*
X135727651Y-45650236D01*
X135727651Y-45650236D02*
X135788127Y-45529284D01*
X135788127Y-45529284D02*
X135909080Y-45468808D01*
X135909080Y-45468808D02*
X136030032Y-45468808D01*
X136030032Y-45468808D02*
X136150984Y-46073570D01*
D10*
X110927649Y-48318556D02*
X110546696Y-48585223D01*
X110927649Y-48775699D02*
X110127649Y-48775699D01*
X110127649Y-48775699D02*
X110127649Y-48470937D01*
X110127649Y-48470937D02*
X110165744Y-48394747D01*
X110165744Y-48394747D02*
X110203839Y-48356652D01*
X110203839Y-48356652D02*
X110280030Y-48318556D01*
X110280030Y-48318556D02*
X110394315Y-48318556D01*
X110394315Y-48318556D02*
X110470506Y-48356652D01*
X110470506Y-48356652D02*
X110508601Y-48394747D01*
X110508601Y-48394747D02*
X110546696Y-48470937D01*
X110546696Y-48470937D02*
X110546696Y-48775699D01*
X110127649Y-48051890D02*
X110127649Y-47556652D01*
X110127649Y-47556652D02*
X110432411Y-47823318D01*
X110432411Y-47823318D02*
X110432411Y-47709033D01*
X110432411Y-47709033D02*
X110470506Y-47632842D01*
X110470506Y-47632842D02*
X110508601Y-47594747D01*
X110508601Y-47594747D02*
X110584792Y-47556652D01*
X110584792Y-47556652D02*
X110775268Y-47556652D01*
X110775268Y-47556652D02*
X110851458Y-47594747D01*
X110851458Y-47594747D02*
X110889554Y-47632842D01*
X110889554Y-47632842D02*
X110927649Y-47709033D01*
X110927649Y-47709033D02*
X110927649Y-47937604D01*
X110927649Y-47937604D02*
X110889554Y-48013795D01*
X110889554Y-48013795D02*
X110851458Y-48051890D01*
X104720173Y-71254271D02*
X104720173Y-71730461D01*
X104720173Y-71730461D02*
X103720173Y-71730461D01*
X104196363Y-70920937D02*
X104196363Y-70587604D01*
X104720173Y-70444747D02*
X104720173Y-70920937D01*
X104720173Y-70920937D02*
X103720173Y-70920937D01*
X103720173Y-70920937D02*
X103720173Y-70444747D01*
X104720173Y-70016175D02*
X103720173Y-70016175D01*
X103720173Y-70016175D02*
X103720173Y-69778080D01*
X103720173Y-69778080D02*
X103767792Y-69635223D01*
X103767792Y-69635223D02*
X103863030Y-69539985D01*
X103863030Y-69539985D02*
X103958268Y-69492366D01*
X103958268Y-69492366D02*
X104148744Y-69444747D01*
X104148744Y-69444747D02*
X104291601Y-69444747D01*
X104291601Y-69444747D02*
X104482077Y-69492366D01*
X104482077Y-69492366D02*
X104577315Y-69539985D01*
X104577315Y-69539985D02*
X104672554Y-69635223D01*
X104672554Y-69635223D02*
X104720173Y-69778080D01*
X104720173Y-69778080D02*
X104720173Y-70016175D01*
X103815411Y-69063794D02*
X103767792Y-69016175D01*
X103767792Y-69016175D02*
X103720173Y-68920937D01*
X103720173Y-68920937D02*
X103720173Y-68682842D01*
X103720173Y-68682842D02*
X103767792Y-68587604D01*
X103767792Y-68587604D02*
X103815411Y-68539985D01*
X103815411Y-68539985D02*
X103910649Y-68492366D01*
X103910649Y-68492366D02*
X104005887Y-68492366D01*
X104005887Y-68492366D02*
X104148744Y-68539985D01*
X104148744Y-68539985D02*
X104720173Y-69111413D01*
X104720173Y-69111413D02*
X104720173Y-68492366D01*
D15*
X121285934Y-42615224D02*
X121004774Y-42615224D01*
X121285934Y-41595224D02*
X121004774Y-41595224D01*
X120596354Y-43247224D02*
X120596354Y-73847224D01*
X120596354Y-43247224D02*
X123256354Y-43247224D01*
X120596354Y-73847224D02*
X123256354Y-73847224D01*
X121926354Y-43247224D02*
X123256354Y-43247224D01*
X123256354Y-43247224D02*
X123256354Y-45847224D01*
X123256354Y-45847224D02*
X123256354Y-73847224D01*
X114755934Y-73724724D02*
X114474774Y-73724724D01*
X114755934Y-72704724D02*
X114474774Y-72704724D01*
X115245934Y-62867224D02*
X114964774Y-62867224D01*
X115245934Y-61847224D02*
X114964774Y-61847224D01*
X103190354Y-53654224D02*
X101860354Y-53654224D01*
X103190354Y-52324224D02*
X103190354Y-53654224D01*
X103190354Y-51054224D02*
X103190354Y-45914224D01*
X103190354Y-51054224D02*
X100530354Y-51054224D01*
X103190354Y-45914224D02*
X100530354Y-45914224D01*
X100530354Y-51054224D02*
X100530354Y-45914224D01*
X105356354Y-45847224D02*
X105356354Y-73847224D01*
X105356354Y-45847224D02*
X108016354Y-45847224D01*
X105356354Y-73847224D02*
X108016354Y-73847224D01*
X106686354Y-43247224D02*
X108016354Y-43247224D01*
X108016354Y-43247224D02*
X108016354Y-44577224D01*
X108016354Y-45847224D02*
X108016354Y-73847224D01*
D16*
X110400354Y-71492224D02*
X110400354Y-70217224D01*
X110400354Y-69817224D02*
X110400354Y-65817224D01*
X118500354Y-69817224D02*
X110400354Y-69817224D01*
X110400354Y-65817224D02*
X118500354Y-65817224D01*
X118500354Y-65817224D02*
X118500354Y-69817224D01*
D15*
X112974854Y-45452644D02*
X112974854Y-45733804D01*
X111954854Y-45452644D02*
X111954854Y-45733804D01*
X118787354Y-44244224D02*
X118787354Y-44744224D01*
X119037354Y-44494224D02*
X118537354Y-44494224D01*
X118422917Y-44984224D02*
X118287354Y-44984224D01*
X118422917Y-44984224D02*
X119487354Y-46048661D01*
X116031791Y-44984224D02*
X116167354Y-44984224D01*
X116031791Y-44984224D02*
X114967354Y-46048661D01*
X119487354Y-46048661D02*
X119487354Y-49504224D01*
X114967354Y-46048661D02*
X114967354Y-49504224D01*
X119487354Y-49504224D02*
X118287354Y-49504224D01*
X114967354Y-49504224D02*
X116167354Y-49504224D01*
X102752612Y-66347724D02*
X102278096Y-66347724D01*
X102752612Y-65302724D02*
X102278096Y-65302724D01*
D16*
X111541354Y-57037224D02*
X111541354Y-58337224D01*
X111541354Y-56637224D02*
X111541354Y-52837224D01*
X118326354Y-56637224D02*
X111541354Y-56637224D01*
X118326354Y-56637224D02*
X118326354Y-52837224D01*
X111541354Y-52837224D02*
X118326354Y-52837224D01*
D15*
X102752612Y-56827724D02*
X102278096Y-56827724D01*
X102752612Y-55782724D02*
X102278096Y-55782724D01*
X98770000Y-38422224D02*
X98770000Y-77742224D01*
X86410000Y-38422224D02*
X98770000Y-38422224D01*
X86410000Y-38422224D02*
X86410000Y-77742224D01*
X98526506Y-48137224D02*
X98526506Y-48637224D01*
X98093493Y-48387224D02*
X98526506Y-48137224D01*
X98526506Y-48637224D02*
X98093493Y-48387224D01*
X98770000Y-77742224D02*
X86410000Y-77742224D01*
X109495354Y-49344644D02*
X109495354Y-49625804D01*
X108475354Y-49344644D02*
X108475354Y-49625804D01*
X110830934Y-75605224D02*
X110549774Y-75605224D01*
X110830934Y-74585224D02*
X110549774Y-74585224D01*
X103414774Y-75095224D02*
X103695934Y-75095224D01*
X103414774Y-76115224D02*
X103695934Y-76115224D01*
X110830934Y-77129224D02*
X110549774Y-77129224D01*
X110830934Y-76109224D02*
X110549774Y-76109224D01*
X103695934Y-74585224D02*
X103414774Y-74585224D01*
X103695934Y-73565224D02*
X103414774Y-73565224D01*
X118195354Y-43101224D02*
X117745354Y-43101224D01*
X118195354Y-41251224D02*
X118195354Y-43101224D01*
X118195354Y-38701224D02*
X118195354Y-38951224D01*
X115995354Y-43651224D02*
X115995354Y-43201224D01*
X115995354Y-43651224D02*
X115545354Y-43651224D01*
X110395354Y-43101224D02*
X110845354Y-43101224D01*
X110395354Y-41251224D02*
X110395354Y-43101224D01*
X110395354Y-38701224D02*
X110395354Y-38951224D01*
X113478854Y-45756003D02*
X113478854Y-45430445D01*
X114498854Y-45756003D02*
X114498854Y-45430445D01*
X119085354Y-40135224D02*
X119085354Y-39535224D01*
X119785354Y-38835224D02*
X121185354Y-38835224D01*
X121185354Y-40835224D02*
X119785354Y-40835224D01*
X121885354Y-39535224D02*
X121885354Y-40135224D01*
X119785354Y-38835224D02*
G75*
G03*
X119085354Y-39535224I-1J-699999D01*
G01*
X119085354Y-40135224D02*
G75*
G03*
X119785354Y-40835224I699999J-1D01*
G01*
X121885354Y-39535224D02*
G75*
G03*
X121185354Y-38835224I-700000J0D01*
G01*
X121185354Y-40835224D02*
G75*
G03*
X121885354Y-40135224I0J700000D01*
G01*
X100715354Y-40875224D02*
X100715354Y-39545224D01*
X102045354Y-40875224D02*
X100715354Y-40875224D01*
X103315354Y-40875224D02*
X108455354Y-40875224D01*
X103315354Y-40875224D02*
X103315354Y-38215224D01*
X108455354Y-40875224D02*
X108455354Y-38215224D01*
X103315354Y-38215224D02*
X108455354Y-38215224D01*
D17*
X137660000Y-61080000D02*
X137660000Y-75080000D01*
X134660000Y-61080000D02*
X137660000Y-61080000D01*
X129660000Y-61080000D02*
X124760000Y-61080000D01*
X124760000Y-61080000D02*
X124760000Y-75080000D01*
X137660000Y-75080000D02*
X134660000Y-75080000D01*
X124760000Y-75080000D02*
X129160000Y-75080000D01*
D15*
X103190354Y-63189224D02*
X101860354Y-63189224D01*
X103190354Y-61859224D02*
X103190354Y-63189224D01*
X103190354Y-60589224D02*
X103190354Y-57989224D01*
X103190354Y-60589224D02*
X100530354Y-60589224D01*
X103190354Y-57989224D02*
X100530354Y-57989224D01*
X100530354Y-60589224D02*
X100530354Y-57989224D01*
D17*
X137660000Y-41160000D02*
X137660000Y-55160000D01*
X134660000Y-41160000D02*
X137660000Y-41160000D01*
X129660000Y-41160000D02*
X124760000Y-41160000D01*
X124760000Y-41160000D02*
X124760000Y-55160000D01*
X137660000Y-55160000D02*
X134660000Y-55160000D01*
X124760000Y-55160000D02*
X129160000Y-55160000D01*
D15*
X110062854Y-51102482D02*
X110062854Y-50627966D01*
X111107854Y-51102482D02*
X111107854Y-50627966D01*
X103185354Y-72705224D02*
X101855354Y-72705224D01*
X103185354Y-71375224D02*
X103185354Y-72705224D01*
X103185354Y-70105224D02*
X103185354Y-67505224D01*
X103185354Y-70105224D02*
X100525354Y-70105224D01*
X103185354Y-67505224D02*
X100525354Y-67505224D01*
X100525354Y-70105224D02*
X100525354Y-67505224D01*
M02*
