G04 #@! TF.GenerationSoftware,KiCad,Pcbnew,5.1.4*
G04 #@! TF.CreationDate,2019-09-04T15:58:37+02:00*
G04 #@! TF.ProjectId,usb-to-ps2-gameport-hat-arduino-pro-mini,7573622d-746f-42d7-9073-322d67616d65,1.2*
G04 #@! TF.SameCoordinates,Original*
G04 #@! TF.FileFunction,Paste,Top*
G04 #@! TF.FilePolarity,Positive*
%FSLAX46Y46*%
G04 Gerber Fmt 4.6, Leading zero omitted, Abs format (unit mm)*
G04 Created by KiCad (PCBNEW 5.1.4) date 2019-09-04 15:58:37*
%MOMM*%
%LPD*%
G04 APERTURE LIST*
%ADD10C,0.100000*%
%ADD11C,0.875000*%
%ADD12R,0.450000X1.475000*%
%ADD13R,1.500000X1.900000*%
%ADD14R,0.400000X1.350000*%
%ADD15R,0.450000X1.450000*%
%ADD16C,1.600000*%
G04 APERTURE END LIST*
D10*
G36*
X171283691Y-77821553D02*
G01*
X171304926Y-77824703D01*
X171325750Y-77829919D01*
X171345962Y-77837151D01*
X171365368Y-77846330D01*
X171383781Y-77857366D01*
X171401024Y-77870154D01*
X171416930Y-77884570D01*
X171431346Y-77900476D01*
X171444134Y-77917719D01*
X171455170Y-77936132D01*
X171464349Y-77955538D01*
X171471581Y-77975750D01*
X171476797Y-77996574D01*
X171479947Y-78017809D01*
X171481000Y-78039250D01*
X171481000Y-78551750D01*
X171479947Y-78573191D01*
X171476797Y-78594426D01*
X171471581Y-78615250D01*
X171464349Y-78635462D01*
X171455170Y-78654868D01*
X171444134Y-78673281D01*
X171431346Y-78690524D01*
X171416930Y-78706430D01*
X171401024Y-78720846D01*
X171383781Y-78733634D01*
X171365368Y-78744670D01*
X171345962Y-78753849D01*
X171325750Y-78761081D01*
X171304926Y-78766297D01*
X171283691Y-78769447D01*
X171262250Y-78770500D01*
X170824750Y-78770500D01*
X170803309Y-78769447D01*
X170782074Y-78766297D01*
X170761250Y-78761081D01*
X170741038Y-78753849D01*
X170721632Y-78744670D01*
X170703219Y-78733634D01*
X170685976Y-78720846D01*
X170670070Y-78706430D01*
X170655654Y-78690524D01*
X170642866Y-78673281D01*
X170631830Y-78654868D01*
X170622651Y-78635462D01*
X170615419Y-78615250D01*
X170610203Y-78594426D01*
X170607053Y-78573191D01*
X170606000Y-78551750D01*
X170606000Y-78039250D01*
X170607053Y-78017809D01*
X170610203Y-77996574D01*
X170615419Y-77975750D01*
X170622651Y-77955538D01*
X170631830Y-77936132D01*
X170642866Y-77917719D01*
X170655654Y-77900476D01*
X170670070Y-77884570D01*
X170685976Y-77870154D01*
X170703219Y-77857366D01*
X170721632Y-77846330D01*
X170741038Y-77837151D01*
X170761250Y-77829919D01*
X170782074Y-77824703D01*
X170803309Y-77821553D01*
X170824750Y-77820500D01*
X171262250Y-77820500D01*
X171283691Y-77821553D01*
X171283691Y-77821553D01*
G37*
D11*
X171043500Y-78295500D03*
D10*
G36*
X172858691Y-77821553D02*
G01*
X172879926Y-77824703D01*
X172900750Y-77829919D01*
X172920962Y-77837151D01*
X172940368Y-77846330D01*
X172958781Y-77857366D01*
X172976024Y-77870154D01*
X172991930Y-77884570D01*
X173006346Y-77900476D01*
X173019134Y-77917719D01*
X173030170Y-77936132D01*
X173039349Y-77955538D01*
X173046581Y-77975750D01*
X173051797Y-77996574D01*
X173054947Y-78017809D01*
X173056000Y-78039250D01*
X173056000Y-78551750D01*
X173054947Y-78573191D01*
X173051797Y-78594426D01*
X173046581Y-78615250D01*
X173039349Y-78635462D01*
X173030170Y-78654868D01*
X173019134Y-78673281D01*
X173006346Y-78690524D01*
X172991930Y-78706430D01*
X172976024Y-78720846D01*
X172958781Y-78733634D01*
X172940368Y-78744670D01*
X172920962Y-78753849D01*
X172900750Y-78761081D01*
X172879926Y-78766297D01*
X172858691Y-78769447D01*
X172837250Y-78770500D01*
X172399750Y-78770500D01*
X172378309Y-78769447D01*
X172357074Y-78766297D01*
X172336250Y-78761081D01*
X172316038Y-78753849D01*
X172296632Y-78744670D01*
X172278219Y-78733634D01*
X172260976Y-78720846D01*
X172245070Y-78706430D01*
X172230654Y-78690524D01*
X172217866Y-78673281D01*
X172206830Y-78654868D01*
X172197651Y-78635462D01*
X172190419Y-78615250D01*
X172185203Y-78594426D01*
X172182053Y-78573191D01*
X172181000Y-78551750D01*
X172181000Y-78039250D01*
X172182053Y-78017809D01*
X172185203Y-77996574D01*
X172190419Y-77975750D01*
X172197651Y-77955538D01*
X172206830Y-77936132D01*
X172217866Y-77917719D01*
X172230654Y-77900476D01*
X172245070Y-77884570D01*
X172260976Y-77870154D01*
X172278219Y-77857366D01*
X172296632Y-77846330D01*
X172316038Y-77837151D01*
X172336250Y-77829919D01*
X172357074Y-77824703D01*
X172378309Y-77821553D01*
X172399750Y-77820500D01*
X172837250Y-77820500D01*
X172858691Y-77821553D01*
X172858691Y-77821553D01*
G37*
D11*
X172618500Y-78295500D03*
D10*
G36*
X174902691Y-93010053D02*
G01*
X174923926Y-93013203D01*
X174944750Y-93018419D01*
X174964962Y-93025651D01*
X174984368Y-93034830D01*
X175002781Y-93045866D01*
X175020024Y-93058654D01*
X175035930Y-93073070D01*
X175050346Y-93088976D01*
X175063134Y-93106219D01*
X175074170Y-93124632D01*
X175083349Y-93144038D01*
X175090581Y-93164250D01*
X175095797Y-93185074D01*
X175098947Y-93206309D01*
X175100000Y-93227750D01*
X175100000Y-93665250D01*
X175098947Y-93686691D01*
X175095797Y-93707926D01*
X175090581Y-93728750D01*
X175083349Y-93748962D01*
X175074170Y-93768368D01*
X175063134Y-93786781D01*
X175050346Y-93804024D01*
X175035930Y-93819930D01*
X175020024Y-93834346D01*
X175002781Y-93847134D01*
X174984368Y-93858170D01*
X174964962Y-93867349D01*
X174944750Y-93874581D01*
X174923926Y-93879797D01*
X174902691Y-93882947D01*
X174881250Y-93884000D01*
X174368750Y-93884000D01*
X174347309Y-93882947D01*
X174326074Y-93879797D01*
X174305250Y-93874581D01*
X174285038Y-93867349D01*
X174265632Y-93858170D01*
X174247219Y-93847134D01*
X174229976Y-93834346D01*
X174214070Y-93819930D01*
X174199654Y-93804024D01*
X174186866Y-93786781D01*
X174175830Y-93768368D01*
X174166651Y-93748962D01*
X174159419Y-93728750D01*
X174154203Y-93707926D01*
X174151053Y-93686691D01*
X174150000Y-93665250D01*
X174150000Y-93227750D01*
X174151053Y-93206309D01*
X174154203Y-93185074D01*
X174159419Y-93164250D01*
X174166651Y-93144038D01*
X174175830Y-93124632D01*
X174186866Y-93106219D01*
X174199654Y-93088976D01*
X174214070Y-93073070D01*
X174229976Y-93058654D01*
X174247219Y-93045866D01*
X174265632Y-93034830D01*
X174285038Y-93025651D01*
X174305250Y-93018419D01*
X174326074Y-93013203D01*
X174347309Y-93010053D01*
X174368750Y-93009000D01*
X174881250Y-93009000D01*
X174902691Y-93010053D01*
X174902691Y-93010053D01*
G37*
D11*
X174625000Y-93446500D03*
D10*
G36*
X174902691Y-94585053D02*
G01*
X174923926Y-94588203D01*
X174944750Y-94593419D01*
X174964962Y-94600651D01*
X174984368Y-94609830D01*
X175002781Y-94620866D01*
X175020024Y-94633654D01*
X175035930Y-94648070D01*
X175050346Y-94663976D01*
X175063134Y-94681219D01*
X175074170Y-94699632D01*
X175083349Y-94719038D01*
X175090581Y-94739250D01*
X175095797Y-94760074D01*
X175098947Y-94781309D01*
X175100000Y-94802750D01*
X175100000Y-95240250D01*
X175098947Y-95261691D01*
X175095797Y-95282926D01*
X175090581Y-95303750D01*
X175083349Y-95323962D01*
X175074170Y-95343368D01*
X175063134Y-95361781D01*
X175050346Y-95379024D01*
X175035930Y-95394930D01*
X175020024Y-95409346D01*
X175002781Y-95422134D01*
X174984368Y-95433170D01*
X174964962Y-95442349D01*
X174944750Y-95449581D01*
X174923926Y-95454797D01*
X174902691Y-95457947D01*
X174881250Y-95459000D01*
X174368750Y-95459000D01*
X174347309Y-95457947D01*
X174326074Y-95454797D01*
X174305250Y-95449581D01*
X174285038Y-95442349D01*
X174265632Y-95433170D01*
X174247219Y-95422134D01*
X174229976Y-95409346D01*
X174214070Y-95394930D01*
X174199654Y-95379024D01*
X174186866Y-95361781D01*
X174175830Y-95343368D01*
X174166651Y-95323962D01*
X174159419Y-95303750D01*
X174154203Y-95282926D01*
X174151053Y-95261691D01*
X174150000Y-95240250D01*
X174150000Y-94802750D01*
X174151053Y-94781309D01*
X174154203Y-94760074D01*
X174159419Y-94739250D01*
X174166651Y-94719038D01*
X174175830Y-94699632D01*
X174186866Y-94681219D01*
X174199654Y-94663976D01*
X174214070Y-94648070D01*
X174229976Y-94633654D01*
X174247219Y-94620866D01*
X174265632Y-94609830D01*
X174285038Y-94600651D01*
X174305250Y-94593419D01*
X174326074Y-94588203D01*
X174347309Y-94585053D01*
X174368750Y-94584000D01*
X174881250Y-94584000D01*
X174902691Y-94585053D01*
X174902691Y-94585053D01*
G37*
D11*
X174625000Y-95021500D03*
D10*
G36*
X154201691Y-109774053D02*
G01*
X154222926Y-109777203D01*
X154243750Y-109782419D01*
X154263962Y-109789651D01*
X154283368Y-109798830D01*
X154301781Y-109809866D01*
X154319024Y-109822654D01*
X154334930Y-109837070D01*
X154349346Y-109852976D01*
X154362134Y-109870219D01*
X154373170Y-109888632D01*
X154382349Y-109908038D01*
X154389581Y-109928250D01*
X154394797Y-109949074D01*
X154397947Y-109970309D01*
X154399000Y-109991750D01*
X154399000Y-110429250D01*
X154397947Y-110450691D01*
X154394797Y-110471926D01*
X154389581Y-110492750D01*
X154382349Y-110512962D01*
X154373170Y-110532368D01*
X154362134Y-110550781D01*
X154349346Y-110568024D01*
X154334930Y-110583930D01*
X154319024Y-110598346D01*
X154301781Y-110611134D01*
X154283368Y-110622170D01*
X154263962Y-110631349D01*
X154243750Y-110638581D01*
X154222926Y-110643797D01*
X154201691Y-110646947D01*
X154180250Y-110648000D01*
X153667750Y-110648000D01*
X153646309Y-110646947D01*
X153625074Y-110643797D01*
X153604250Y-110638581D01*
X153584038Y-110631349D01*
X153564632Y-110622170D01*
X153546219Y-110611134D01*
X153528976Y-110598346D01*
X153513070Y-110583930D01*
X153498654Y-110568024D01*
X153485866Y-110550781D01*
X153474830Y-110532368D01*
X153465651Y-110512962D01*
X153458419Y-110492750D01*
X153453203Y-110471926D01*
X153450053Y-110450691D01*
X153449000Y-110429250D01*
X153449000Y-109991750D01*
X153450053Y-109970309D01*
X153453203Y-109949074D01*
X153458419Y-109928250D01*
X153465651Y-109908038D01*
X153474830Y-109888632D01*
X153485866Y-109870219D01*
X153498654Y-109852976D01*
X153513070Y-109837070D01*
X153528976Y-109822654D01*
X153546219Y-109809866D01*
X153564632Y-109798830D01*
X153584038Y-109789651D01*
X153604250Y-109782419D01*
X153625074Y-109777203D01*
X153646309Y-109774053D01*
X153667750Y-109773000D01*
X154180250Y-109773000D01*
X154201691Y-109774053D01*
X154201691Y-109774053D01*
G37*
D11*
X153924000Y-110210500D03*
D10*
G36*
X154201691Y-111349053D02*
G01*
X154222926Y-111352203D01*
X154243750Y-111357419D01*
X154263962Y-111364651D01*
X154283368Y-111373830D01*
X154301781Y-111384866D01*
X154319024Y-111397654D01*
X154334930Y-111412070D01*
X154349346Y-111427976D01*
X154362134Y-111445219D01*
X154373170Y-111463632D01*
X154382349Y-111483038D01*
X154389581Y-111503250D01*
X154394797Y-111524074D01*
X154397947Y-111545309D01*
X154399000Y-111566750D01*
X154399000Y-112004250D01*
X154397947Y-112025691D01*
X154394797Y-112046926D01*
X154389581Y-112067750D01*
X154382349Y-112087962D01*
X154373170Y-112107368D01*
X154362134Y-112125781D01*
X154349346Y-112143024D01*
X154334930Y-112158930D01*
X154319024Y-112173346D01*
X154301781Y-112186134D01*
X154283368Y-112197170D01*
X154263962Y-112206349D01*
X154243750Y-112213581D01*
X154222926Y-112218797D01*
X154201691Y-112221947D01*
X154180250Y-112223000D01*
X153667750Y-112223000D01*
X153646309Y-112221947D01*
X153625074Y-112218797D01*
X153604250Y-112213581D01*
X153584038Y-112206349D01*
X153564632Y-112197170D01*
X153546219Y-112186134D01*
X153528976Y-112173346D01*
X153513070Y-112158930D01*
X153498654Y-112143024D01*
X153485866Y-112125781D01*
X153474830Y-112107368D01*
X153465651Y-112087962D01*
X153458419Y-112067750D01*
X153453203Y-112046926D01*
X153450053Y-112025691D01*
X153449000Y-112004250D01*
X153449000Y-111566750D01*
X153450053Y-111545309D01*
X153453203Y-111524074D01*
X153458419Y-111503250D01*
X153465651Y-111483038D01*
X153474830Y-111463632D01*
X153485866Y-111445219D01*
X153498654Y-111427976D01*
X153513070Y-111412070D01*
X153528976Y-111397654D01*
X153546219Y-111384866D01*
X153564632Y-111373830D01*
X153584038Y-111364651D01*
X153604250Y-111357419D01*
X153625074Y-111352203D01*
X153646309Y-111349053D01*
X153667750Y-111348000D01*
X154180250Y-111348000D01*
X154201691Y-111349053D01*
X154201691Y-111349053D01*
G37*
D11*
X153924000Y-111785500D03*
D10*
G36*
X159980691Y-111921053D02*
G01*
X160001926Y-111924203D01*
X160022750Y-111929419D01*
X160042962Y-111936651D01*
X160062368Y-111945830D01*
X160080781Y-111956866D01*
X160098024Y-111969654D01*
X160113930Y-111984070D01*
X160128346Y-111999976D01*
X160141134Y-112017219D01*
X160152170Y-112035632D01*
X160161349Y-112055038D01*
X160168581Y-112075250D01*
X160173797Y-112096074D01*
X160176947Y-112117309D01*
X160178000Y-112138750D01*
X160178000Y-112651250D01*
X160176947Y-112672691D01*
X160173797Y-112693926D01*
X160168581Y-112714750D01*
X160161349Y-112734962D01*
X160152170Y-112754368D01*
X160141134Y-112772781D01*
X160128346Y-112790024D01*
X160113930Y-112805930D01*
X160098024Y-112820346D01*
X160080781Y-112833134D01*
X160062368Y-112844170D01*
X160042962Y-112853349D01*
X160022750Y-112860581D01*
X160001926Y-112865797D01*
X159980691Y-112868947D01*
X159959250Y-112870000D01*
X159521750Y-112870000D01*
X159500309Y-112868947D01*
X159479074Y-112865797D01*
X159458250Y-112860581D01*
X159438038Y-112853349D01*
X159418632Y-112844170D01*
X159400219Y-112833134D01*
X159382976Y-112820346D01*
X159367070Y-112805930D01*
X159352654Y-112790024D01*
X159339866Y-112772781D01*
X159328830Y-112754368D01*
X159319651Y-112734962D01*
X159312419Y-112714750D01*
X159307203Y-112693926D01*
X159304053Y-112672691D01*
X159303000Y-112651250D01*
X159303000Y-112138750D01*
X159304053Y-112117309D01*
X159307203Y-112096074D01*
X159312419Y-112075250D01*
X159319651Y-112055038D01*
X159328830Y-112035632D01*
X159339866Y-112017219D01*
X159352654Y-111999976D01*
X159367070Y-111984070D01*
X159382976Y-111969654D01*
X159400219Y-111956866D01*
X159418632Y-111945830D01*
X159438038Y-111936651D01*
X159458250Y-111929419D01*
X159479074Y-111924203D01*
X159500309Y-111921053D01*
X159521750Y-111920000D01*
X159959250Y-111920000D01*
X159980691Y-111921053D01*
X159980691Y-111921053D01*
G37*
D11*
X159740500Y-112395000D03*
D10*
G36*
X161555691Y-111921053D02*
G01*
X161576926Y-111924203D01*
X161597750Y-111929419D01*
X161617962Y-111936651D01*
X161637368Y-111945830D01*
X161655781Y-111956866D01*
X161673024Y-111969654D01*
X161688930Y-111984070D01*
X161703346Y-111999976D01*
X161716134Y-112017219D01*
X161727170Y-112035632D01*
X161736349Y-112055038D01*
X161743581Y-112075250D01*
X161748797Y-112096074D01*
X161751947Y-112117309D01*
X161753000Y-112138750D01*
X161753000Y-112651250D01*
X161751947Y-112672691D01*
X161748797Y-112693926D01*
X161743581Y-112714750D01*
X161736349Y-112734962D01*
X161727170Y-112754368D01*
X161716134Y-112772781D01*
X161703346Y-112790024D01*
X161688930Y-112805930D01*
X161673024Y-112820346D01*
X161655781Y-112833134D01*
X161637368Y-112844170D01*
X161617962Y-112853349D01*
X161597750Y-112860581D01*
X161576926Y-112865797D01*
X161555691Y-112868947D01*
X161534250Y-112870000D01*
X161096750Y-112870000D01*
X161075309Y-112868947D01*
X161054074Y-112865797D01*
X161033250Y-112860581D01*
X161013038Y-112853349D01*
X160993632Y-112844170D01*
X160975219Y-112833134D01*
X160957976Y-112820346D01*
X160942070Y-112805930D01*
X160927654Y-112790024D01*
X160914866Y-112772781D01*
X160903830Y-112754368D01*
X160894651Y-112734962D01*
X160887419Y-112714750D01*
X160882203Y-112693926D01*
X160879053Y-112672691D01*
X160878000Y-112651250D01*
X160878000Y-112138750D01*
X160879053Y-112117309D01*
X160882203Y-112096074D01*
X160887419Y-112075250D01*
X160894651Y-112055038D01*
X160903830Y-112035632D01*
X160914866Y-112017219D01*
X160927654Y-111999976D01*
X160942070Y-111984070D01*
X160957976Y-111969654D01*
X160975219Y-111956866D01*
X160993632Y-111945830D01*
X161013038Y-111936651D01*
X161033250Y-111929419D01*
X161054074Y-111924203D01*
X161075309Y-111921053D01*
X161096750Y-111920000D01*
X161534250Y-111920000D01*
X161555691Y-111921053D01*
X161555691Y-111921053D01*
G37*
D11*
X161315500Y-112395000D03*
D10*
G36*
X152677691Y-109774053D02*
G01*
X152698926Y-109777203D01*
X152719750Y-109782419D01*
X152739962Y-109789651D01*
X152759368Y-109798830D01*
X152777781Y-109809866D01*
X152795024Y-109822654D01*
X152810930Y-109837070D01*
X152825346Y-109852976D01*
X152838134Y-109870219D01*
X152849170Y-109888632D01*
X152858349Y-109908038D01*
X152865581Y-109928250D01*
X152870797Y-109949074D01*
X152873947Y-109970309D01*
X152875000Y-109991750D01*
X152875000Y-110429250D01*
X152873947Y-110450691D01*
X152870797Y-110471926D01*
X152865581Y-110492750D01*
X152858349Y-110512962D01*
X152849170Y-110532368D01*
X152838134Y-110550781D01*
X152825346Y-110568024D01*
X152810930Y-110583930D01*
X152795024Y-110598346D01*
X152777781Y-110611134D01*
X152759368Y-110622170D01*
X152739962Y-110631349D01*
X152719750Y-110638581D01*
X152698926Y-110643797D01*
X152677691Y-110646947D01*
X152656250Y-110648000D01*
X152143750Y-110648000D01*
X152122309Y-110646947D01*
X152101074Y-110643797D01*
X152080250Y-110638581D01*
X152060038Y-110631349D01*
X152040632Y-110622170D01*
X152022219Y-110611134D01*
X152004976Y-110598346D01*
X151989070Y-110583930D01*
X151974654Y-110568024D01*
X151961866Y-110550781D01*
X151950830Y-110532368D01*
X151941651Y-110512962D01*
X151934419Y-110492750D01*
X151929203Y-110471926D01*
X151926053Y-110450691D01*
X151925000Y-110429250D01*
X151925000Y-109991750D01*
X151926053Y-109970309D01*
X151929203Y-109949074D01*
X151934419Y-109928250D01*
X151941651Y-109908038D01*
X151950830Y-109888632D01*
X151961866Y-109870219D01*
X151974654Y-109852976D01*
X151989070Y-109837070D01*
X152004976Y-109822654D01*
X152022219Y-109809866D01*
X152040632Y-109798830D01*
X152060038Y-109789651D01*
X152080250Y-109782419D01*
X152101074Y-109777203D01*
X152122309Y-109774053D01*
X152143750Y-109773000D01*
X152656250Y-109773000D01*
X152677691Y-109774053D01*
X152677691Y-109774053D01*
G37*
D11*
X152400000Y-110210500D03*
D10*
G36*
X152677691Y-111349053D02*
G01*
X152698926Y-111352203D01*
X152719750Y-111357419D01*
X152739962Y-111364651D01*
X152759368Y-111373830D01*
X152777781Y-111384866D01*
X152795024Y-111397654D01*
X152810930Y-111412070D01*
X152825346Y-111427976D01*
X152838134Y-111445219D01*
X152849170Y-111463632D01*
X152858349Y-111483038D01*
X152865581Y-111503250D01*
X152870797Y-111524074D01*
X152873947Y-111545309D01*
X152875000Y-111566750D01*
X152875000Y-112004250D01*
X152873947Y-112025691D01*
X152870797Y-112046926D01*
X152865581Y-112067750D01*
X152858349Y-112087962D01*
X152849170Y-112107368D01*
X152838134Y-112125781D01*
X152825346Y-112143024D01*
X152810930Y-112158930D01*
X152795024Y-112173346D01*
X152777781Y-112186134D01*
X152759368Y-112197170D01*
X152739962Y-112206349D01*
X152719750Y-112213581D01*
X152698926Y-112218797D01*
X152677691Y-112221947D01*
X152656250Y-112223000D01*
X152143750Y-112223000D01*
X152122309Y-112221947D01*
X152101074Y-112218797D01*
X152080250Y-112213581D01*
X152060038Y-112206349D01*
X152040632Y-112197170D01*
X152022219Y-112186134D01*
X152004976Y-112173346D01*
X151989070Y-112158930D01*
X151974654Y-112143024D01*
X151961866Y-112125781D01*
X151950830Y-112107368D01*
X151941651Y-112087962D01*
X151934419Y-112067750D01*
X151929203Y-112046926D01*
X151926053Y-112025691D01*
X151925000Y-112004250D01*
X151925000Y-111566750D01*
X151926053Y-111545309D01*
X151929203Y-111524074D01*
X151934419Y-111503250D01*
X151941651Y-111483038D01*
X151950830Y-111463632D01*
X151961866Y-111445219D01*
X151974654Y-111427976D01*
X151989070Y-111412070D01*
X152004976Y-111397654D01*
X152022219Y-111384866D01*
X152040632Y-111373830D01*
X152060038Y-111364651D01*
X152080250Y-111357419D01*
X152101074Y-111352203D01*
X152122309Y-111349053D01*
X152143750Y-111348000D01*
X152656250Y-111348000D01*
X152677691Y-111349053D01*
X152677691Y-111349053D01*
G37*
D11*
X152400000Y-111785500D03*
D10*
G36*
X159980691Y-110397053D02*
G01*
X160001926Y-110400203D01*
X160022750Y-110405419D01*
X160042962Y-110412651D01*
X160062368Y-110421830D01*
X160080781Y-110432866D01*
X160098024Y-110445654D01*
X160113930Y-110460070D01*
X160128346Y-110475976D01*
X160141134Y-110493219D01*
X160152170Y-110511632D01*
X160161349Y-110531038D01*
X160168581Y-110551250D01*
X160173797Y-110572074D01*
X160176947Y-110593309D01*
X160178000Y-110614750D01*
X160178000Y-111127250D01*
X160176947Y-111148691D01*
X160173797Y-111169926D01*
X160168581Y-111190750D01*
X160161349Y-111210962D01*
X160152170Y-111230368D01*
X160141134Y-111248781D01*
X160128346Y-111266024D01*
X160113930Y-111281930D01*
X160098024Y-111296346D01*
X160080781Y-111309134D01*
X160062368Y-111320170D01*
X160042962Y-111329349D01*
X160022750Y-111336581D01*
X160001926Y-111341797D01*
X159980691Y-111344947D01*
X159959250Y-111346000D01*
X159521750Y-111346000D01*
X159500309Y-111344947D01*
X159479074Y-111341797D01*
X159458250Y-111336581D01*
X159438038Y-111329349D01*
X159418632Y-111320170D01*
X159400219Y-111309134D01*
X159382976Y-111296346D01*
X159367070Y-111281930D01*
X159352654Y-111266024D01*
X159339866Y-111248781D01*
X159328830Y-111230368D01*
X159319651Y-111210962D01*
X159312419Y-111190750D01*
X159307203Y-111169926D01*
X159304053Y-111148691D01*
X159303000Y-111127250D01*
X159303000Y-110614750D01*
X159304053Y-110593309D01*
X159307203Y-110572074D01*
X159312419Y-110551250D01*
X159319651Y-110531038D01*
X159328830Y-110511632D01*
X159339866Y-110493219D01*
X159352654Y-110475976D01*
X159367070Y-110460070D01*
X159382976Y-110445654D01*
X159400219Y-110432866D01*
X159418632Y-110421830D01*
X159438038Y-110412651D01*
X159458250Y-110405419D01*
X159479074Y-110400203D01*
X159500309Y-110397053D01*
X159521750Y-110396000D01*
X159959250Y-110396000D01*
X159980691Y-110397053D01*
X159980691Y-110397053D01*
G37*
D11*
X159740500Y-110871000D03*
D10*
G36*
X161555691Y-110397053D02*
G01*
X161576926Y-110400203D01*
X161597750Y-110405419D01*
X161617962Y-110412651D01*
X161637368Y-110421830D01*
X161655781Y-110432866D01*
X161673024Y-110445654D01*
X161688930Y-110460070D01*
X161703346Y-110475976D01*
X161716134Y-110493219D01*
X161727170Y-110511632D01*
X161736349Y-110531038D01*
X161743581Y-110551250D01*
X161748797Y-110572074D01*
X161751947Y-110593309D01*
X161753000Y-110614750D01*
X161753000Y-111127250D01*
X161751947Y-111148691D01*
X161748797Y-111169926D01*
X161743581Y-111190750D01*
X161736349Y-111210962D01*
X161727170Y-111230368D01*
X161716134Y-111248781D01*
X161703346Y-111266024D01*
X161688930Y-111281930D01*
X161673024Y-111296346D01*
X161655781Y-111309134D01*
X161637368Y-111320170D01*
X161617962Y-111329349D01*
X161597750Y-111336581D01*
X161576926Y-111341797D01*
X161555691Y-111344947D01*
X161534250Y-111346000D01*
X161096750Y-111346000D01*
X161075309Y-111344947D01*
X161054074Y-111341797D01*
X161033250Y-111336581D01*
X161013038Y-111329349D01*
X160993632Y-111320170D01*
X160975219Y-111309134D01*
X160957976Y-111296346D01*
X160942070Y-111281930D01*
X160927654Y-111266024D01*
X160914866Y-111248781D01*
X160903830Y-111230368D01*
X160894651Y-111210962D01*
X160887419Y-111190750D01*
X160882203Y-111169926D01*
X160879053Y-111148691D01*
X160878000Y-111127250D01*
X160878000Y-110614750D01*
X160879053Y-110593309D01*
X160882203Y-110572074D01*
X160887419Y-110551250D01*
X160894651Y-110531038D01*
X160903830Y-110511632D01*
X160914866Y-110493219D01*
X160927654Y-110475976D01*
X160942070Y-110460070D01*
X160957976Y-110445654D01*
X160975219Y-110432866D01*
X160993632Y-110421830D01*
X161013038Y-110412651D01*
X161033250Y-110405419D01*
X161054074Y-110400203D01*
X161075309Y-110397053D01*
X161096750Y-110396000D01*
X161534250Y-110396000D01*
X161555691Y-110397053D01*
X161555691Y-110397053D01*
G37*
D11*
X161315500Y-110871000D03*
D12*
X160636000Y-101075000D03*
X161286000Y-101075000D03*
X161936000Y-101075000D03*
X162586000Y-101075000D03*
X163236000Y-101075000D03*
X163886000Y-101075000D03*
X164536000Y-101075000D03*
X165186000Y-101075000D03*
X165836000Y-101075000D03*
X166486000Y-101075000D03*
X167136000Y-101075000D03*
X167786000Y-101075000D03*
X167786000Y-106951000D03*
X167136000Y-106951000D03*
X166486000Y-106951000D03*
X165836000Y-106951000D03*
X165186000Y-106951000D03*
X164536000Y-106951000D03*
X163886000Y-106951000D03*
X163236000Y-106951000D03*
X162586000Y-106951000D03*
X161936000Y-106951000D03*
X161286000Y-106951000D03*
X160636000Y-106951000D03*
D13*
X163211000Y-76296000D03*
D14*
X164861000Y-78996000D03*
X165511000Y-78996000D03*
X162911000Y-78996000D03*
X163561000Y-78996000D03*
X164211000Y-78996000D03*
D13*
X165211000Y-76296000D03*
D10*
G36*
X152042691Y-101951053D02*
G01*
X152063926Y-101954203D01*
X152084750Y-101959419D01*
X152104962Y-101966651D01*
X152124368Y-101975830D01*
X152142781Y-101986866D01*
X152160024Y-101999654D01*
X152175930Y-102014070D01*
X152190346Y-102029976D01*
X152203134Y-102047219D01*
X152214170Y-102065632D01*
X152223349Y-102085038D01*
X152230581Y-102105250D01*
X152235797Y-102126074D01*
X152238947Y-102147309D01*
X152240000Y-102168750D01*
X152240000Y-102606250D01*
X152238947Y-102627691D01*
X152235797Y-102648926D01*
X152230581Y-102669750D01*
X152223349Y-102689962D01*
X152214170Y-102709368D01*
X152203134Y-102727781D01*
X152190346Y-102745024D01*
X152175930Y-102760930D01*
X152160024Y-102775346D01*
X152142781Y-102788134D01*
X152124368Y-102799170D01*
X152104962Y-102808349D01*
X152084750Y-102815581D01*
X152063926Y-102820797D01*
X152042691Y-102823947D01*
X152021250Y-102825000D01*
X151508750Y-102825000D01*
X151487309Y-102823947D01*
X151466074Y-102820797D01*
X151445250Y-102815581D01*
X151425038Y-102808349D01*
X151405632Y-102799170D01*
X151387219Y-102788134D01*
X151369976Y-102775346D01*
X151354070Y-102760930D01*
X151339654Y-102745024D01*
X151326866Y-102727781D01*
X151315830Y-102709368D01*
X151306651Y-102689962D01*
X151299419Y-102669750D01*
X151294203Y-102648926D01*
X151291053Y-102627691D01*
X151290000Y-102606250D01*
X151290000Y-102168750D01*
X151291053Y-102147309D01*
X151294203Y-102126074D01*
X151299419Y-102105250D01*
X151306651Y-102085038D01*
X151315830Y-102065632D01*
X151326866Y-102047219D01*
X151339654Y-102029976D01*
X151354070Y-102014070D01*
X151369976Y-101999654D01*
X151387219Y-101986866D01*
X151405632Y-101975830D01*
X151425038Y-101966651D01*
X151445250Y-101959419D01*
X151466074Y-101954203D01*
X151487309Y-101951053D01*
X151508750Y-101950000D01*
X152021250Y-101950000D01*
X152042691Y-101951053D01*
X152042691Y-101951053D01*
G37*
D11*
X151765000Y-102387500D03*
D10*
G36*
X152042691Y-100376053D02*
G01*
X152063926Y-100379203D01*
X152084750Y-100384419D01*
X152104962Y-100391651D01*
X152124368Y-100400830D01*
X152142781Y-100411866D01*
X152160024Y-100424654D01*
X152175930Y-100439070D01*
X152190346Y-100454976D01*
X152203134Y-100472219D01*
X152214170Y-100490632D01*
X152223349Y-100510038D01*
X152230581Y-100530250D01*
X152235797Y-100551074D01*
X152238947Y-100572309D01*
X152240000Y-100593750D01*
X152240000Y-101031250D01*
X152238947Y-101052691D01*
X152235797Y-101073926D01*
X152230581Y-101094750D01*
X152223349Y-101114962D01*
X152214170Y-101134368D01*
X152203134Y-101152781D01*
X152190346Y-101170024D01*
X152175930Y-101185930D01*
X152160024Y-101200346D01*
X152142781Y-101213134D01*
X152124368Y-101224170D01*
X152104962Y-101233349D01*
X152084750Y-101240581D01*
X152063926Y-101245797D01*
X152042691Y-101248947D01*
X152021250Y-101250000D01*
X151508750Y-101250000D01*
X151487309Y-101248947D01*
X151466074Y-101245797D01*
X151445250Y-101240581D01*
X151425038Y-101233349D01*
X151405632Y-101224170D01*
X151387219Y-101213134D01*
X151369976Y-101200346D01*
X151354070Y-101185930D01*
X151339654Y-101170024D01*
X151326866Y-101152781D01*
X151315830Y-101134368D01*
X151306651Y-101114962D01*
X151299419Y-101094750D01*
X151294203Y-101073926D01*
X151291053Y-101052691D01*
X151290000Y-101031250D01*
X151290000Y-100593750D01*
X151291053Y-100572309D01*
X151294203Y-100551074D01*
X151299419Y-100530250D01*
X151306651Y-100510038D01*
X151315830Y-100490632D01*
X151326866Y-100472219D01*
X151339654Y-100454976D01*
X151354070Y-100439070D01*
X151369976Y-100424654D01*
X151387219Y-100411866D01*
X151405632Y-100400830D01*
X151425038Y-100391651D01*
X151445250Y-100384419D01*
X151466074Y-100379203D01*
X151487309Y-100376053D01*
X151508750Y-100375000D01*
X152021250Y-100375000D01*
X152042691Y-100376053D01*
X152042691Y-100376053D01*
G37*
D11*
X151765000Y-100812500D03*
D10*
G36*
X152042691Y-92426053D02*
G01*
X152063926Y-92429203D01*
X152084750Y-92434419D01*
X152104962Y-92441651D01*
X152124368Y-92450830D01*
X152142781Y-92461866D01*
X152160024Y-92474654D01*
X152175930Y-92489070D01*
X152190346Y-92504976D01*
X152203134Y-92522219D01*
X152214170Y-92540632D01*
X152223349Y-92560038D01*
X152230581Y-92580250D01*
X152235797Y-92601074D01*
X152238947Y-92622309D01*
X152240000Y-92643750D01*
X152240000Y-93081250D01*
X152238947Y-93102691D01*
X152235797Y-93123926D01*
X152230581Y-93144750D01*
X152223349Y-93164962D01*
X152214170Y-93184368D01*
X152203134Y-93202781D01*
X152190346Y-93220024D01*
X152175930Y-93235930D01*
X152160024Y-93250346D01*
X152142781Y-93263134D01*
X152124368Y-93274170D01*
X152104962Y-93283349D01*
X152084750Y-93290581D01*
X152063926Y-93295797D01*
X152042691Y-93298947D01*
X152021250Y-93300000D01*
X151508750Y-93300000D01*
X151487309Y-93298947D01*
X151466074Y-93295797D01*
X151445250Y-93290581D01*
X151425038Y-93283349D01*
X151405632Y-93274170D01*
X151387219Y-93263134D01*
X151369976Y-93250346D01*
X151354070Y-93235930D01*
X151339654Y-93220024D01*
X151326866Y-93202781D01*
X151315830Y-93184368D01*
X151306651Y-93164962D01*
X151299419Y-93144750D01*
X151294203Y-93123926D01*
X151291053Y-93102691D01*
X151290000Y-93081250D01*
X151290000Y-92643750D01*
X151291053Y-92622309D01*
X151294203Y-92601074D01*
X151299419Y-92580250D01*
X151306651Y-92560038D01*
X151315830Y-92540632D01*
X151326866Y-92522219D01*
X151339654Y-92504976D01*
X151354070Y-92489070D01*
X151369976Y-92474654D01*
X151387219Y-92461866D01*
X151405632Y-92450830D01*
X151425038Y-92441651D01*
X151445250Y-92434419D01*
X151466074Y-92429203D01*
X151487309Y-92426053D01*
X151508750Y-92425000D01*
X152021250Y-92425000D01*
X152042691Y-92426053D01*
X152042691Y-92426053D01*
G37*
D11*
X151765000Y-92862500D03*
D10*
G36*
X152042691Y-90851053D02*
G01*
X152063926Y-90854203D01*
X152084750Y-90859419D01*
X152104962Y-90866651D01*
X152124368Y-90875830D01*
X152142781Y-90886866D01*
X152160024Y-90899654D01*
X152175930Y-90914070D01*
X152190346Y-90929976D01*
X152203134Y-90947219D01*
X152214170Y-90965632D01*
X152223349Y-90985038D01*
X152230581Y-91005250D01*
X152235797Y-91026074D01*
X152238947Y-91047309D01*
X152240000Y-91068750D01*
X152240000Y-91506250D01*
X152238947Y-91527691D01*
X152235797Y-91548926D01*
X152230581Y-91569750D01*
X152223349Y-91589962D01*
X152214170Y-91609368D01*
X152203134Y-91627781D01*
X152190346Y-91645024D01*
X152175930Y-91660930D01*
X152160024Y-91675346D01*
X152142781Y-91688134D01*
X152124368Y-91699170D01*
X152104962Y-91708349D01*
X152084750Y-91715581D01*
X152063926Y-91720797D01*
X152042691Y-91723947D01*
X152021250Y-91725000D01*
X151508750Y-91725000D01*
X151487309Y-91723947D01*
X151466074Y-91720797D01*
X151445250Y-91715581D01*
X151425038Y-91708349D01*
X151405632Y-91699170D01*
X151387219Y-91688134D01*
X151369976Y-91675346D01*
X151354070Y-91660930D01*
X151339654Y-91645024D01*
X151326866Y-91627781D01*
X151315830Y-91609368D01*
X151306651Y-91589962D01*
X151299419Y-91569750D01*
X151294203Y-91548926D01*
X151291053Y-91527691D01*
X151290000Y-91506250D01*
X151290000Y-91068750D01*
X151291053Y-91047309D01*
X151294203Y-91026074D01*
X151299419Y-91005250D01*
X151306651Y-90985038D01*
X151315830Y-90965632D01*
X151326866Y-90947219D01*
X151339654Y-90929976D01*
X151354070Y-90914070D01*
X151369976Y-90899654D01*
X151387219Y-90886866D01*
X151405632Y-90875830D01*
X151425038Y-90866651D01*
X151445250Y-90859419D01*
X151466074Y-90854203D01*
X151487309Y-90851053D01*
X151508750Y-90850000D01*
X152021250Y-90850000D01*
X152042691Y-90851053D01*
X152042691Y-90851053D01*
G37*
D11*
X151765000Y-91287500D03*
D10*
G36*
X164171191Y-80564053D02*
G01*
X164192426Y-80567203D01*
X164213250Y-80572419D01*
X164233462Y-80579651D01*
X164252868Y-80588830D01*
X164271281Y-80599866D01*
X164288524Y-80612654D01*
X164304430Y-80627070D01*
X164318846Y-80642976D01*
X164331634Y-80660219D01*
X164342670Y-80678632D01*
X164351849Y-80698038D01*
X164359081Y-80718250D01*
X164364297Y-80739074D01*
X164367447Y-80760309D01*
X164368500Y-80781750D01*
X164368500Y-81219250D01*
X164367447Y-81240691D01*
X164364297Y-81261926D01*
X164359081Y-81282750D01*
X164351849Y-81302962D01*
X164342670Y-81322368D01*
X164331634Y-81340781D01*
X164318846Y-81358024D01*
X164304430Y-81373930D01*
X164288524Y-81388346D01*
X164271281Y-81401134D01*
X164252868Y-81412170D01*
X164233462Y-81421349D01*
X164213250Y-81428581D01*
X164192426Y-81433797D01*
X164171191Y-81436947D01*
X164149750Y-81438000D01*
X163637250Y-81438000D01*
X163615809Y-81436947D01*
X163594574Y-81433797D01*
X163573750Y-81428581D01*
X163553538Y-81421349D01*
X163534132Y-81412170D01*
X163515719Y-81401134D01*
X163498476Y-81388346D01*
X163482570Y-81373930D01*
X163468154Y-81358024D01*
X163455366Y-81340781D01*
X163444330Y-81322368D01*
X163435151Y-81302962D01*
X163427919Y-81282750D01*
X163422703Y-81261926D01*
X163419553Y-81240691D01*
X163418500Y-81219250D01*
X163418500Y-80781750D01*
X163419553Y-80760309D01*
X163422703Y-80739074D01*
X163427919Y-80718250D01*
X163435151Y-80698038D01*
X163444330Y-80678632D01*
X163455366Y-80660219D01*
X163468154Y-80642976D01*
X163482570Y-80627070D01*
X163498476Y-80612654D01*
X163515719Y-80599866D01*
X163534132Y-80588830D01*
X163553538Y-80579651D01*
X163573750Y-80572419D01*
X163594574Y-80567203D01*
X163615809Y-80564053D01*
X163637250Y-80563000D01*
X164149750Y-80563000D01*
X164171191Y-80564053D01*
X164171191Y-80564053D01*
G37*
D11*
X163893500Y-81000500D03*
D10*
G36*
X164171191Y-82139053D02*
G01*
X164192426Y-82142203D01*
X164213250Y-82147419D01*
X164233462Y-82154651D01*
X164252868Y-82163830D01*
X164271281Y-82174866D01*
X164288524Y-82187654D01*
X164304430Y-82202070D01*
X164318846Y-82217976D01*
X164331634Y-82235219D01*
X164342670Y-82253632D01*
X164351849Y-82273038D01*
X164359081Y-82293250D01*
X164364297Y-82314074D01*
X164367447Y-82335309D01*
X164368500Y-82356750D01*
X164368500Y-82794250D01*
X164367447Y-82815691D01*
X164364297Y-82836926D01*
X164359081Y-82857750D01*
X164351849Y-82877962D01*
X164342670Y-82897368D01*
X164331634Y-82915781D01*
X164318846Y-82933024D01*
X164304430Y-82948930D01*
X164288524Y-82963346D01*
X164271281Y-82976134D01*
X164252868Y-82987170D01*
X164233462Y-82996349D01*
X164213250Y-83003581D01*
X164192426Y-83008797D01*
X164171191Y-83011947D01*
X164149750Y-83013000D01*
X163637250Y-83013000D01*
X163615809Y-83011947D01*
X163594574Y-83008797D01*
X163573750Y-83003581D01*
X163553538Y-82996349D01*
X163534132Y-82987170D01*
X163515719Y-82976134D01*
X163498476Y-82963346D01*
X163482570Y-82948930D01*
X163468154Y-82933024D01*
X163455366Y-82915781D01*
X163444330Y-82897368D01*
X163435151Y-82877962D01*
X163427919Y-82857750D01*
X163422703Y-82836926D01*
X163419553Y-82815691D01*
X163418500Y-82794250D01*
X163418500Y-82356750D01*
X163419553Y-82335309D01*
X163422703Y-82314074D01*
X163427919Y-82293250D01*
X163435151Y-82273038D01*
X163444330Y-82253632D01*
X163455366Y-82235219D01*
X163468154Y-82217976D01*
X163482570Y-82202070D01*
X163498476Y-82187654D01*
X163515719Y-82174866D01*
X163534132Y-82163830D01*
X163553538Y-82154651D01*
X163573750Y-82147419D01*
X163594574Y-82142203D01*
X163615809Y-82139053D01*
X163637250Y-82138000D01*
X164149750Y-82138000D01*
X164171191Y-82139053D01*
X164171191Y-82139053D01*
G37*
D11*
X163893500Y-82575500D03*
D10*
G36*
X164425691Y-98078053D02*
G01*
X164446926Y-98081203D01*
X164467750Y-98086419D01*
X164487962Y-98093651D01*
X164507368Y-98102830D01*
X164525781Y-98113866D01*
X164543024Y-98126654D01*
X164558930Y-98141070D01*
X164573346Y-98156976D01*
X164586134Y-98174219D01*
X164597170Y-98192632D01*
X164606349Y-98212038D01*
X164613581Y-98232250D01*
X164618797Y-98253074D01*
X164621947Y-98274309D01*
X164623000Y-98295750D01*
X164623000Y-98808250D01*
X164621947Y-98829691D01*
X164618797Y-98850926D01*
X164613581Y-98871750D01*
X164606349Y-98891962D01*
X164597170Y-98911368D01*
X164586134Y-98929781D01*
X164573346Y-98947024D01*
X164558930Y-98962930D01*
X164543024Y-98977346D01*
X164525781Y-98990134D01*
X164507368Y-99001170D01*
X164487962Y-99010349D01*
X164467750Y-99017581D01*
X164446926Y-99022797D01*
X164425691Y-99025947D01*
X164404250Y-99027000D01*
X163966750Y-99027000D01*
X163945309Y-99025947D01*
X163924074Y-99022797D01*
X163903250Y-99017581D01*
X163883038Y-99010349D01*
X163863632Y-99001170D01*
X163845219Y-98990134D01*
X163827976Y-98977346D01*
X163812070Y-98962930D01*
X163797654Y-98947024D01*
X163784866Y-98929781D01*
X163773830Y-98911368D01*
X163764651Y-98891962D01*
X163757419Y-98871750D01*
X163752203Y-98850926D01*
X163749053Y-98829691D01*
X163748000Y-98808250D01*
X163748000Y-98295750D01*
X163749053Y-98274309D01*
X163752203Y-98253074D01*
X163757419Y-98232250D01*
X163764651Y-98212038D01*
X163773830Y-98192632D01*
X163784866Y-98174219D01*
X163797654Y-98156976D01*
X163812070Y-98141070D01*
X163827976Y-98126654D01*
X163845219Y-98113866D01*
X163863632Y-98102830D01*
X163883038Y-98093651D01*
X163903250Y-98086419D01*
X163924074Y-98081203D01*
X163945309Y-98078053D01*
X163966750Y-98077000D01*
X164404250Y-98077000D01*
X164425691Y-98078053D01*
X164425691Y-98078053D01*
G37*
D11*
X164185500Y-98552000D03*
D10*
G36*
X166000691Y-98078053D02*
G01*
X166021926Y-98081203D01*
X166042750Y-98086419D01*
X166062962Y-98093651D01*
X166082368Y-98102830D01*
X166100781Y-98113866D01*
X166118024Y-98126654D01*
X166133930Y-98141070D01*
X166148346Y-98156976D01*
X166161134Y-98174219D01*
X166172170Y-98192632D01*
X166181349Y-98212038D01*
X166188581Y-98232250D01*
X166193797Y-98253074D01*
X166196947Y-98274309D01*
X166198000Y-98295750D01*
X166198000Y-98808250D01*
X166196947Y-98829691D01*
X166193797Y-98850926D01*
X166188581Y-98871750D01*
X166181349Y-98891962D01*
X166172170Y-98911368D01*
X166161134Y-98929781D01*
X166148346Y-98947024D01*
X166133930Y-98962930D01*
X166118024Y-98977346D01*
X166100781Y-98990134D01*
X166082368Y-99001170D01*
X166062962Y-99010349D01*
X166042750Y-99017581D01*
X166021926Y-99022797D01*
X166000691Y-99025947D01*
X165979250Y-99027000D01*
X165541750Y-99027000D01*
X165520309Y-99025947D01*
X165499074Y-99022797D01*
X165478250Y-99017581D01*
X165458038Y-99010349D01*
X165438632Y-99001170D01*
X165420219Y-98990134D01*
X165402976Y-98977346D01*
X165387070Y-98962930D01*
X165372654Y-98947024D01*
X165359866Y-98929781D01*
X165348830Y-98911368D01*
X165339651Y-98891962D01*
X165332419Y-98871750D01*
X165327203Y-98850926D01*
X165324053Y-98829691D01*
X165323000Y-98808250D01*
X165323000Y-98295750D01*
X165324053Y-98274309D01*
X165327203Y-98253074D01*
X165332419Y-98232250D01*
X165339651Y-98212038D01*
X165348830Y-98192632D01*
X165359866Y-98174219D01*
X165372654Y-98156976D01*
X165387070Y-98141070D01*
X165402976Y-98126654D01*
X165420219Y-98113866D01*
X165438632Y-98102830D01*
X165458038Y-98093651D01*
X165478250Y-98086419D01*
X165499074Y-98081203D01*
X165520309Y-98078053D01*
X165541750Y-98077000D01*
X165979250Y-98077000D01*
X166000691Y-98078053D01*
X166000691Y-98078053D01*
G37*
D11*
X165760500Y-98552000D03*
D10*
G36*
X163816191Y-108936553D02*
G01*
X163837426Y-108939703D01*
X163858250Y-108944919D01*
X163878462Y-108952151D01*
X163897868Y-108961330D01*
X163916281Y-108972366D01*
X163933524Y-108985154D01*
X163949430Y-108999570D01*
X163963846Y-109015476D01*
X163976634Y-109032719D01*
X163987670Y-109051132D01*
X163996849Y-109070538D01*
X164004081Y-109090750D01*
X164009297Y-109111574D01*
X164012447Y-109132809D01*
X164013500Y-109154250D01*
X164013500Y-109666750D01*
X164012447Y-109688191D01*
X164009297Y-109709426D01*
X164004081Y-109730250D01*
X163996849Y-109750462D01*
X163987670Y-109769868D01*
X163976634Y-109788281D01*
X163963846Y-109805524D01*
X163949430Y-109821430D01*
X163933524Y-109835846D01*
X163916281Y-109848634D01*
X163897868Y-109859670D01*
X163878462Y-109868849D01*
X163858250Y-109876081D01*
X163837426Y-109881297D01*
X163816191Y-109884447D01*
X163794750Y-109885500D01*
X163357250Y-109885500D01*
X163335809Y-109884447D01*
X163314574Y-109881297D01*
X163293750Y-109876081D01*
X163273538Y-109868849D01*
X163254132Y-109859670D01*
X163235719Y-109848634D01*
X163218476Y-109835846D01*
X163202570Y-109821430D01*
X163188154Y-109805524D01*
X163175366Y-109788281D01*
X163164330Y-109769868D01*
X163155151Y-109750462D01*
X163147919Y-109730250D01*
X163142703Y-109709426D01*
X163139553Y-109688191D01*
X163138500Y-109666750D01*
X163138500Y-109154250D01*
X163139553Y-109132809D01*
X163142703Y-109111574D01*
X163147919Y-109090750D01*
X163155151Y-109070538D01*
X163164330Y-109051132D01*
X163175366Y-109032719D01*
X163188154Y-109015476D01*
X163202570Y-108999570D01*
X163218476Y-108985154D01*
X163235719Y-108972366D01*
X163254132Y-108961330D01*
X163273538Y-108952151D01*
X163293750Y-108944919D01*
X163314574Y-108939703D01*
X163335809Y-108936553D01*
X163357250Y-108935500D01*
X163794750Y-108935500D01*
X163816191Y-108936553D01*
X163816191Y-108936553D01*
G37*
D11*
X163576000Y-109410500D03*
D10*
G36*
X165391191Y-108936553D02*
G01*
X165412426Y-108939703D01*
X165433250Y-108944919D01*
X165453462Y-108952151D01*
X165472868Y-108961330D01*
X165491281Y-108972366D01*
X165508524Y-108985154D01*
X165524430Y-108999570D01*
X165538846Y-109015476D01*
X165551634Y-109032719D01*
X165562670Y-109051132D01*
X165571849Y-109070538D01*
X165579081Y-109090750D01*
X165584297Y-109111574D01*
X165587447Y-109132809D01*
X165588500Y-109154250D01*
X165588500Y-109666750D01*
X165587447Y-109688191D01*
X165584297Y-109709426D01*
X165579081Y-109730250D01*
X165571849Y-109750462D01*
X165562670Y-109769868D01*
X165551634Y-109788281D01*
X165538846Y-109805524D01*
X165524430Y-109821430D01*
X165508524Y-109835846D01*
X165491281Y-109848634D01*
X165472868Y-109859670D01*
X165453462Y-109868849D01*
X165433250Y-109876081D01*
X165412426Y-109881297D01*
X165391191Y-109884447D01*
X165369750Y-109885500D01*
X164932250Y-109885500D01*
X164910809Y-109884447D01*
X164889574Y-109881297D01*
X164868750Y-109876081D01*
X164848538Y-109868849D01*
X164829132Y-109859670D01*
X164810719Y-109848634D01*
X164793476Y-109835846D01*
X164777570Y-109821430D01*
X164763154Y-109805524D01*
X164750366Y-109788281D01*
X164739330Y-109769868D01*
X164730151Y-109750462D01*
X164722919Y-109730250D01*
X164717703Y-109709426D01*
X164714553Y-109688191D01*
X164713500Y-109666750D01*
X164713500Y-109154250D01*
X164714553Y-109132809D01*
X164717703Y-109111574D01*
X164722919Y-109090750D01*
X164730151Y-109070538D01*
X164739330Y-109051132D01*
X164750366Y-109032719D01*
X164763154Y-109015476D01*
X164777570Y-108999570D01*
X164793476Y-108985154D01*
X164810719Y-108972366D01*
X164829132Y-108961330D01*
X164848538Y-108952151D01*
X164868750Y-108944919D01*
X164889574Y-108939703D01*
X164910809Y-108936553D01*
X164932250Y-108935500D01*
X165369750Y-108935500D01*
X165391191Y-108936553D01*
X165391191Y-108936553D01*
G37*
D11*
X165151000Y-109410500D03*
D10*
G36*
X160615191Y-85961553D02*
G01*
X160636426Y-85964703D01*
X160657250Y-85969919D01*
X160677462Y-85977151D01*
X160696868Y-85986330D01*
X160715281Y-85997366D01*
X160732524Y-86010154D01*
X160748430Y-86024570D01*
X160762846Y-86040476D01*
X160775634Y-86057719D01*
X160786670Y-86076132D01*
X160795849Y-86095538D01*
X160803081Y-86115750D01*
X160808297Y-86136574D01*
X160811447Y-86157809D01*
X160812500Y-86179250D01*
X160812500Y-86616750D01*
X160811447Y-86638191D01*
X160808297Y-86659426D01*
X160803081Y-86680250D01*
X160795849Y-86700462D01*
X160786670Y-86719868D01*
X160775634Y-86738281D01*
X160762846Y-86755524D01*
X160748430Y-86771430D01*
X160732524Y-86785846D01*
X160715281Y-86798634D01*
X160696868Y-86809670D01*
X160677462Y-86818849D01*
X160657250Y-86826081D01*
X160636426Y-86831297D01*
X160615191Y-86834447D01*
X160593750Y-86835500D01*
X160081250Y-86835500D01*
X160059809Y-86834447D01*
X160038574Y-86831297D01*
X160017750Y-86826081D01*
X159997538Y-86818849D01*
X159978132Y-86809670D01*
X159959719Y-86798634D01*
X159942476Y-86785846D01*
X159926570Y-86771430D01*
X159912154Y-86755524D01*
X159899366Y-86738281D01*
X159888330Y-86719868D01*
X159879151Y-86700462D01*
X159871919Y-86680250D01*
X159866703Y-86659426D01*
X159863553Y-86638191D01*
X159862500Y-86616750D01*
X159862500Y-86179250D01*
X159863553Y-86157809D01*
X159866703Y-86136574D01*
X159871919Y-86115750D01*
X159879151Y-86095538D01*
X159888330Y-86076132D01*
X159899366Y-86057719D01*
X159912154Y-86040476D01*
X159926570Y-86024570D01*
X159942476Y-86010154D01*
X159959719Y-85997366D01*
X159978132Y-85986330D01*
X159997538Y-85977151D01*
X160017750Y-85969919D01*
X160038574Y-85964703D01*
X160059809Y-85961553D01*
X160081250Y-85960500D01*
X160593750Y-85960500D01*
X160615191Y-85961553D01*
X160615191Y-85961553D01*
G37*
D11*
X160337500Y-86398000D03*
D10*
G36*
X160615191Y-87536553D02*
G01*
X160636426Y-87539703D01*
X160657250Y-87544919D01*
X160677462Y-87552151D01*
X160696868Y-87561330D01*
X160715281Y-87572366D01*
X160732524Y-87585154D01*
X160748430Y-87599570D01*
X160762846Y-87615476D01*
X160775634Y-87632719D01*
X160786670Y-87651132D01*
X160795849Y-87670538D01*
X160803081Y-87690750D01*
X160808297Y-87711574D01*
X160811447Y-87732809D01*
X160812500Y-87754250D01*
X160812500Y-88191750D01*
X160811447Y-88213191D01*
X160808297Y-88234426D01*
X160803081Y-88255250D01*
X160795849Y-88275462D01*
X160786670Y-88294868D01*
X160775634Y-88313281D01*
X160762846Y-88330524D01*
X160748430Y-88346430D01*
X160732524Y-88360846D01*
X160715281Y-88373634D01*
X160696868Y-88384670D01*
X160677462Y-88393849D01*
X160657250Y-88401081D01*
X160636426Y-88406297D01*
X160615191Y-88409447D01*
X160593750Y-88410500D01*
X160081250Y-88410500D01*
X160059809Y-88409447D01*
X160038574Y-88406297D01*
X160017750Y-88401081D01*
X159997538Y-88393849D01*
X159978132Y-88384670D01*
X159959719Y-88373634D01*
X159942476Y-88360846D01*
X159926570Y-88346430D01*
X159912154Y-88330524D01*
X159899366Y-88313281D01*
X159888330Y-88294868D01*
X159879151Y-88275462D01*
X159871919Y-88255250D01*
X159866703Y-88234426D01*
X159863553Y-88213191D01*
X159862500Y-88191750D01*
X159862500Y-87754250D01*
X159863553Y-87732809D01*
X159866703Y-87711574D01*
X159871919Y-87690750D01*
X159879151Y-87670538D01*
X159888330Y-87651132D01*
X159899366Y-87632719D01*
X159912154Y-87615476D01*
X159926570Y-87599570D01*
X159942476Y-87585154D01*
X159959719Y-87572366D01*
X159978132Y-87561330D01*
X159997538Y-87552151D01*
X160017750Y-87544919D01*
X160038574Y-87539703D01*
X160059809Y-87536553D01*
X160081250Y-87535500D01*
X160593750Y-87535500D01*
X160615191Y-87536553D01*
X160615191Y-87536553D01*
G37*
D11*
X160337500Y-87973000D03*
D10*
G36*
X162647191Y-82139053D02*
G01*
X162668426Y-82142203D01*
X162689250Y-82147419D01*
X162709462Y-82154651D01*
X162728868Y-82163830D01*
X162747281Y-82174866D01*
X162764524Y-82187654D01*
X162780430Y-82202070D01*
X162794846Y-82217976D01*
X162807634Y-82235219D01*
X162818670Y-82253632D01*
X162827849Y-82273038D01*
X162835081Y-82293250D01*
X162840297Y-82314074D01*
X162843447Y-82335309D01*
X162844500Y-82356750D01*
X162844500Y-82794250D01*
X162843447Y-82815691D01*
X162840297Y-82836926D01*
X162835081Y-82857750D01*
X162827849Y-82877962D01*
X162818670Y-82897368D01*
X162807634Y-82915781D01*
X162794846Y-82933024D01*
X162780430Y-82948930D01*
X162764524Y-82963346D01*
X162747281Y-82976134D01*
X162728868Y-82987170D01*
X162709462Y-82996349D01*
X162689250Y-83003581D01*
X162668426Y-83008797D01*
X162647191Y-83011947D01*
X162625750Y-83013000D01*
X162113250Y-83013000D01*
X162091809Y-83011947D01*
X162070574Y-83008797D01*
X162049750Y-83003581D01*
X162029538Y-82996349D01*
X162010132Y-82987170D01*
X161991719Y-82976134D01*
X161974476Y-82963346D01*
X161958570Y-82948930D01*
X161944154Y-82933024D01*
X161931366Y-82915781D01*
X161920330Y-82897368D01*
X161911151Y-82877962D01*
X161903919Y-82857750D01*
X161898703Y-82836926D01*
X161895553Y-82815691D01*
X161894500Y-82794250D01*
X161894500Y-82356750D01*
X161895553Y-82335309D01*
X161898703Y-82314074D01*
X161903919Y-82293250D01*
X161911151Y-82273038D01*
X161920330Y-82253632D01*
X161931366Y-82235219D01*
X161944154Y-82217976D01*
X161958570Y-82202070D01*
X161974476Y-82187654D01*
X161991719Y-82174866D01*
X162010132Y-82163830D01*
X162029538Y-82154651D01*
X162049750Y-82147419D01*
X162070574Y-82142203D01*
X162091809Y-82139053D01*
X162113250Y-82138000D01*
X162625750Y-82138000D01*
X162647191Y-82139053D01*
X162647191Y-82139053D01*
G37*
D11*
X162369500Y-82575500D03*
D10*
G36*
X162647191Y-80564053D02*
G01*
X162668426Y-80567203D01*
X162689250Y-80572419D01*
X162709462Y-80579651D01*
X162728868Y-80588830D01*
X162747281Y-80599866D01*
X162764524Y-80612654D01*
X162780430Y-80627070D01*
X162794846Y-80642976D01*
X162807634Y-80660219D01*
X162818670Y-80678632D01*
X162827849Y-80698038D01*
X162835081Y-80718250D01*
X162840297Y-80739074D01*
X162843447Y-80760309D01*
X162844500Y-80781750D01*
X162844500Y-81219250D01*
X162843447Y-81240691D01*
X162840297Y-81261926D01*
X162835081Y-81282750D01*
X162827849Y-81302962D01*
X162818670Y-81322368D01*
X162807634Y-81340781D01*
X162794846Y-81358024D01*
X162780430Y-81373930D01*
X162764524Y-81388346D01*
X162747281Y-81401134D01*
X162728868Y-81412170D01*
X162709462Y-81421349D01*
X162689250Y-81428581D01*
X162668426Y-81433797D01*
X162647191Y-81436947D01*
X162625750Y-81438000D01*
X162113250Y-81438000D01*
X162091809Y-81436947D01*
X162070574Y-81433797D01*
X162049750Y-81428581D01*
X162029538Y-81421349D01*
X162010132Y-81412170D01*
X161991719Y-81401134D01*
X161974476Y-81388346D01*
X161958570Y-81373930D01*
X161944154Y-81358024D01*
X161931366Y-81340781D01*
X161920330Y-81322368D01*
X161911151Y-81302962D01*
X161903919Y-81282750D01*
X161898703Y-81261926D01*
X161895553Y-81240691D01*
X161894500Y-81219250D01*
X161894500Y-80781750D01*
X161895553Y-80760309D01*
X161898703Y-80739074D01*
X161903919Y-80718250D01*
X161911151Y-80698038D01*
X161920330Y-80678632D01*
X161931366Y-80660219D01*
X161944154Y-80642976D01*
X161958570Y-80627070D01*
X161974476Y-80612654D01*
X161991719Y-80599866D01*
X162010132Y-80588830D01*
X162029538Y-80579651D01*
X162049750Y-80572419D01*
X162070574Y-80567203D01*
X162091809Y-80564053D01*
X162113250Y-80563000D01*
X162625750Y-80563000D01*
X162647191Y-80564053D01*
X162647191Y-80564053D01*
G37*
D11*
X162369500Y-81000500D03*
D15*
X161921000Y-87982000D03*
X162571000Y-87982000D03*
X163221000Y-87982000D03*
X163871000Y-87982000D03*
X164521000Y-87982000D03*
X165171000Y-87982000D03*
X165821000Y-87982000D03*
X166471000Y-87982000D03*
X167121000Y-87982000D03*
X167771000Y-87982000D03*
X167771000Y-93882000D03*
X167121000Y-93882000D03*
X166471000Y-93882000D03*
X165821000Y-93882000D03*
X165171000Y-93882000D03*
X164521000Y-93882000D03*
X163871000Y-93882000D03*
X163221000Y-93882000D03*
X162571000Y-93882000D03*
X161921000Y-93882000D03*
D10*
G36*
X167706504Y-83940204D02*
G01*
X167730773Y-83943804D01*
X167754571Y-83949765D01*
X167777671Y-83958030D01*
X167799849Y-83968520D01*
X167820893Y-83981133D01*
X167840598Y-83995747D01*
X167858777Y-84012223D01*
X167875253Y-84030402D01*
X167889867Y-84050107D01*
X167902480Y-84071151D01*
X167912970Y-84093329D01*
X167921235Y-84116429D01*
X167927196Y-84140227D01*
X167930796Y-84164496D01*
X167932000Y-84189000D01*
X167932000Y-86289000D01*
X167930796Y-86313504D01*
X167927196Y-86337773D01*
X167921235Y-86361571D01*
X167912970Y-86384671D01*
X167902480Y-86406849D01*
X167889867Y-86427893D01*
X167875253Y-86447598D01*
X167858777Y-86465777D01*
X167840598Y-86482253D01*
X167820893Y-86496867D01*
X167799849Y-86509480D01*
X167777671Y-86519970D01*
X167754571Y-86528235D01*
X167730773Y-86534196D01*
X167706504Y-86537796D01*
X167682000Y-86539000D01*
X166582000Y-86539000D01*
X166557496Y-86537796D01*
X166533227Y-86534196D01*
X166509429Y-86528235D01*
X166486329Y-86519970D01*
X166464151Y-86509480D01*
X166443107Y-86496867D01*
X166423402Y-86482253D01*
X166405223Y-86465777D01*
X166388747Y-86447598D01*
X166374133Y-86427893D01*
X166361520Y-86406849D01*
X166351030Y-86384671D01*
X166342765Y-86361571D01*
X166336804Y-86337773D01*
X166333204Y-86313504D01*
X166332000Y-86289000D01*
X166332000Y-84189000D01*
X166333204Y-84164496D01*
X166336804Y-84140227D01*
X166342765Y-84116429D01*
X166351030Y-84093329D01*
X166361520Y-84071151D01*
X166374133Y-84050107D01*
X166388747Y-84030402D01*
X166405223Y-84012223D01*
X166423402Y-83995747D01*
X166443107Y-83981133D01*
X166464151Y-83968520D01*
X166486329Y-83958030D01*
X166509429Y-83949765D01*
X166533227Y-83943804D01*
X166557496Y-83940204D01*
X166582000Y-83939000D01*
X167682000Y-83939000D01*
X167706504Y-83940204D01*
X167706504Y-83940204D01*
G37*
D16*
X167132000Y-85239000D03*
D10*
G36*
X167706504Y-80340204D02*
G01*
X167730773Y-80343804D01*
X167754571Y-80349765D01*
X167777671Y-80358030D01*
X167799849Y-80368520D01*
X167820893Y-80381133D01*
X167840598Y-80395747D01*
X167858777Y-80412223D01*
X167875253Y-80430402D01*
X167889867Y-80450107D01*
X167902480Y-80471151D01*
X167912970Y-80493329D01*
X167921235Y-80516429D01*
X167927196Y-80540227D01*
X167930796Y-80564496D01*
X167932000Y-80589000D01*
X167932000Y-82689000D01*
X167930796Y-82713504D01*
X167927196Y-82737773D01*
X167921235Y-82761571D01*
X167912970Y-82784671D01*
X167902480Y-82806849D01*
X167889867Y-82827893D01*
X167875253Y-82847598D01*
X167858777Y-82865777D01*
X167840598Y-82882253D01*
X167820893Y-82896867D01*
X167799849Y-82909480D01*
X167777671Y-82919970D01*
X167754571Y-82928235D01*
X167730773Y-82934196D01*
X167706504Y-82937796D01*
X167682000Y-82939000D01*
X166582000Y-82939000D01*
X166557496Y-82937796D01*
X166533227Y-82934196D01*
X166509429Y-82928235D01*
X166486329Y-82919970D01*
X166464151Y-82909480D01*
X166443107Y-82896867D01*
X166423402Y-82882253D01*
X166405223Y-82865777D01*
X166388747Y-82847598D01*
X166374133Y-82827893D01*
X166361520Y-82806849D01*
X166351030Y-82784671D01*
X166342765Y-82761571D01*
X166336804Y-82737773D01*
X166333204Y-82713504D01*
X166332000Y-82689000D01*
X166332000Y-80589000D01*
X166333204Y-80564496D01*
X166336804Y-80540227D01*
X166342765Y-80516429D01*
X166351030Y-80493329D01*
X166361520Y-80471151D01*
X166374133Y-80450107D01*
X166388747Y-80430402D01*
X166405223Y-80412223D01*
X166423402Y-80395747D01*
X166443107Y-80381133D01*
X166464151Y-80368520D01*
X166486329Y-80358030D01*
X166509429Y-80349765D01*
X166533227Y-80343804D01*
X166557496Y-80340204D01*
X166582000Y-80339000D01*
X167682000Y-80339000D01*
X167706504Y-80340204D01*
X167706504Y-80340204D01*
G37*
D16*
X167132000Y-81639000D03*
M02*
