G04 #@! TF.GenerationSoftware,KiCad,Pcbnew,7.0.5*
G04 #@! TF.CreationDate,2023-12-31T10:49:34+01:00*
G04 #@! TF.ProjectId,usb-to-ps2-gameport-hat-arduino-pro-mini,7573622d-746f-42d7-9073-322d67616d65,1.3*
G04 #@! TF.SameCoordinates,Original*
G04 #@! TF.FileFunction,Legend,Bot*
G04 #@! TF.FilePolarity,Positive*
%FSLAX46Y46*%
G04 Gerber Fmt 4.6, Leading zero omitted, Abs format (unit mm)*
G04 Created by KiCad (PCBNEW 7.0.5) date 2023-12-31 10:49:34*
%MOMM*%
%LPD*%
G01*
G04 APERTURE LIST*
%ADD10C,0.150000*%
%ADD11C,0.254000*%
%ADD12C,0.250000*%
G04 APERTURE END LIST*
D10*
X121252744Y-75469164D02*
X121252744Y-74719164D01*
X121252744Y-74719164D02*
X120967030Y-74719164D01*
X120967030Y-74719164D02*
X120895601Y-74754878D01*
X120895601Y-74754878D02*
X120859887Y-74790592D01*
X120859887Y-74790592D02*
X120824173Y-74862021D01*
X120824173Y-74862021D02*
X120824173Y-74969164D01*
X120824173Y-74969164D02*
X120859887Y-75040592D01*
X120859887Y-75040592D02*
X120895601Y-75076307D01*
X120895601Y-75076307D02*
X120967030Y-75112021D01*
X120967030Y-75112021D02*
X121252744Y-75112021D01*
X120538458Y-75433450D02*
X120431316Y-75469164D01*
X120431316Y-75469164D02*
X120252744Y-75469164D01*
X120252744Y-75469164D02*
X120181316Y-75433450D01*
X120181316Y-75433450D02*
X120145601Y-75397735D01*
X120145601Y-75397735D02*
X120109887Y-75326307D01*
X120109887Y-75326307D02*
X120109887Y-75254878D01*
X120109887Y-75254878D02*
X120145601Y-75183450D01*
X120145601Y-75183450D02*
X120181316Y-75147735D01*
X120181316Y-75147735D02*
X120252744Y-75112021D01*
X120252744Y-75112021D02*
X120395601Y-75076307D01*
X120395601Y-75076307D02*
X120467030Y-75040592D01*
X120467030Y-75040592D02*
X120502744Y-75004878D01*
X120502744Y-75004878D02*
X120538458Y-74933450D01*
X120538458Y-74933450D02*
X120538458Y-74862021D01*
X120538458Y-74862021D02*
X120502744Y-74790592D01*
X120502744Y-74790592D02*
X120467030Y-74754878D01*
X120467030Y-74754878D02*
X120395601Y-74719164D01*
X120395601Y-74719164D02*
X120217030Y-74719164D01*
X120217030Y-74719164D02*
X120109887Y-74754878D01*
X119252744Y-74683450D02*
X119895601Y-75647735D01*
X119038458Y-74790592D02*
X119002744Y-74754878D01*
X119002744Y-74754878D02*
X118931316Y-74719164D01*
X118931316Y-74719164D02*
X118752744Y-74719164D01*
X118752744Y-74719164D02*
X118681316Y-74754878D01*
X118681316Y-74754878D02*
X118645601Y-74790592D01*
X118645601Y-74790592D02*
X118609887Y-74862021D01*
X118609887Y-74862021D02*
X118609887Y-74933450D01*
X118609887Y-74933450D02*
X118645601Y-75040592D01*
X118645601Y-75040592D02*
X119074173Y-75469164D01*
X119074173Y-75469164D02*
X118609887Y-75469164D01*
X117681315Y-75469164D02*
X117717030Y-75469164D01*
X117717030Y-75469164D02*
X117788458Y-75433450D01*
X117788458Y-75433450D02*
X117895601Y-75326307D01*
X117895601Y-75326307D02*
X118074172Y-75112021D01*
X118074172Y-75112021D02*
X118145601Y-75004878D01*
X118145601Y-75004878D02*
X118181315Y-74897735D01*
X118181315Y-74897735D02*
X118181315Y-74826307D01*
X118181315Y-74826307D02*
X118145601Y-74754878D01*
X118145601Y-74754878D02*
X118074172Y-74719164D01*
X118074172Y-74719164D02*
X118038458Y-74719164D01*
X118038458Y-74719164D02*
X117967030Y-74754878D01*
X117967030Y-74754878D02*
X117931315Y-74826307D01*
X117931315Y-74826307D02*
X117931315Y-74862021D01*
X117931315Y-74862021D02*
X117967030Y-74933450D01*
X117967030Y-74933450D02*
X118002744Y-74969164D01*
X118002744Y-74969164D02*
X118217030Y-75112021D01*
X118217030Y-75112021D02*
X118252744Y-75147735D01*
X118252744Y-75147735D02*
X118288458Y-75219164D01*
X118288458Y-75219164D02*
X118288458Y-75326307D01*
X118288458Y-75326307D02*
X118252744Y-75397735D01*
X118252744Y-75397735D02*
X118217030Y-75433450D01*
X118217030Y-75433450D02*
X118145601Y-75469164D01*
X118145601Y-75469164D02*
X118038458Y-75469164D01*
X118038458Y-75469164D02*
X117967030Y-75433450D01*
X117967030Y-75433450D02*
X117931315Y-75397735D01*
X117931315Y-75397735D02*
X117824172Y-75254878D01*
X117824172Y-75254878D02*
X117788458Y-75147735D01*
X117788458Y-75147735D02*
X117788458Y-75076307D01*
X116967030Y-74754878D02*
X117038459Y-74719164D01*
X117038459Y-74719164D02*
X117145601Y-74719164D01*
X117145601Y-74719164D02*
X117252744Y-74754878D01*
X117252744Y-74754878D02*
X117324173Y-74826307D01*
X117324173Y-74826307D02*
X117359887Y-74897735D01*
X117359887Y-74897735D02*
X117395601Y-75040592D01*
X117395601Y-75040592D02*
X117395601Y-75147735D01*
X117395601Y-75147735D02*
X117359887Y-75290592D01*
X117359887Y-75290592D02*
X117324173Y-75362021D01*
X117324173Y-75362021D02*
X117252744Y-75433450D01*
X117252744Y-75433450D02*
X117145601Y-75469164D01*
X117145601Y-75469164D02*
X117074173Y-75469164D01*
X117074173Y-75469164D02*
X116967030Y-75433450D01*
X116967030Y-75433450D02*
X116931316Y-75397735D01*
X116931316Y-75397735D02*
X116931316Y-75147735D01*
X116931316Y-75147735D02*
X117074173Y-75147735D01*
X116288459Y-75469164D02*
X116288459Y-75076307D01*
X116288459Y-75076307D02*
X116324173Y-75004878D01*
X116324173Y-75004878D02*
X116395601Y-74969164D01*
X116395601Y-74969164D02*
X116538459Y-74969164D01*
X116538459Y-74969164D02*
X116609887Y-75004878D01*
X116288459Y-75433450D02*
X116359887Y-75469164D01*
X116359887Y-75469164D02*
X116538459Y-75469164D01*
X116538459Y-75469164D02*
X116609887Y-75433450D01*
X116609887Y-75433450D02*
X116645601Y-75362021D01*
X116645601Y-75362021D02*
X116645601Y-75290592D01*
X116645601Y-75290592D02*
X116609887Y-75219164D01*
X116609887Y-75219164D02*
X116538459Y-75183450D01*
X116538459Y-75183450D02*
X116359887Y-75183450D01*
X116359887Y-75183450D02*
X116288459Y-75147735D01*
X115931316Y-75469164D02*
X115931316Y-74969164D01*
X115931316Y-75040592D02*
X115895602Y-75004878D01*
X115895602Y-75004878D02*
X115824173Y-74969164D01*
X115824173Y-74969164D02*
X115717030Y-74969164D01*
X115717030Y-74969164D02*
X115645602Y-75004878D01*
X115645602Y-75004878D02*
X115609888Y-75076307D01*
X115609888Y-75076307D02*
X115609888Y-75469164D01*
X115609888Y-75076307D02*
X115574173Y-75004878D01*
X115574173Y-75004878D02*
X115502745Y-74969164D01*
X115502745Y-74969164D02*
X115395602Y-74969164D01*
X115395602Y-74969164D02*
X115324173Y-75004878D01*
X115324173Y-75004878D02*
X115288459Y-75076307D01*
X115288459Y-75076307D02*
X115288459Y-75469164D01*
X114645602Y-75433450D02*
X114717030Y-75469164D01*
X114717030Y-75469164D02*
X114859888Y-75469164D01*
X114859888Y-75469164D02*
X114931316Y-75433450D01*
X114931316Y-75433450D02*
X114967030Y-75362021D01*
X114967030Y-75362021D02*
X114967030Y-75076307D01*
X114967030Y-75076307D02*
X114931316Y-75004878D01*
X114931316Y-75004878D02*
X114859888Y-74969164D01*
X114859888Y-74969164D02*
X114717030Y-74969164D01*
X114717030Y-74969164D02*
X114645602Y-75004878D01*
X114645602Y-75004878D02*
X114609888Y-75076307D01*
X114609888Y-75076307D02*
X114609888Y-75147735D01*
X114609888Y-75147735D02*
X114967030Y-75219164D01*
X114288459Y-74969164D02*
X114288459Y-75719164D01*
X114288459Y-75004878D02*
X114217031Y-74969164D01*
X114217031Y-74969164D02*
X114074173Y-74969164D01*
X114074173Y-74969164D02*
X114002745Y-75004878D01*
X114002745Y-75004878D02*
X113967031Y-75040592D01*
X113967031Y-75040592D02*
X113931316Y-75112021D01*
X113931316Y-75112021D02*
X113931316Y-75326307D01*
X113931316Y-75326307D02*
X113967031Y-75397735D01*
X113967031Y-75397735D02*
X114002745Y-75433450D01*
X114002745Y-75433450D02*
X114074173Y-75469164D01*
X114074173Y-75469164D02*
X114217031Y-75469164D01*
X114217031Y-75469164D02*
X114288459Y-75433450D01*
X113502745Y-75469164D02*
X113574174Y-75433450D01*
X113574174Y-75433450D02*
X113609888Y-75397735D01*
X113609888Y-75397735D02*
X113645602Y-75326307D01*
X113645602Y-75326307D02*
X113645602Y-75112021D01*
X113645602Y-75112021D02*
X113609888Y-75040592D01*
X113609888Y-75040592D02*
X113574174Y-75004878D01*
X113574174Y-75004878D02*
X113502745Y-74969164D01*
X113502745Y-74969164D02*
X113395602Y-74969164D01*
X113395602Y-74969164D02*
X113324174Y-75004878D01*
X113324174Y-75004878D02*
X113288460Y-75040592D01*
X113288460Y-75040592D02*
X113252745Y-75112021D01*
X113252745Y-75112021D02*
X113252745Y-75326307D01*
X113252745Y-75326307D02*
X113288460Y-75397735D01*
X113288460Y-75397735D02*
X113324174Y-75433450D01*
X113324174Y-75433450D02*
X113395602Y-75469164D01*
X113395602Y-75469164D02*
X113502745Y-75469164D01*
X112931317Y-75469164D02*
X112931317Y-74969164D01*
X112931317Y-75112021D02*
X112895603Y-75040592D01*
X112895603Y-75040592D02*
X112859889Y-75004878D01*
X112859889Y-75004878D02*
X112788460Y-74969164D01*
X112788460Y-74969164D02*
X112717031Y-74969164D01*
X112574174Y-74969164D02*
X112288460Y-74969164D01*
X112467031Y-74719164D02*
X112467031Y-75362021D01*
X112467031Y-75362021D02*
X112431317Y-75433450D01*
X112431317Y-75433450D02*
X112359888Y-75469164D01*
X112359888Y-75469164D02*
X112288460Y-75469164D01*
X111502745Y-75254878D02*
X111145603Y-75254878D01*
X111574174Y-75469164D02*
X111324174Y-74719164D01*
X111324174Y-74719164D02*
X111074174Y-75469164D01*
X110824174Y-75469164D02*
X110824174Y-74969164D01*
X110824174Y-75112021D02*
X110788460Y-75040592D01*
X110788460Y-75040592D02*
X110752746Y-75004878D01*
X110752746Y-75004878D02*
X110681317Y-74969164D01*
X110681317Y-74969164D02*
X110609888Y-74969164D01*
X110038460Y-75469164D02*
X110038460Y-74719164D01*
X110038460Y-75433450D02*
X110109888Y-75469164D01*
X110109888Y-75469164D02*
X110252745Y-75469164D01*
X110252745Y-75469164D02*
X110324174Y-75433450D01*
X110324174Y-75433450D02*
X110359888Y-75397735D01*
X110359888Y-75397735D02*
X110395602Y-75326307D01*
X110395602Y-75326307D02*
X110395602Y-75112021D01*
X110395602Y-75112021D02*
X110359888Y-75040592D01*
X110359888Y-75040592D02*
X110324174Y-75004878D01*
X110324174Y-75004878D02*
X110252745Y-74969164D01*
X110252745Y-74969164D02*
X110109888Y-74969164D01*
X110109888Y-74969164D02*
X110038460Y-75004878D01*
X109359889Y-74969164D02*
X109359889Y-75469164D01*
X109681317Y-74969164D02*
X109681317Y-75362021D01*
X109681317Y-75362021D02*
X109645603Y-75433450D01*
X109645603Y-75433450D02*
X109574174Y-75469164D01*
X109574174Y-75469164D02*
X109467031Y-75469164D01*
X109467031Y-75469164D02*
X109395603Y-75433450D01*
X109395603Y-75433450D02*
X109359889Y-75397735D01*
X109002746Y-75469164D02*
X109002746Y-74969164D01*
X109002746Y-74719164D02*
X109038460Y-74754878D01*
X109038460Y-74754878D02*
X109002746Y-74790592D01*
X109002746Y-74790592D02*
X108967032Y-74754878D01*
X108967032Y-74754878D02*
X109002746Y-74719164D01*
X109002746Y-74719164D02*
X109002746Y-74790592D01*
X108645603Y-74969164D02*
X108645603Y-75469164D01*
X108645603Y-75040592D02*
X108609889Y-75004878D01*
X108609889Y-75004878D02*
X108538460Y-74969164D01*
X108538460Y-74969164D02*
X108431317Y-74969164D01*
X108431317Y-74969164D02*
X108359889Y-75004878D01*
X108359889Y-75004878D02*
X108324175Y-75076307D01*
X108324175Y-75076307D02*
X108324175Y-75469164D01*
X107859889Y-75469164D02*
X107931318Y-75433450D01*
X107931318Y-75433450D02*
X107967032Y-75397735D01*
X107967032Y-75397735D02*
X108002746Y-75326307D01*
X108002746Y-75326307D02*
X108002746Y-75112021D01*
X108002746Y-75112021D02*
X107967032Y-75040592D01*
X107967032Y-75040592D02*
X107931318Y-75004878D01*
X107931318Y-75004878D02*
X107859889Y-74969164D01*
X107859889Y-74969164D02*
X107752746Y-74969164D01*
X107752746Y-74969164D02*
X107681318Y-75004878D01*
X107681318Y-75004878D02*
X107645604Y-75040592D01*
X107645604Y-75040592D02*
X107609889Y-75112021D01*
X107609889Y-75112021D02*
X107609889Y-75326307D01*
X107609889Y-75326307D02*
X107645604Y-75397735D01*
X107645604Y-75397735D02*
X107681318Y-75433450D01*
X107681318Y-75433450D02*
X107752746Y-75469164D01*
X107752746Y-75469164D02*
X107859889Y-75469164D01*
X106752746Y-75433450D02*
X106645604Y-75469164D01*
X106645604Y-75469164D02*
X106467032Y-75469164D01*
X106467032Y-75469164D02*
X106395604Y-75433450D01*
X106395604Y-75433450D02*
X106359889Y-75397735D01*
X106359889Y-75397735D02*
X106324175Y-75326307D01*
X106324175Y-75326307D02*
X106324175Y-75254878D01*
X106324175Y-75254878D02*
X106359889Y-75183450D01*
X106359889Y-75183450D02*
X106395604Y-75147735D01*
X106395604Y-75147735D02*
X106467032Y-75112021D01*
X106467032Y-75112021D02*
X106609889Y-75076307D01*
X106609889Y-75076307D02*
X106681318Y-75040592D01*
X106681318Y-75040592D02*
X106717032Y-75004878D01*
X106717032Y-75004878D02*
X106752746Y-74933450D01*
X106752746Y-74933450D02*
X106752746Y-74862021D01*
X106752746Y-74862021D02*
X106717032Y-74790592D01*
X106717032Y-74790592D02*
X106681318Y-74754878D01*
X106681318Y-74754878D02*
X106609889Y-74719164D01*
X106609889Y-74719164D02*
X106431318Y-74719164D01*
X106431318Y-74719164D02*
X106324175Y-74754878D01*
X106002746Y-75469164D02*
X106002746Y-74719164D01*
X105681318Y-75469164D02*
X105681318Y-75076307D01*
X105681318Y-75076307D02*
X105717032Y-75004878D01*
X105717032Y-75004878D02*
X105788460Y-74969164D01*
X105788460Y-74969164D02*
X105895603Y-74969164D01*
X105895603Y-74969164D02*
X105967032Y-75004878D01*
X105967032Y-75004878D02*
X106002746Y-75040592D01*
X105324175Y-75469164D02*
X105324175Y-74969164D01*
X105324175Y-74719164D02*
X105359889Y-74754878D01*
X105359889Y-74754878D02*
X105324175Y-74790592D01*
X105324175Y-74790592D02*
X105288461Y-74754878D01*
X105288461Y-74754878D02*
X105324175Y-74719164D01*
X105324175Y-74719164D02*
X105324175Y-74790592D01*
X104681318Y-75433450D02*
X104752746Y-75469164D01*
X104752746Y-75469164D02*
X104895604Y-75469164D01*
X104895604Y-75469164D02*
X104967032Y-75433450D01*
X104967032Y-75433450D02*
X105002746Y-75362021D01*
X105002746Y-75362021D02*
X105002746Y-75076307D01*
X105002746Y-75076307D02*
X104967032Y-75004878D01*
X104967032Y-75004878D02*
X104895604Y-74969164D01*
X104895604Y-74969164D02*
X104752746Y-74969164D01*
X104752746Y-74969164D02*
X104681318Y-75004878D01*
X104681318Y-75004878D02*
X104645604Y-75076307D01*
X104645604Y-75076307D02*
X104645604Y-75147735D01*
X104645604Y-75147735D02*
X105002746Y-75219164D01*
X104217032Y-75469164D02*
X104288461Y-75433450D01*
X104288461Y-75433450D02*
X104324175Y-75362021D01*
X104324175Y-75362021D02*
X104324175Y-74719164D01*
X103609890Y-75469164D02*
X103609890Y-74719164D01*
X103609890Y-75433450D02*
X103681318Y-75469164D01*
X103681318Y-75469164D02*
X103824175Y-75469164D01*
X103824175Y-75469164D02*
X103895604Y-75433450D01*
X103895604Y-75433450D02*
X103931318Y-75397735D01*
X103931318Y-75397735D02*
X103967032Y-75326307D01*
X103967032Y-75326307D02*
X103967032Y-75112021D01*
X103967032Y-75112021D02*
X103931318Y-75040592D01*
X103931318Y-75040592D02*
X103895604Y-75004878D01*
X103895604Y-75004878D02*
X103824175Y-74969164D01*
X103824175Y-74969164D02*
X103681318Y-74969164D01*
X103681318Y-74969164D02*
X103609890Y-75004878D01*
X121359887Y-76119164D02*
X121109887Y-76869164D01*
X121109887Y-76869164D02*
X120859887Y-76119164D01*
X120217030Y-76869164D02*
X120645601Y-76869164D01*
X120431316Y-76869164D02*
X120431316Y-76119164D01*
X120431316Y-76119164D02*
X120502744Y-76226307D01*
X120502744Y-76226307D02*
X120574173Y-76297735D01*
X120574173Y-76297735D02*
X120645601Y-76333450D01*
X119895601Y-76797735D02*
X119859887Y-76833450D01*
X119859887Y-76833450D02*
X119895601Y-76869164D01*
X119895601Y-76869164D02*
X119931315Y-76833450D01*
X119931315Y-76833450D02*
X119895601Y-76797735D01*
X119895601Y-76797735D02*
X119895601Y-76869164D01*
X119609887Y-76119164D02*
X119145601Y-76119164D01*
X119145601Y-76119164D02*
X119395601Y-76404878D01*
X119395601Y-76404878D02*
X119288458Y-76404878D01*
X119288458Y-76404878D02*
X119217030Y-76440592D01*
X119217030Y-76440592D02*
X119181315Y-76476307D01*
X119181315Y-76476307D02*
X119145601Y-76547735D01*
X119145601Y-76547735D02*
X119145601Y-76726307D01*
X119145601Y-76726307D02*
X119181315Y-76797735D01*
X119181315Y-76797735D02*
X119217030Y-76833450D01*
X119217030Y-76833450D02*
X119288458Y-76869164D01*
X119288458Y-76869164D02*
X119502744Y-76869164D01*
X119502744Y-76869164D02*
X119574172Y-76833450D01*
X119574172Y-76833450D02*
X119609887Y-76797735D01*
X117645600Y-76297735D02*
X117717029Y-76262021D01*
X117717029Y-76262021D02*
X117859886Y-76262021D01*
X117859886Y-76262021D02*
X117931315Y-76297735D01*
X117931315Y-76297735D02*
X118002743Y-76369164D01*
X118002743Y-76369164D02*
X118038457Y-76440592D01*
X118038457Y-76440592D02*
X118038457Y-76583450D01*
X118038457Y-76583450D02*
X118002743Y-76654878D01*
X118002743Y-76654878D02*
X117931315Y-76726307D01*
X117931315Y-76726307D02*
X117859886Y-76762021D01*
X117859886Y-76762021D02*
X117717029Y-76762021D01*
X117717029Y-76762021D02*
X117645600Y-76726307D01*
X117788457Y-76012021D02*
X117967029Y-76047735D01*
X117967029Y-76047735D02*
X118145600Y-76154878D01*
X118145600Y-76154878D02*
X118252743Y-76333450D01*
X118252743Y-76333450D02*
X118288457Y-76512021D01*
X118288457Y-76512021D02*
X118252743Y-76690592D01*
X118252743Y-76690592D02*
X118145600Y-76869164D01*
X118145600Y-76869164D02*
X117967029Y-76976307D01*
X117967029Y-76976307D02*
X117788457Y-77012021D01*
X117788457Y-77012021D02*
X117609886Y-76976307D01*
X117609886Y-76976307D02*
X117431315Y-76869164D01*
X117431315Y-76869164D02*
X117324172Y-76690592D01*
X117324172Y-76690592D02*
X117288457Y-76512021D01*
X117288457Y-76512021D02*
X117324172Y-76333450D01*
X117324172Y-76333450D02*
X117431315Y-76154878D01*
X117431315Y-76154878D02*
X117609886Y-76047735D01*
X117609886Y-76047735D02*
X117788457Y-76012021D01*
X116431314Y-76190592D02*
X116395600Y-76154878D01*
X116395600Y-76154878D02*
X116324172Y-76119164D01*
X116324172Y-76119164D02*
X116145600Y-76119164D01*
X116145600Y-76119164D02*
X116074172Y-76154878D01*
X116074172Y-76154878D02*
X116038457Y-76190592D01*
X116038457Y-76190592D02*
X116002743Y-76262021D01*
X116002743Y-76262021D02*
X116002743Y-76333450D01*
X116002743Y-76333450D02*
X116038457Y-76440592D01*
X116038457Y-76440592D02*
X116467029Y-76869164D01*
X116467029Y-76869164D02*
X116002743Y-76869164D01*
X115538457Y-76119164D02*
X115467028Y-76119164D01*
X115467028Y-76119164D02*
X115395600Y-76154878D01*
X115395600Y-76154878D02*
X115359886Y-76190592D01*
X115359886Y-76190592D02*
X115324171Y-76262021D01*
X115324171Y-76262021D02*
X115288457Y-76404878D01*
X115288457Y-76404878D02*
X115288457Y-76583450D01*
X115288457Y-76583450D02*
X115324171Y-76726307D01*
X115324171Y-76726307D02*
X115359886Y-76797735D01*
X115359886Y-76797735D02*
X115395600Y-76833450D01*
X115395600Y-76833450D02*
X115467028Y-76869164D01*
X115467028Y-76869164D02*
X115538457Y-76869164D01*
X115538457Y-76869164D02*
X115609886Y-76833450D01*
X115609886Y-76833450D02*
X115645600Y-76797735D01*
X115645600Y-76797735D02*
X115681314Y-76726307D01*
X115681314Y-76726307D02*
X115717028Y-76583450D01*
X115717028Y-76583450D02*
X115717028Y-76404878D01*
X115717028Y-76404878D02*
X115681314Y-76262021D01*
X115681314Y-76262021D02*
X115645600Y-76190592D01*
X115645600Y-76190592D02*
X115609886Y-76154878D01*
X115609886Y-76154878D02*
X115538457Y-76119164D01*
X114574171Y-76869164D02*
X115002742Y-76869164D01*
X114788457Y-76869164D02*
X114788457Y-76119164D01*
X114788457Y-76119164D02*
X114859885Y-76226307D01*
X114859885Y-76226307D02*
X114931314Y-76297735D01*
X114931314Y-76297735D02*
X115002742Y-76333450D01*
X114217028Y-76869164D02*
X114074171Y-76869164D01*
X114074171Y-76869164D02*
X114002742Y-76833450D01*
X114002742Y-76833450D02*
X113967028Y-76797735D01*
X113967028Y-76797735D02*
X113895599Y-76690592D01*
X113895599Y-76690592D02*
X113859885Y-76547735D01*
X113859885Y-76547735D02*
X113859885Y-76262021D01*
X113859885Y-76262021D02*
X113895599Y-76190592D01*
X113895599Y-76190592D02*
X113931314Y-76154878D01*
X113931314Y-76154878D02*
X114002742Y-76119164D01*
X114002742Y-76119164D02*
X114145599Y-76119164D01*
X114145599Y-76119164D02*
X114217028Y-76154878D01*
X114217028Y-76154878D02*
X114252742Y-76190592D01*
X114252742Y-76190592D02*
X114288456Y-76262021D01*
X114288456Y-76262021D02*
X114288456Y-76440592D01*
X114288456Y-76440592D02*
X114252742Y-76512021D01*
X114252742Y-76512021D02*
X114217028Y-76547735D01*
X114217028Y-76547735D02*
X114145599Y-76583450D01*
X114145599Y-76583450D02*
X114002742Y-76583450D01*
X114002742Y-76583450D02*
X113931314Y-76547735D01*
X113931314Y-76547735D02*
X113895599Y-76512021D01*
X113895599Y-76512021D02*
X113859885Y-76440592D01*
X112967027Y-76869164D02*
X112967027Y-76119164D01*
X112967027Y-76404878D02*
X112895599Y-76369164D01*
X112895599Y-76369164D02*
X112752741Y-76369164D01*
X112752741Y-76369164D02*
X112681313Y-76404878D01*
X112681313Y-76404878D02*
X112645599Y-76440592D01*
X112645599Y-76440592D02*
X112609884Y-76512021D01*
X112609884Y-76512021D02*
X112609884Y-76726307D01*
X112609884Y-76726307D02*
X112645599Y-76797735D01*
X112645599Y-76797735D02*
X112681313Y-76833450D01*
X112681313Y-76833450D02*
X112752741Y-76869164D01*
X112752741Y-76869164D02*
X112895599Y-76869164D01*
X112895599Y-76869164D02*
X112967027Y-76833450D01*
X112359885Y-76369164D02*
X112181313Y-76869164D01*
X112002742Y-76369164D02*
X112181313Y-76869164D01*
X112181313Y-76869164D02*
X112252742Y-77047735D01*
X112252742Y-77047735D02*
X112288456Y-77083450D01*
X112288456Y-77083450D02*
X112359885Y-77119164D01*
X111145598Y-76869164D02*
X111145598Y-76119164D01*
X111145598Y-76476307D02*
X110717027Y-76476307D01*
X110717027Y-76869164D02*
X110717027Y-76119164D01*
X110038456Y-76369164D02*
X110038456Y-76869164D01*
X110359884Y-76369164D02*
X110359884Y-76762021D01*
X110359884Y-76762021D02*
X110324170Y-76833450D01*
X110324170Y-76833450D02*
X110252741Y-76869164D01*
X110252741Y-76869164D02*
X110145598Y-76869164D01*
X110145598Y-76869164D02*
X110074170Y-76833450D01*
X110074170Y-76833450D02*
X110038456Y-76797735D01*
X109681313Y-76869164D02*
X109681313Y-76119164D01*
X109681313Y-76404878D02*
X109609885Y-76369164D01*
X109609885Y-76369164D02*
X109467027Y-76369164D01*
X109467027Y-76369164D02*
X109395599Y-76404878D01*
X109395599Y-76404878D02*
X109359885Y-76440592D01*
X109359885Y-76440592D02*
X109324170Y-76512021D01*
X109324170Y-76512021D02*
X109324170Y-76726307D01*
X109324170Y-76726307D02*
X109359885Y-76797735D01*
X109359885Y-76797735D02*
X109395599Y-76833450D01*
X109395599Y-76833450D02*
X109467027Y-76869164D01*
X109467027Y-76869164D02*
X109609885Y-76869164D01*
X109609885Y-76869164D02*
X109681313Y-76833450D01*
X109038456Y-76833450D02*
X108967028Y-76869164D01*
X108967028Y-76869164D02*
X108824171Y-76869164D01*
X108824171Y-76869164D02*
X108752742Y-76833450D01*
X108752742Y-76833450D02*
X108717028Y-76762021D01*
X108717028Y-76762021D02*
X108717028Y-76726307D01*
X108717028Y-76726307D02*
X108752742Y-76654878D01*
X108752742Y-76654878D02*
X108824171Y-76619164D01*
X108824171Y-76619164D02*
X108931314Y-76619164D01*
X108931314Y-76619164D02*
X109002742Y-76583450D01*
X109002742Y-76583450D02*
X109038456Y-76512021D01*
X109038456Y-76512021D02*
X109038456Y-76476307D01*
X109038456Y-76476307D02*
X109002742Y-76404878D01*
X109002742Y-76404878D02*
X108931314Y-76369164D01*
X108931314Y-76369164D02*
X108824171Y-76369164D01*
X108824171Y-76369164D02*
X108752742Y-76404878D01*
X108395599Y-76869164D02*
X108395599Y-76369164D01*
X108395599Y-76119164D02*
X108431313Y-76154878D01*
X108431313Y-76154878D02*
X108395599Y-76190592D01*
X108395599Y-76190592D02*
X108359885Y-76154878D01*
X108359885Y-76154878D02*
X108395599Y-76119164D01*
X108395599Y-76119164D02*
X108395599Y-76190592D01*
D11*
X136574318Y-45529285D02*
X135304318Y-45529285D01*
X135304318Y-45529285D02*
X136211461Y-45952619D01*
X136211461Y-45952619D02*
X135304318Y-46375952D01*
X135304318Y-46375952D02*
X136574318Y-46375952D01*
X136574318Y-47162143D02*
X136513842Y-47041191D01*
X136513842Y-47041191D02*
X136453365Y-46980714D01*
X136453365Y-46980714D02*
X136332413Y-46920238D01*
X136332413Y-46920238D02*
X135969556Y-46920238D01*
X135969556Y-46920238D02*
X135848603Y-46980714D01*
X135848603Y-46980714D02*
X135788127Y-47041191D01*
X135788127Y-47041191D02*
X135727651Y-47162143D01*
X135727651Y-47162143D02*
X135727651Y-47343572D01*
X135727651Y-47343572D02*
X135788127Y-47464524D01*
X135788127Y-47464524D02*
X135848603Y-47525000D01*
X135848603Y-47525000D02*
X135969556Y-47585476D01*
X135969556Y-47585476D02*
X136332413Y-47585476D01*
X136332413Y-47585476D02*
X136453365Y-47525000D01*
X136453365Y-47525000D02*
X136513842Y-47464524D01*
X136513842Y-47464524D02*
X136574318Y-47343572D01*
X136574318Y-47343572D02*
X136574318Y-47162143D01*
X135727651Y-48674048D02*
X136574318Y-48674048D01*
X135727651Y-48129762D02*
X136392889Y-48129762D01*
X136392889Y-48129762D02*
X136513842Y-48190239D01*
X136513842Y-48190239D02*
X136574318Y-48311191D01*
X136574318Y-48311191D02*
X136574318Y-48492620D01*
X136574318Y-48492620D02*
X136513842Y-48613572D01*
X136513842Y-48613572D02*
X136453365Y-48674048D01*
X136513842Y-49218334D02*
X136574318Y-49339287D01*
X136574318Y-49339287D02*
X136574318Y-49581191D01*
X136574318Y-49581191D02*
X136513842Y-49702144D01*
X136513842Y-49702144D02*
X136392889Y-49762620D01*
X136392889Y-49762620D02*
X136332413Y-49762620D01*
X136332413Y-49762620D02*
X136211461Y-49702144D01*
X136211461Y-49702144D02*
X136150984Y-49581191D01*
X136150984Y-49581191D02*
X136150984Y-49399763D01*
X136150984Y-49399763D02*
X136090508Y-49278810D01*
X136090508Y-49278810D02*
X135969556Y-49218334D01*
X135969556Y-49218334D02*
X135909080Y-49218334D01*
X135909080Y-49218334D02*
X135788127Y-49278810D01*
X135788127Y-49278810D02*
X135727651Y-49399763D01*
X135727651Y-49399763D02*
X135727651Y-49581191D01*
X135727651Y-49581191D02*
X135788127Y-49702144D01*
X136513842Y-50790715D02*
X136574318Y-50669763D01*
X136574318Y-50669763D02*
X136574318Y-50427858D01*
X136574318Y-50427858D02*
X136513842Y-50306905D01*
X136513842Y-50306905D02*
X136392889Y-50246429D01*
X136392889Y-50246429D02*
X135909080Y-50246429D01*
X135909080Y-50246429D02*
X135788127Y-50306905D01*
X135788127Y-50306905D02*
X135727651Y-50427858D01*
X135727651Y-50427858D02*
X135727651Y-50669763D01*
X135727651Y-50669763D02*
X135788127Y-50790715D01*
X135788127Y-50790715D02*
X135909080Y-50851191D01*
X135909080Y-50851191D02*
X136030032Y-50851191D01*
X136030032Y-50851191D02*
X136150984Y-50246429D01*
D12*
X87174797Y-54517856D02*
X87115273Y-54398809D01*
X87115273Y-54398809D02*
X87115273Y-54220237D01*
X87115273Y-54220237D02*
X87174797Y-54041666D01*
X87174797Y-54041666D02*
X87293845Y-53922618D01*
X87293845Y-53922618D02*
X87412892Y-53863095D01*
X87412892Y-53863095D02*
X87650988Y-53803571D01*
X87650988Y-53803571D02*
X87829559Y-53803571D01*
X87829559Y-53803571D02*
X88067654Y-53863095D01*
X88067654Y-53863095D02*
X88186702Y-53922618D01*
X88186702Y-53922618D02*
X88305750Y-54041666D01*
X88305750Y-54041666D02*
X88365273Y-54220237D01*
X88365273Y-54220237D02*
X88365273Y-54339285D01*
X88365273Y-54339285D02*
X88305750Y-54517856D01*
X88305750Y-54517856D02*
X88246226Y-54577380D01*
X88246226Y-54577380D02*
X87829559Y-54577380D01*
X87829559Y-54577380D02*
X87829559Y-54339285D01*
X88365273Y-55648809D02*
X87710511Y-55648809D01*
X87710511Y-55648809D02*
X87591464Y-55589285D01*
X87591464Y-55589285D02*
X87531940Y-55470237D01*
X87531940Y-55470237D02*
X87531940Y-55232142D01*
X87531940Y-55232142D02*
X87591464Y-55113095D01*
X88305750Y-55648809D02*
X88365273Y-55529761D01*
X88365273Y-55529761D02*
X88365273Y-55232142D01*
X88365273Y-55232142D02*
X88305750Y-55113095D01*
X88305750Y-55113095D02*
X88186702Y-55053571D01*
X88186702Y-55053571D02*
X88067654Y-55053571D01*
X88067654Y-55053571D02*
X87948607Y-55113095D01*
X87948607Y-55113095D02*
X87889083Y-55232142D01*
X87889083Y-55232142D02*
X87889083Y-55529761D01*
X87889083Y-55529761D02*
X87829559Y-55648809D01*
X88365273Y-56244047D02*
X87531940Y-56244047D01*
X87650988Y-56244047D02*
X87591464Y-56303570D01*
X87591464Y-56303570D02*
X87531940Y-56422618D01*
X87531940Y-56422618D02*
X87531940Y-56601189D01*
X87531940Y-56601189D02*
X87591464Y-56720237D01*
X87591464Y-56720237D02*
X87710511Y-56779761D01*
X87710511Y-56779761D02*
X88365273Y-56779761D01*
X87710511Y-56779761D02*
X87591464Y-56839285D01*
X87591464Y-56839285D02*
X87531940Y-56958332D01*
X87531940Y-56958332D02*
X87531940Y-57136904D01*
X87531940Y-57136904D02*
X87591464Y-57255951D01*
X87591464Y-57255951D02*
X87710511Y-57315475D01*
X87710511Y-57315475D02*
X88365273Y-57315475D01*
X88305750Y-58386904D02*
X88365273Y-58267856D01*
X88365273Y-58267856D02*
X88365273Y-58029761D01*
X88365273Y-58029761D02*
X88305750Y-57910714D01*
X88305750Y-57910714D02*
X88186702Y-57851190D01*
X88186702Y-57851190D02*
X87710511Y-57851190D01*
X87710511Y-57851190D02*
X87591464Y-57910714D01*
X87591464Y-57910714D02*
X87531940Y-58029761D01*
X87531940Y-58029761D02*
X87531940Y-58267856D01*
X87531940Y-58267856D02*
X87591464Y-58386904D01*
X87591464Y-58386904D02*
X87710511Y-58446428D01*
X87710511Y-58446428D02*
X87829559Y-58446428D01*
X87829559Y-58446428D02*
X87948607Y-57851190D01*
X87531940Y-58982143D02*
X88781940Y-58982143D01*
X87591464Y-58982143D02*
X87531940Y-59101190D01*
X87531940Y-59101190D02*
X87531940Y-59339285D01*
X87531940Y-59339285D02*
X87591464Y-59458333D01*
X87591464Y-59458333D02*
X87650988Y-59517857D01*
X87650988Y-59517857D02*
X87770035Y-59577381D01*
X87770035Y-59577381D02*
X88127178Y-59577381D01*
X88127178Y-59577381D02*
X88246226Y-59517857D01*
X88246226Y-59517857D02*
X88305750Y-59458333D01*
X88305750Y-59458333D02*
X88365273Y-59339285D01*
X88365273Y-59339285D02*
X88365273Y-59101190D01*
X88365273Y-59101190D02*
X88305750Y-58982143D01*
X88365273Y-60291666D02*
X88305750Y-60172618D01*
X88305750Y-60172618D02*
X88246226Y-60113095D01*
X88246226Y-60113095D02*
X88127178Y-60053571D01*
X88127178Y-60053571D02*
X87770035Y-60053571D01*
X87770035Y-60053571D02*
X87650988Y-60113095D01*
X87650988Y-60113095D02*
X87591464Y-60172618D01*
X87591464Y-60172618D02*
X87531940Y-60291666D01*
X87531940Y-60291666D02*
X87531940Y-60470237D01*
X87531940Y-60470237D02*
X87591464Y-60589285D01*
X87591464Y-60589285D02*
X87650988Y-60648809D01*
X87650988Y-60648809D02*
X87770035Y-60708333D01*
X87770035Y-60708333D02*
X88127178Y-60708333D01*
X88127178Y-60708333D02*
X88246226Y-60648809D01*
X88246226Y-60648809D02*
X88305750Y-60589285D01*
X88305750Y-60589285D02*
X88365273Y-60470237D01*
X88365273Y-60470237D02*
X88365273Y-60291666D01*
X88365273Y-61244047D02*
X87531940Y-61244047D01*
X87770035Y-61244047D02*
X87650988Y-61303570D01*
X87650988Y-61303570D02*
X87591464Y-61363094D01*
X87591464Y-61363094D02*
X87531940Y-61482142D01*
X87531940Y-61482142D02*
X87531940Y-61601189D01*
X87531940Y-61839285D02*
X87531940Y-62315476D01*
X87115273Y-62017857D02*
X88186702Y-62017857D01*
X88186702Y-62017857D02*
X88305750Y-62077380D01*
X88305750Y-62077380D02*
X88365273Y-62196428D01*
X88365273Y-62196428D02*
X88365273Y-62315476D01*
X116820237Y-40085273D02*
X116820237Y-38835273D01*
X116820237Y-38835273D02*
X116344047Y-38835273D01*
X116344047Y-38835273D02*
X116224999Y-38894797D01*
X116224999Y-38894797D02*
X116165476Y-38954321D01*
X116165476Y-38954321D02*
X116105952Y-39073369D01*
X116105952Y-39073369D02*
X116105952Y-39251940D01*
X116105952Y-39251940D02*
X116165476Y-39370988D01*
X116165476Y-39370988D02*
X116224999Y-39430511D01*
X116224999Y-39430511D02*
X116344047Y-39490035D01*
X116344047Y-39490035D02*
X116820237Y-39490035D01*
X115391666Y-40085273D02*
X115510714Y-40025750D01*
X115510714Y-40025750D02*
X115570237Y-39966226D01*
X115570237Y-39966226D02*
X115629761Y-39847178D01*
X115629761Y-39847178D02*
X115629761Y-39490035D01*
X115629761Y-39490035D02*
X115570237Y-39370988D01*
X115570237Y-39370988D02*
X115510714Y-39311464D01*
X115510714Y-39311464D02*
X115391666Y-39251940D01*
X115391666Y-39251940D02*
X115213095Y-39251940D01*
X115213095Y-39251940D02*
X115094047Y-39311464D01*
X115094047Y-39311464D02*
X115034523Y-39370988D01*
X115034523Y-39370988D02*
X114974999Y-39490035D01*
X114974999Y-39490035D02*
X114974999Y-39847178D01*
X114974999Y-39847178D02*
X115034523Y-39966226D01*
X115034523Y-39966226D02*
X115094047Y-40025750D01*
X115094047Y-40025750D02*
X115213095Y-40085273D01*
X115213095Y-40085273D02*
X115391666Y-40085273D01*
X114558333Y-39251940D02*
X114320238Y-40085273D01*
X114320238Y-40085273D02*
X114082143Y-39490035D01*
X114082143Y-39490035D02*
X113844047Y-40085273D01*
X113844047Y-40085273D02*
X113605952Y-39251940D01*
X112653571Y-40025750D02*
X112772619Y-40085273D01*
X112772619Y-40085273D02*
X113010714Y-40085273D01*
X113010714Y-40085273D02*
X113129761Y-40025750D01*
X113129761Y-40025750D02*
X113189285Y-39906702D01*
X113189285Y-39906702D02*
X113189285Y-39430511D01*
X113189285Y-39430511D02*
X113129761Y-39311464D01*
X113129761Y-39311464D02*
X113010714Y-39251940D01*
X113010714Y-39251940D02*
X112772619Y-39251940D01*
X112772619Y-39251940D02*
X112653571Y-39311464D01*
X112653571Y-39311464D02*
X112594047Y-39430511D01*
X112594047Y-39430511D02*
X112594047Y-39549559D01*
X112594047Y-39549559D02*
X113189285Y-39668607D01*
X112058332Y-40085273D02*
X112058332Y-39251940D01*
X112058332Y-39490035D02*
X111998809Y-39370988D01*
X111998809Y-39370988D02*
X111939285Y-39311464D01*
X111939285Y-39311464D02*
X111820237Y-39251940D01*
X111820237Y-39251940D02*
X111701190Y-39251940D01*
D11*
X136574318Y-59222142D02*
X135304318Y-59222142D01*
X136574318Y-59947857D02*
X135848603Y-59403571D01*
X135304318Y-59947857D02*
X136030032Y-59222142D01*
X136513842Y-60975952D02*
X136574318Y-60855000D01*
X136574318Y-60855000D02*
X136574318Y-60613095D01*
X136574318Y-60613095D02*
X136513842Y-60492142D01*
X136513842Y-60492142D02*
X136392889Y-60431666D01*
X136392889Y-60431666D02*
X135909080Y-60431666D01*
X135909080Y-60431666D02*
X135788127Y-60492142D01*
X135788127Y-60492142D02*
X135727651Y-60613095D01*
X135727651Y-60613095D02*
X135727651Y-60855000D01*
X135727651Y-60855000D02*
X135788127Y-60975952D01*
X135788127Y-60975952D02*
X135909080Y-61036428D01*
X135909080Y-61036428D02*
X136030032Y-61036428D01*
X136030032Y-61036428D02*
X136150984Y-60431666D01*
X135727651Y-61459761D02*
X136574318Y-61762142D01*
X135727651Y-62064523D02*
X136574318Y-61762142D01*
X136574318Y-61762142D02*
X136876699Y-61641190D01*
X136876699Y-61641190D02*
X136937175Y-61580713D01*
X136937175Y-61580713D02*
X136997651Y-61459761D01*
X136574318Y-62548332D02*
X135304318Y-62548332D01*
X135788127Y-62548332D02*
X135727651Y-62669285D01*
X135727651Y-62669285D02*
X135727651Y-62911190D01*
X135727651Y-62911190D02*
X135788127Y-63032142D01*
X135788127Y-63032142D02*
X135848603Y-63092618D01*
X135848603Y-63092618D02*
X135969556Y-63153094D01*
X135969556Y-63153094D02*
X136332413Y-63153094D01*
X136332413Y-63153094D02*
X136453365Y-63092618D01*
X136453365Y-63092618D02*
X136513842Y-63032142D01*
X136513842Y-63032142D02*
X136574318Y-62911190D01*
X136574318Y-62911190D02*
X136574318Y-62669285D01*
X136574318Y-62669285D02*
X136513842Y-62548332D01*
X136574318Y-63878809D02*
X136513842Y-63757857D01*
X136513842Y-63757857D02*
X136453365Y-63697380D01*
X136453365Y-63697380D02*
X136332413Y-63636904D01*
X136332413Y-63636904D02*
X135969556Y-63636904D01*
X135969556Y-63636904D02*
X135848603Y-63697380D01*
X135848603Y-63697380D02*
X135788127Y-63757857D01*
X135788127Y-63757857D02*
X135727651Y-63878809D01*
X135727651Y-63878809D02*
X135727651Y-64060238D01*
X135727651Y-64060238D02*
X135788127Y-64181190D01*
X135788127Y-64181190D02*
X135848603Y-64241666D01*
X135848603Y-64241666D02*
X135969556Y-64302142D01*
X135969556Y-64302142D02*
X136332413Y-64302142D01*
X136332413Y-64302142D02*
X136453365Y-64241666D01*
X136453365Y-64241666D02*
X136513842Y-64181190D01*
X136513842Y-64181190D02*
X136574318Y-64060238D01*
X136574318Y-64060238D02*
X136574318Y-63878809D01*
X136574318Y-65390714D02*
X135909080Y-65390714D01*
X135909080Y-65390714D02*
X135788127Y-65330238D01*
X135788127Y-65330238D02*
X135727651Y-65209286D01*
X135727651Y-65209286D02*
X135727651Y-64967381D01*
X135727651Y-64967381D02*
X135788127Y-64846428D01*
X136513842Y-65390714D02*
X136574318Y-65269762D01*
X136574318Y-65269762D02*
X136574318Y-64967381D01*
X136574318Y-64967381D02*
X136513842Y-64846428D01*
X136513842Y-64846428D02*
X136392889Y-64785952D01*
X136392889Y-64785952D02*
X136271937Y-64785952D01*
X136271937Y-64785952D02*
X136150984Y-64846428D01*
X136150984Y-64846428D02*
X136090508Y-64967381D01*
X136090508Y-64967381D02*
X136090508Y-65269762D01*
X136090508Y-65269762D02*
X136030032Y-65390714D01*
X136574318Y-65995476D02*
X135727651Y-65995476D01*
X135969556Y-65995476D02*
X135848603Y-66055953D01*
X135848603Y-66055953D02*
X135788127Y-66116429D01*
X135788127Y-66116429D02*
X135727651Y-66237381D01*
X135727651Y-66237381D02*
X135727651Y-66358334D01*
X136574318Y-67325952D02*
X135304318Y-67325952D01*
X136513842Y-67325952D02*
X136574318Y-67205000D01*
X136574318Y-67205000D02*
X136574318Y-66963095D01*
X136574318Y-66963095D02*
X136513842Y-66842143D01*
X136513842Y-66842143D02*
X136453365Y-66781666D01*
X136453365Y-66781666D02*
X136332413Y-66721190D01*
X136332413Y-66721190D02*
X135969556Y-66721190D01*
X135969556Y-66721190D02*
X135848603Y-66781666D01*
X135848603Y-66781666D02*
X135788127Y-66842143D01*
X135788127Y-66842143D02*
X135727651Y-66963095D01*
X135727651Y-66963095D02*
X135727651Y-67205000D01*
X135727651Y-67205000D02*
X135788127Y-67325952D01*
X135243842Y-69805476D02*
X136876699Y-68716905D01*
X136574318Y-71196428D02*
X135304318Y-71196428D01*
X135304318Y-71196428D02*
X136211461Y-71619762D01*
X136211461Y-71619762D02*
X135304318Y-72043095D01*
X135304318Y-72043095D02*
X136574318Y-72043095D01*
X136574318Y-72829286D02*
X136513842Y-72708334D01*
X136513842Y-72708334D02*
X136453365Y-72647857D01*
X136453365Y-72647857D02*
X136332413Y-72587381D01*
X136332413Y-72587381D02*
X135969556Y-72587381D01*
X135969556Y-72587381D02*
X135848603Y-72647857D01*
X135848603Y-72647857D02*
X135788127Y-72708334D01*
X135788127Y-72708334D02*
X135727651Y-72829286D01*
X135727651Y-72829286D02*
X135727651Y-73010715D01*
X135727651Y-73010715D02*
X135788127Y-73131667D01*
X135788127Y-73131667D02*
X135848603Y-73192143D01*
X135848603Y-73192143D02*
X135969556Y-73252619D01*
X135969556Y-73252619D02*
X136332413Y-73252619D01*
X136332413Y-73252619D02*
X136453365Y-73192143D01*
X136453365Y-73192143D02*
X136513842Y-73131667D01*
X136513842Y-73131667D02*
X136574318Y-73010715D01*
X136574318Y-73010715D02*
X136574318Y-72829286D01*
X135727651Y-74341191D02*
X136574318Y-74341191D01*
X135727651Y-73796905D02*
X136392889Y-73796905D01*
X136392889Y-73796905D02*
X136513842Y-73857382D01*
X136513842Y-73857382D02*
X136574318Y-73978334D01*
X136574318Y-73978334D02*
X136574318Y-74159763D01*
X136574318Y-74159763D02*
X136513842Y-74280715D01*
X136513842Y-74280715D02*
X136453365Y-74341191D01*
X136513842Y-74885477D02*
X136574318Y-75006430D01*
X136574318Y-75006430D02*
X136574318Y-75248334D01*
X136574318Y-75248334D02*
X136513842Y-75369287D01*
X136513842Y-75369287D02*
X136392889Y-75429763D01*
X136392889Y-75429763D02*
X136332413Y-75429763D01*
X136332413Y-75429763D02*
X136211461Y-75369287D01*
X136211461Y-75369287D02*
X136150984Y-75248334D01*
X136150984Y-75248334D02*
X136150984Y-75066906D01*
X136150984Y-75066906D02*
X136090508Y-74945953D01*
X136090508Y-74945953D02*
X135969556Y-74885477D01*
X135969556Y-74885477D02*
X135909080Y-74885477D01*
X135909080Y-74885477D02*
X135788127Y-74945953D01*
X135788127Y-74945953D02*
X135727651Y-75066906D01*
X135727651Y-75066906D02*
X135727651Y-75248334D01*
X135727651Y-75248334D02*
X135788127Y-75369287D01*
X136513842Y-76457858D02*
X136574318Y-76336906D01*
X136574318Y-76336906D02*
X136574318Y-76095001D01*
X136574318Y-76095001D02*
X136513842Y-75974048D01*
X136513842Y-75974048D02*
X136392889Y-75913572D01*
X136392889Y-75913572D02*
X135909080Y-75913572D01*
X135909080Y-75913572D02*
X135788127Y-75974048D01*
X135788127Y-75974048D02*
X135727651Y-76095001D01*
X135727651Y-76095001D02*
X135727651Y-76336906D01*
X135727651Y-76336906D02*
X135788127Y-76457858D01*
X135788127Y-76457858D02*
X135909080Y-76518334D01*
X135909080Y-76518334D02*
X136030032Y-76518334D01*
X136030032Y-76518334D02*
X136150984Y-75913572D01*
M02*
