G04 #@! TF.GenerationSoftware,KiCad,Pcbnew,7.0.5*
G04 #@! TF.CreationDate,2023-12-31T10:49:34+01:00*
G04 #@! TF.ProjectId,usb-to-ps2-gameport-hat-arduino-pro-mini,7573622d-746f-42d7-9073-322d67616d65,1.3*
G04 #@! TF.SameCoordinates,Original*
G04 #@! TF.FileFunction,Copper,L2,Bot*
G04 #@! TF.FilePolarity,Positive*
%FSLAX46Y46*%
G04 Gerber Fmt 4.6, Leading zero omitted, Abs format (unit mm)*
G04 Created by KiCad (PCBNEW 7.0.5) date 2023-12-31 10:49:34*
%MOMM*%
%LPD*%
G01*
G04 APERTURE LIST*
G04 #@! TA.AperFunction,ComponentPad*
%ADD10C,1.700000*%
G04 #@! TD*
G04 #@! TA.AperFunction,ComponentPad*
%ADD11O,1.700000X1.700000*%
G04 #@! TD*
G04 #@! TA.AperFunction,ComponentPad*
%ADD12R,1.700000X1.700000*%
G04 #@! TD*
G04 #@! TA.AperFunction,ComponentPad*
%ADD13C,4.000000*%
G04 #@! TD*
G04 #@! TA.AperFunction,ComponentPad*
%ADD14R,1.600000X1.600000*%
G04 #@! TD*
G04 #@! TA.AperFunction,ComponentPad*
%ADD15C,1.600000*%
G04 #@! TD*
G04 #@! TA.AperFunction,ComponentPad*
%ADD16O,1.200000X1.900000*%
G04 #@! TD*
G04 #@! TA.AperFunction,ComponentPad*
%ADD17C,1.450000*%
G04 #@! TD*
G04 #@! TA.AperFunction,ComponentPad*
%ADD18C,1.650000*%
G04 #@! TD*
G04 #@! TA.AperFunction,ComponentPad*
%ADD19C,3.450000*%
G04 #@! TD*
G04 #@! TA.AperFunction,ComponentPad*
%ADD20C,0.900000*%
G04 #@! TD*
G04 #@! TA.AperFunction,ViaPad*
%ADD21C,0.600000*%
G04 #@! TD*
G04 #@! TA.AperFunction,ViaPad*
%ADD22C,0.700000*%
G04 #@! TD*
G04 #@! TA.AperFunction,Conductor*
%ADD23C,0.300000*%
G04 #@! TD*
G04 #@! TA.AperFunction,Conductor*
%ADD24C,0.400000*%
G04 #@! TD*
G04 #@! TA.AperFunction,Conductor*
%ADD25C,0.700000*%
G04 #@! TD*
G04 APERTURE END LIST*
D10*
X121926354Y-44577224D03*
D11*
X121926354Y-47117224D03*
X121926354Y-49657224D03*
X121926354Y-52197224D03*
X121926354Y-54737224D03*
X121926354Y-57277224D03*
X121926354Y-59817224D03*
X121926354Y-62357224D03*
X121926354Y-64897224D03*
X121926354Y-67437224D03*
X121926354Y-69977224D03*
X121926354Y-72517224D03*
D12*
X101860354Y-52324224D03*
D11*
X101860354Y-49784224D03*
X101860354Y-47244224D03*
D12*
X106686354Y-44577224D03*
D11*
X106686354Y-47117224D03*
X106686354Y-49657224D03*
X106686354Y-52197224D03*
X106686354Y-54737224D03*
X106686354Y-57277224D03*
X106686354Y-59817224D03*
X106686354Y-62357224D03*
X106686354Y-64897224D03*
X106686354Y-67437224D03*
X106686354Y-69977224D03*
X106686354Y-72517224D03*
D13*
X95490000Y-41432224D03*
X95490000Y-74732224D03*
D14*
X96910000Y-48387224D03*
D15*
X96910000Y-51157224D03*
X96910000Y-53927224D03*
X96910000Y-56697224D03*
X96910000Y-59467224D03*
X96910000Y-62237224D03*
X96910000Y-65007224D03*
X96910000Y-67777224D03*
X94070000Y-49772224D03*
X94070000Y-52542224D03*
X94070000Y-55312224D03*
X94070000Y-58082224D03*
X94070000Y-60852224D03*
X94070000Y-63622224D03*
X94070000Y-66392224D03*
D16*
X117795354Y-40101224D03*
D17*
X116795354Y-42801224D03*
X111795354Y-42801224D03*
D16*
X110795354Y-40101224D03*
D12*
X102045354Y-39545224D03*
D11*
X104585354Y-39545224D03*
X107125354Y-39545224D03*
D18*
X129160000Y-66780000D03*
X129160000Y-69380000D03*
X129160000Y-64680000D03*
X129160000Y-71480000D03*
X126660000Y-64680000D03*
X126660000Y-71480000D03*
D19*
X132160000Y-61330000D03*
X132960000Y-68080000D03*
X132160000Y-74830000D03*
D20*
X117225354Y-45595224D03*
D12*
X101860354Y-61859224D03*
D11*
X101860354Y-59319224D03*
D18*
X129160000Y-46860000D03*
X129160000Y-49460000D03*
X129160000Y-44760000D03*
X129160000Y-51560000D03*
X126660000Y-44760000D03*
X126660000Y-51560000D03*
D19*
X132160000Y-41410000D03*
X132960000Y-48160000D03*
X132160000Y-54910000D03*
D12*
X101855354Y-71375224D03*
D11*
X101855354Y-68835224D03*
D20*
X117225354Y-48895224D03*
D21*
X118995354Y-61865224D03*
X111405354Y-54375224D03*
X119005354Y-58065224D03*
X103535354Y-44525224D03*
D22*
X105165354Y-68705224D03*
X115440000Y-44770000D03*
X103345354Y-57835224D03*
X112965354Y-67495224D03*
X111265354Y-45575224D03*
X126710000Y-73480000D03*
X108255354Y-63635224D03*
X124090000Y-43320000D03*
X123265354Y-71265224D03*
X123940000Y-49580000D03*
X119760000Y-69280000D03*
X104995354Y-45995224D03*
X122785354Y-39075224D03*
D21*
X93410000Y-47120000D03*
D22*
X115225354Y-66595224D03*
X126355354Y-39075224D03*
D21*
X128480000Y-43180000D03*
D22*
X125330000Y-58800000D03*
X111240354Y-72138724D03*
X124200000Y-45940000D03*
X126720000Y-46810000D03*
X105175354Y-66175224D03*
X110425354Y-57605224D03*
X119130000Y-46000000D03*
X119805354Y-71635224D03*
D21*
X128880000Y-60330000D03*
D22*
X114935354Y-48145224D03*
X117350000Y-62230000D03*
X126450000Y-54590000D03*
X113840354Y-72138724D03*
D21*
X101775354Y-74075224D03*
D22*
X113391854Y-63246224D03*
X115555354Y-68175224D03*
X119915354Y-63775224D03*
X92000000Y-64405224D03*
X127170000Y-58110000D03*
X105915354Y-75415224D03*
X126720000Y-49490000D03*
D21*
X100830000Y-43890000D03*
D22*
X112725354Y-74275224D03*
X126200000Y-67360000D03*
X92000000Y-66285224D03*
X113225354Y-43975224D03*
X109675354Y-65965224D03*
X127170000Y-61840000D03*
X123265354Y-63645224D03*
X118695354Y-42215224D03*
X105185354Y-71275224D03*
X118010000Y-67550000D03*
X92000000Y-52800000D03*
X118155354Y-73705224D03*
X109625354Y-61005224D03*
D21*
X128880000Y-56400000D03*
X115539854Y-60225224D03*
X111615354Y-59095224D03*
X123450354Y-55825224D03*
X128060000Y-54800000D03*
X123955854Y-53475224D03*
X126275354Y-55794724D03*
X119863354Y-53467224D03*
D22*
X111265354Y-44335224D03*
D23*
X111405354Y-54375224D02*
X111404354Y-54375224D01*
X118995354Y-58075224D02*
X119005354Y-58065224D01*
X111404354Y-54375224D02*
X106686354Y-49657224D01*
X118995354Y-61865224D02*
X118995354Y-58075224D01*
D24*
X96910000Y-59467224D02*
X93260000Y-59467224D01*
X96910000Y-56697224D02*
X93260000Y-56697224D01*
D25*
X95452354Y-48387224D02*
X96907354Y-48387224D01*
X96907354Y-44683224D02*
X96907354Y-48384578D01*
X92377776Y-49772224D02*
X94067354Y-49772224D01*
X96910000Y-48384578D02*
X96910000Y-48380000D01*
X91295224Y-68845224D02*
X89950000Y-67500000D01*
X96907354Y-48387224D02*
X96910000Y-48384578D01*
X96910000Y-67777224D02*
X95842000Y-68845224D01*
X102045354Y-39545224D02*
X96907354Y-44683224D01*
X95842000Y-68845224D02*
X91295224Y-68845224D01*
X96907354Y-48384578D02*
X96910000Y-48387224D01*
X89950000Y-52200000D02*
X92377776Y-49772224D01*
X94067354Y-49772224D02*
X95452354Y-48387224D01*
X89950000Y-67500000D02*
X89950000Y-52200000D01*
D23*
X123987354Y-52197224D02*
X121926354Y-52197224D01*
X124650000Y-52859870D02*
X123987354Y-52197224D01*
X112745354Y-60225224D02*
X115539854Y-60225224D01*
X123450354Y-55825224D02*
X124650000Y-54625578D01*
X124650000Y-54625578D02*
X124650000Y-52859870D01*
X111615354Y-59095224D02*
X112745354Y-60225224D01*
X127890000Y-68110000D02*
X127890000Y-63640000D01*
X127900000Y-53150000D02*
X127900000Y-48310000D01*
X127900000Y-48320000D02*
X127900000Y-48310000D01*
X129700000Y-61830000D02*
X129700000Y-54950000D01*
X127900000Y-48310000D02*
X127900000Y-48120000D01*
X129700000Y-54950000D02*
X127900000Y-53150000D01*
X129160000Y-69380000D02*
X127890000Y-68110000D01*
X127900000Y-48120000D02*
X129160000Y-46860000D01*
X127890000Y-63640000D02*
X129700000Y-61830000D01*
X124330000Y-57540000D02*
X124330000Y-69150000D01*
X125470000Y-56400000D02*
X124330000Y-57540000D01*
X124330000Y-69150000D02*
X126660000Y-71480000D01*
X126660000Y-44760000D02*
X125470000Y-45950000D01*
X125470000Y-45950000D02*
X125470000Y-56400000D01*
X119863354Y-53467224D02*
X123947854Y-53467224D01*
X123947854Y-53467224D02*
X123955854Y-53475224D01*
D24*
X116795354Y-42801224D02*
X116795354Y-41101224D01*
X116795354Y-41101224D02*
X117795354Y-40101224D01*
X111795354Y-42790224D02*
X111795354Y-41101224D01*
X111795354Y-41101224D02*
X110795354Y-40101224D01*
X111806354Y-42801224D02*
X111795354Y-42790224D01*
X111265354Y-44335224D02*
X109005354Y-42075224D01*
X109005354Y-42075224D02*
X106782354Y-42075224D01*
X106782354Y-42075224D02*
X104585354Y-39878224D01*
G04 #@! TA.AperFunction,Conductor*
G36*
X127153864Y-52828918D02*
G01*
X127212660Y-52868712D01*
X127240608Y-52933977D01*
X127241499Y-52948935D01*
X127241499Y-53063389D01*
X127239709Y-53079620D01*
X127239958Y-53079644D01*
X127239211Y-53087536D01*
X127241469Y-53159358D01*
X127241500Y-53161337D01*
X127241500Y-53191430D01*
X127242427Y-53198776D01*
X127242893Y-53204690D01*
X127244437Y-53253829D01*
X127244438Y-53253832D01*
X127250421Y-53274429D01*
X127254428Y-53293780D01*
X127257117Y-53315060D01*
X127257117Y-53315062D01*
X127275216Y-53360778D01*
X127277139Y-53366394D01*
X127290853Y-53413597D01*
X127290853Y-53413598D01*
X127301771Y-53432058D01*
X127310468Y-53449811D01*
X127318364Y-53469755D01*
X127318367Y-53469760D01*
X127324342Y-53477983D01*
X127347265Y-53509532D01*
X127350521Y-53514490D01*
X127353199Y-53519019D01*
X127375547Y-53556807D01*
X127390714Y-53571974D01*
X127403552Y-53587005D01*
X127416158Y-53604356D01*
X127454040Y-53635695D01*
X127458421Y-53639681D01*
X127593478Y-53774738D01*
X127705013Y-53886273D01*
X127739039Y-53948585D01*
X127733974Y-54019400D01*
X127691427Y-54076236D01*
X127682955Y-54082055D01*
X127552717Y-54163889D01*
X127423888Y-54292718D01*
X127423887Y-54292720D01*
X127326958Y-54446981D01*
X127326957Y-54446984D01*
X127267147Y-54617914D01*
X127266783Y-54618953D01*
X127246384Y-54800000D01*
X127266783Y-54981047D01*
X127266783Y-54981049D01*
X127266784Y-54981050D01*
X127326957Y-55153015D01*
X127326958Y-55153018D01*
X127423887Y-55307279D01*
X127423888Y-55307281D01*
X127552718Y-55436111D01*
X127552720Y-55436112D01*
X127706981Y-55533041D01*
X127706982Y-55533041D01*
X127706985Y-55533043D01*
X127878953Y-55593217D01*
X128060000Y-55613616D01*
X128241047Y-55593217D01*
X128413015Y-55533043D01*
X128567281Y-55436111D01*
X128696111Y-55307281D01*
X128777945Y-55177043D01*
X128831122Y-55130007D01*
X128901289Y-55119186D01*
X128966167Y-55148018D01*
X128973726Y-55154985D01*
X129004595Y-55185854D01*
X129038621Y-55248166D01*
X129041500Y-55274949D01*
X129041500Y-61505049D01*
X129021498Y-61573170D01*
X129004595Y-61594144D01*
X127485611Y-63113127D01*
X127472865Y-63123340D01*
X127473025Y-63123533D01*
X127466920Y-63128583D01*
X127417718Y-63180977D01*
X127416342Y-63182397D01*
X127395071Y-63203668D01*
X127390527Y-63209525D01*
X127386678Y-63214031D01*
X127353029Y-63249865D01*
X127353027Y-63249867D01*
X127342691Y-63268667D01*
X127331843Y-63285180D01*
X127318699Y-63302126D01*
X127318693Y-63302135D01*
X127299171Y-63347248D01*
X127296559Y-63352579D01*
X127286458Y-63370953D01*
X127236114Y-63421013D01*
X127166697Y-63435907D01*
X127122795Y-63424449D01*
X127117838Y-63422138D01*
X127117824Y-63422132D01*
X127013223Y-63394104D01*
X126892444Y-63361742D01*
X126660000Y-63341406D01*
X126427556Y-63361742D01*
X126379021Y-63374747D01*
X126202175Y-63422132D01*
X126202171Y-63422134D01*
X125990702Y-63520744D01*
X125799571Y-63654575D01*
X125799565Y-63654580D01*
X125634580Y-63819565D01*
X125634575Y-63819571D01*
X125500744Y-64010702D01*
X125402134Y-64222171D01*
X125402132Y-64222175D01*
X125380994Y-64301066D01*
X125341742Y-64447556D01*
X125321406Y-64680000D01*
X125341742Y-64912444D01*
X125367138Y-65007224D01*
X125402087Y-65137657D01*
X125402133Y-65137826D01*
X125411512Y-65157939D01*
X125500744Y-65349297D01*
X125554338Y-65425838D01*
X125634578Y-65540432D01*
X125799568Y-65705422D01*
X125990703Y-65839256D01*
X126202174Y-65937867D01*
X126427556Y-65998258D01*
X126660000Y-66018594D01*
X126892444Y-65998258D01*
X127072891Y-65949907D01*
X127143865Y-65951597D01*
X127202661Y-65991391D01*
X127230609Y-66056655D01*
X127231500Y-66071614D01*
X127231500Y-68023389D01*
X127229708Y-68039620D01*
X127229958Y-68039644D01*
X127229211Y-68047536D01*
X127231469Y-68119358D01*
X127231500Y-68121337D01*
X127231500Y-68151430D01*
X127232427Y-68158776D01*
X127232893Y-68164690D01*
X127234437Y-68213829D01*
X127234438Y-68213832D01*
X127240421Y-68234429D01*
X127244428Y-68253780D01*
X127247117Y-68275060D01*
X127247117Y-68275062D01*
X127265216Y-68320778D01*
X127267139Y-68326394D01*
X127280853Y-68373597D01*
X127280853Y-68373598D01*
X127291771Y-68392058D01*
X127300468Y-68409811D01*
X127308364Y-68429755D01*
X127308367Y-68429760D01*
X127326352Y-68454513D01*
X127337265Y-68469532D01*
X127340521Y-68474490D01*
X127365547Y-68516807D01*
X127380714Y-68531974D01*
X127393552Y-68547005D01*
X127406158Y-68564356D01*
X127444039Y-68595694D01*
X127448420Y-68599680D01*
X127666775Y-68818035D01*
X127822963Y-68974223D01*
X127856989Y-69036535D01*
X127855575Y-69095929D01*
X127841742Y-69147552D01*
X127834529Y-69230000D01*
X127821406Y-69380000D01*
X127841742Y-69612444D01*
X127867472Y-69708468D01*
X127902132Y-69837824D01*
X127902134Y-69837828D01*
X128000744Y-70049297D01*
X128134575Y-70240428D01*
X128134580Y-70240434D01*
X128235051Y-70340905D01*
X128269077Y-70403217D01*
X128264012Y-70474032D01*
X128235051Y-70519095D01*
X128134580Y-70619565D01*
X128134575Y-70619571D01*
X128013213Y-70792895D01*
X127957756Y-70837223D01*
X127887137Y-70844532D01*
X127823776Y-70812501D01*
X127806787Y-70792895D01*
X127685424Y-70619571D01*
X127685419Y-70619565D01*
X127520434Y-70454580D01*
X127520428Y-70454575D01*
X127329297Y-70320744D01*
X127157068Y-70240432D01*
X127117826Y-70222133D01*
X127117824Y-70222132D01*
X127013223Y-70194104D01*
X126892444Y-70161742D01*
X126660000Y-70141406D01*
X126427552Y-70161742D01*
X126375929Y-70175575D01*
X126304952Y-70173885D01*
X126254223Y-70142963D01*
X125668064Y-69556804D01*
X125025402Y-68914141D01*
X124991378Y-68851832D01*
X124988500Y-68825058D01*
X124988500Y-57864948D01*
X125008502Y-57796828D01*
X125025399Y-57775859D01*
X125874391Y-56926867D01*
X125887130Y-56916663D01*
X125886971Y-56916470D01*
X125893072Y-56911420D01*
X125893080Y-56911416D01*
X125942329Y-56858969D01*
X125943613Y-56857644D01*
X125964926Y-56836333D01*
X125969462Y-56830483D01*
X125973306Y-56825982D01*
X126006972Y-56790133D01*
X126017303Y-56771339D01*
X126028151Y-56754823D01*
X126041304Y-56737869D01*
X126060845Y-56692709D01*
X126063424Y-56687446D01*
X126076085Y-56664415D01*
X126126431Y-56614362D01*
X126195849Y-56599473D01*
X126200588Y-56599915D01*
X126275354Y-56608340D01*
X126456401Y-56587941D01*
X126628369Y-56527767D01*
X126782635Y-56430835D01*
X126911465Y-56302005D01*
X127008397Y-56147739D01*
X127068571Y-55975771D01*
X127088970Y-55794724D01*
X127068571Y-55613677D01*
X127008397Y-55441709D01*
X127008395Y-55441706D01*
X127008395Y-55441705D01*
X126911466Y-55287444D01*
X126911465Y-55287442D01*
X126782635Y-55158612D01*
X126782633Y-55158611D01*
X126628372Y-55061682D01*
X126628369Y-55061681D01*
X126456404Y-55001508D01*
X126456403Y-55001507D01*
X126456401Y-55001507D01*
X126275354Y-54981108D01*
X126275352Y-54981108D01*
X126275351Y-54981108D01*
X126268604Y-54981868D01*
X126198672Y-54969617D01*
X126146466Y-54921503D01*
X126128500Y-54856660D01*
X126128500Y-52962332D01*
X126148502Y-52894211D01*
X126202158Y-52847718D01*
X126272432Y-52837614D01*
X126287097Y-52840622D01*
X126427556Y-52878258D01*
X126660000Y-52898594D01*
X126892444Y-52878258D01*
X127082890Y-52827228D01*
X127153864Y-52828918D01*
G37*
G04 #@! TD.AperFunction*
G04 #@! TA.AperFunction,Conductor*
G36*
X128636884Y-44945915D02*
G01*
X128706442Y-45080156D01*
X128809638Y-45190652D01*
X128938819Y-45269209D01*
X128994421Y-45284788D01*
X128670857Y-45608351D01*
X128635014Y-45633449D01*
X128503655Y-45694704D01*
X128490708Y-45700742D01*
X128490699Y-45700746D01*
X128299576Y-45834571D01*
X128299565Y-45834580D01*
X128134580Y-45999565D01*
X128134575Y-45999571D01*
X128000744Y-46190702D01*
X127902134Y-46402171D01*
X127902132Y-46402175D01*
X127884314Y-46468675D01*
X127841742Y-46627556D01*
X127821406Y-46860000D01*
X127832503Y-46986842D01*
X127841742Y-47092444D01*
X127855575Y-47144070D01*
X127853885Y-47215047D01*
X127822963Y-47265775D01*
X127495611Y-47593127D01*
X127482865Y-47603340D01*
X127483025Y-47603533D01*
X127476920Y-47608583D01*
X127427718Y-47660977D01*
X127426342Y-47662397D01*
X127405071Y-47683668D01*
X127400527Y-47689525D01*
X127396678Y-47694031D01*
X127363029Y-47729865D01*
X127363027Y-47729867D01*
X127352691Y-47748667D01*
X127341843Y-47765180D01*
X127328699Y-47782126D01*
X127328694Y-47782135D01*
X127309172Y-47827247D01*
X127306560Y-47832577D01*
X127282877Y-47875660D01*
X127282873Y-47875670D01*
X127277541Y-47896436D01*
X127271139Y-47915136D01*
X127262620Y-47934820D01*
X127262619Y-47934824D01*
X127254928Y-47983384D01*
X127253724Y-47989197D01*
X127241499Y-48036810D01*
X127241500Y-48058258D01*
X127239949Y-48077967D01*
X127236594Y-48099150D01*
X127236594Y-48099152D01*
X127241220Y-48148094D01*
X127241500Y-48154027D01*
X127241500Y-50171064D01*
X127221498Y-50239185D01*
X127167842Y-50285678D01*
X127097568Y-50295782D01*
X127082890Y-50292771D01*
X126962767Y-50260585D01*
X126892444Y-50241742D01*
X126892445Y-50241742D01*
X126660000Y-50221406D01*
X126427556Y-50241742D01*
X126287110Y-50279374D01*
X126216134Y-50277684D01*
X126157338Y-50237889D01*
X126129391Y-50172625D01*
X126128500Y-50157667D01*
X126128500Y-46274950D01*
X126148502Y-46206829D01*
X126165400Y-46185859D01*
X126254225Y-46097033D01*
X126316535Y-46063010D01*
X126375927Y-46064423D01*
X126427556Y-46078258D01*
X126660000Y-46098594D01*
X126892444Y-46078258D01*
X127117826Y-46017867D01*
X127329297Y-45919256D01*
X127520432Y-45785422D01*
X127685422Y-45620432D01*
X127807092Y-45446667D01*
X127862547Y-45402341D01*
X127933167Y-45395032D01*
X127996527Y-45427062D01*
X128013517Y-45446669D01*
X128054948Y-45505838D01*
X128054950Y-45505838D01*
X128633097Y-44927691D01*
X128636884Y-44945915D01*
G37*
G04 #@! TD.AperFunction*
G04 #@! TA.AperFunction,Conductor*
G36*
X100754396Y-38210502D02*
G01*
X100800889Y-38264158D01*
X100810993Y-38334432D01*
X100787143Y-38392007D01*
X100769235Y-38415931D01*
X100744464Y-38449020D01*
X100744464Y-38449021D01*
X100693365Y-38586019D01*
X100693363Y-38586027D01*
X100686854Y-38646574D01*
X100686854Y-39637431D01*
X100666852Y-39705552D01*
X100649949Y-39726526D01*
X98104861Y-42271612D01*
X98042549Y-42305638D01*
X97971733Y-42300573D01*
X97914898Y-42258026D01*
X97890087Y-42191506D01*
X97895933Y-42143580D01*
X97924009Y-42057173D01*
X97924010Y-42057166D01*
X97983143Y-41747185D01*
X97983145Y-41747168D01*
X98002959Y-41432230D01*
X98002959Y-41432217D01*
X97983145Y-41117279D01*
X97983143Y-41117262D01*
X97924010Y-40807281D01*
X97924007Y-40807268D01*
X97826490Y-40507144D01*
X97826486Y-40507135D01*
X97692124Y-40221601D01*
X97692117Y-40221587D01*
X97523033Y-39955152D01*
X97523030Y-39955148D01*
X97433955Y-39847476D01*
X96790004Y-40491427D01*
X96788430Y-40488859D01*
X96624870Y-40297354D01*
X96433365Y-40133794D01*
X96430794Y-40132218D01*
X97077477Y-39485536D01*
X97077477Y-39485534D01*
X96836513Y-39310464D01*
X96559965Y-39158431D01*
X96266539Y-39042255D01*
X96266533Y-39042253D01*
X95960896Y-38963779D01*
X95960869Y-38963774D01*
X95647804Y-38924225D01*
X95647786Y-38924224D01*
X95332214Y-38924224D01*
X95332195Y-38924225D01*
X95019130Y-38963774D01*
X95019103Y-38963779D01*
X94713466Y-39042253D01*
X94713460Y-39042255D01*
X94420034Y-39158431D01*
X94143485Y-39310465D01*
X93902521Y-39485534D01*
X93902521Y-39485536D01*
X94549204Y-40132219D01*
X94546635Y-40133794D01*
X94355130Y-40297354D01*
X94191570Y-40488859D01*
X94189995Y-40491428D01*
X93546043Y-39847476D01*
X93546042Y-39847476D01*
X93456971Y-39955145D01*
X93456969Y-39955148D01*
X93287882Y-40221587D01*
X93287875Y-40221601D01*
X93153513Y-40507135D01*
X93153509Y-40507144D01*
X93055992Y-40807268D01*
X93055989Y-40807281D01*
X92996856Y-41117262D01*
X92996854Y-41117279D01*
X92977041Y-41432217D01*
X92977041Y-41432230D01*
X92996854Y-41747168D01*
X92996856Y-41747185D01*
X93055989Y-42057166D01*
X93055992Y-42057179D01*
X93153509Y-42357303D01*
X93153513Y-42357312D01*
X93287875Y-42642846D01*
X93287882Y-42642860D01*
X93456966Y-42909295D01*
X93456969Y-42909299D01*
X93546043Y-43016970D01*
X94189994Y-42373018D01*
X94191570Y-42375589D01*
X94355130Y-42567094D01*
X94546635Y-42730654D01*
X94549204Y-42732228D01*
X93902521Y-43378911D01*
X93902521Y-43378912D01*
X94143486Y-43553983D01*
X94420034Y-43706016D01*
X94713460Y-43822192D01*
X94713466Y-43822194D01*
X95019103Y-43900668D01*
X95019130Y-43900673D01*
X95332195Y-43940222D01*
X95332214Y-43940224D01*
X95647786Y-43940224D01*
X95647804Y-43940222D01*
X95960869Y-43900673D01*
X95960896Y-43900668D01*
X96207426Y-43837370D01*
X96278381Y-43839802D01*
X96336757Y-43880210D01*
X96364020Y-43945763D01*
X96351514Y-44015650D01*
X96320334Y-44055442D01*
X96280411Y-44089354D01*
X96280408Y-44089357D01*
X96231447Y-44153761D01*
X96230398Y-44155103D01*
X96179731Y-44218138D01*
X96178896Y-44219445D01*
X96168210Y-44236672D01*
X96167403Y-44238012D01*
X96133430Y-44311444D01*
X96132693Y-44312980D01*
X96096763Y-44385428D01*
X96096212Y-44386929D01*
X96089474Y-44406069D01*
X96088997Y-44407484D01*
X96071607Y-44486487D01*
X96071218Y-44488147D01*
X96051697Y-44566643D01*
X96051490Y-44568165D01*
X96049010Y-44588415D01*
X96048854Y-44589857D01*
X96048854Y-44670760D01*
X96048831Y-44672466D01*
X96046640Y-44753313D01*
X96046769Y-44754897D01*
X96048854Y-44776823D01*
X96048854Y-46979828D01*
X96028852Y-47047949D01*
X95975196Y-47094442D01*
X95966887Y-47097883D01*
X95863797Y-47136334D01*
X95863792Y-47136336D01*
X95746738Y-47223962D01*
X95659112Y-47341016D01*
X95659110Y-47341021D01*
X95619672Y-47446757D01*
X95577125Y-47503593D01*
X95510605Y-47528403D01*
X95501617Y-47528724D01*
X95489802Y-47528724D01*
X95484695Y-47528516D01*
X95472249Y-47527502D01*
X95428972Y-47523978D01*
X95428968Y-47523979D01*
X95348797Y-47534901D01*
X95347104Y-47535108D01*
X95266715Y-47543851D01*
X95265205Y-47544183D01*
X95245503Y-47548800D01*
X95243943Y-47549188D01*
X95168023Y-47577079D01*
X95166415Y-47577645D01*
X95089751Y-47603477D01*
X95088325Y-47604137D01*
X95070073Y-47612884D01*
X95068664Y-47613582D01*
X95000512Y-47657143D01*
X94999064Y-47658041D01*
X94929751Y-47699745D01*
X94928511Y-47700688D01*
X94912502Y-47713204D01*
X94911320Y-47714154D01*
X94854108Y-47771365D01*
X94852887Y-47772554D01*
X94794176Y-47828169D01*
X94793185Y-47829336D01*
X94779123Y-47846350D01*
X94200512Y-48424962D01*
X94138199Y-48458987D01*
X94100438Y-48461388D01*
X94070003Y-48458726D01*
X94070001Y-48458726D01*
X94070000Y-48458726D01*
X93871860Y-48476061D01*
X93841913Y-48478681D01*
X93620759Y-48537939D01*
X93620753Y-48537941D01*
X93413250Y-48634701D01*
X93225703Y-48766023D01*
X93225697Y-48766028D01*
X93114907Y-48876819D01*
X93052595Y-48910845D01*
X93025812Y-48913724D01*
X92415224Y-48913724D01*
X92410117Y-48913516D01*
X92397671Y-48912502D01*
X92354394Y-48908978D01*
X92354390Y-48908979D01*
X92274219Y-48919901D01*
X92272526Y-48920108D01*
X92192137Y-48928851D01*
X92190627Y-48929183D01*
X92170925Y-48933800D01*
X92169365Y-48934188D01*
X92093445Y-48962079D01*
X92091837Y-48962645D01*
X92015173Y-48988477D01*
X92013747Y-48989137D01*
X91995495Y-48997884D01*
X91994086Y-48998582D01*
X91925934Y-49042143D01*
X91924486Y-49043041D01*
X91855173Y-49084745D01*
X91853933Y-49085688D01*
X91837924Y-49098204D01*
X91836742Y-49099154D01*
X91779530Y-49156365D01*
X91778309Y-49157554D01*
X91719598Y-49213169D01*
X91718575Y-49214374D01*
X91704542Y-49231354D01*
X89369438Y-51566459D01*
X89365675Y-51569928D01*
X89323061Y-51606125D01*
X89323054Y-51606133D01*
X89274093Y-51670537D01*
X89273044Y-51671879D01*
X89222377Y-51734914D01*
X89221542Y-51736221D01*
X89210856Y-51753448D01*
X89210049Y-51754788D01*
X89176076Y-51828220D01*
X89175339Y-51829756D01*
X89139409Y-51902204D01*
X89138858Y-51903705D01*
X89132120Y-51922845D01*
X89131643Y-51924260D01*
X89114253Y-52003263D01*
X89113864Y-52004923D01*
X89094343Y-52083419D01*
X89094136Y-52084941D01*
X89091656Y-52105191D01*
X89091500Y-52106633D01*
X89091500Y-52187536D01*
X89091477Y-52189242D01*
X89089286Y-52270089D01*
X89089415Y-52271673D01*
X89091500Y-52293599D01*
X89091500Y-67462553D01*
X89091292Y-67467668D01*
X89086754Y-67523381D01*
X89086754Y-67523384D01*
X89097678Y-67603560D01*
X89097885Y-67605253D01*
X89106626Y-67685634D01*
X89106969Y-67687190D01*
X89111563Y-67706799D01*
X89111965Y-67708415D01*
X89139854Y-67784329D01*
X89140421Y-67785937D01*
X89166251Y-67862599D01*
X89166895Y-67863991D01*
X89175646Y-67882251D01*
X89176358Y-67883688D01*
X89219922Y-67951846D01*
X89220820Y-67953294D01*
X89262522Y-68022602D01*
X89263502Y-68023891D01*
X89275946Y-68039808D01*
X89276926Y-68041028D01*
X89276928Y-68041031D01*
X89334177Y-68098280D01*
X89335318Y-68099453D01*
X89355106Y-68120342D01*
X89390945Y-68158177D01*
X89392171Y-68159218D01*
X89409133Y-68173236D01*
X90661693Y-69425795D01*
X90665152Y-69429547D01*
X90700344Y-69470979D01*
X90701353Y-69472166D01*
X90716943Y-69484017D01*
X90765770Y-69521135D01*
X90767079Y-69522158D01*
X90798026Y-69547033D01*
X90830131Y-69572841D01*
X90831533Y-69573737D01*
X90848652Y-69584356D01*
X90850010Y-69585173D01*
X90872778Y-69595706D01*
X90923458Y-69619153D01*
X90924937Y-69619863D01*
X90964918Y-69639691D01*
X90997427Y-69655814D01*
X90997428Y-69655814D01*
X90997432Y-69655816D01*
X90998973Y-69656382D01*
X91017970Y-69663070D01*
X91019484Y-69663579D01*
X91019487Y-69663581D01*
X91098517Y-69680976D01*
X91100149Y-69681359D01*
X91178642Y-69700880D01*
X91180331Y-69701110D01*
X91200162Y-69703539D01*
X91201854Y-69703723D01*
X91201857Y-69703724D01*
X91282761Y-69703724D01*
X91284467Y-69703747D01*
X91330635Y-69704997D01*
X91365310Y-69705937D01*
X91365310Y-69705936D01*
X91365313Y-69705937D01*
X91366930Y-69705805D01*
X91388824Y-69703724D01*
X95804554Y-69703724D01*
X95809662Y-69703931D01*
X95832669Y-69705805D01*
X95865381Y-69708469D01*
X95865382Y-69708468D01*
X95865385Y-69708469D01*
X95945605Y-69697538D01*
X95947204Y-69697343D01*
X96027640Y-69688596D01*
X96027641Y-69688595D01*
X96027646Y-69688595D01*
X96029304Y-69688230D01*
X96048727Y-69683678D01*
X96050405Y-69683261D01*
X96050406Y-69683260D01*
X96050410Y-69683260D01*
X96105365Y-69663070D01*
X96126330Y-69655368D01*
X96127941Y-69654801D01*
X96163226Y-69642911D01*
X96204600Y-69628972D01*
X96204609Y-69628966D01*
X96206116Y-69628269D01*
X96224116Y-69619644D01*
X96225678Y-69618869D01*
X96225690Y-69618865D01*
X96293944Y-69575237D01*
X96295216Y-69574449D01*
X96364605Y-69532700D01*
X96364606Y-69532698D01*
X96365977Y-69531656D01*
X96381726Y-69519344D01*
X96383024Y-69518299D01*
X96383031Y-69518296D01*
X96440298Y-69461027D01*
X96441397Y-69459956D01*
X96500174Y-69404282D01*
X96500178Y-69404275D01*
X96501303Y-69402951D01*
X96515231Y-69386094D01*
X96777055Y-69124269D01*
X96839366Y-69090246D01*
X96877131Y-69087846D01*
X96910000Y-69090722D01*
X97138087Y-69070767D01*
X97359243Y-69011508D01*
X97566749Y-68914747D01*
X97680319Y-68835224D01*
X100492198Y-68835224D01*
X100508879Y-69036535D01*
X100510791Y-69059599D01*
X100566056Y-69277836D01*
X100566057Y-69277837D01*
X100566058Y-69277840D01*
X100650241Y-69469760D01*
X100656495Y-69484017D01*
X100779629Y-69672489D01*
X100779632Y-69672492D01*
X100853606Y-69752848D01*
X100922829Y-69828044D01*
X100954250Y-69891709D01*
X100946263Y-69962255D01*
X100901405Y-70017284D01*
X100874161Y-70031437D01*
X100759151Y-70074334D01*
X100759146Y-70074336D01*
X100642092Y-70161962D01*
X100554466Y-70279016D01*
X100554464Y-70279021D01*
X100503365Y-70416019D01*
X100503363Y-70416027D01*
X100496854Y-70476574D01*
X100496854Y-72273873D01*
X100503363Y-72334420D01*
X100503365Y-72334428D01*
X100554464Y-72471426D01*
X100554466Y-72471431D01*
X100642092Y-72588485D01*
X100759146Y-72676111D01*
X100759148Y-72676112D01*
X100759150Y-72676113D01*
X100818229Y-72698148D01*
X100896149Y-72727212D01*
X100896157Y-72727214D01*
X100956704Y-72733723D01*
X100956709Y-72733723D01*
X100956716Y-72733724D01*
X100956722Y-72733724D01*
X102753986Y-72733724D01*
X102753992Y-72733724D01*
X102753999Y-72733723D01*
X102754003Y-72733723D01*
X102814550Y-72727214D01*
X102814553Y-72727213D01*
X102814555Y-72727213D01*
X102951558Y-72676113D01*
X103000795Y-72639255D01*
X103068615Y-72588485D01*
X103121961Y-72517224D01*
X105323198Y-72517224D01*
X105341481Y-72737867D01*
X105341791Y-72741599D01*
X105397056Y-72959836D01*
X105397057Y-72959837D01*
X105397058Y-72959840D01*
X105449681Y-73079810D01*
X105487495Y-73166017D01*
X105610629Y-73354489D01*
X105610633Y-73354494D01*
X105763116Y-73520132D01*
X105817685Y-73562605D01*
X105940778Y-73658413D01*
X106138780Y-73765566D01*
X106138781Y-73765566D01*
X106138782Y-73765567D01*
X106206630Y-73788859D01*
X106351719Y-73838668D01*
X106573785Y-73875724D01*
X106573789Y-73875724D01*
X106798919Y-73875724D01*
X106798923Y-73875724D01*
X107020989Y-73838668D01*
X107233928Y-73765566D01*
X107431930Y-73658413D01*
X107609594Y-73520130D01*
X107762076Y-73354492D01*
X107885214Y-73166015D01*
X107975650Y-72959840D01*
X108030918Y-72741592D01*
X108049510Y-72517224D01*
X108030918Y-72292856D01*
X108013538Y-72224224D01*
X107975651Y-72074611D01*
X107975650Y-72074610D01*
X107975650Y-72074608D01*
X107885214Y-71868433D01*
X107878494Y-71858148D01*
X107762078Y-71679958D01*
X107762074Y-71679953D01*
X107609591Y-71514315D01*
X107527736Y-71450605D01*
X107431930Y-71376035D01*
X107398673Y-71358037D01*
X107348283Y-71308026D01*
X107332930Y-71238709D01*
X107357490Y-71172096D01*
X107398674Y-71136410D01*
X107431930Y-71118413D01*
X107609594Y-70980130D01*
X107762076Y-70814492D01*
X107885214Y-70626015D01*
X107975650Y-70419840D01*
X108030918Y-70201592D01*
X108049510Y-69977224D01*
X108030918Y-69752856D01*
X108019677Y-69708468D01*
X107975651Y-69534611D01*
X107975650Y-69534610D01*
X107975650Y-69534608D01*
X107885214Y-69328433D01*
X107852158Y-69277837D01*
X107762078Y-69139958D01*
X107762074Y-69139953D01*
X107609591Y-68974315D01*
X107484868Y-68877239D01*
X107431930Y-68836035D01*
X107430431Y-68835224D01*
X107398674Y-68818038D01*
X107348283Y-68768026D01*
X107332930Y-68698709D01*
X107357490Y-68632096D01*
X107398674Y-68596410D01*
X107399997Y-68595694D01*
X107431930Y-68578413D01*
X107609594Y-68440130D01*
X107762076Y-68274492D01*
X107885214Y-68086015D01*
X107975650Y-67879840D01*
X108030918Y-67661592D01*
X108049510Y-67437224D01*
X108030918Y-67212856D01*
X108001848Y-67098061D01*
X107975651Y-66994611D01*
X107975650Y-66994610D01*
X107975650Y-66994608D01*
X107885214Y-66788433D01*
X107873841Y-66771026D01*
X107762078Y-66599958D01*
X107762074Y-66599953D01*
X107609591Y-66434315D01*
X107491784Y-66342622D01*
X107431930Y-66296035D01*
X107398673Y-66278037D01*
X107348283Y-66228026D01*
X107332930Y-66158709D01*
X107357490Y-66092096D01*
X107398674Y-66056410D01*
X107431930Y-66038413D01*
X107609594Y-65900130D01*
X107762076Y-65734492D01*
X107885214Y-65546015D01*
X107975650Y-65339840D01*
X108030918Y-65121592D01*
X108049510Y-64897224D01*
X108030918Y-64672856D01*
X108010165Y-64590904D01*
X107975651Y-64454611D01*
X107975650Y-64454610D01*
X107975650Y-64454608D01*
X107885214Y-64248433D01*
X107834488Y-64170791D01*
X107762078Y-64059958D01*
X107762074Y-64059953D01*
X107609591Y-63894315D01*
X107513552Y-63819565D01*
X107431930Y-63756035D01*
X107398673Y-63738037D01*
X107348283Y-63688026D01*
X107332930Y-63618709D01*
X107357490Y-63552096D01*
X107398674Y-63516410D01*
X107431930Y-63498413D01*
X107609594Y-63360130D01*
X107762076Y-63194492D01*
X107885214Y-63006015D01*
X107975650Y-62799840D01*
X108030918Y-62581592D01*
X108049510Y-62357224D01*
X108030918Y-62132856D01*
X108016099Y-62074337D01*
X107975651Y-61914611D01*
X107975650Y-61914610D01*
X107975650Y-61914608D01*
X107953988Y-61865224D01*
X118181738Y-61865224D01*
X118202137Y-62046271D01*
X118202137Y-62046273D01*
X118202138Y-62046274D01*
X118262311Y-62218239D01*
X118262312Y-62218242D01*
X118359241Y-62372503D01*
X118359242Y-62372505D01*
X118488072Y-62501335D01*
X118488074Y-62501336D01*
X118642335Y-62598265D01*
X118642336Y-62598265D01*
X118642339Y-62598267D01*
X118814307Y-62658441D01*
X118995354Y-62678840D01*
X119176401Y-62658441D01*
X119348369Y-62598267D01*
X119502635Y-62501335D01*
X119631465Y-62372505D01*
X119728397Y-62218239D01*
X119788571Y-62046271D01*
X119808970Y-61865224D01*
X119788571Y-61684177D01*
X119728397Y-61512209D01*
X119720978Y-61500401D01*
X119673166Y-61424309D01*
X119653853Y-61357273D01*
X119653853Y-58589088D01*
X119673165Y-58522052D01*
X119738397Y-58418239D01*
X119798571Y-58246271D01*
X119818970Y-58065224D01*
X119798571Y-57884177D01*
X119738397Y-57712209D01*
X119738395Y-57712206D01*
X119738395Y-57712205D01*
X119641466Y-57557944D01*
X119641465Y-57557942D01*
X119512635Y-57429112D01*
X119512633Y-57429111D01*
X119358372Y-57332182D01*
X119358369Y-57332181D01*
X119186404Y-57272008D01*
X119186403Y-57272007D01*
X119186401Y-57272007D01*
X119005354Y-57251608D01*
X119005353Y-57251608D01*
X118974537Y-57255080D01*
X118824307Y-57272007D01*
X118824304Y-57272007D01*
X118824303Y-57272008D01*
X118652338Y-57332181D01*
X118652335Y-57332182D01*
X118498074Y-57429111D01*
X118498072Y-57429112D01*
X118369242Y-57557942D01*
X118369241Y-57557944D01*
X118272312Y-57712205D01*
X118272311Y-57712208D01*
X118242702Y-57796828D01*
X118212137Y-57884177D01*
X118191738Y-58065224D01*
X118212137Y-58246271D01*
X118212137Y-58246273D01*
X118212138Y-58246274D01*
X118272311Y-58418239D01*
X118272313Y-58418243D01*
X118317540Y-58490220D01*
X118336854Y-58557257D01*
X118336854Y-61357274D01*
X118317542Y-61424308D01*
X118270854Y-61498612D01*
X118262309Y-61512212D01*
X118215474Y-61646061D01*
X118202137Y-61684177D01*
X118181738Y-61865224D01*
X107953988Y-61865224D01*
X107885214Y-61708433D01*
X107869364Y-61684173D01*
X107762078Y-61519958D01*
X107762074Y-61519953D01*
X107609591Y-61354315D01*
X107527736Y-61290605D01*
X107431930Y-61216035D01*
X107431923Y-61216031D01*
X107398672Y-61198036D01*
X107348282Y-61148022D01*
X107332930Y-61078705D01*
X107357491Y-61012093D01*
X107398669Y-60976412D01*
X107431930Y-60958413D01*
X107609594Y-60820130D01*
X107762076Y-60654492D01*
X107885214Y-60466015D01*
X107975650Y-60259840D01*
X108030918Y-60041592D01*
X108049510Y-59817224D01*
X108030918Y-59592856D01*
X108025528Y-59571571D01*
X107975651Y-59374611D01*
X107975650Y-59374610D01*
X107975650Y-59374608D01*
X107885214Y-59168433D01*
X107837385Y-59095224D01*
X110801738Y-59095224D01*
X110822137Y-59276271D01*
X110822137Y-59276273D01*
X110822138Y-59276274D01*
X110882311Y-59448239D01*
X110882312Y-59448242D01*
X110979241Y-59602503D01*
X110979242Y-59602505D01*
X111108072Y-59731335D01*
X111108074Y-59731336D01*
X111262335Y-59828265D01*
X111262336Y-59828265D01*
X111262339Y-59828267D01*
X111434307Y-59888441D01*
X111437030Y-59888747D01*
X111438956Y-59888965D01*
X111504410Y-59916465D01*
X111513948Y-59925078D01*
X112218481Y-60629611D01*
X112228695Y-60642359D01*
X112228888Y-60642200D01*
X112233937Y-60648303D01*
X112286348Y-60697520D01*
X112287737Y-60698866D01*
X112309021Y-60720150D01*
X112314877Y-60724692D01*
X112319374Y-60728534D01*
X112355221Y-60762196D01*
X112374014Y-60772527D01*
X112390538Y-60783382D01*
X112407486Y-60796529D01*
X112452609Y-60816055D01*
X112457943Y-60818668D01*
X112501011Y-60842345D01*
X112501013Y-60842346D01*
X112501017Y-60842348D01*
X112521794Y-60847682D01*
X112540486Y-60854081D01*
X112560177Y-60862603D01*
X112608756Y-60870296D01*
X112614525Y-60871491D01*
X112662166Y-60883724D01*
X112683612Y-60883724D01*
X112703322Y-60885274D01*
X112724505Y-60888630D01*
X112759996Y-60885275D01*
X112773446Y-60884004D01*
X112779379Y-60883724D01*
X115031905Y-60883724D01*
X115098940Y-60903036D01*
X115186839Y-60958267D01*
X115358807Y-61018441D01*
X115539854Y-61038840D01*
X115720901Y-61018441D01*
X115892869Y-60958267D01*
X116047135Y-60861335D01*
X116175965Y-60732505D01*
X116272897Y-60578239D01*
X116333071Y-60406271D01*
X116353470Y-60225224D01*
X116333071Y-60044177D01*
X116272897Y-59872209D01*
X116272895Y-59872206D01*
X116272895Y-59872205D01*
X116175966Y-59717944D01*
X116175965Y-59717942D01*
X116047135Y-59589112D01*
X116047133Y-59589111D01*
X115892872Y-59492182D01*
X115892869Y-59492181D01*
X115720904Y-59432008D01*
X115720903Y-59432007D01*
X115720901Y-59432007D01*
X115539854Y-59411608D01*
X115358807Y-59432007D01*
X115358804Y-59432007D01*
X115358803Y-59432008D01*
X115186839Y-59492180D01*
X115126939Y-59529819D01*
X115098940Y-59547411D01*
X115031905Y-59566724D01*
X113070304Y-59566724D01*
X113002183Y-59546722D01*
X112981208Y-59529819D01*
X112713943Y-59262554D01*
X112445207Y-58993817D01*
X112411182Y-58931505D01*
X112409095Y-58918826D01*
X112408571Y-58914180D01*
X112408571Y-58914177D01*
X112348397Y-58742209D01*
X112348395Y-58742206D01*
X112348395Y-58742205D01*
X112251466Y-58587944D01*
X112251465Y-58587942D01*
X112122635Y-58459112D01*
X112122633Y-58459111D01*
X111968372Y-58362182D01*
X111968369Y-58362181D01*
X111796404Y-58302008D01*
X111796403Y-58302007D01*
X111796401Y-58302007D01*
X111615354Y-58281608D01*
X111434307Y-58302007D01*
X111434304Y-58302007D01*
X111434303Y-58302008D01*
X111262338Y-58362181D01*
X111262335Y-58362182D01*
X111108074Y-58459111D01*
X111108072Y-58459112D01*
X110979242Y-58587942D01*
X110979241Y-58587944D01*
X110882312Y-58742205D01*
X110882311Y-58742208D01*
X110822139Y-58914172D01*
X110822137Y-58914177D01*
X110801738Y-59095224D01*
X107837385Y-59095224D01*
X107837139Y-59094848D01*
X107762078Y-58979958D01*
X107762074Y-58979953D01*
X107609591Y-58814315D01*
X107516944Y-58742205D01*
X107431930Y-58676035D01*
X107431923Y-58676031D01*
X107398672Y-58658036D01*
X107348282Y-58608022D01*
X107332930Y-58538705D01*
X107357491Y-58472093D01*
X107398669Y-58436412D01*
X107431930Y-58418413D01*
X107609594Y-58280130D01*
X107762076Y-58114492D01*
X107885214Y-57926015D01*
X107975650Y-57719840D01*
X108030918Y-57501592D01*
X108049510Y-57277224D01*
X108030918Y-57052856D01*
X108030916Y-57052848D01*
X107975651Y-56834611D01*
X107975650Y-56834610D01*
X107975650Y-56834608D01*
X107885214Y-56628433D01*
X107850642Y-56575517D01*
X107762078Y-56439958D01*
X107762074Y-56439953D01*
X107609591Y-56274315D01*
X107474000Y-56168780D01*
X107431930Y-56136035D01*
X107398673Y-56118037D01*
X107348283Y-56068026D01*
X107332930Y-55998709D01*
X107357490Y-55932096D01*
X107398674Y-55896410D01*
X107404410Y-55893306D01*
X107431930Y-55878413D01*
X107609594Y-55740130D01*
X107762076Y-55574492D01*
X107885214Y-55386015D01*
X107975650Y-55179840D01*
X108030918Y-54961592D01*
X108049510Y-54737224D01*
X108030918Y-54512856D01*
X107990391Y-54352818D01*
X107975651Y-54294611D01*
X107975650Y-54294610D01*
X107975650Y-54294608D01*
X107885214Y-54088433D01*
X107841945Y-54022205D01*
X107762078Y-53899958D01*
X107762074Y-53899953D01*
X107609591Y-53734315D01*
X107491219Y-53642182D01*
X107431930Y-53596035D01*
X107398146Y-53577752D01*
X107347756Y-53527740D01*
X107332404Y-53458423D01*
X107356964Y-53391810D01*
X107398147Y-53356125D01*
X107431654Y-53337991D01*
X107431655Y-53337991D01*
X107609256Y-53199758D01*
X107761679Y-53034182D01*
X107884773Y-52845772D01*
X107975174Y-52639680D01*
X107975177Y-52639673D01*
X108022898Y-52451224D01*
X107117470Y-52451224D01*
X107145847Y-52407068D01*
X107186354Y-52269113D01*
X107186354Y-52125335D01*
X107145847Y-51987380D01*
X107117470Y-51943224D01*
X107988904Y-51943224D01*
X108057025Y-51963226D01*
X108077999Y-51980129D01*
X110575627Y-54477757D01*
X110609653Y-54540069D01*
X110611739Y-54552741D01*
X110612135Y-54556263D01*
X110612138Y-54556276D01*
X110672311Y-54728239D01*
X110672312Y-54728242D01*
X110769241Y-54882503D01*
X110769242Y-54882505D01*
X110898072Y-55011335D01*
X110898074Y-55011336D01*
X111052335Y-55108265D01*
X111052336Y-55108265D01*
X111052339Y-55108267D01*
X111224307Y-55168441D01*
X111405354Y-55188840D01*
X111586401Y-55168441D01*
X111758369Y-55108267D01*
X111912635Y-55011335D01*
X112041465Y-54882505D01*
X112138397Y-54728239D01*
X112198571Y-54556271D01*
X112218970Y-54375224D01*
X112198571Y-54194177D01*
X112138397Y-54022209D01*
X112138395Y-54022206D01*
X112138395Y-54022205D01*
X112041466Y-53867944D01*
X112041465Y-53867942D01*
X111912635Y-53739112D01*
X111912633Y-53739111D01*
X111758372Y-53642182D01*
X111758369Y-53642181D01*
X111586406Y-53582008D01*
X111586393Y-53582005D01*
X111580617Y-53581355D01*
X111515165Y-53553850D01*
X111505633Y-53545243D01*
X111427614Y-53467224D01*
X119049738Y-53467224D01*
X119070137Y-53648271D01*
X119070137Y-53648273D01*
X119070138Y-53648274D01*
X119130311Y-53820239D01*
X119130312Y-53820242D01*
X119227241Y-53974503D01*
X119227242Y-53974505D01*
X119356072Y-54103335D01*
X119356074Y-54103336D01*
X119510335Y-54200265D01*
X119510336Y-54200265D01*
X119510339Y-54200267D01*
X119682307Y-54260441D01*
X119863354Y-54280840D01*
X120044401Y-54260441D01*
X120216369Y-54200267D01*
X120304267Y-54145036D01*
X120371303Y-54125724D01*
X120518562Y-54125724D01*
X120586683Y-54145726D01*
X120633176Y-54199382D01*
X120643280Y-54269656D01*
X120637736Y-54292634D01*
X120637055Y-54294615D01*
X120581791Y-54512848D01*
X120581790Y-54512854D01*
X120581790Y-54512856D01*
X120572063Y-54630244D01*
X120563943Y-54728239D01*
X120563198Y-54737224D01*
X120579972Y-54939657D01*
X120581791Y-54961599D01*
X120637056Y-55179836D01*
X120637057Y-55179837D01*
X120637058Y-55179840D01*
X120692959Y-55307282D01*
X120727495Y-55386017D01*
X120850629Y-55574489D01*
X120850633Y-55574494D01*
X121003116Y-55740132D01*
X121036811Y-55766358D01*
X121180778Y-55878413D01*
X121214034Y-55896410D01*
X121264425Y-55946424D01*
X121279777Y-56015740D01*
X121255216Y-56082353D01*
X121214034Y-56118037D01*
X121180780Y-56136034D01*
X121180778Y-56136035D01*
X121003116Y-56274315D01*
X120850633Y-56439953D01*
X120850629Y-56439958D01*
X120727495Y-56628430D01*
X120637057Y-56834610D01*
X120637056Y-56834611D01*
X120581791Y-57052848D01*
X120581790Y-57052854D01*
X120581790Y-57052856D01*
X120563198Y-57277224D01*
X120580678Y-57488175D01*
X120581791Y-57501599D01*
X120637056Y-57719836D01*
X120637057Y-57719837D01*
X120727495Y-57926017D01*
X120850629Y-58114489D01*
X120850633Y-58114494D01*
X121003116Y-58280132D01*
X121041889Y-58310310D01*
X121180778Y-58418413D01*
X121214028Y-58436407D01*
X121214034Y-58436410D01*
X121264425Y-58486424D01*
X121279777Y-58555740D01*
X121255216Y-58622353D01*
X121214034Y-58658037D01*
X121180780Y-58676034D01*
X121180778Y-58676035D01*
X121003116Y-58814315D01*
X120850633Y-58979953D01*
X120850629Y-58979958D01*
X120727495Y-59168430D01*
X120637057Y-59374610D01*
X120637056Y-59374611D01*
X120581791Y-59592848D01*
X120581790Y-59592854D01*
X120581790Y-59592856D01*
X120563198Y-59817224D01*
X120579000Y-60007927D01*
X120581791Y-60041599D01*
X120637056Y-60259836D01*
X120637057Y-60259837D01*
X120637058Y-60259840D01*
X120718827Y-60446255D01*
X120727495Y-60466017D01*
X120850629Y-60654489D01*
X120850633Y-60654494D01*
X121003116Y-60820132D01*
X121031657Y-60842346D01*
X121180778Y-60958413D01*
X121214028Y-60976407D01*
X121214034Y-60976410D01*
X121264425Y-61026424D01*
X121279777Y-61095740D01*
X121255216Y-61162353D01*
X121214034Y-61198037D01*
X121180780Y-61216034D01*
X121180778Y-61216035D01*
X121003116Y-61354315D01*
X120850633Y-61519953D01*
X120850629Y-61519958D01*
X120727495Y-61708430D01*
X120637057Y-61914610D01*
X120637056Y-61914611D01*
X120581791Y-62132848D01*
X120581790Y-62132854D01*
X120581790Y-62132856D01*
X120563198Y-62357224D01*
X120573761Y-62484701D01*
X120581791Y-62581599D01*
X120637056Y-62799836D01*
X120637057Y-62799837D01*
X120637058Y-62799840D01*
X120678348Y-62893973D01*
X120727495Y-63006017D01*
X120850629Y-63194489D01*
X120850633Y-63194494D01*
X121003116Y-63360132D01*
X121046806Y-63394137D01*
X121180778Y-63498413D01*
X121214034Y-63516410D01*
X121264425Y-63566424D01*
X121279777Y-63635740D01*
X121255216Y-63702353D01*
X121214034Y-63738037D01*
X121180780Y-63756034D01*
X121180778Y-63756035D01*
X121003116Y-63894315D01*
X120850633Y-64059953D01*
X120850629Y-64059958D01*
X120727495Y-64248430D01*
X120637057Y-64454610D01*
X120637056Y-64454611D01*
X120581791Y-64672848D01*
X120581790Y-64672854D01*
X120581790Y-64672856D01*
X120563198Y-64897224D01*
X120580959Y-65111569D01*
X120581791Y-65121599D01*
X120637056Y-65339836D01*
X120637057Y-65339837D01*
X120637058Y-65339840D01*
X120719745Y-65528349D01*
X120727495Y-65546017D01*
X120850629Y-65734489D01*
X120850633Y-65734494D01*
X121003116Y-65900132D01*
X121051595Y-65937865D01*
X121180778Y-66038413D01*
X121214034Y-66056410D01*
X121264425Y-66106424D01*
X121279777Y-66175740D01*
X121255216Y-66242353D01*
X121214034Y-66278037D01*
X121180780Y-66296034D01*
X121180778Y-66296035D01*
X121003116Y-66434315D01*
X120850633Y-66599953D01*
X120850629Y-66599958D01*
X120727495Y-66788430D01*
X120637057Y-66994610D01*
X120637056Y-66994611D01*
X120581791Y-67212848D01*
X120581790Y-67212854D01*
X120581790Y-67212856D01*
X120563198Y-67437224D01*
X120580036Y-67640428D01*
X120581791Y-67661599D01*
X120637056Y-67879836D01*
X120637057Y-67879837D01*
X120637058Y-67879840D01*
X120724854Y-68079996D01*
X120727495Y-68086017D01*
X120850629Y-68274489D01*
X120850633Y-68274494D01*
X121003116Y-68440132D01*
X121040880Y-68469525D01*
X121180778Y-68578413D01*
X121214034Y-68596410D01*
X121264424Y-68646420D01*
X121279777Y-68715737D01*
X121255218Y-68782350D01*
X121214037Y-68818035D01*
X121180784Y-68836031D01*
X121180778Y-68836035D01*
X121003116Y-68974315D01*
X120850633Y-69139953D01*
X120850629Y-69139958D01*
X120727495Y-69328430D01*
X120637057Y-69534610D01*
X120637056Y-69534611D01*
X120581791Y-69752848D01*
X120581790Y-69752854D01*
X120581790Y-69752856D01*
X120563198Y-69977224D01*
X120581194Y-70194403D01*
X120581791Y-70201599D01*
X120637056Y-70419836D01*
X120637057Y-70419837D01*
X120637058Y-70419840D01*
X120727494Y-70626015D01*
X120727495Y-70626017D01*
X120850629Y-70814489D01*
X120850633Y-70814494D01*
X121003116Y-70980132D01*
X121035456Y-71005303D01*
X121180778Y-71118413D01*
X121214034Y-71136410D01*
X121264425Y-71186424D01*
X121279777Y-71255740D01*
X121255216Y-71322353D01*
X121214034Y-71358037D01*
X121180780Y-71376034D01*
X121180778Y-71376035D01*
X121003116Y-71514315D01*
X120850633Y-71679953D01*
X120850629Y-71679958D01*
X120727495Y-71868430D01*
X120637057Y-72074610D01*
X120637056Y-72074611D01*
X120581791Y-72292848D01*
X120581790Y-72292854D01*
X120581790Y-72292856D01*
X120563198Y-72517224D01*
X120581481Y-72737867D01*
X120581791Y-72741599D01*
X120637056Y-72959836D01*
X120637057Y-72959837D01*
X120637058Y-72959840D01*
X120689681Y-73079810D01*
X120727495Y-73166017D01*
X120850629Y-73354489D01*
X120850633Y-73354494D01*
X121003116Y-73520132D01*
X121057685Y-73562605D01*
X121180778Y-73658413D01*
X121378780Y-73765566D01*
X121378781Y-73765566D01*
X121378782Y-73765567D01*
X121446630Y-73788859D01*
X121591719Y-73838668D01*
X121813785Y-73875724D01*
X121813789Y-73875724D01*
X122038919Y-73875724D01*
X122038923Y-73875724D01*
X122260989Y-73838668D01*
X122473928Y-73765566D01*
X122671930Y-73658413D01*
X122849594Y-73520130D01*
X123002076Y-73354492D01*
X123125214Y-73166015D01*
X123215650Y-72959840D01*
X123270918Y-72741592D01*
X123289510Y-72517224D01*
X123270918Y-72292856D01*
X123253538Y-72224224D01*
X123215651Y-72074611D01*
X123215650Y-72074610D01*
X123215650Y-72074608D01*
X123125214Y-71868433D01*
X123118494Y-71858148D01*
X123002078Y-71679958D01*
X123002074Y-71679953D01*
X122849591Y-71514315D01*
X122767736Y-71450605D01*
X122671930Y-71376035D01*
X122638673Y-71358037D01*
X122588283Y-71308026D01*
X122572930Y-71238709D01*
X122597490Y-71172096D01*
X122638674Y-71136410D01*
X122671930Y-71118413D01*
X122849594Y-70980130D01*
X123002076Y-70814492D01*
X123125214Y-70626015D01*
X123215650Y-70419840D01*
X123270918Y-70201592D01*
X123289510Y-69977224D01*
X123270918Y-69752856D01*
X123259677Y-69708468D01*
X123215651Y-69534611D01*
X123215650Y-69534610D01*
X123215650Y-69534608D01*
X123125214Y-69328433D01*
X123092158Y-69277837D01*
X123002078Y-69139958D01*
X123002074Y-69139953D01*
X122849591Y-68974315D01*
X122724868Y-68877239D01*
X122671930Y-68836035D01*
X122670431Y-68835224D01*
X122638674Y-68818038D01*
X122588283Y-68768026D01*
X122572930Y-68698709D01*
X122597490Y-68632096D01*
X122638674Y-68596410D01*
X122639997Y-68595694D01*
X122671930Y-68578413D01*
X122849594Y-68440130D01*
X123002076Y-68274492D01*
X123125214Y-68086015D01*
X123215650Y-67879840D01*
X123270918Y-67661592D01*
X123289510Y-67437224D01*
X123270918Y-67212856D01*
X123241848Y-67098061D01*
X123215651Y-66994611D01*
X123215650Y-66994610D01*
X123215650Y-66994608D01*
X123125214Y-66788433D01*
X123113841Y-66771026D01*
X123002078Y-66599958D01*
X123002074Y-66599953D01*
X122849591Y-66434315D01*
X122731784Y-66342622D01*
X122671930Y-66296035D01*
X122638673Y-66278037D01*
X122588283Y-66228026D01*
X122572930Y-66158709D01*
X122597490Y-66092096D01*
X122638674Y-66056410D01*
X122671930Y-66038413D01*
X122849594Y-65900130D01*
X123002076Y-65734492D01*
X123125214Y-65546015D01*
X123215650Y-65339840D01*
X123270918Y-65121592D01*
X123289510Y-64897224D01*
X123270918Y-64672856D01*
X123250165Y-64590904D01*
X123215651Y-64454611D01*
X123215650Y-64454610D01*
X123215650Y-64454608D01*
X123125214Y-64248433D01*
X123074488Y-64170791D01*
X123002078Y-64059958D01*
X123002074Y-64059953D01*
X122849591Y-63894315D01*
X122753552Y-63819565D01*
X122671930Y-63756035D01*
X122638673Y-63738037D01*
X122588283Y-63688026D01*
X122572930Y-63618709D01*
X122597490Y-63552096D01*
X122638674Y-63516410D01*
X122671930Y-63498413D01*
X122849594Y-63360130D01*
X123002076Y-63194492D01*
X123125214Y-63006015D01*
X123215650Y-62799840D01*
X123270918Y-62581592D01*
X123289510Y-62357224D01*
X123270918Y-62132856D01*
X123256099Y-62074337D01*
X123215651Y-61914611D01*
X123215650Y-61914610D01*
X123215650Y-61914608D01*
X123125214Y-61708433D01*
X123109364Y-61684173D01*
X123002078Y-61519958D01*
X123002074Y-61519953D01*
X122849591Y-61354315D01*
X122767736Y-61290605D01*
X122671930Y-61216035D01*
X122638673Y-61198037D01*
X122588283Y-61148026D01*
X122572930Y-61078709D01*
X122597490Y-61012096D01*
X122638674Y-60976410D01*
X122638680Y-60976407D01*
X122671930Y-60958413D01*
X122849594Y-60820130D01*
X123002076Y-60654492D01*
X123125214Y-60466015D01*
X123215650Y-60259840D01*
X123270918Y-60041592D01*
X123289510Y-59817224D01*
X123270918Y-59592856D01*
X123265528Y-59571571D01*
X123215651Y-59374611D01*
X123215650Y-59374610D01*
X123215650Y-59374608D01*
X123125214Y-59168433D01*
X123077139Y-59094848D01*
X123002078Y-58979958D01*
X123002074Y-58979953D01*
X122849591Y-58814315D01*
X122756944Y-58742205D01*
X122671930Y-58676035D01*
X122661578Y-58670433D01*
X122638674Y-58658038D01*
X122588283Y-58608026D01*
X122572930Y-58538709D01*
X122597490Y-58472096D01*
X122638674Y-58436410D01*
X122638680Y-58436407D01*
X122671930Y-58418413D01*
X122849594Y-58280130D01*
X123002076Y-58114492D01*
X123125214Y-57926015D01*
X123215650Y-57719840D01*
X123270918Y-57501592D01*
X123289510Y-57277224D01*
X123270918Y-57052856D01*
X123270916Y-57052848D01*
X123215651Y-56834611D01*
X123215650Y-56834609D01*
X123200975Y-56801152D01*
X123191929Y-56730734D01*
X123222390Y-56666604D01*
X123282687Y-56629123D01*
X123330463Y-56625331D01*
X123450354Y-56638840D01*
X123631401Y-56618441D01*
X123803369Y-56558267D01*
X123957635Y-56461335D01*
X124086465Y-56332505D01*
X124183397Y-56178239D01*
X124243571Y-56006271D01*
X124244095Y-56001623D01*
X124271595Y-55936168D01*
X124280198Y-55926638D01*
X124596406Y-55610431D01*
X124658717Y-55576407D01*
X124729533Y-55581472D01*
X124786368Y-55624019D01*
X124811179Y-55690539D01*
X124811500Y-55699528D01*
X124811500Y-56075048D01*
X124791498Y-56143169D01*
X124774595Y-56164144D01*
X123925608Y-57013130D01*
X123912865Y-57023340D01*
X123913025Y-57023533D01*
X123906920Y-57028583D01*
X123857718Y-57080977D01*
X123856342Y-57082397D01*
X123835071Y-57103668D01*
X123830527Y-57109525D01*
X123826678Y-57114031D01*
X123793029Y-57149865D01*
X123793027Y-57149867D01*
X123782691Y-57168667D01*
X123771843Y-57185180D01*
X123758699Y-57202126D01*
X123758694Y-57202135D01*
X123739172Y-57247247D01*
X123736560Y-57252577D01*
X123712877Y-57295660D01*
X123712873Y-57295670D01*
X123707541Y-57316436D01*
X123701139Y-57335136D01*
X123692620Y-57354820D01*
X123692619Y-57354824D01*
X123684928Y-57403384D01*
X123683724Y-57409197D01*
X123671499Y-57456810D01*
X123671500Y-57478258D01*
X123669949Y-57497967D01*
X123666594Y-57519150D01*
X123666594Y-57519152D01*
X123671220Y-57568094D01*
X123671500Y-57574027D01*
X123671499Y-69063389D01*
X123669709Y-69079620D01*
X123669958Y-69079644D01*
X123669211Y-69087536D01*
X123671469Y-69159358D01*
X123671500Y-69161337D01*
X123671500Y-69191430D01*
X123672427Y-69198776D01*
X123672893Y-69204690D01*
X123674437Y-69253829D01*
X123674438Y-69253832D01*
X123680421Y-69274429D01*
X123684428Y-69293780D01*
X123687117Y-69315060D01*
X123687117Y-69315062D01*
X123705216Y-69360778D01*
X123707139Y-69366394D01*
X123720853Y-69413597D01*
X123720853Y-69413598D01*
X123731771Y-69432058D01*
X123740468Y-69449811D01*
X123748364Y-69469755D01*
X123748367Y-69469760D01*
X123758725Y-69484015D01*
X123777265Y-69509532D01*
X123780521Y-69514490D01*
X123792420Y-69534611D01*
X123805547Y-69556807D01*
X123820714Y-69571974D01*
X123833552Y-69587005D01*
X123846158Y-69604356D01*
X123884039Y-69635694D01*
X123888420Y-69639680D01*
X124634706Y-70385966D01*
X125322963Y-71074223D01*
X125356989Y-71136535D01*
X125355575Y-71195929D01*
X125341742Y-71247552D01*
X125321406Y-71479999D01*
X125321406Y-71480000D01*
X125341742Y-71712444D01*
X125374104Y-71833223D01*
X125402132Y-71937824D01*
X125402134Y-71937828D01*
X125500744Y-72149297D01*
X125634571Y-72340423D01*
X125634578Y-72340432D01*
X125799568Y-72505422D01*
X125990703Y-72639256D01*
X126202174Y-72737867D01*
X126427556Y-72798258D01*
X126660000Y-72818594D01*
X126892444Y-72798258D01*
X127117826Y-72737867D01*
X127329297Y-72639256D01*
X127520432Y-72505422D01*
X127685422Y-72340432D01*
X127806786Y-72167105D01*
X127862244Y-72122776D01*
X127932863Y-72115467D01*
X127996224Y-72147497D01*
X128013213Y-72167105D01*
X128134571Y-72340423D01*
X128134575Y-72340428D01*
X128134578Y-72340432D01*
X128299568Y-72505422D01*
X128490703Y-72639256D01*
X128702174Y-72737867D01*
X128927556Y-72798258D01*
X129160000Y-72818594D01*
X129392444Y-72798258D01*
X129617826Y-72737867D01*
X129829297Y-72639256D01*
X130020432Y-72505422D01*
X130185422Y-72340432D01*
X130319256Y-72149297D01*
X130417867Y-71937826D01*
X130478258Y-71712444D01*
X130498594Y-71480000D01*
X130478258Y-71247556D01*
X130417867Y-71022174D01*
X130319256Y-70810703D01*
X130185422Y-70619568D01*
X130084947Y-70519094D01*
X130050923Y-70456782D01*
X130055989Y-70385966D01*
X130084945Y-70340908D01*
X130185422Y-70240432D01*
X130319256Y-70049297D01*
X130417867Y-69837826D01*
X130478258Y-69612444D01*
X130498594Y-69380000D01*
X130478258Y-69147556D01*
X130417867Y-68922174D01*
X130319256Y-68710703D01*
X130185422Y-68519568D01*
X130020432Y-68354578D01*
X129829297Y-68220744D01*
X129772361Y-68194194D01*
X129719077Y-68147278D01*
X129699902Y-68080003D01*
X130722208Y-68080003D01*
X130741353Y-68372085D01*
X130741356Y-68372103D01*
X130798459Y-68659178D01*
X130798462Y-68659191D01*
X130892548Y-68936358D01*
X130892554Y-68936372D01*
X131022014Y-69198893D01*
X131184640Y-69442280D01*
X131184643Y-69442284D01*
X131209808Y-69470979D01*
X131209810Y-69470979D01*
X131987275Y-68693513D01*
X132038348Y-68775999D01*
X132181931Y-68933501D01*
X132343611Y-69055597D01*
X131569019Y-69830188D01*
X131569019Y-69830190D01*
X131597715Y-69855356D01*
X131597719Y-69855359D01*
X131841106Y-70017985D01*
X132103627Y-70147445D01*
X132103641Y-70147451D01*
X132380808Y-70241537D01*
X132380821Y-70241540D01*
X132667896Y-70298643D01*
X132667914Y-70298646D01*
X132959997Y-70317791D01*
X132960003Y-70317791D01*
X133252085Y-70298646D01*
X133252103Y-70298643D01*
X133539178Y-70241540D01*
X133539191Y-70241537D01*
X133816358Y-70147451D01*
X133816372Y-70147445D01*
X134078893Y-70017985D01*
X134322279Y-69855359D01*
X134350979Y-69830190D01*
X134350979Y-69830189D01*
X133576388Y-69055597D01*
X133738069Y-68933501D01*
X133881652Y-68775999D01*
X133932723Y-68693514D01*
X134710189Y-69470979D01*
X134710190Y-69470979D01*
X134735359Y-69442279D01*
X134897985Y-69198893D01*
X135027445Y-68936372D01*
X135027451Y-68936358D01*
X135121537Y-68659191D01*
X135121540Y-68659178D01*
X135178643Y-68372103D01*
X135178646Y-68372085D01*
X135197791Y-68080003D01*
X135197791Y-68079996D01*
X135178646Y-67787914D01*
X135178643Y-67787896D01*
X135121540Y-67500821D01*
X135121537Y-67500808D01*
X135027451Y-67223641D01*
X135027445Y-67223627D01*
X134897985Y-66961107D01*
X134735359Y-66717719D01*
X134735356Y-66717715D01*
X134710190Y-66689019D01*
X134710188Y-66689019D01*
X133932722Y-67466484D01*
X133881652Y-67384001D01*
X133738069Y-67226499D01*
X133576387Y-67104401D01*
X134350979Y-66329810D01*
X134350979Y-66329808D01*
X134322284Y-66304643D01*
X134322280Y-66304640D01*
X134078893Y-66142014D01*
X133816372Y-66012554D01*
X133816358Y-66012548D01*
X133539191Y-65918462D01*
X133539178Y-65918459D01*
X133252103Y-65861356D01*
X133252085Y-65861353D01*
X132960003Y-65842209D01*
X132959997Y-65842209D01*
X132667914Y-65861353D01*
X132667896Y-65861356D01*
X132380821Y-65918459D01*
X132380808Y-65918462D01*
X132103641Y-66012548D01*
X132103627Y-66012554D01*
X131841107Y-66142014D01*
X131597717Y-66304641D01*
X131569019Y-66329807D01*
X131569019Y-66329808D01*
X132343612Y-67104402D01*
X132181931Y-67226499D01*
X132038348Y-67384001D01*
X131987275Y-67466485D01*
X131209808Y-66689019D01*
X131209807Y-66689019D01*
X131184641Y-66717717D01*
X131022014Y-66961107D01*
X130892554Y-67223627D01*
X130892548Y-67223641D01*
X130798462Y-67500808D01*
X130798459Y-67500821D01*
X130741356Y-67787896D01*
X130741353Y-67787914D01*
X130722208Y-68079996D01*
X130722208Y-68080003D01*
X129699902Y-68080003D01*
X129699616Y-68079001D01*
X129720158Y-68011041D01*
X129772361Y-67965805D01*
X129829297Y-67939256D01*
X130020432Y-67805422D01*
X130185422Y-67640432D01*
X130319256Y-67449297D01*
X130417867Y-67237826D01*
X130478258Y-67012444D01*
X130498594Y-66780000D01*
X130478258Y-66547556D01*
X130417867Y-66322174D01*
X130319256Y-66110703D01*
X130185422Y-65919568D01*
X130020432Y-65754578D01*
X130020428Y-65754575D01*
X130020423Y-65754571D01*
X129829297Y-65620744D01*
X129829294Y-65620742D01*
X129684984Y-65553449D01*
X129649139Y-65528349D01*
X129327624Y-65206834D01*
X129448458Y-65154349D01*
X129565739Y-65058934D01*
X129652928Y-64935415D01*
X129684838Y-64845628D01*
X130265048Y-65425838D01*
X130265050Y-65425838D01*
X130318822Y-65349045D01*
X130417393Y-65137657D01*
X130417395Y-65137652D01*
X130477762Y-64912355D01*
X130498091Y-64680000D01*
X130477762Y-64447644D01*
X130417395Y-64222347D01*
X130417393Y-64222342D01*
X130318822Y-64010955D01*
X130318821Y-64010953D01*
X130265051Y-63934160D01*
X130265049Y-63934160D01*
X129686902Y-64512305D01*
X129683116Y-64494085D01*
X129613558Y-64359844D01*
X129510362Y-64249348D01*
X129381181Y-64170791D01*
X129325577Y-64155211D01*
X129905838Y-63574948D01*
X129829046Y-63521178D01*
X129617657Y-63422606D01*
X129617652Y-63422604D01*
X129392352Y-63362236D01*
X129392342Y-63362234D01*
X129391784Y-63362186D01*
X129391553Y-63362095D01*
X129386934Y-63361281D01*
X129387097Y-63360352D01*
X129325669Y-63336315D01*
X129284036Y-63278806D01*
X129280104Y-63207919D01*
X129313684Y-63147575D01*
X130029479Y-62431779D01*
X130091789Y-62397755D01*
X130162604Y-62402820D01*
X130219440Y-62445367D01*
X130223337Y-62450874D01*
X130384640Y-62692280D01*
X130384643Y-62692284D01*
X130409808Y-62720979D01*
X130409810Y-62720979D01*
X131187275Y-61943513D01*
X131238348Y-62025999D01*
X131381931Y-62183501D01*
X131543611Y-62305597D01*
X130769019Y-63080188D01*
X130769019Y-63080190D01*
X130797715Y-63105356D01*
X130797719Y-63105359D01*
X131041106Y-63267985D01*
X131303627Y-63397445D01*
X131303641Y-63397451D01*
X131580808Y-63491537D01*
X131580821Y-63491540D01*
X131867896Y-63548643D01*
X131867914Y-63548646D01*
X132159997Y-63567791D01*
X132160003Y-63567791D01*
X132452085Y-63548646D01*
X132452103Y-63548643D01*
X132739178Y-63491540D01*
X132739191Y-63491537D01*
X133016358Y-63397451D01*
X133016372Y-63397445D01*
X133278893Y-63267985D01*
X133522279Y-63105359D01*
X133550979Y-63080190D01*
X133550979Y-63080189D01*
X132776388Y-62305597D01*
X132938069Y-62183501D01*
X133081652Y-62025999D01*
X133132723Y-61943514D01*
X133910188Y-62720979D01*
X133910190Y-62720979D01*
X133935359Y-62692279D01*
X134097985Y-62448893D01*
X134227445Y-62186372D01*
X134227451Y-62186358D01*
X134321537Y-61909191D01*
X134321540Y-61909178D01*
X134378643Y-61622103D01*
X134378646Y-61622085D01*
X134397791Y-61330003D01*
X134397791Y-61329996D01*
X134378646Y-61037914D01*
X134378643Y-61037896D01*
X134321540Y-60750821D01*
X134321537Y-60750808D01*
X134227451Y-60473641D01*
X134227445Y-60473627D01*
X134097985Y-60211107D01*
X133935359Y-59967719D01*
X133935356Y-59967715D01*
X133910190Y-59939019D01*
X133910188Y-59939019D01*
X133132722Y-60716484D01*
X133081652Y-60634001D01*
X132938069Y-60476499D01*
X132776387Y-60354402D01*
X133550979Y-59579810D01*
X133550979Y-59579808D01*
X133522284Y-59554643D01*
X133522280Y-59554640D01*
X133278893Y-59392014D01*
X133016372Y-59262554D01*
X133016358Y-59262548D01*
X132739191Y-59168462D01*
X132739178Y-59168459D01*
X132452103Y-59111356D01*
X132452085Y-59111353D01*
X132160003Y-59092209D01*
X132159997Y-59092209D01*
X131867914Y-59111353D01*
X131867896Y-59111356D01*
X131580821Y-59168459D01*
X131580808Y-59168462D01*
X131303641Y-59262548D01*
X131303627Y-59262554D01*
X131041107Y-59392014D01*
X130797717Y-59554641D01*
X130769019Y-59579807D01*
X130769019Y-59579810D01*
X131543611Y-60354402D01*
X131381931Y-60476499D01*
X131238348Y-60634001D01*
X131187276Y-60716485D01*
X130395405Y-59924614D01*
X130361379Y-59862302D01*
X130358500Y-59835519D01*
X130358500Y-56404480D01*
X130378502Y-56336359D01*
X130395405Y-56315385D01*
X131187275Y-55523513D01*
X131238348Y-55605999D01*
X131381931Y-55763501D01*
X131543611Y-55885597D01*
X130769019Y-56660188D01*
X130769019Y-56660190D01*
X130797715Y-56685356D01*
X130797719Y-56685359D01*
X131041106Y-56847985D01*
X131303627Y-56977445D01*
X131303641Y-56977451D01*
X131580808Y-57071537D01*
X131580821Y-57071540D01*
X131867896Y-57128643D01*
X131867914Y-57128646D01*
X132159997Y-57147791D01*
X132160003Y-57147791D01*
X132452085Y-57128646D01*
X132452103Y-57128643D01*
X132739178Y-57071540D01*
X132739191Y-57071537D01*
X133016358Y-56977451D01*
X133016372Y-56977445D01*
X133278893Y-56847985D01*
X133522279Y-56685359D01*
X133550979Y-56660190D01*
X133550979Y-56660189D01*
X132776388Y-55885597D01*
X132938069Y-55763501D01*
X133081652Y-55605999D01*
X133132723Y-55523514D01*
X133910188Y-56300979D01*
X133910190Y-56300979D01*
X133935359Y-56272279D01*
X134097985Y-56028893D01*
X134227445Y-55766372D01*
X134227451Y-55766358D01*
X134321537Y-55489191D01*
X134321540Y-55489178D01*
X134378643Y-55202103D01*
X134378646Y-55202085D01*
X134397791Y-54910003D01*
X134397791Y-54909996D01*
X134378646Y-54617914D01*
X134378643Y-54617896D01*
X134321540Y-54330821D01*
X134321537Y-54330808D01*
X134227451Y-54053641D01*
X134227445Y-54053627D01*
X134097985Y-53791107D01*
X133935359Y-53547719D01*
X133935356Y-53547715D01*
X133910190Y-53519019D01*
X133910188Y-53519019D01*
X133132722Y-54296484D01*
X133081652Y-54214001D01*
X132938069Y-54056499D01*
X132776387Y-53934402D01*
X133550979Y-53159810D01*
X133550979Y-53159808D01*
X133522284Y-53134643D01*
X133522280Y-53134640D01*
X133278893Y-52972014D01*
X133016372Y-52842554D01*
X133016358Y-52842548D01*
X132739191Y-52748462D01*
X132739178Y-52748459D01*
X132452103Y-52691356D01*
X132452085Y-52691353D01*
X132160003Y-52672209D01*
X132159997Y-52672209D01*
X131867914Y-52691353D01*
X131867896Y-52691356D01*
X131580821Y-52748459D01*
X131580808Y-52748462D01*
X131303641Y-52842548D01*
X131303627Y-52842554D01*
X131041107Y-52972014D01*
X130797717Y-53134641D01*
X130769019Y-53159807D01*
X130769019Y-53159810D01*
X131543611Y-53934402D01*
X131381931Y-54056499D01*
X131238348Y-54214001D01*
X131187276Y-54296485D01*
X130409810Y-53519019D01*
X130409807Y-53519019D01*
X130384641Y-53547717D01*
X130222014Y-53791107D01*
X130092551Y-54053632D01*
X130067041Y-54128782D01*
X130026203Y-54186858D01*
X129960450Y-54213635D01*
X129890657Y-54200613D01*
X129858633Y-54177374D01*
X129356977Y-53675718D01*
X128757311Y-53076052D01*
X128723287Y-53013742D01*
X128728352Y-52942927D01*
X128770899Y-52886091D01*
X128837419Y-52861280D01*
X128879016Y-52865251D01*
X128927556Y-52878258D01*
X129160000Y-52898594D01*
X129392444Y-52878258D01*
X129617826Y-52817867D01*
X129829297Y-52719256D01*
X130020432Y-52585422D01*
X130185422Y-52420432D01*
X130319256Y-52229297D01*
X130417867Y-52017826D01*
X130478258Y-51792444D01*
X130498594Y-51560000D01*
X130478258Y-51327556D01*
X130417867Y-51102174D01*
X130319256Y-50890703D01*
X130185422Y-50699568D01*
X130084948Y-50599095D01*
X130050923Y-50536783D01*
X130055988Y-50465968D01*
X130084949Y-50420905D01*
X130127211Y-50378643D01*
X130185422Y-50320432D01*
X130319256Y-50129297D01*
X130417867Y-49917826D01*
X130478258Y-49692444D01*
X130498594Y-49460000D01*
X130478258Y-49227556D01*
X130417867Y-49002174D01*
X130319256Y-48790703D01*
X130185422Y-48599568D01*
X130020432Y-48434578D01*
X130001643Y-48421422D01*
X129829297Y-48300744D01*
X129824965Y-48298724D01*
X129772361Y-48274194D01*
X129719077Y-48227278D01*
X129699902Y-48160003D01*
X130722208Y-48160003D01*
X130741353Y-48452085D01*
X130741356Y-48452103D01*
X130798459Y-48739178D01*
X130798462Y-48739191D01*
X130892548Y-49016358D01*
X130892554Y-49016372D01*
X131022014Y-49278893D01*
X131184640Y-49522280D01*
X131184643Y-49522284D01*
X131209808Y-49550979D01*
X131209810Y-49550979D01*
X131987275Y-48773513D01*
X132038348Y-48855999D01*
X132181931Y-49013501D01*
X132343611Y-49135597D01*
X131569019Y-49910188D01*
X131569019Y-49910190D01*
X131597715Y-49935356D01*
X131597719Y-49935359D01*
X131841106Y-50097985D01*
X132103627Y-50227445D01*
X132103641Y-50227451D01*
X132380808Y-50321537D01*
X132380821Y-50321540D01*
X132667896Y-50378643D01*
X132667914Y-50378646D01*
X132959997Y-50397791D01*
X132960003Y-50397791D01*
X133252085Y-50378646D01*
X133252103Y-50378643D01*
X133539178Y-50321540D01*
X133539191Y-50321537D01*
X133816358Y-50227451D01*
X133816372Y-50227445D01*
X134078893Y-50097985D01*
X134322279Y-49935359D01*
X134350979Y-49910190D01*
X134350979Y-49910189D01*
X133576388Y-49135597D01*
X133738069Y-49013501D01*
X133881652Y-48855999D01*
X133932723Y-48773514D01*
X134710189Y-49550979D01*
X134710190Y-49550979D01*
X134735359Y-49522279D01*
X134897985Y-49278893D01*
X135027445Y-49016372D01*
X135027451Y-49016358D01*
X135121537Y-48739191D01*
X135121540Y-48739178D01*
X135178643Y-48452103D01*
X135178646Y-48452085D01*
X135197791Y-48160003D01*
X135197791Y-48159996D01*
X135178646Y-47867914D01*
X135178643Y-47867896D01*
X135121540Y-47580821D01*
X135121537Y-47580808D01*
X135027451Y-47303641D01*
X135027445Y-47303627D01*
X134897985Y-47041107D01*
X134735359Y-46797719D01*
X134735356Y-46797715D01*
X134710190Y-46769019D01*
X134710188Y-46769019D01*
X133932722Y-47546484D01*
X133881652Y-47464001D01*
X133738069Y-47306499D01*
X133576387Y-47184402D01*
X134350979Y-46409810D01*
X134350979Y-46409808D01*
X134322284Y-46384643D01*
X134322280Y-46384640D01*
X134078893Y-46222014D01*
X133816372Y-46092554D01*
X133816358Y-46092548D01*
X133539191Y-45998462D01*
X133539178Y-45998459D01*
X133252103Y-45941356D01*
X133252085Y-45941353D01*
X132960003Y-45922209D01*
X132959997Y-45922209D01*
X132667914Y-45941353D01*
X132667896Y-45941356D01*
X132380821Y-45998459D01*
X132380808Y-45998462D01*
X132103641Y-46092548D01*
X132103627Y-46092554D01*
X131841107Y-46222014D01*
X131597717Y-46384641D01*
X131569019Y-46409807D01*
X131569019Y-46409810D01*
X132343611Y-47184402D01*
X132181931Y-47306499D01*
X132038348Y-47464001D01*
X131987276Y-47546485D01*
X131209810Y-46769019D01*
X131209807Y-46769019D01*
X131184641Y-46797717D01*
X131022014Y-47041107D01*
X130892554Y-47303627D01*
X130892548Y-47303641D01*
X130798462Y-47580808D01*
X130798459Y-47580821D01*
X130741356Y-47867896D01*
X130741353Y-47867914D01*
X130722208Y-48159996D01*
X130722208Y-48160003D01*
X129699902Y-48160003D01*
X129699616Y-48159001D01*
X129720158Y-48091041D01*
X129772361Y-48045805D01*
X129829297Y-48019256D01*
X130020432Y-47885422D01*
X130185422Y-47720432D01*
X130319256Y-47529297D01*
X130417867Y-47317826D01*
X130478258Y-47092444D01*
X130498594Y-46860000D01*
X130478258Y-46627556D01*
X130417867Y-46402174D01*
X130319256Y-46190703D01*
X130185422Y-45999568D01*
X130020432Y-45834578D01*
X130020428Y-45834575D01*
X130020423Y-45834571D01*
X129829297Y-45700744D01*
X129829294Y-45700742D01*
X129684984Y-45633449D01*
X129649138Y-45608349D01*
X129327624Y-45286834D01*
X129448458Y-45234349D01*
X129565739Y-45138934D01*
X129652928Y-45015415D01*
X129684838Y-44925628D01*
X130265049Y-45505838D01*
X130265050Y-45505838D01*
X130318822Y-45429045D01*
X130417393Y-45217657D01*
X130417395Y-45217652D01*
X130477762Y-44992355D01*
X130498091Y-44760000D01*
X130477762Y-44527644D01*
X130417395Y-44302347D01*
X130417393Y-44302342D01*
X130318822Y-44090955D01*
X130318821Y-44090953D01*
X130265051Y-44014160D01*
X130265048Y-44014160D01*
X129686902Y-44592305D01*
X129683116Y-44574085D01*
X129613558Y-44439844D01*
X129510362Y-44329348D01*
X129381181Y-44250791D01*
X129325576Y-44235211D01*
X129905838Y-43654948D01*
X129829046Y-43601178D01*
X129617657Y-43502606D01*
X129617652Y-43502604D01*
X129392355Y-43442237D01*
X129160000Y-43421908D01*
X128927644Y-43442237D01*
X128702347Y-43502604D01*
X128702342Y-43502606D01*
X128490951Y-43601179D01*
X128414159Y-43654949D01*
X128992375Y-44233165D01*
X128871542Y-44285651D01*
X128754261Y-44381066D01*
X128667072Y-44504585D01*
X128635161Y-44594371D01*
X128054948Y-44014159D01*
X128013517Y-44073330D01*
X127958059Y-44117659D01*
X127887440Y-44124967D01*
X127824080Y-44092936D01*
X127807091Y-44073329D01*
X127685428Y-43899576D01*
X127685424Y-43899571D01*
X127685422Y-43899568D01*
X127520432Y-43734578D01*
X127406708Y-43654948D01*
X127329297Y-43600744D01*
X127321538Y-43597126D01*
X127117826Y-43502133D01*
X127117824Y-43502132D01*
X127013223Y-43474104D01*
X126892444Y-43441742D01*
X126660000Y-43421406D01*
X126427556Y-43441742D01*
X126367166Y-43457923D01*
X126202175Y-43502132D01*
X126202171Y-43502134D01*
X125990702Y-43600744D01*
X125799571Y-43734575D01*
X125799565Y-43734580D01*
X125634580Y-43899565D01*
X125634575Y-43899571D01*
X125500744Y-44090702D01*
X125402134Y-44302171D01*
X125402132Y-44302175D01*
X125380994Y-44381066D01*
X125346160Y-44511070D01*
X125341742Y-44527557D01*
X125321406Y-44759999D01*
X125341742Y-44992444D01*
X125355575Y-45044070D01*
X125353885Y-45115047D01*
X125322963Y-45165775D01*
X125065611Y-45423127D01*
X125052865Y-45433340D01*
X125053025Y-45433533D01*
X125046920Y-45438583D01*
X124997718Y-45490977D01*
X124996342Y-45492397D01*
X124975071Y-45513668D01*
X124970527Y-45519525D01*
X124966678Y-45524031D01*
X124933029Y-45559865D01*
X124933027Y-45559867D01*
X124922691Y-45578667D01*
X124911843Y-45595180D01*
X124898699Y-45612126D01*
X124898694Y-45612135D01*
X124879172Y-45657247D01*
X124876560Y-45662577D01*
X124852877Y-45705660D01*
X124852873Y-45705670D01*
X124847541Y-45726436D01*
X124841139Y-45745136D01*
X124832620Y-45764820D01*
X124832619Y-45764824D01*
X124824928Y-45813384D01*
X124823724Y-45819197D01*
X124811499Y-45866810D01*
X124811500Y-45888258D01*
X124809949Y-45907968D01*
X124806593Y-45929151D01*
X124806593Y-45929153D01*
X124811219Y-45978093D01*
X124811499Y-45984024D01*
X124811499Y-51785919D01*
X124791497Y-51854040D01*
X124737841Y-51900533D01*
X124667567Y-51910637D01*
X124602987Y-51881143D01*
X124596404Y-51875014D01*
X124514229Y-51792839D01*
X124504018Y-51780093D01*
X124503825Y-51780254D01*
X124498771Y-51774145D01*
X124496776Y-51772272D01*
X124446373Y-51724940D01*
X124444984Y-51723594D01*
X124423687Y-51702297D01*
X124423685Y-51702295D01*
X124423679Y-51702290D01*
X124417836Y-51697758D01*
X124413321Y-51693902D01*
X124410693Y-51691434D01*
X124377487Y-51660252D01*
X124377484Y-51660250D01*
X124377479Y-51660247D01*
X124358692Y-51649918D01*
X124342172Y-51639067D01*
X124325221Y-51625919D01*
X124280093Y-51606390D01*
X124274775Y-51603785D01*
X124247589Y-51588840D01*
X124231692Y-51580100D01*
X124231689Y-51580099D01*
X124210922Y-51574767D01*
X124192219Y-51568364D01*
X124172888Y-51559999D01*
X124172530Y-51559844D01*
X124172528Y-51559843D01*
X124172529Y-51559843D01*
X124123973Y-51552153D01*
X124118158Y-51550949D01*
X124070542Y-51538724D01*
X124049095Y-51538724D01*
X124029386Y-51537173D01*
X124008202Y-51533818D01*
X124008201Y-51533818D01*
X123959260Y-51538444D01*
X123953327Y-51538724D01*
X123187059Y-51538724D01*
X123118938Y-51518722D01*
X123081576Y-51481639D01*
X123002078Y-51359959D01*
X123002074Y-51359953D01*
X122861107Y-51206824D01*
X122849594Y-51194318D01*
X122849593Y-51194317D01*
X122849591Y-51194315D01*
X122742958Y-51111319D01*
X122671930Y-51056035D01*
X122666095Y-51052877D01*
X122638672Y-51038036D01*
X122588282Y-50988022D01*
X122572930Y-50918705D01*
X122597491Y-50852093D01*
X122638669Y-50816412D01*
X122671930Y-50798413D01*
X122849594Y-50660130D01*
X123002076Y-50494492D01*
X123125214Y-50306015D01*
X123215650Y-50099840D01*
X123270918Y-49881592D01*
X123289510Y-49657224D01*
X123270918Y-49432856D01*
X123236368Y-49296420D01*
X123215651Y-49214611D01*
X123215650Y-49214610D01*
X123215650Y-49214608D01*
X123125214Y-49008433D01*
X123095122Y-48962373D01*
X123002078Y-48819958D01*
X123002074Y-48819953D01*
X122879941Y-48687283D01*
X122849594Y-48654318D01*
X122849593Y-48654317D01*
X122849591Y-48654315D01*
X122747721Y-48575026D01*
X122671930Y-48516035D01*
X122638146Y-48497752D01*
X122587756Y-48447740D01*
X122572404Y-48378423D01*
X122596964Y-48311810D01*
X122638147Y-48276125D01*
X122671654Y-48257991D01*
X122671655Y-48257991D01*
X122849256Y-48119758D01*
X123001679Y-47954182D01*
X123124773Y-47765772D01*
X123215174Y-47559680D01*
X123215177Y-47559673D01*
X123262898Y-47371224D01*
X122357470Y-47371224D01*
X122385847Y-47327068D01*
X122426354Y-47189113D01*
X122426354Y-47045335D01*
X122385847Y-46907380D01*
X122357470Y-46863224D01*
X123262898Y-46863224D01*
X123262898Y-46863223D01*
X123215177Y-46674774D01*
X123215174Y-46674767D01*
X123124773Y-46468675D01*
X123001679Y-46280265D01*
X122849256Y-46114689D01*
X122671655Y-45976456D01*
X122671654Y-45976455D01*
X122638145Y-45958321D01*
X122587755Y-45908307D01*
X122572404Y-45838990D01*
X122596966Y-45772377D01*
X122638144Y-45736696D01*
X122671930Y-45718413D01*
X122849594Y-45580130D01*
X123002076Y-45414492D01*
X123125214Y-45226015D01*
X123215650Y-45019840D01*
X123270918Y-44801592D01*
X123289510Y-44577224D01*
X123270918Y-44352856D01*
X123245072Y-44250791D01*
X123215651Y-44134611D01*
X123215650Y-44134610D01*
X123215650Y-44134608D01*
X123125214Y-43928433D01*
X123106354Y-43899565D01*
X123002078Y-43739958D01*
X123002074Y-43739953D01*
X122885924Y-43613783D01*
X122849594Y-43574318D01*
X122849593Y-43574317D01*
X122849591Y-43574315D01*
X122729721Y-43481016D01*
X122671930Y-43436035D01*
X122473928Y-43328882D01*
X122473926Y-43328881D01*
X122473925Y-43328880D01*
X122260993Y-43255781D01*
X122260984Y-43255779D01*
X122216830Y-43248411D01*
X122038923Y-43218724D01*
X121813785Y-43218724D01*
X121665565Y-43243457D01*
X121591723Y-43255779D01*
X121591714Y-43255781D01*
X121378782Y-43328880D01*
X121378780Y-43328882D01*
X121206883Y-43421908D01*
X121180780Y-43436034D01*
X121180778Y-43436035D01*
X121003116Y-43574315D01*
X120850633Y-43739953D01*
X120850629Y-43739958D01*
X120727495Y-43928430D01*
X120637057Y-44134610D01*
X120637056Y-44134611D01*
X120581791Y-44352848D01*
X120581790Y-44352854D01*
X120581790Y-44352856D01*
X120563198Y-44577224D01*
X120581194Y-44794404D01*
X120581791Y-44801599D01*
X120637056Y-45019836D01*
X120637057Y-45019837D01*
X120637058Y-45019840D01*
X120713330Y-45193724D01*
X120727495Y-45226017D01*
X120850629Y-45414489D01*
X120850633Y-45414494D01*
X121003116Y-45580132D01*
X121054891Y-45620430D01*
X121180778Y-45718413D01*
X121214559Y-45736694D01*
X121264950Y-45786706D01*
X121280303Y-45856023D01*
X121255743Y-45922636D01*
X121214563Y-45958320D01*
X121181058Y-45976452D01*
X121181052Y-45976456D01*
X121003451Y-46114689D01*
X120851028Y-46280265D01*
X120727934Y-46468675D01*
X120637533Y-46674767D01*
X120637530Y-46674774D01*
X120589809Y-46863223D01*
X120589810Y-46863224D01*
X121495238Y-46863224D01*
X121466861Y-46907380D01*
X121426354Y-47045335D01*
X121426354Y-47189113D01*
X121466861Y-47327068D01*
X121495238Y-47371224D01*
X120589809Y-47371224D01*
X120637530Y-47559673D01*
X120637533Y-47559680D01*
X120727934Y-47765772D01*
X120851028Y-47954182D01*
X121003451Y-48119758D01*
X121181052Y-48257991D01*
X121181058Y-48257995D01*
X121214561Y-48276126D01*
X121264951Y-48326139D01*
X121280303Y-48395456D01*
X121255742Y-48462069D01*
X121214561Y-48497752D01*
X121180784Y-48516031D01*
X121180778Y-48516035D01*
X121003116Y-48654315D01*
X120850633Y-48819953D01*
X120850629Y-48819958D01*
X120727495Y-49008430D01*
X120637057Y-49214610D01*
X120637056Y-49214611D01*
X120581791Y-49432848D01*
X120581790Y-49432854D01*
X120581790Y-49432856D01*
X120563198Y-49657224D01*
X120579823Y-49857859D01*
X120581791Y-49881599D01*
X120637056Y-50099836D01*
X120637057Y-50099837D01*
X120637058Y-50099840D01*
X120725791Y-50302133D01*
X120727495Y-50306017D01*
X120850629Y-50494489D01*
X120850633Y-50494494D01*
X121003116Y-50660132D01*
X121053783Y-50699568D01*
X121180778Y-50798413D01*
X121214034Y-50816410D01*
X121264424Y-50866420D01*
X121279777Y-50935737D01*
X121255218Y-51002350D01*
X121214037Y-51038035D01*
X121180784Y-51056031D01*
X121180778Y-51056035D01*
X121003116Y-51194315D01*
X120850633Y-51359953D01*
X120850629Y-51359958D01*
X120727495Y-51548430D01*
X120637057Y-51754610D01*
X120637056Y-51754611D01*
X120581791Y-51972848D01*
X120581790Y-51972854D01*
X120581790Y-51972856D01*
X120563198Y-52197224D01*
X120580586Y-52407068D01*
X120581791Y-52421599D01*
X120637055Y-52639832D01*
X120637736Y-52641814D01*
X120637774Y-52642671D01*
X120638337Y-52644892D01*
X120637880Y-52645007D01*
X120640935Y-52712738D01*
X120605282Y-52774133D01*
X120542096Y-52806507D01*
X120518562Y-52808724D01*
X120371303Y-52808724D01*
X120304267Y-52789411D01*
X120242929Y-52750870D01*
X120216368Y-52734180D01*
X120044404Y-52674008D01*
X120044403Y-52674007D01*
X120044401Y-52674007D01*
X119863354Y-52653608D01*
X119863353Y-52653608D01*
X119850804Y-52655022D01*
X119682307Y-52674007D01*
X119682304Y-52674007D01*
X119682303Y-52674008D01*
X119510338Y-52734181D01*
X119510335Y-52734182D01*
X119356074Y-52831111D01*
X119356072Y-52831112D01*
X119227242Y-52959942D01*
X119227241Y-52959944D01*
X119130312Y-53114205D01*
X119130311Y-53114208D01*
X119071138Y-53283317D01*
X119070137Y-53286177D01*
X119049738Y-53467224D01*
X111427614Y-53467224D01*
X108043364Y-50082974D01*
X108009338Y-50020662D01*
X108010314Y-49962949D01*
X108030918Y-49881592D01*
X108049510Y-49657224D01*
X108030918Y-49432856D01*
X107996368Y-49296420D01*
X107975651Y-49214611D01*
X107975650Y-49214610D01*
X107975650Y-49214608D01*
X107885214Y-49008433D01*
X107855122Y-48962373D01*
X107811254Y-48895227D01*
X116262719Y-48895227D01*
X116281214Y-49083018D01*
X116335995Y-49263608D01*
X116392340Y-49369024D01*
X116847526Y-48913838D01*
X116846468Y-48926619D01*
X116877191Y-49047943D01*
X116945643Y-49152716D01*
X117044406Y-49229587D01*
X117162778Y-49270224D01*
X117209563Y-49270224D01*
X116751551Y-49728235D01*
X116751552Y-49728236D01*
X116856969Y-49784582D01*
X117037559Y-49839363D01*
X117225351Y-49857859D01*
X117225357Y-49857859D01*
X117413148Y-49839363D01*
X117593735Y-49784583D01*
X117699154Y-49728235D01*
X117241144Y-49270224D01*
X117256427Y-49270224D01*
X117348800Y-49254810D01*
X117458868Y-49195243D01*
X117543632Y-49103165D01*
X117593905Y-48988554D01*
X117600332Y-48910991D01*
X118058365Y-49369024D01*
X118114713Y-49263605D01*
X118169493Y-49083018D01*
X118187989Y-48895227D01*
X118187989Y-48895220D01*
X118169493Y-48707429D01*
X118114712Y-48526839D01*
X118058366Y-48421422D01*
X118058365Y-48421421D01*
X117603181Y-48876605D01*
X117604240Y-48863829D01*
X117573517Y-48742505D01*
X117505065Y-48637732D01*
X117406302Y-48560861D01*
X117287930Y-48520224D01*
X117241143Y-48520224D01*
X117699154Y-48062210D01*
X117699155Y-48062210D01*
X117593738Y-48005865D01*
X117413148Y-47951084D01*
X117225357Y-47932589D01*
X117225351Y-47932589D01*
X117037559Y-47951084D01*
X116856976Y-48005863D01*
X116856971Y-48005865D01*
X116751551Y-48062211D01*
X117209564Y-48520224D01*
X117194281Y-48520224D01*
X117101908Y-48535638D01*
X116991840Y-48595205D01*
X116907076Y-48687283D01*
X116856803Y-48801894D01*
X116850376Y-48879456D01*
X116392341Y-48421421D01*
X116335995Y-48526841D01*
X116335993Y-48526846D01*
X116281214Y-48707429D01*
X116262719Y-48895220D01*
X116262719Y-48895227D01*
X107811254Y-48895227D01*
X107762078Y-48819958D01*
X107762074Y-48819953D01*
X107639941Y-48687283D01*
X107609594Y-48654318D01*
X107609593Y-48654317D01*
X107609591Y-48654315D01*
X107507721Y-48575026D01*
X107431930Y-48516035D01*
X107398673Y-48498037D01*
X107348283Y-48448026D01*
X107332930Y-48378709D01*
X107357490Y-48312096D01*
X107398674Y-48276410D01*
X107402767Y-48274195D01*
X107431930Y-48258413D01*
X107609594Y-48120130D01*
X107762076Y-47954492D01*
X107885214Y-47766015D01*
X107975650Y-47559840D01*
X108030918Y-47341592D01*
X108049510Y-47117224D01*
X108030918Y-46892856D01*
X108022598Y-46860000D01*
X107975651Y-46674611D01*
X107975650Y-46674610D01*
X107975650Y-46674608D01*
X107885214Y-46468433D01*
X107846914Y-46409810D01*
X107762078Y-46279958D01*
X107762073Y-46279953D01*
X107757467Y-46274950D01*
X107618878Y-46124403D01*
X107587457Y-46060738D01*
X107595444Y-45990192D01*
X107640302Y-45935163D01*
X107667537Y-45921013D01*
X107782558Y-45878113D01*
X107797655Y-45866812D01*
X107899615Y-45790485D01*
X107987241Y-45673431D01*
X107987241Y-45673430D01*
X107987243Y-45673428D01*
X108016411Y-45595227D01*
X116262216Y-45595227D01*
X116280720Y-45783115D01*
X116280722Y-45783123D01*
X116335531Y-45963802D01*
X116407578Y-46098593D01*
X116424534Y-46130315D01*
X116544313Y-46276265D01*
X116690263Y-46396044D01*
X116856777Y-46485047D01*
X117037455Y-46539856D01*
X117037459Y-46539856D01*
X117037462Y-46539857D01*
X117225351Y-46558362D01*
X117225354Y-46558362D01*
X117225357Y-46558362D01*
X117413245Y-46539857D01*
X117413246Y-46539856D01*
X117413253Y-46539856D01*
X117593931Y-46485047D01*
X117760445Y-46396044D01*
X117906395Y-46276265D01*
X118026174Y-46130315D01*
X118115177Y-45963801D01*
X118169986Y-45783123D01*
X118169987Y-45783115D01*
X118188492Y-45595227D01*
X118188492Y-45595220D01*
X118169987Y-45407332D01*
X118169986Y-45407329D01*
X118169986Y-45407325D01*
X118115177Y-45226647D01*
X118026174Y-45060133D01*
X117906395Y-44914183D01*
X117760445Y-44794404D01*
X117705140Y-44764843D01*
X117593932Y-44705401D01*
X117413253Y-44650592D01*
X117413245Y-44650590D01*
X117225357Y-44632086D01*
X117225351Y-44632086D01*
X117037462Y-44650590D01*
X117037454Y-44650592D01*
X116856775Y-44705401D01*
X116690262Y-44794404D01*
X116544313Y-44914183D01*
X116424534Y-45060132D01*
X116335531Y-45226645D01*
X116280722Y-45407324D01*
X116280720Y-45407332D01*
X116262216Y-45595220D01*
X116262216Y-45595227D01*
X108016411Y-45595227D01*
X108038343Y-45536425D01*
X108039676Y-45524031D01*
X108044853Y-45475873D01*
X108044854Y-45475856D01*
X108044854Y-43678591D01*
X108044853Y-43678574D01*
X108038344Y-43618027D01*
X108038342Y-43618019D01*
X107987243Y-43481021D01*
X107987241Y-43481016D01*
X107899615Y-43363962D01*
X107782561Y-43276336D01*
X107782556Y-43276334D01*
X107645558Y-43225235D01*
X107645550Y-43225233D01*
X107585003Y-43218724D01*
X107584992Y-43218724D01*
X105787716Y-43218724D01*
X105787704Y-43218724D01*
X105727157Y-43225233D01*
X105727149Y-43225235D01*
X105590151Y-43276334D01*
X105590146Y-43276336D01*
X105473092Y-43363962D01*
X105385466Y-43481016D01*
X105385464Y-43481021D01*
X105334365Y-43618019D01*
X105334363Y-43618027D01*
X105327854Y-43678574D01*
X105327854Y-45475873D01*
X105334363Y-45536420D01*
X105334365Y-45536428D01*
X105385464Y-45673426D01*
X105385466Y-45673431D01*
X105473092Y-45790485D01*
X105590145Y-45878110D01*
X105590146Y-45878110D01*
X105590150Y-45878113D01*
X105705164Y-45921011D01*
X105761996Y-45963556D01*
X105786807Y-46030076D01*
X105771716Y-46099450D01*
X105753829Y-46124403D01*
X105610634Y-46279953D01*
X105610629Y-46279958D01*
X105487495Y-46468430D01*
X105397057Y-46674610D01*
X105397056Y-46674611D01*
X105341791Y-46892848D01*
X105341790Y-46892854D01*
X105341790Y-46892856D01*
X105334747Y-46977854D01*
X105325252Y-47092442D01*
X105323198Y-47117224D01*
X105341742Y-47341016D01*
X105341791Y-47341599D01*
X105397056Y-47559836D01*
X105397057Y-47559837D01*
X105397058Y-47559840D01*
X105487494Y-47766015D01*
X105487495Y-47766017D01*
X105610629Y-47954489D01*
X105610633Y-47954494D01*
X105763116Y-48120132D01*
X105795832Y-48145596D01*
X105940778Y-48258413D01*
X105969941Y-48274195D01*
X105974034Y-48276410D01*
X106024425Y-48326424D01*
X106039777Y-48395740D01*
X106015216Y-48462353D01*
X105974034Y-48498037D01*
X105940780Y-48516034D01*
X105940778Y-48516035D01*
X105763116Y-48654315D01*
X105610633Y-48819953D01*
X105610629Y-48819958D01*
X105487495Y-49008430D01*
X105397057Y-49214610D01*
X105397056Y-49214611D01*
X105341791Y-49432848D01*
X105341790Y-49432854D01*
X105341790Y-49432856D01*
X105323198Y-49657224D01*
X105339823Y-49857859D01*
X105341791Y-49881599D01*
X105397056Y-50099836D01*
X105397057Y-50099837D01*
X105397058Y-50099840D01*
X105485791Y-50302133D01*
X105487495Y-50306017D01*
X105610629Y-50494489D01*
X105610633Y-50494494D01*
X105763116Y-50660132D01*
X105813783Y-50699568D01*
X105940778Y-50798413D01*
X105974559Y-50816694D01*
X106024950Y-50866706D01*
X106040303Y-50936023D01*
X106015743Y-51002636D01*
X105974563Y-51038320D01*
X105941058Y-51056452D01*
X105941052Y-51056456D01*
X105763451Y-51194689D01*
X105611028Y-51360265D01*
X105487934Y-51548675D01*
X105397533Y-51754767D01*
X105397530Y-51754774D01*
X105349809Y-51943223D01*
X105349810Y-51943224D01*
X106255238Y-51943224D01*
X106226861Y-51987380D01*
X106186354Y-52125335D01*
X106186354Y-52269113D01*
X106226861Y-52407068D01*
X106255238Y-52451224D01*
X105349809Y-52451224D01*
X105397530Y-52639673D01*
X105397533Y-52639680D01*
X105487934Y-52845772D01*
X105611028Y-53034182D01*
X105763451Y-53199758D01*
X105941052Y-53337991D01*
X105941058Y-53337995D01*
X105974561Y-53356126D01*
X106024951Y-53406139D01*
X106040303Y-53475456D01*
X106015742Y-53542069D01*
X105974561Y-53577752D01*
X105940784Y-53596031D01*
X105940778Y-53596035D01*
X105763116Y-53734315D01*
X105610633Y-53899953D01*
X105610629Y-53899958D01*
X105487495Y-54088430D01*
X105397057Y-54294610D01*
X105397056Y-54294611D01*
X105341791Y-54512848D01*
X105341790Y-54512854D01*
X105341790Y-54512856D01*
X105332063Y-54630244D01*
X105323943Y-54728239D01*
X105323198Y-54737224D01*
X105339972Y-54939657D01*
X105341791Y-54961599D01*
X105397056Y-55179836D01*
X105397057Y-55179837D01*
X105397058Y-55179840D01*
X105452959Y-55307282D01*
X105487495Y-55386017D01*
X105610629Y-55574489D01*
X105610633Y-55574494D01*
X105763116Y-55740132D01*
X105796811Y-55766358D01*
X105940778Y-55878413D01*
X105974034Y-55896410D01*
X106024425Y-55946424D01*
X106039777Y-56015740D01*
X106015216Y-56082353D01*
X105974034Y-56118037D01*
X105940780Y-56136034D01*
X105940778Y-56136035D01*
X105763116Y-56274315D01*
X105610633Y-56439953D01*
X105610629Y-56439958D01*
X105487495Y-56628430D01*
X105397057Y-56834610D01*
X105397056Y-56834611D01*
X105341791Y-57052848D01*
X105341790Y-57052854D01*
X105341790Y-57052856D01*
X105323198Y-57277224D01*
X105340678Y-57488175D01*
X105341791Y-57501599D01*
X105397056Y-57719836D01*
X105397057Y-57719837D01*
X105487495Y-57926017D01*
X105610629Y-58114489D01*
X105610633Y-58114494D01*
X105763116Y-58280132D01*
X105801889Y-58310310D01*
X105940778Y-58418413D01*
X105974034Y-58436410D01*
X106024424Y-58486420D01*
X106039777Y-58555737D01*
X106015218Y-58622350D01*
X105974037Y-58658035D01*
X105940784Y-58676031D01*
X105940778Y-58676035D01*
X105763116Y-58814315D01*
X105610633Y-58979953D01*
X105610629Y-58979958D01*
X105487495Y-59168430D01*
X105397057Y-59374610D01*
X105397056Y-59374611D01*
X105341791Y-59592848D01*
X105341790Y-59592854D01*
X105341790Y-59592856D01*
X105323198Y-59817224D01*
X105339000Y-60007927D01*
X105341791Y-60041599D01*
X105397056Y-60259836D01*
X105397057Y-60259837D01*
X105397058Y-60259840D01*
X105478827Y-60446255D01*
X105487495Y-60466017D01*
X105610629Y-60654489D01*
X105610633Y-60654494D01*
X105763116Y-60820132D01*
X105791657Y-60842346D01*
X105940778Y-60958413D01*
X105974034Y-60976410D01*
X106024424Y-61026420D01*
X106039777Y-61095737D01*
X106015218Y-61162350D01*
X105974037Y-61198035D01*
X105940784Y-61216031D01*
X105940778Y-61216035D01*
X105763116Y-61354315D01*
X105610633Y-61519953D01*
X105610629Y-61519958D01*
X105487495Y-61708430D01*
X105397057Y-61914610D01*
X105397056Y-61914611D01*
X105341791Y-62132848D01*
X105341790Y-62132854D01*
X105341790Y-62132856D01*
X105323198Y-62357224D01*
X105333761Y-62484701D01*
X105341791Y-62581599D01*
X105397056Y-62799836D01*
X105397057Y-62799837D01*
X105397058Y-62799840D01*
X105438348Y-62893973D01*
X105487495Y-63006017D01*
X105610629Y-63194489D01*
X105610633Y-63194494D01*
X105763116Y-63360132D01*
X105806806Y-63394137D01*
X105940778Y-63498413D01*
X105974034Y-63516410D01*
X106024425Y-63566424D01*
X106039777Y-63635740D01*
X106015216Y-63702353D01*
X105974034Y-63738037D01*
X105940780Y-63756034D01*
X105940778Y-63756035D01*
X105763116Y-63894315D01*
X105610633Y-64059953D01*
X105610629Y-64059958D01*
X105487495Y-64248430D01*
X105397057Y-64454610D01*
X105397056Y-64454611D01*
X105341791Y-64672848D01*
X105341790Y-64672854D01*
X105341790Y-64672856D01*
X105323198Y-64897224D01*
X105340959Y-65111569D01*
X105341791Y-65121599D01*
X105397056Y-65339836D01*
X105397057Y-65339837D01*
X105397058Y-65339840D01*
X105479745Y-65528349D01*
X105487495Y-65546017D01*
X105610629Y-65734489D01*
X105610633Y-65734494D01*
X105763116Y-65900132D01*
X105811595Y-65937865D01*
X105940778Y-66038413D01*
X105974034Y-66056410D01*
X106024425Y-66106424D01*
X106039777Y-66175740D01*
X106015216Y-66242353D01*
X105974034Y-66278037D01*
X105940780Y-66296034D01*
X105940778Y-66296035D01*
X105763116Y-66434315D01*
X105610633Y-66599953D01*
X105610629Y-66599958D01*
X105487495Y-66788430D01*
X105397057Y-66994610D01*
X105397056Y-66994611D01*
X105341791Y-67212848D01*
X105341790Y-67212854D01*
X105341790Y-67212856D01*
X105323198Y-67437224D01*
X105340036Y-67640428D01*
X105341791Y-67661599D01*
X105397056Y-67879836D01*
X105397057Y-67879837D01*
X105397058Y-67879840D01*
X105484854Y-68079996D01*
X105487495Y-68086017D01*
X105610629Y-68274489D01*
X105610633Y-68274494D01*
X105763116Y-68440132D01*
X105800880Y-68469525D01*
X105940778Y-68578413D01*
X105972711Y-68595694D01*
X105974034Y-68596410D01*
X106024425Y-68646424D01*
X106039777Y-68715740D01*
X106015216Y-68782353D01*
X105974034Y-68818037D01*
X105940780Y-68836034D01*
X105940778Y-68836035D01*
X105763116Y-68974315D01*
X105610633Y-69139953D01*
X105610629Y-69139958D01*
X105487495Y-69328430D01*
X105397057Y-69534610D01*
X105397056Y-69534611D01*
X105341791Y-69752848D01*
X105341790Y-69752854D01*
X105341790Y-69752856D01*
X105323198Y-69977224D01*
X105341194Y-70194403D01*
X105341791Y-70201599D01*
X105397056Y-70419836D01*
X105397057Y-70419837D01*
X105397058Y-70419840D01*
X105487494Y-70626015D01*
X105487495Y-70626017D01*
X105610629Y-70814489D01*
X105610633Y-70814494D01*
X105763116Y-70980132D01*
X105795456Y-71005303D01*
X105940778Y-71118413D01*
X105974034Y-71136410D01*
X106024425Y-71186424D01*
X106039777Y-71255740D01*
X106015216Y-71322353D01*
X105974034Y-71358037D01*
X105940780Y-71376034D01*
X105940778Y-71376035D01*
X105763116Y-71514315D01*
X105610633Y-71679953D01*
X105610629Y-71679958D01*
X105487495Y-71868430D01*
X105397057Y-72074610D01*
X105397056Y-72074611D01*
X105341791Y-72292848D01*
X105341790Y-72292854D01*
X105341790Y-72292856D01*
X105323198Y-72517224D01*
X103121961Y-72517224D01*
X103156241Y-72471431D01*
X103156241Y-72471430D01*
X103156243Y-72471428D01*
X103205102Y-72340434D01*
X103207342Y-72334428D01*
X103207344Y-72334420D01*
X103213853Y-72273873D01*
X103213854Y-72273856D01*
X103213854Y-70476591D01*
X103213853Y-70476574D01*
X103207344Y-70416027D01*
X103207342Y-70416019D01*
X103156243Y-70279021D01*
X103156241Y-70279016D01*
X103068615Y-70161962D01*
X102951561Y-70074336D01*
X102951557Y-70074334D01*
X102836546Y-70031437D01*
X102779710Y-69988891D01*
X102754900Y-69922370D01*
X102769992Y-69852996D01*
X102787879Y-69828044D01*
X102931068Y-69672501D01*
X102931078Y-69672489D01*
X102965603Y-69619644D01*
X103054214Y-69484015D01*
X103144650Y-69277840D01*
X103199918Y-69059592D01*
X103218510Y-68835224D01*
X103199918Y-68610856D01*
X103179941Y-68531968D01*
X103144651Y-68392611D01*
X103144650Y-68392610D01*
X103144650Y-68392608D01*
X103054214Y-68186433D01*
X103036145Y-68158776D01*
X102931078Y-67997958D01*
X102931074Y-67997953D01*
X102778591Y-67832315D01*
X102635304Y-67720790D01*
X102600930Y-67694035D01*
X102402928Y-67586882D01*
X102402926Y-67586881D01*
X102402925Y-67586880D01*
X102189993Y-67513781D01*
X102189984Y-67513779D01*
X102112329Y-67500821D01*
X101967923Y-67476724D01*
X101742785Y-67476724D01*
X101598379Y-67500821D01*
X101520723Y-67513779D01*
X101520714Y-67513781D01*
X101307782Y-67586880D01*
X101307780Y-67586882D01*
X101122427Y-67687190D01*
X101109780Y-67694034D01*
X101109778Y-67694035D01*
X100932116Y-67832315D01*
X100779633Y-67997953D01*
X100779629Y-67997958D01*
X100656495Y-68186430D01*
X100566057Y-68392610D01*
X100566056Y-68392611D01*
X100510791Y-68610848D01*
X100510790Y-68610854D01*
X100510790Y-68610856D01*
X100492198Y-68835224D01*
X97680319Y-68835224D01*
X97754300Y-68783422D01*
X97916198Y-68621524D01*
X98047523Y-68433973D01*
X98144284Y-68226467D01*
X98203543Y-68005311D01*
X98223498Y-67777224D01*
X98203543Y-67549137D01*
X98144284Y-67327981D01*
X98047523Y-67120475D01*
X97916198Y-66932924D01*
X97754300Y-66771026D01*
X97566749Y-66639701D01*
X97525165Y-66620310D01*
X97359246Y-66542941D01*
X97359232Y-66542936D01*
X97250978Y-66513929D01*
X97190356Y-66476978D01*
X97159334Y-66413117D01*
X97167764Y-66342622D01*
X97212967Y-66287876D01*
X97250973Y-66270518D01*
X97359243Y-66241508D01*
X97566749Y-66144747D01*
X97754300Y-66013422D01*
X97916198Y-65851524D01*
X98047523Y-65663973D01*
X98144284Y-65456467D01*
X98203543Y-65235311D01*
X98223498Y-65007224D01*
X98203543Y-64779137D01*
X98144284Y-64557981D01*
X98047523Y-64350475D01*
X97916198Y-64162924D01*
X97754300Y-64001026D01*
X97628243Y-63912760D01*
X97566749Y-63869701D01*
X97359246Y-63772941D01*
X97359232Y-63772936D01*
X97250978Y-63743929D01*
X97190356Y-63706978D01*
X97159334Y-63643117D01*
X97167764Y-63572622D01*
X97212967Y-63517876D01*
X97250973Y-63500518D01*
X97359243Y-63471508D01*
X97566749Y-63374747D01*
X97754300Y-63243422D01*
X97916198Y-63081524D01*
X98047523Y-62893973D01*
X98144284Y-62686467D01*
X98203543Y-62465311D01*
X98223498Y-62237224D01*
X98203543Y-62009137D01*
X98144284Y-61787981D01*
X98047523Y-61580475D01*
X97916198Y-61392924D01*
X97754300Y-61231026D01*
X97732889Y-61216034D01*
X97566749Y-61099701D01*
X97359246Y-61002941D01*
X97359240Y-61002939D01*
X97250014Y-60973672D01*
X97189391Y-60936720D01*
X97158370Y-60872859D01*
X97166798Y-60802365D01*
X97212001Y-60747618D01*
X97250014Y-60730258D01*
X97359069Y-60701037D01*
X97359073Y-60701035D01*
X97566497Y-60604312D01*
X97637888Y-60554323D01*
X97637888Y-60554321D01*
X97037588Y-59954021D01*
X97052315Y-59951904D01*
X97183100Y-59892176D01*
X97291761Y-59798022D01*
X97369493Y-59677068D01*
X97394361Y-59592374D01*
X97997098Y-60195112D01*
X97997099Y-60195112D01*
X98047088Y-60123721D01*
X98143811Y-59916297D01*
X98143813Y-59916292D01*
X98203048Y-59695226D01*
X98222995Y-59467223D01*
X98210047Y-59319224D01*
X100497198Y-59319224D01*
X100511193Y-59488119D01*
X100515791Y-59543599D01*
X100571056Y-59761836D01*
X100571057Y-59761837D01*
X100571058Y-59761840D01*
X100661364Y-59967719D01*
X100661495Y-59968017D01*
X100784629Y-60156489D01*
X100784634Y-60156494D01*
X100927829Y-60312044D01*
X100959250Y-60375709D01*
X100951263Y-60446255D01*
X100906405Y-60501284D01*
X100879161Y-60515437D01*
X100764151Y-60558334D01*
X100764146Y-60558336D01*
X100647092Y-60645962D01*
X100559466Y-60763016D01*
X100559464Y-60763021D01*
X100508365Y-60900019D01*
X100508363Y-60900027D01*
X100501854Y-60960574D01*
X100501854Y-62757873D01*
X100508363Y-62818420D01*
X100508365Y-62818428D01*
X100559464Y-62955426D01*
X100559466Y-62955431D01*
X100647092Y-63072485D01*
X100764146Y-63160111D01*
X100764148Y-63160112D01*
X100764150Y-63160113D01*
X100820088Y-63180977D01*
X100901149Y-63211212D01*
X100901157Y-63211214D01*
X100961704Y-63217723D01*
X100961709Y-63217723D01*
X100961716Y-63217724D01*
X100961722Y-63217724D01*
X102758986Y-63217724D01*
X102758992Y-63217724D01*
X102758999Y-63217723D01*
X102759003Y-63217723D01*
X102819550Y-63211214D01*
X102819553Y-63211213D01*
X102819555Y-63211213D01*
X102828387Y-63207919D01*
X102839786Y-63203667D01*
X102956558Y-63160113D01*
X103006185Y-63122963D01*
X103073615Y-63072485D01*
X103161241Y-62955431D01*
X103161241Y-62955430D01*
X103161243Y-62955428D01*
X103212343Y-62818425D01*
X103214342Y-62799837D01*
X103218853Y-62757873D01*
X103218854Y-62757856D01*
X103218854Y-60960591D01*
X103218853Y-60960574D01*
X103212344Y-60900027D01*
X103212342Y-60900019D01*
X103173741Y-60796528D01*
X103161243Y-60763020D01*
X103161242Y-60763018D01*
X103161241Y-60763016D01*
X103073615Y-60645962D01*
X102956561Y-60558336D01*
X102956557Y-60558334D01*
X102841546Y-60515437D01*
X102784710Y-60472891D01*
X102759900Y-60406370D01*
X102774992Y-60336996D01*
X102792879Y-60312044D01*
X102936068Y-60156501D01*
X102936078Y-60156489D01*
X103009455Y-60044177D01*
X103059214Y-59968015D01*
X103149650Y-59761840D01*
X103204918Y-59543592D01*
X103223510Y-59319224D01*
X103204918Y-59094856D01*
X103185493Y-59018150D01*
X103149651Y-58876611D01*
X103149650Y-58876610D01*
X103149650Y-58876608D01*
X103059214Y-58670433D01*
X103006069Y-58589088D01*
X102936078Y-58481958D01*
X102936074Y-58481953D01*
X102783591Y-58316315D01*
X102693599Y-58246271D01*
X102605930Y-58178035D01*
X102407928Y-58070882D01*
X102407926Y-58070881D01*
X102407925Y-58070880D01*
X102194993Y-57997781D01*
X102194984Y-57997779D01*
X102150830Y-57990411D01*
X101972923Y-57960724D01*
X101747785Y-57960724D01*
X101599564Y-57985457D01*
X101525723Y-57997779D01*
X101525714Y-57997781D01*
X101312782Y-58070880D01*
X101312780Y-58070882D01*
X101114780Y-58178034D01*
X101114778Y-58178035D01*
X100937116Y-58316315D01*
X100784633Y-58481953D01*
X100784629Y-58481958D01*
X100661495Y-58670430D01*
X100571057Y-58876610D01*
X100571056Y-58876611D01*
X100515791Y-59094848D01*
X100515790Y-59094854D01*
X100515790Y-59094856D01*
X100497198Y-59319224D01*
X98210047Y-59319224D01*
X98203048Y-59239221D01*
X98143813Y-59018155D01*
X98143811Y-59018150D01*
X98047086Y-58810722D01*
X97997100Y-58739334D01*
X97997097Y-58739334D01*
X97394360Y-59342071D01*
X97369493Y-59257380D01*
X97291761Y-59136426D01*
X97183100Y-59042272D01*
X97052315Y-58982544D01*
X97037584Y-58980426D01*
X97637888Y-58380123D01*
X97637888Y-58380122D01*
X97566501Y-58330137D01*
X97359073Y-58233412D01*
X97359068Y-58233410D01*
X97249050Y-58203931D01*
X97188427Y-58166979D01*
X97157406Y-58103119D01*
X97165834Y-58032624D01*
X97211037Y-57977877D01*
X97249050Y-57960517D01*
X97359068Y-57931037D01*
X97359073Y-57931035D01*
X97566497Y-57834312D01*
X97637888Y-57784323D01*
X97637888Y-57784321D01*
X97037588Y-57184021D01*
X97052315Y-57181904D01*
X97183100Y-57122176D01*
X97291761Y-57028022D01*
X97369493Y-56907068D01*
X97394360Y-56822375D01*
X97997097Y-57425112D01*
X97997099Y-57425112D01*
X98047088Y-57353721D01*
X98143811Y-57146297D01*
X98143813Y-57146292D01*
X98203048Y-56925226D01*
X98222995Y-56697224D01*
X98203048Y-56469221D01*
X98143813Y-56248155D01*
X98143811Y-56248150D01*
X98047086Y-56040722D01*
X97997100Y-55969334D01*
X97997098Y-55969334D01*
X97394360Y-56572072D01*
X97369493Y-56487380D01*
X97291761Y-56366426D01*
X97183100Y-56272272D01*
X97052315Y-56212544D01*
X97037584Y-56210426D01*
X97637888Y-55610123D01*
X97637888Y-55610122D01*
X97566501Y-55560137D01*
X97359073Y-55463412D01*
X97359071Y-55463411D01*
X97250013Y-55434189D01*
X97189391Y-55397237D01*
X97158369Y-55333376D01*
X97166798Y-55262882D01*
X97212001Y-55208135D01*
X97250008Y-55190777D01*
X97359243Y-55161508D01*
X97566749Y-55064747D01*
X97754300Y-54933422D01*
X97916198Y-54771524D01*
X98047523Y-54583973D01*
X98144284Y-54376467D01*
X98203543Y-54155311D01*
X98223498Y-53927224D01*
X98203543Y-53699137D01*
X98144284Y-53477981D01*
X98047523Y-53270475D01*
X97916198Y-53082924D01*
X97754300Y-52921026D01*
X97722262Y-52898593D01*
X97566749Y-52789701D01*
X97359246Y-52692941D01*
X97359240Y-52692939D01*
X97318056Y-52681904D01*
X97250977Y-52663930D01*
X97190356Y-52626979D01*
X97159335Y-52563119D01*
X97167763Y-52492624D01*
X97212966Y-52437877D01*
X97250976Y-52420518D01*
X97359243Y-52391508D01*
X97566749Y-52294747D01*
X97754300Y-52163422D01*
X97916198Y-52001524D01*
X98047523Y-51813973D01*
X98144284Y-51606467D01*
X98203543Y-51385311D01*
X98223498Y-51157224D01*
X98203543Y-50929137D01*
X98144284Y-50707981D01*
X98047523Y-50500475D01*
X97916198Y-50312924D01*
X97754300Y-50151026D01*
X97566749Y-50019701D01*
X97387077Y-49935919D01*
X97333792Y-49889002D01*
X97314331Y-49820725D01*
X97325364Y-49784224D01*
X100497198Y-49784224D01*
X100509721Y-49935356D01*
X100515791Y-50008599D01*
X100571056Y-50226836D01*
X100571057Y-50226837D01*
X100571058Y-50226840D01*
X100656182Y-50420905D01*
X100661495Y-50433017D01*
X100784629Y-50621489D01*
X100784633Y-50621494D01*
X100928195Y-50777441D01*
X100959616Y-50841106D01*
X100951630Y-50911652D01*
X100906771Y-50966681D01*
X100879527Y-50980834D01*
X100764393Y-51023777D01*
X100764388Y-51023779D01*
X100647449Y-51111319D01*
X100559909Y-51228258D01*
X100559909Y-51228259D01*
X100508859Y-51365130D01*
X100502354Y-51425626D01*
X100502354Y-52070224D01*
X101429238Y-52070224D01*
X101400861Y-52114380D01*
X101360354Y-52252335D01*
X101360354Y-52396113D01*
X101400861Y-52534068D01*
X101429238Y-52578224D01*
X100502354Y-52578224D01*
X100502354Y-53222821D01*
X100508859Y-53283317D01*
X100559909Y-53420188D01*
X100559909Y-53420189D01*
X100647449Y-53537128D01*
X100764388Y-53624668D01*
X100901260Y-53675718D01*
X100961756Y-53682223D01*
X100961769Y-53682224D01*
X101606354Y-53682224D01*
X101606354Y-52757898D01*
X101718039Y-52808904D01*
X101824591Y-52824224D01*
X101896117Y-52824224D01*
X102002669Y-52808904D01*
X102114354Y-52757898D01*
X102114354Y-53682224D01*
X102758939Y-53682224D01*
X102758951Y-53682223D01*
X102819447Y-53675718D01*
X102956318Y-53624668D01*
X102956319Y-53624668D01*
X103073258Y-53537128D01*
X103160798Y-53420189D01*
X103160798Y-53420188D01*
X103211848Y-53283317D01*
X103218353Y-53222821D01*
X103218354Y-53222809D01*
X103218354Y-52578224D01*
X102291470Y-52578224D01*
X102319847Y-52534068D01*
X102360354Y-52396113D01*
X102360354Y-52252335D01*
X102319847Y-52114380D01*
X102291470Y-52070224D01*
X103218354Y-52070224D01*
X103218354Y-51425638D01*
X103218353Y-51425626D01*
X103211848Y-51365130D01*
X103160798Y-51228259D01*
X103160798Y-51228258D01*
X103073258Y-51111319D01*
X102956320Y-51023780D01*
X102841180Y-50980835D01*
X102784345Y-50938288D01*
X102759534Y-50871767D01*
X102774626Y-50802393D01*
X102792508Y-50777446D01*
X102936076Y-50621492D01*
X103059214Y-50433015D01*
X103149650Y-50226840D01*
X103204918Y-50008592D01*
X103223510Y-49784224D01*
X103204918Y-49559856D01*
X103196752Y-49527611D01*
X103149651Y-49341611D01*
X103149650Y-49341610D01*
X103149650Y-49341608D01*
X103059214Y-49135433D01*
X103035512Y-49099154D01*
X102936078Y-48946958D01*
X102936074Y-48946953D01*
X102802536Y-48801894D01*
X102783594Y-48781318D01*
X102783593Y-48781317D01*
X102783591Y-48781315D01*
X102662779Y-48687283D01*
X102605930Y-48643035D01*
X102572673Y-48625037D01*
X102522283Y-48575026D01*
X102506930Y-48505709D01*
X102531490Y-48439096D01*
X102572674Y-48403410D01*
X102605930Y-48385413D01*
X102783594Y-48247130D01*
X102936076Y-48081492D01*
X103059214Y-47893015D01*
X103149650Y-47686840D01*
X103204918Y-47468592D01*
X103223510Y-47244224D01*
X103204918Y-47019856D01*
X103149650Y-46801608D01*
X103059214Y-46595433D01*
X103034994Y-46558362D01*
X102936078Y-46406958D01*
X102936074Y-46406953D01*
X102783591Y-46241315D01*
X102701736Y-46177605D01*
X102605930Y-46103035D01*
X102407928Y-45995882D01*
X102407926Y-45995881D01*
X102407925Y-45995880D01*
X102194993Y-45922781D01*
X102194984Y-45922779D01*
X102150830Y-45915411D01*
X101972923Y-45885724D01*
X101747785Y-45885724D01*
X101614483Y-45907968D01*
X101525723Y-45922779D01*
X101525714Y-45922781D01*
X101312782Y-45995880D01*
X101312780Y-45995882D01*
X101114780Y-46103034D01*
X101114778Y-46103035D01*
X100937116Y-46241315D01*
X100784633Y-46406953D01*
X100784629Y-46406958D01*
X100661495Y-46595430D01*
X100571057Y-46801610D01*
X100571056Y-46801611D01*
X100515791Y-47019848D01*
X100515790Y-47019854D01*
X100515790Y-47019856D01*
X100497198Y-47244224D01*
X100514085Y-47448022D01*
X100515791Y-47468599D01*
X100571056Y-47686836D01*
X100571057Y-47686837D01*
X100571058Y-47686840D01*
X100658164Y-47885424D01*
X100661495Y-47893017D01*
X100784629Y-48081489D01*
X100784633Y-48081494D01*
X100937116Y-48247132D01*
X100991685Y-48289605D01*
X101114778Y-48385413D01*
X101148034Y-48403410D01*
X101198425Y-48453424D01*
X101213777Y-48522740D01*
X101189216Y-48589353D01*
X101148034Y-48625037D01*
X101114780Y-48643034D01*
X101114778Y-48643035D01*
X100937116Y-48781315D01*
X100784633Y-48946953D01*
X100784629Y-48946958D01*
X100661495Y-49135430D01*
X100571057Y-49341610D01*
X100571056Y-49341611D01*
X100515791Y-49559848D01*
X100515790Y-49559854D01*
X100515790Y-49559856D01*
X100497198Y-49784224D01*
X97325364Y-49784224D01*
X97334873Y-49752765D01*
X97388895Y-49706699D01*
X97440327Y-49695724D01*
X97758632Y-49695724D01*
X97758638Y-49695724D01*
X97758645Y-49695723D01*
X97758649Y-49695723D01*
X97819196Y-49689214D01*
X97819199Y-49689213D01*
X97819201Y-49689213D01*
X97956204Y-49638113D01*
X97957900Y-49636844D01*
X98073261Y-49550485D01*
X98160887Y-49433431D01*
X98160887Y-49433430D01*
X98160889Y-49433428D01*
X98211989Y-49296425D01*
X98215518Y-49263605D01*
X98218499Y-49235873D01*
X98218500Y-49235856D01*
X98218500Y-47538591D01*
X98218499Y-47538574D01*
X98211990Y-47478027D01*
X98211988Y-47478019D01*
X98182924Y-47400099D01*
X98160889Y-47341020D01*
X98160888Y-47341018D01*
X98160887Y-47341016D01*
X98073261Y-47223962D01*
X97956207Y-47136336D01*
X97956204Y-47136335D01*
X97847820Y-47095909D01*
X97790985Y-47053362D01*
X97766175Y-46986842D01*
X97765854Y-46977854D01*
X97765854Y-45091017D01*
X97785856Y-45022896D01*
X97802759Y-45001922D01*
X101864052Y-40940629D01*
X101926364Y-40906603D01*
X101953147Y-40903724D01*
X102943986Y-40903724D01*
X102943992Y-40903724D01*
X102943999Y-40903723D01*
X102944003Y-40903723D01*
X103004550Y-40897214D01*
X103004553Y-40897213D01*
X103004555Y-40897213D01*
X103141558Y-40846113D01*
X103160812Y-40831700D01*
X103258615Y-40758485D01*
X103346240Y-40641432D01*
X103346239Y-40641432D01*
X103346243Y-40641428D01*
X103390353Y-40523163D01*
X103432899Y-40466331D01*
X103499420Y-40441520D01*
X103568794Y-40456612D01*
X103601107Y-40481859D01*
X103639133Y-40523166D01*
X103662116Y-40548132D01*
X103673609Y-40557077D01*
X103839778Y-40686413D01*
X104037780Y-40793566D01*
X104037781Y-40793566D01*
X104037782Y-40793567D01*
X104077730Y-40807281D01*
X104250719Y-40866668D01*
X104472785Y-40903724D01*
X104556694Y-40903724D01*
X104624815Y-40923726D01*
X104645789Y-40940629D01*
X106264887Y-42559727D01*
X106267473Y-42562473D01*
X106309081Y-42609439D01*
X106360702Y-42645070D01*
X106363733Y-42647300D01*
X106413128Y-42685999D01*
X106422417Y-42690179D01*
X106442286Y-42701385D01*
X106450675Y-42707175D01*
X106450675Y-42707176D01*
X106450677Y-42707176D01*
X106450679Y-42707178D01*
X106495772Y-42724279D01*
X106509328Y-42729420D01*
X106512832Y-42730871D01*
X106570025Y-42756612D01*
X106580057Y-42758450D01*
X106602013Y-42764571D01*
X106611553Y-42768189D01*
X106673848Y-42775753D01*
X106677552Y-42776316D01*
X106739261Y-42787625D01*
X106801856Y-42783838D01*
X106805656Y-42783724D01*
X108659694Y-42783724D01*
X108727815Y-42803726D01*
X108748789Y-42820629D01*
X110389071Y-44460911D01*
X110419809Y-44511070D01*
X110476752Y-44686326D01*
X110476755Y-44686332D01*
X110566985Y-44842614D01*
X110566992Y-44842624D01*
X110687738Y-44976726D01*
X110687741Y-44976728D01*
X110833739Y-45082802D01*
X110998602Y-45156204D01*
X111137600Y-45185748D01*
X111175121Y-45193724D01*
X111175122Y-45193724D01*
X111355587Y-45193724D01*
X111386529Y-45187146D01*
X111532106Y-45156204D01*
X111696969Y-45082802D01*
X111842967Y-44976728D01*
X111899283Y-44914183D01*
X111963715Y-44842624D01*
X111963716Y-44842622D01*
X111963721Y-44842617D01*
X112053953Y-44686331D01*
X112058733Y-44671622D01*
X112089404Y-44577223D01*
X112109719Y-44514699D01*
X112128583Y-44335224D01*
X112109719Y-44155749D01*
X112102403Y-44133235D01*
X112100376Y-44062268D01*
X112137038Y-44001470D01*
X112189628Y-43972592D01*
X112218840Y-43964765D01*
X112218840Y-43964764D01*
X112218847Y-43964763D01*
X112414460Y-43873547D01*
X112591261Y-43749749D01*
X112743879Y-43597131D01*
X112867677Y-43420330D01*
X112958893Y-43224717D01*
X113014755Y-43016237D01*
X113033566Y-42801224D01*
X113033566Y-42801223D01*
X115557142Y-42801223D01*
X115575953Y-43016240D01*
X115614525Y-43160190D01*
X115631815Y-43224717D01*
X115646300Y-43255780D01*
X115723030Y-43420328D01*
X115723031Y-43420330D01*
X115846825Y-43597126D01*
X115846832Y-43597135D01*
X115999442Y-43749745D01*
X115999446Y-43749748D01*
X115999447Y-43749749D01*
X116176248Y-43873547D01*
X116371861Y-43964763D01*
X116580341Y-44020625D01*
X116795354Y-44039436D01*
X117010367Y-44020625D01*
X117218847Y-43964763D01*
X117414460Y-43873547D01*
X117591261Y-43749749D01*
X117743879Y-43597131D01*
X117867677Y-43420330D01*
X117958893Y-43224717D01*
X118014755Y-43016237D01*
X118033566Y-42801224D01*
X118014755Y-42586211D01*
X117958893Y-42377731D01*
X117867677Y-42182118D01*
X117743879Y-42005317D01*
X117743878Y-42005316D01*
X117743875Y-42005312D01*
X117591267Y-41852704D01*
X117591259Y-41852697D01*
X117557582Y-41829116D01*
X117513254Y-41773659D01*
X117503854Y-41725904D01*
X117503854Y-41674623D01*
X117523856Y-41606502D01*
X117577512Y-41560009D01*
X117647783Y-41549905D01*
X117647786Y-41549905D01*
X117647787Y-41549906D01*
X117659629Y-41551608D01*
X117742370Y-41563505D01*
X117889760Y-41556483D01*
X117953817Y-41553433D01*
X117953821Y-41553432D01*
X117953828Y-41553432D01*
X118159558Y-41503522D01*
X118352125Y-41415580D01*
X118359957Y-41410003D01*
X129922208Y-41410003D01*
X129941353Y-41702085D01*
X129941356Y-41702103D01*
X129998459Y-41989178D01*
X129998462Y-41989191D01*
X130092548Y-42266358D01*
X130092554Y-42266372D01*
X130222014Y-42528893D01*
X130384640Y-42772280D01*
X130384643Y-42772284D01*
X130409808Y-42800979D01*
X130409810Y-42800979D01*
X131187275Y-42023513D01*
X131238348Y-42105999D01*
X131381931Y-42263501D01*
X131543611Y-42385597D01*
X130769019Y-43160188D01*
X130769019Y-43160190D01*
X130797715Y-43185356D01*
X130797719Y-43185359D01*
X131041106Y-43347985D01*
X131303627Y-43477445D01*
X131303641Y-43477451D01*
X131580808Y-43571537D01*
X131580821Y-43571540D01*
X131867896Y-43628643D01*
X131867914Y-43628646D01*
X132159997Y-43647791D01*
X132160003Y-43647791D01*
X132452085Y-43628646D01*
X132452103Y-43628643D01*
X132739178Y-43571540D01*
X132739191Y-43571537D01*
X133016358Y-43477451D01*
X133016372Y-43477445D01*
X133278893Y-43347985D01*
X133522279Y-43185359D01*
X133550979Y-43160190D01*
X133550979Y-43160189D01*
X132776388Y-42385597D01*
X132938069Y-42263501D01*
X133081652Y-42105999D01*
X133132723Y-42023514D01*
X133910189Y-42800979D01*
X133910190Y-42800979D01*
X133935359Y-42772279D01*
X134097985Y-42528893D01*
X134227445Y-42266372D01*
X134227451Y-42266358D01*
X134321537Y-41989191D01*
X134321540Y-41989178D01*
X134378643Y-41702103D01*
X134378646Y-41702085D01*
X134397791Y-41410003D01*
X134397791Y-41409996D01*
X134378646Y-41117914D01*
X134378643Y-41117896D01*
X134321540Y-40830821D01*
X134321537Y-40830808D01*
X134227451Y-40553641D01*
X134227445Y-40553627D01*
X134097985Y-40291107D01*
X133935359Y-40047719D01*
X133935356Y-40047715D01*
X133910190Y-40019019D01*
X133910188Y-40019019D01*
X133132722Y-40796484D01*
X133081652Y-40714001D01*
X132938069Y-40556499D01*
X132776387Y-40434401D01*
X133550979Y-39659810D01*
X133550979Y-39659808D01*
X133522284Y-39634643D01*
X133522280Y-39634640D01*
X133278893Y-39472014D01*
X133016372Y-39342554D01*
X133016358Y-39342548D01*
X132739191Y-39248462D01*
X132739178Y-39248459D01*
X132452103Y-39191356D01*
X132452085Y-39191353D01*
X132160003Y-39172209D01*
X132159997Y-39172209D01*
X131867914Y-39191353D01*
X131867896Y-39191356D01*
X131580821Y-39248459D01*
X131580808Y-39248462D01*
X131303641Y-39342548D01*
X131303627Y-39342554D01*
X131041107Y-39472014D01*
X130797717Y-39634641D01*
X130769019Y-39659807D01*
X130769019Y-39659810D01*
X131543611Y-40434402D01*
X131381931Y-40556499D01*
X131238348Y-40714001D01*
X131187276Y-40796485D01*
X130409810Y-40019019D01*
X130409807Y-40019019D01*
X130384641Y-40047717D01*
X130222014Y-40291107D01*
X130092554Y-40553627D01*
X130092548Y-40553641D01*
X129998462Y-40830808D01*
X129998459Y-40830821D01*
X129941356Y-41117896D01*
X129941353Y-41117914D01*
X129922208Y-41409996D01*
X129922208Y-41410003D01*
X118359957Y-41410003D01*
X118524569Y-41292783D01*
X118670657Y-41139570D01*
X118785110Y-40961478D01*
X118863790Y-40764945D01*
X118903854Y-40557073D01*
X118903854Y-39698421D01*
X118888773Y-39540485D01*
X118829131Y-39337362D01*
X118829130Y-39337361D01*
X118829130Y-39337359D01*
X118732126Y-39149200D01*
X118732125Y-39149198D01*
X118601262Y-38982792D01*
X118601259Y-38982788D01*
X118441276Y-38844162D01*
X118441265Y-38844154D01*
X118257941Y-38738313D01*
X118257934Y-38738310D01*
X118057884Y-38669072D01*
X118057883Y-38669071D01*
X118057881Y-38669071D01*
X118057879Y-38669070D01*
X118057873Y-38669069D01*
X117848339Y-38638942D01*
X117636890Y-38649014D01*
X117636877Y-38649016D01*
X117431155Y-38698924D01*
X117431149Y-38698926D01*
X117238582Y-38786868D01*
X117238575Y-38786872D01*
X117066145Y-38909659D01*
X117066135Y-38909668D01*
X116920049Y-39062880D01*
X116805598Y-39240969D01*
X116726917Y-39437505D01*
X116686854Y-39645370D01*
X116686854Y-40155562D01*
X116666852Y-40223683D01*
X116649949Y-40244658D01*
X116310856Y-40583750D01*
X116308085Y-40586358D01*
X116261138Y-40627950D01*
X116225511Y-40679563D01*
X116223258Y-40682625D01*
X116184581Y-40731993D01*
X116184576Y-40732003D01*
X116180389Y-40741304D01*
X116169200Y-40761145D01*
X116163399Y-40769550D01*
X116141161Y-40828185D01*
X116139705Y-40831700D01*
X116113967Y-40888889D01*
X116113963Y-40888902D01*
X116112124Y-40898935D01*
X116106005Y-40920885D01*
X116102388Y-40930423D01*
X116094830Y-40992665D01*
X116094258Y-40996425D01*
X116086381Y-41039415D01*
X116082952Y-41058131D01*
X116086568Y-41117914D01*
X116086739Y-41120732D01*
X116086854Y-41124537D01*
X116086854Y-41725904D01*
X116066852Y-41794025D01*
X116033126Y-41829116D01*
X115999448Y-41852697D01*
X115999440Y-41852704D01*
X115846832Y-42005312D01*
X115846825Y-42005321D01*
X115723031Y-42182117D01*
X115723030Y-42182119D01*
X115631816Y-42377728D01*
X115631814Y-42377733D01*
X115575953Y-42586207D01*
X115557142Y-42801223D01*
X113033566Y-42801223D01*
X113014755Y-42586211D01*
X112958893Y-42377731D01*
X112867677Y-42182118D01*
X112743879Y-42005317D01*
X112743878Y-42005316D01*
X112743875Y-42005312D01*
X112591267Y-41852704D01*
X112591259Y-41852697D01*
X112557582Y-41829116D01*
X112513254Y-41773659D01*
X112503854Y-41725904D01*
X112503854Y-41432217D01*
X112503854Y-41124509D01*
X112503966Y-41120777D01*
X112507756Y-41058132D01*
X112496446Y-40996417D01*
X112495879Y-40992694D01*
X112488319Y-40930423D01*
X112488318Y-40930420D01*
X112484705Y-40920892D01*
X112478581Y-40898926D01*
X112477899Y-40895205D01*
X112476743Y-40888895D01*
X112450996Y-40831690D01*
X112449554Y-40828210D01*
X112427308Y-40769549D01*
X112421515Y-40761157D01*
X112410312Y-40741294D01*
X112406129Y-40731999D01*
X112406124Y-40731993D01*
X112399076Y-40722997D01*
X112367437Y-40682613D01*
X112365206Y-40679579D01*
X112338874Y-40641432D01*
X112329569Y-40627951D01*
X112282612Y-40586350D01*
X112279849Y-40583749D01*
X111940758Y-40244657D01*
X111906733Y-40182345D01*
X111903854Y-40155562D01*
X111903854Y-39698422D01*
X111903852Y-39698401D01*
X111888774Y-39540495D01*
X111888773Y-39540494D01*
X111888773Y-39540485D01*
X111829131Y-39337362D01*
X111829130Y-39337361D01*
X111829130Y-39337359D01*
X111732126Y-39149200D01*
X111732125Y-39149198D01*
X111601262Y-38982792D01*
X111601259Y-38982788D01*
X111441276Y-38844162D01*
X111441265Y-38844154D01*
X111257941Y-38738313D01*
X111257934Y-38738310D01*
X111057884Y-38669072D01*
X111057883Y-38669071D01*
X111057881Y-38669071D01*
X111057879Y-38669070D01*
X111057873Y-38669069D01*
X110848339Y-38638942D01*
X110636890Y-38649014D01*
X110636877Y-38649016D01*
X110431155Y-38698924D01*
X110431149Y-38698926D01*
X110238582Y-38786868D01*
X110238575Y-38786872D01*
X110066145Y-38909659D01*
X110066135Y-38909668D01*
X109920049Y-39062880D01*
X109805598Y-39240969D01*
X109726917Y-39437505D01*
X109686854Y-39645370D01*
X109686854Y-40504025D01*
X109686855Y-40504046D01*
X109701933Y-40661952D01*
X109701936Y-40661967D01*
X109761577Y-40865088D01*
X109857314Y-41050789D01*
X109858583Y-41053250D01*
X109874126Y-41073014D01*
X109989448Y-41219659D01*
X110149431Y-41358285D01*
X110149442Y-41358293D01*
X110332766Y-41464134D01*
X110332769Y-41464135D01*
X110332772Y-41464137D01*
X110532827Y-41533377D01*
X110742370Y-41563505D01*
X110943420Y-41553927D01*
X110954858Y-41553383D01*
X111023854Y-41570121D01*
X111072847Y-41621503D01*
X111086854Y-41679240D01*
X111086854Y-41725904D01*
X111066852Y-41794025D01*
X111033126Y-41829116D01*
X110999448Y-41852697D01*
X110999440Y-41852704D01*
X110846832Y-42005312D01*
X110846825Y-42005321D01*
X110723031Y-42182117D01*
X110723030Y-42182119D01*
X110631816Y-42377728D01*
X110631814Y-42377733D01*
X110620256Y-42420870D01*
X110583304Y-42481493D01*
X110519443Y-42512514D01*
X110448949Y-42504086D01*
X110409454Y-42477354D01*
X109989266Y-42057166D01*
X109522818Y-41590718D01*
X109520234Y-41587974D01*
X109478627Y-41541009D01*
X109478624Y-41541007D01*
X109478625Y-41541007D01*
X109427009Y-41505378D01*
X109423944Y-41503123D01*
X109405500Y-41488673D01*
X109374580Y-41464449D01*
X109373887Y-41464137D01*
X109365273Y-41460259D01*
X109345423Y-41449064D01*
X109337029Y-41443270D01*
X109307919Y-41432230D01*
X109278397Y-41421033D01*
X109274882Y-41419577D01*
X109217686Y-41393836D01*
X109217684Y-41393835D01*
X109217683Y-41393835D01*
X109207640Y-41391994D01*
X109185690Y-41385874D01*
X109176155Y-41382259D01*
X109176154Y-41382258D01*
X109176152Y-41382258D01*
X109176148Y-41382257D01*
X109123716Y-41375891D01*
X109113891Y-41374697D01*
X109110140Y-41374126D01*
X109069114Y-41366609D01*
X109048448Y-41362822D01*
X109048447Y-41362822D01*
X108985842Y-41366609D01*
X108982039Y-41366724D01*
X107128014Y-41366724D01*
X107059893Y-41346722D01*
X107038919Y-41329819D01*
X106810827Y-41101727D01*
X106776801Y-41039415D01*
X106781866Y-40968600D01*
X106824413Y-40911764D01*
X106890933Y-40886953D01*
X106920658Y-40888350D01*
X106981954Y-40898579D01*
X107012784Y-40903724D01*
X107012785Y-40903724D01*
X107237919Y-40903724D01*
X107237923Y-40903724D01*
X107459989Y-40866668D01*
X107672928Y-40793566D01*
X107870930Y-40686413D01*
X108048594Y-40548130D01*
X108201076Y-40382492D01*
X108324214Y-40194015D01*
X108414650Y-39987840D01*
X108469918Y-39769592D01*
X108488510Y-39545224D01*
X108469918Y-39320856D01*
X108437123Y-39191353D01*
X108414651Y-39102611D01*
X108414650Y-39102610D01*
X108414650Y-39102608D01*
X108324214Y-38896433D01*
X108306854Y-38869861D01*
X108201078Y-38707958D01*
X108201074Y-38707953D01*
X108048588Y-38542312D01*
X107886215Y-38415931D01*
X107844744Y-38358306D01*
X107841011Y-38287408D01*
X107876201Y-38225746D01*
X107939141Y-38192898D01*
X107963606Y-38190500D01*
X137523500Y-38190500D01*
X137591621Y-38210502D01*
X137638114Y-38264158D01*
X137649500Y-38316500D01*
X137649500Y-77963500D01*
X137629498Y-78031621D01*
X137575842Y-78078114D01*
X137523500Y-78089500D01*
X86566500Y-78089500D01*
X86498379Y-78069498D01*
X86451886Y-78015842D01*
X86440500Y-77963500D01*
X86440500Y-74732230D01*
X92977041Y-74732230D01*
X92996854Y-75047168D01*
X92996856Y-75047185D01*
X93055989Y-75357166D01*
X93055992Y-75357179D01*
X93153509Y-75657303D01*
X93153513Y-75657312D01*
X93287875Y-75942846D01*
X93287882Y-75942860D01*
X93456966Y-76209295D01*
X93456969Y-76209299D01*
X93546043Y-76316970D01*
X94189994Y-75673018D01*
X94191570Y-75675589D01*
X94355130Y-75867094D01*
X94546635Y-76030654D01*
X94549203Y-76032228D01*
X93902521Y-76678910D01*
X93902521Y-76678912D01*
X94143486Y-76853983D01*
X94420034Y-77006016D01*
X94713460Y-77122192D01*
X94713466Y-77122194D01*
X95019103Y-77200668D01*
X95019130Y-77200673D01*
X95332195Y-77240222D01*
X95332214Y-77240224D01*
X95647786Y-77240224D01*
X95647804Y-77240222D01*
X95960869Y-77200673D01*
X95960896Y-77200668D01*
X96266533Y-77122194D01*
X96266539Y-77122192D01*
X96559965Y-77006016D01*
X96836517Y-76853980D01*
X97077477Y-76678912D01*
X97077477Y-76678910D01*
X96430795Y-76032228D01*
X96433365Y-76030654D01*
X96624870Y-75867094D01*
X96788430Y-75675589D01*
X96790004Y-75673019D01*
X97433955Y-76316970D01*
X97433956Y-76316969D01*
X97523026Y-76209304D01*
X97523029Y-76209300D01*
X97692117Y-75942860D01*
X97692124Y-75942846D01*
X97826486Y-75657312D01*
X97826490Y-75657303D01*
X97924007Y-75357179D01*
X97924010Y-75357166D01*
X97983143Y-75047185D01*
X97983145Y-75047168D01*
X97996808Y-74830003D01*
X129922208Y-74830003D01*
X129941353Y-75122085D01*
X129941356Y-75122103D01*
X129998459Y-75409178D01*
X129998462Y-75409191D01*
X130092548Y-75686358D01*
X130092554Y-75686372D01*
X130222014Y-75948893D01*
X130384640Y-76192280D01*
X130384643Y-76192284D01*
X130409808Y-76220979D01*
X130409810Y-76220979D01*
X131187275Y-75443513D01*
X131238348Y-75525999D01*
X131381931Y-75683501D01*
X131543611Y-75805597D01*
X130769019Y-76580188D01*
X130769019Y-76580190D01*
X130797715Y-76605356D01*
X130797719Y-76605359D01*
X131041106Y-76767985D01*
X131303627Y-76897445D01*
X131303641Y-76897451D01*
X131580808Y-76991537D01*
X131580821Y-76991540D01*
X131867896Y-77048643D01*
X131867914Y-77048646D01*
X132159997Y-77067791D01*
X132160003Y-77067791D01*
X132452085Y-77048646D01*
X132452103Y-77048643D01*
X132739178Y-76991540D01*
X132739191Y-76991537D01*
X133016358Y-76897451D01*
X133016372Y-76897445D01*
X133278893Y-76767985D01*
X133522279Y-76605359D01*
X133550979Y-76580190D01*
X133550979Y-76580189D01*
X132776388Y-75805597D01*
X132938069Y-75683501D01*
X133081652Y-75525999D01*
X133132723Y-75443514D01*
X133910188Y-76220979D01*
X133910190Y-76220979D01*
X133935359Y-76192279D01*
X134097985Y-75948893D01*
X134227445Y-75686372D01*
X134227451Y-75686358D01*
X134321537Y-75409191D01*
X134321540Y-75409178D01*
X134378643Y-75122103D01*
X134378646Y-75122085D01*
X134397791Y-74830003D01*
X134397791Y-74829996D01*
X134378646Y-74537914D01*
X134378643Y-74537896D01*
X134321540Y-74250821D01*
X134321537Y-74250808D01*
X134227451Y-73973641D01*
X134227445Y-73973627D01*
X134097985Y-73711107D01*
X133935359Y-73467719D01*
X133935356Y-73467715D01*
X133910190Y-73439019D01*
X133910188Y-73439019D01*
X133132722Y-74216484D01*
X133081652Y-74134001D01*
X132938069Y-73976499D01*
X132776387Y-73854402D01*
X133550979Y-73079810D01*
X133550979Y-73079808D01*
X133522284Y-73054643D01*
X133522280Y-73054640D01*
X133278893Y-72892014D01*
X133016372Y-72762554D01*
X133016358Y-72762548D01*
X132739191Y-72668462D01*
X132739178Y-72668459D01*
X132452103Y-72611356D01*
X132452085Y-72611353D01*
X132160003Y-72592209D01*
X132159997Y-72592209D01*
X131867914Y-72611353D01*
X131867896Y-72611356D01*
X131580821Y-72668459D01*
X131580808Y-72668462D01*
X131303641Y-72762548D01*
X131303627Y-72762554D01*
X131041107Y-72892014D01*
X130797717Y-73054641D01*
X130769019Y-73079807D01*
X130769019Y-73079810D01*
X131543611Y-73854402D01*
X131381931Y-73976499D01*
X131238348Y-74134001D01*
X131187276Y-74216485D01*
X130409810Y-73439019D01*
X130409807Y-73439019D01*
X130384641Y-73467717D01*
X130222014Y-73711107D01*
X130092554Y-73973627D01*
X130092548Y-73973641D01*
X129998462Y-74250808D01*
X129998459Y-74250821D01*
X129941356Y-74537896D01*
X129941353Y-74537914D01*
X129922208Y-74829996D01*
X129922208Y-74830003D01*
X97996808Y-74830003D01*
X98002959Y-74732230D01*
X98002959Y-74732217D01*
X97983145Y-74417279D01*
X97983143Y-74417262D01*
X97924010Y-74107281D01*
X97924007Y-74107268D01*
X97826490Y-73807144D01*
X97826486Y-73807135D01*
X97692124Y-73521601D01*
X97692117Y-73521587D01*
X97523033Y-73255152D01*
X97523030Y-73255148D01*
X97433955Y-73147476D01*
X96790003Y-73791427D01*
X96788430Y-73788859D01*
X96624870Y-73597354D01*
X96433365Y-73433794D01*
X96430794Y-73432218D01*
X97077477Y-72785536D01*
X97077477Y-72785534D01*
X96836513Y-72610464D01*
X96559965Y-72458431D01*
X96266539Y-72342255D01*
X96266533Y-72342253D01*
X95960896Y-72263779D01*
X95960869Y-72263774D01*
X95647804Y-72224225D01*
X95647786Y-72224224D01*
X95332214Y-72224224D01*
X95332195Y-72224225D01*
X95019130Y-72263774D01*
X95019103Y-72263779D01*
X94713466Y-72342253D01*
X94713460Y-72342255D01*
X94420034Y-72458431D01*
X94143485Y-72610465D01*
X93902521Y-72785534D01*
X93902521Y-72785536D01*
X94549204Y-73432219D01*
X94546635Y-73433794D01*
X94355130Y-73597354D01*
X94191570Y-73788859D01*
X94189995Y-73791428D01*
X93546043Y-73147476D01*
X93546042Y-73147476D01*
X93456971Y-73255145D01*
X93456969Y-73255148D01*
X93287882Y-73521587D01*
X93287875Y-73521601D01*
X93153513Y-73807135D01*
X93153509Y-73807144D01*
X93055992Y-74107268D01*
X93055989Y-74107281D01*
X92996856Y-74417262D01*
X92996854Y-74417279D01*
X92977041Y-74732217D01*
X92977041Y-74732230D01*
X86440500Y-74732230D01*
X86440500Y-38316500D01*
X86460502Y-38248379D01*
X86514158Y-38201886D01*
X86566500Y-38190500D01*
X100686275Y-38190500D01*
X100754396Y-38210502D01*
G37*
G04 #@! TD.AperFunction*
G04 #@! TA.AperFunction,Conductor*
G36*
X95672780Y-49485064D02*
G01*
X95729615Y-49527610D01*
X95746739Y-49550485D01*
X95863792Y-49638111D01*
X95863794Y-49638112D01*
X95863796Y-49638113D01*
X95915034Y-49657224D01*
X96000795Y-49689212D01*
X96000803Y-49689214D01*
X96061350Y-49695723D01*
X96061355Y-49695723D01*
X96061362Y-49695724D01*
X96061368Y-49695724D01*
X96379673Y-49695724D01*
X96447794Y-49715726D01*
X96494287Y-49769382D01*
X96504391Y-49839656D01*
X96474897Y-49904236D01*
X96432923Y-49935919D01*
X96253250Y-50019701D01*
X96065703Y-50151023D01*
X96065697Y-50151028D01*
X95903804Y-50312921D01*
X95903799Y-50312927D01*
X95772477Y-50500474D01*
X95675717Y-50707977D01*
X95675715Y-50707983D01*
X95616457Y-50929137D01*
X95601013Y-51105668D01*
X95596502Y-51157224D01*
X95616457Y-51385311D01*
X95627263Y-51425638D01*
X95675715Y-51606464D01*
X95675717Y-51606470D01*
X95753905Y-51774145D01*
X95772477Y-51813973D01*
X95903802Y-52001524D01*
X96065700Y-52163422D01*
X96253251Y-52294747D01*
X96460757Y-52391508D01*
X96569020Y-52420517D01*
X96629643Y-52457469D01*
X96660664Y-52521330D01*
X96652236Y-52591824D01*
X96607033Y-52646571D01*
X96569021Y-52663930D01*
X96538126Y-52672209D01*
X96460759Y-52692939D01*
X96460753Y-52692941D01*
X96253250Y-52789701D01*
X96065703Y-52921023D01*
X96065697Y-52921028D01*
X95903804Y-53082921D01*
X95903799Y-53082927D01*
X95772477Y-53270474D01*
X95675717Y-53477977D01*
X95675715Y-53477983D01*
X95630086Y-53648274D01*
X95616457Y-53699137D01*
X95596502Y-53927224D01*
X95616457Y-54155311D01*
X95630647Y-54208267D01*
X95675715Y-54376464D01*
X95675717Y-54376470D01*
X95772477Y-54583973D01*
X95895973Y-54760344D01*
X95903802Y-54771524D01*
X96065700Y-54933422D01*
X96253251Y-55064747D01*
X96460757Y-55161508D01*
X96569987Y-55190776D01*
X96630608Y-55227726D01*
X96661629Y-55291587D01*
X96653201Y-55362082D01*
X96607998Y-55416829D01*
X96569986Y-55434188D01*
X96460939Y-55463407D01*
X96460926Y-55463412D01*
X96253500Y-55560137D01*
X96182109Y-55610123D01*
X96782413Y-56210426D01*
X96767685Y-56212544D01*
X96636900Y-56272272D01*
X96528239Y-56366426D01*
X96450507Y-56487380D01*
X96425639Y-56572072D01*
X95822900Y-55969333D01*
X95772913Y-56040724D01*
X95676188Y-56248150D01*
X95676186Y-56248155D01*
X95616951Y-56469221D01*
X95597004Y-56697224D01*
X95616951Y-56925226D01*
X95676186Y-57146292D01*
X95676188Y-57146297D01*
X95772913Y-57353725D01*
X95822899Y-57425112D01*
X96425638Y-56822373D01*
X96450507Y-56907068D01*
X96528239Y-57028022D01*
X96636900Y-57122176D01*
X96767685Y-57181904D01*
X96782412Y-57184021D01*
X96182110Y-57784322D01*
X96182110Y-57784324D01*
X96253498Y-57834310D01*
X96460926Y-57931035D01*
X96460928Y-57931036D01*
X96570950Y-57960517D01*
X96631572Y-57997469D01*
X96662594Y-58061330D01*
X96654165Y-58131824D01*
X96608962Y-58186571D01*
X96570950Y-58203931D01*
X96460928Y-58233411D01*
X96460926Y-58233412D01*
X96253500Y-58330137D01*
X96182109Y-58380123D01*
X96782413Y-58980426D01*
X96767685Y-58982544D01*
X96636900Y-59042272D01*
X96528239Y-59136426D01*
X96450507Y-59257380D01*
X96425639Y-59342072D01*
X95822899Y-58739333D01*
X95772913Y-58810724D01*
X95676188Y-59018150D01*
X95676186Y-59018155D01*
X95616951Y-59239221D01*
X95597004Y-59467223D01*
X95616951Y-59695226D01*
X95676186Y-59916292D01*
X95676188Y-59916297D01*
X95772913Y-60123725D01*
X95822899Y-60195112D01*
X96425638Y-59592372D01*
X96450507Y-59677068D01*
X96528239Y-59798022D01*
X96636900Y-59892176D01*
X96767685Y-59951904D01*
X96782412Y-59954021D01*
X96182110Y-60554322D01*
X96182110Y-60554324D01*
X96253498Y-60604310D01*
X96460926Y-60701035D01*
X96460930Y-60701037D01*
X96569985Y-60730258D01*
X96630608Y-60767210D01*
X96661629Y-60831070D01*
X96653201Y-60901565D01*
X96607998Y-60956312D01*
X96569986Y-60973672D01*
X96460756Y-61002940D01*
X96460753Y-61002941D01*
X96253250Y-61099701D01*
X96065703Y-61231023D01*
X96065697Y-61231028D01*
X95903804Y-61392921D01*
X95903799Y-61392927D01*
X95772477Y-61580474D01*
X95675717Y-61787977D01*
X95675715Y-61787983D01*
X95641785Y-61914611D01*
X95616457Y-62009137D01*
X95596502Y-62237224D01*
X95604504Y-62328681D01*
X95616457Y-62465310D01*
X95675715Y-62686464D01*
X95675717Y-62686470D01*
X95772477Y-62893973D01*
X95902866Y-63080188D01*
X95903802Y-63081524D01*
X96065700Y-63243422D01*
X96253251Y-63374747D01*
X96460757Y-63471508D01*
X96569020Y-63500517D01*
X96629643Y-63537469D01*
X96660664Y-63601330D01*
X96652236Y-63671824D01*
X96607033Y-63726571D01*
X96569021Y-63743930D01*
X96537206Y-63752455D01*
X96460759Y-63772939D01*
X96460753Y-63772941D01*
X96253250Y-63869701D01*
X96065703Y-64001023D01*
X96065697Y-64001028D01*
X95903804Y-64162921D01*
X95903799Y-64162927D01*
X95772477Y-64350474D01*
X95675717Y-64557977D01*
X95675715Y-64557983D01*
X95616457Y-64779137D01*
X95596502Y-65007224D01*
X95616457Y-65235310D01*
X95675715Y-65456464D01*
X95675717Y-65456470D01*
X95772477Y-65663973D01*
X95897279Y-65842209D01*
X95903802Y-65851524D01*
X96065700Y-66013422D01*
X96253251Y-66144747D01*
X96460757Y-66241508D01*
X96569020Y-66270517D01*
X96629643Y-66307469D01*
X96660664Y-66371330D01*
X96652236Y-66441824D01*
X96607033Y-66496571D01*
X96569021Y-66513930D01*
X96537206Y-66522455D01*
X96460759Y-66542939D01*
X96460753Y-66542941D01*
X96253250Y-66639701D01*
X96065703Y-66771023D01*
X96065697Y-66771028D01*
X95903804Y-66932921D01*
X95903799Y-66932927D01*
X95772477Y-67120474D01*
X95675717Y-67327977D01*
X95675715Y-67327983D01*
X95623357Y-67523385D01*
X95616457Y-67549137D01*
X95602523Y-67708410D01*
X95596502Y-67777226D01*
X95599377Y-67810095D01*
X95585386Y-67879699D01*
X95562954Y-67910166D01*
X95523305Y-67949817D01*
X95460993Y-67983844D01*
X95434207Y-67986724D01*
X91703017Y-67986724D01*
X91634896Y-67966722D01*
X91613922Y-67949819D01*
X90845405Y-67181302D01*
X90811379Y-67118990D01*
X90808500Y-67092207D01*
X90808500Y-52607791D01*
X90828502Y-52539670D01*
X90845400Y-52518701D01*
X92696473Y-50667629D01*
X92758785Y-50633603D01*
X92785568Y-50630724D01*
X93025812Y-50630724D01*
X93093933Y-50650726D01*
X93114906Y-50667628D01*
X93225700Y-50778422D01*
X93413251Y-50909747D01*
X93620757Y-51006508D01*
X93729020Y-51035517D01*
X93789643Y-51072469D01*
X93820664Y-51136330D01*
X93812236Y-51206824D01*
X93767033Y-51261571D01*
X93729021Y-51278930D01*
X93697206Y-51287455D01*
X93620759Y-51307939D01*
X93620753Y-51307941D01*
X93413250Y-51404701D01*
X93225703Y-51536023D01*
X93225697Y-51536028D01*
X93063804Y-51697921D01*
X93063799Y-51697927D01*
X92932477Y-51885474D01*
X92835717Y-52092977D01*
X92835715Y-52092983D01*
X92788260Y-52270089D01*
X92776457Y-52314137D01*
X92756502Y-52542224D01*
X92776457Y-52770311D01*
X92792749Y-52831112D01*
X92835715Y-52991464D01*
X92835717Y-52991470D01*
X92932477Y-53198973D01*
X93029821Y-53337995D01*
X93063802Y-53386524D01*
X93225700Y-53548422D01*
X93413251Y-53679747D01*
X93620757Y-53776508D01*
X93729020Y-53805517D01*
X93789643Y-53842469D01*
X93820664Y-53906330D01*
X93812236Y-53976824D01*
X93767033Y-54031571D01*
X93729021Y-54048930D01*
X93700775Y-54056499D01*
X93620759Y-54077939D01*
X93620753Y-54077941D01*
X93413250Y-54174701D01*
X93225703Y-54306023D01*
X93225697Y-54306028D01*
X93063804Y-54467921D01*
X93063799Y-54467927D01*
X92932477Y-54655474D01*
X92835717Y-54862977D01*
X92835715Y-54862983D01*
X92790425Y-55032007D01*
X92776457Y-55084137D01*
X92756502Y-55312224D01*
X92776457Y-55540311D01*
X92796116Y-55613677D01*
X92835715Y-55761464D01*
X92835717Y-55761470D01*
X92932477Y-55968973D01*
X93057650Y-56147739D01*
X93063802Y-56156524D01*
X93225700Y-56318422D01*
X93413251Y-56449747D01*
X93620757Y-56546508D01*
X93729020Y-56575517D01*
X93789643Y-56612469D01*
X93820664Y-56676330D01*
X93812236Y-56746824D01*
X93767033Y-56801571D01*
X93729021Y-56818930D01*
X93702746Y-56825971D01*
X93620759Y-56847939D01*
X93620753Y-56847941D01*
X93413250Y-56944701D01*
X93225703Y-57076023D01*
X93225697Y-57076028D01*
X93063804Y-57237921D01*
X93063799Y-57237927D01*
X92932477Y-57425474D01*
X92835717Y-57632977D01*
X92835715Y-57632983D01*
X92812443Y-57719836D01*
X92776457Y-57854137D01*
X92756502Y-58082224D01*
X92776457Y-58310311D01*
X92790356Y-58362181D01*
X92835715Y-58531464D01*
X92835717Y-58531470D01*
X92932477Y-58738973D01*
X93055158Y-58914180D01*
X93063802Y-58926524D01*
X93225700Y-59088422D01*
X93413251Y-59219747D01*
X93620757Y-59316508D01*
X93729020Y-59345517D01*
X93789643Y-59382469D01*
X93820664Y-59446330D01*
X93812236Y-59516824D01*
X93767033Y-59571571D01*
X93729021Y-59588930D01*
X93714401Y-59592848D01*
X93620759Y-59617939D01*
X93620753Y-59617941D01*
X93413250Y-59714701D01*
X93225703Y-59846023D01*
X93225697Y-59846028D01*
X93063804Y-60007921D01*
X93063799Y-60007927D01*
X92932477Y-60195474D01*
X92835717Y-60402977D01*
X92835715Y-60402983D01*
X92807781Y-60507235D01*
X92776457Y-60624137D01*
X92756502Y-60852224D01*
X92776457Y-61080311D01*
X92798440Y-61162353D01*
X92835715Y-61301464D01*
X92835717Y-61301470D01*
X92932477Y-61508973D01*
X93058680Y-61689210D01*
X93063802Y-61696524D01*
X93225700Y-61858422D01*
X93413251Y-61989747D01*
X93620757Y-62086508D01*
X93729021Y-62115517D01*
X93789642Y-62152467D01*
X93820664Y-62216328D01*
X93812236Y-62286822D01*
X93767034Y-62341569D01*
X93729021Y-62358929D01*
X93620767Y-62387936D01*
X93620753Y-62387941D01*
X93413250Y-62484701D01*
X93225703Y-62616023D01*
X93225697Y-62616028D01*
X93063804Y-62777921D01*
X93063799Y-62777927D01*
X92932477Y-62965474D01*
X92835717Y-63172977D01*
X92835715Y-63172983D01*
X92785569Y-63360130D01*
X92776457Y-63394137D01*
X92756502Y-63622224D01*
X92776457Y-63850311D01*
X92810670Y-63977995D01*
X92835715Y-64071464D01*
X92835717Y-64071470D01*
X92905990Y-64222171D01*
X92932477Y-64278973D01*
X93063802Y-64466524D01*
X93225700Y-64628422D01*
X93413251Y-64759747D01*
X93620757Y-64856508D01*
X93729021Y-64885517D01*
X93789642Y-64922467D01*
X93820664Y-64986328D01*
X93812236Y-65056822D01*
X93767034Y-65111569D01*
X93729021Y-65128929D01*
X93620767Y-65157936D01*
X93620753Y-65157941D01*
X93413250Y-65254701D01*
X93225703Y-65386023D01*
X93225697Y-65386028D01*
X93063804Y-65547921D01*
X93063799Y-65547927D01*
X92932477Y-65735474D01*
X92835717Y-65942977D01*
X92835715Y-65942983D01*
X92795760Y-66092096D01*
X92776457Y-66164137D01*
X92756502Y-66392224D01*
X92776457Y-66620311D01*
X92802557Y-66717715D01*
X92835715Y-66841464D01*
X92835717Y-66841470D01*
X92932477Y-67048973D01*
X92981503Y-67118990D01*
X93063802Y-67236524D01*
X93225700Y-67398422D01*
X93413251Y-67529747D01*
X93620757Y-67626508D01*
X93841913Y-67685767D01*
X94070000Y-67705722D01*
X94298087Y-67685767D01*
X94519243Y-67626508D01*
X94726749Y-67529747D01*
X94914300Y-67398422D01*
X95076198Y-67236524D01*
X95207523Y-67048973D01*
X95304284Y-66841467D01*
X95363543Y-66620311D01*
X95383498Y-66392224D01*
X95363543Y-66164137D01*
X95304284Y-65942981D01*
X95207523Y-65735475D01*
X95076198Y-65547924D01*
X94914300Y-65386026D01*
X94848335Y-65339837D01*
X94726749Y-65254701D01*
X94519246Y-65157941D01*
X94519240Y-65157939D01*
X94486930Y-65149281D01*
X94410977Y-65128930D01*
X94350356Y-65091979D01*
X94319335Y-65028119D01*
X94327763Y-64957624D01*
X94372966Y-64902877D01*
X94410976Y-64885518D01*
X94519243Y-64856508D01*
X94726749Y-64759747D01*
X94914300Y-64628422D01*
X95076198Y-64466524D01*
X95207523Y-64278973D01*
X95304284Y-64071467D01*
X95363543Y-63850311D01*
X95383498Y-63622224D01*
X95363543Y-63394137D01*
X95304284Y-63172981D01*
X95207523Y-62965475D01*
X95076198Y-62777924D01*
X94914300Y-62616026D01*
X94865123Y-62581592D01*
X94726749Y-62484701D01*
X94519246Y-62387941D01*
X94519240Y-62387939D01*
X94461639Y-62372505D01*
X94410977Y-62358930D01*
X94350356Y-62321979D01*
X94319335Y-62258119D01*
X94327763Y-62187624D01*
X94372966Y-62132877D01*
X94410976Y-62115518D01*
X94519243Y-62086508D01*
X94726749Y-61989747D01*
X94914300Y-61858422D01*
X95076198Y-61696524D01*
X95207523Y-61508973D01*
X95304284Y-61301467D01*
X95363543Y-61080311D01*
X95383498Y-60852224D01*
X95363543Y-60624137D01*
X95304284Y-60402981D01*
X95207523Y-60195475D01*
X95076198Y-60007924D01*
X94914300Y-59846026D01*
X94899294Y-59835519D01*
X94726749Y-59714701D01*
X94519246Y-59617941D01*
X94519240Y-59617939D01*
X94461639Y-59602505D01*
X94410977Y-59588930D01*
X94350356Y-59551979D01*
X94319335Y-59488119D01*
X94327763Y-59417624D01*
X94372966Y-59362877D01*
X94410976Y-59345518D01*
X94519243Y-59316508D01*
X94726749Y-59219747D01*
X94914300Y-59088422D01*
X95076198Y-58926524D01*
X95207523Y-58738973D01*
X95304284Y-58531467D01*
X95363543Y-58310311D01*
X95383498Y-58082224D01*
X95363543Y-57854137D01*
X95304284Y-57632981D01*
X95207523Y-57425475D01*
X95076198Y-57237924D01*
X94914300Y-57076026D01*
X94907893Y-57071540D01*
X94726749Y-56944701D01*
X94519246Y-56847941D01*
X94519240Y-56847939D01*
X94475925Y-56836333D01*
X94410977Y-56818930D01*
X94350356Y-56781979D01*
X94319335Y-56718119D01*
X94327763Y-56647624D01*
X94372966Y-56592877D01*
X94410976Y-56575518D01*
X94519243Y-56546508D01*
X94726749Y-56449747D01*
X94914300Y-56318422D01*
X95076198Y-56156524D01*
X95207523Y-55968973D01*
X95304284Y-55761467D01*
X95363543Y-55540311D01*
X95383498Y-55312224D01*
X95363543Y-55084137D01*
X95304284Y-54862981D01*
X95207523Y-54655475D01*
X95076198Y-54467924D01*
X94914300Y-54306026D01*
X94898003Y-54294615D01*
X94726749Y-54174701D01*
X94519246Y-54077941D01*
X94519240Y-54077939D01*
X94478254Y-54066957D01*
X94410977Y-54048930D01*
X94350356Y-54011979D01*
X94319335Y-53948119D01*
X94327763Y-53877624D01*
X94372966Y-53822877D01*
X94410976Y-53805518D01*
X94519243Y-53776508D01*
X94726749Y-53679747D01*
X94914300Y-53548422D01*
X95076198Y-53386524D01*
X95207523Y-53198973D01*
X95304284Y-52991467D01*
X95363543Y-52770311D01*
X95383498Y-52542224D01*
X95363543Y-52314137D01*
X95304284Y-52092981D01*
X95207523Y-51885475D01*
X95076198Y-51697924D01*
X94914300Y-51536026D01*
X94889587Y-51518722D01*
X94726749Y-51404701D01*
X94519246Y-51307941D01*
X94519240Y-51307939D01*
X94486930Y-51299281D01*
X94410977Y-51278930D01*
X94350356Y-51241979D01*
X94319335Y-51178119D01*
X94327763Y-51107624D01*
X94372966Y-51052877D01*
X94410976Y-51035518D01*
X94519243Y-51006508D01*
X94726749Y-50909747D01*
X94914300Y-50778422D01*
X95076198Y-50616524D01*
X95207523Y-50428973D01*
X95304284Y-50221467D01*
X95363543Y-50000311D01*
X95383498Y-49772224D01*
X95380409Y-49736922D01*
X95394396Y-49667318D01*
X95416831Y-49636847D01*
X95539655Y-49514023D01*
X95601965Y-49479999D01*
X95672780Y-49485064D01*
G37*
G04 #@! TD.AperFunction*
M02*
